<?xml version="1.0" encoding="utf-8"?><svg version="1.1" id="Layer_1" xmlns="http://www.w3.org/2000/svg" xmlns:xlink="http://www.w3.org/1999/xlink" x="0px" y="0px" viewBox="0 0 111.813 122.879" enable-background="new 0 0 111.813 122.879" xml:space="preserve"><g><path fill-rule="evenodd" clip-rule="evenodd" fill="#D8453E" d="M55.712,0c20.849,13.21,39.679,19.47,55.849,17.99 c2.82,57.1-18.26,90.82-55.629,104.889c-36.09-13.17-57.43-45.439-55.85-105.759C19.062,18.12,37.672,14.01,55.712,0L55.712,0 L55.712,0L55.712,0L55.712,0z M103.038,31.084L33.422,99.949c6.423,5.809,13.974,10.188,22.5,13.301 C86.031,101.908,103.61,75.434,103.038,31.084L103.038,31.084z M27.821,94.178l69.984-69.23 C85.349,24.67,71.198,19.414,55.742,9.61l0,0l0,0l0,0C40.533,21.44,24.832,24.9,8.822,24.05 C7.979,56.287,14.899,79.02,27.821,94.178L27.821,94.178z"/><path fill-rule="evenodd" clip-rule="evenodd" fill="#262626" d="M42.944,32.951c-1.202-1.774-3.611-2.236-5.384-1.041 c-1.774,1.202-2.236,3.61-1.041,5.384c0.793,1.167,2.109,1.768,3.422,1.699l3.047,4.068c-1.939,1.408-3.622,3.123-4.986,5.066 c-0.104,0.149-0.205,0.291-0.303,0.439l-5.94-1.941c-0.057-0.732-0.269-1.467-0.649-2.148c-1.414-2.542-4.626-3.453-7.169-2.039 c-2.543,1.413-3.452,4.625-2.04,7.167c1.414,2.543,4.626,3.453,7.169,2.039c0.535-0.295,0.999-0.674,1.384-1.109l5.279,1.723 c-1.126,2.721-1.709,5.703-1.622,8.776l-3.941,0.75c-0.834-0.863-2.063-1.331-3.341-1.143c-2.12,0.307-3.587,2.274-3.28,4.393 c0.306,2.119,2.273,3.586,4.393,3.279c1.459-0.213,2.61-1.205,3.084-2.5l3.596-0.684c0.372,1.682,0.935,3.27,1.659,4.758 l-8.865,7.016c-0.653-0.135-1.347-0.096-2.02,0.129c-2.029,0.693-3.109,2.896-2.416,4.924c0.694,2.027,2.897,3.109,4.924,2.416 c1.911-0.656,2.985-2.656,2.518-4.58l8.042-6.361c0.2,0.264,0.407,0.523,0.619,0.777c11.107-10.373,20.455-19.774,30.602-29.95 c-0.307-0.267-0.62-0.524-0.94-0.773l5.705-8.541c0.572,0.108,1.173,0.115,1.78,0.021c2.877-0.456,4.832-3.156,4.375-6.034 c-0.455-2.872-3.156-4.833-6.033-4.376c-2.878,0.458-4.832,3.158-4.376,6.035c0.122,0.769,0.406,1.473,0.81,2.078l-5.741,8.615 c-2.32-1.173-4.869-1.932-7.522-2.196l-0.294-5.3c1.215-0.759,1.96-2.166,1.8-3.688c-0.218-2.128-2.128-3.677-4.257-3.458 c-2.128,0.22-3.677,2.129-3.457,4.258c0.125,1.224,0.811,2.256,1.772,2.867l0.294,5.304c-0.572,0.054-1.142,0.129-1.718,0.23 c-1.877,0.329-3.655,0.897-5.309,1.656l-3.263-4.352C43.796,35.442,43.704,34.069,42.944,32.951L42.944,32.951L42.944,32.951z M49.698,50.518c2.708-0.475,5.286,1.336,5.761,4.044c0.475,2.708-1.335,5.288-4.042,5.762c-2.708,0.475-5.288-1.336-5.762-4.044 C45.174,53.574,46.99,50.993,49.698,50.518L49.698,50.518L49.698,50.518z M56.447,85.395l0.13,2.586 c-1.836,1.35-2.257,3.924-0.938,5.795c1.335,1.885,3.948,2.336,5.833,0.996c1.887-1.334,2.338-3.947,0.997-5.834 c-0.466-0.66-1.085-1.139-1.776-1.434l-0.302-5.986C59.098,82.791,57.784,84.082,56.447,85.395L56.447,85.395z M60.526,81.385 c3.38-0.791,6.403-2.361,8.914-4.477l2.071,2.061l2.876,2.857c-0.182,0.459-0.298,0.947-0.344,1.461 c-0.258,2.9,1.883,5.459,4.783,5.711c2.9,0.258,5.459-1.883,5.712-4.783c0.257-2.902-1.884-5.459-4.784-5.711 c-0.881-0.078-1.728,0.064-2.492,0.383l-2.86-2.836l-2.099-2.078c0.303-0.375,0.593-0.758,0.868-1.15 c1.159-1.646,2.083-3.457,2.745-5.381l9.96,1.676c0.697,1.605,2.424,2.586,4.222,2.271c2.109-0.369,3.521-2.381,3.15-4.49 c-0.369-2.107-2.38-3.52-4.489-3.15c-0.915,0.16-1.699,0.633-2.263,1.281l-8.029-1.352C72.497,69.551,66.734,75.271,60.526,81.385 L60.526,81.385z"/></g></svg>