<svg id="Layer_1" data-name="Layer 1" xmlns="http://www.w3.org/2000/svg" viewBox="0 0 470 321.48"><defs><style>.cls-1{fill:#3573b8;}</style></defs><path class="cls-1" d="M305.46,320.89a16.27,16.27,0,0,0,2.61-1,12.65,12.65,0,0,0,5.64-4.7,7,7,0,0,0,.7-1.4l-5.7-3.39Z" transform="translate(-15 -20.26)"/><path class="cls-1" d="M316.41,310,313,323.26a16.75,16.75,0,0,0,3.84-.64l3.25-10.45Z" transform="translate(-15 -20.26)"/><path class="cls-1" d="M376.32,111.49l-4-5.57-.78.09,4.75,5.76Z" transform="translate(-15 -20.26)"/><path class="cls-1" d="M433.29,134.6l6,5.53.77-.1a16.27,16.27,0,0,0-1.44-4.87,12.67,12.67,0,0,0-4.7-5.63c-.15-.1-.32-.15-.48-.24l-.58,4.71Z" transform="translate(-15 -20.26)"/><path class="cls-1" d="M424.53,102l2.53,6.25.42.75c.09-.11.19-.21.28-.34l.62-.72a1.69,1.69,0,0,1,.21-.45,7.5,7.5,0,0,0,.62-3,15.6,15.6,0,0,0,0-2.15l-.9-.83Z" transform="translate(-15 -20.26)"/><path class="cls-1" d="M367.46,99.66l4,5.57.58-4.71A8,8,0,0,0,367.46,99.66Z" transform="translate(-15 -20.26)"/><polygon class="cls-1" points="463.88 107.01 466.27 112.91 470 112.45 464.01 106.93 463.57 106.32 463.54 106.6 463.88 107.01"/><path class="cls-1" d="M456.33,118.05c0-.31-.08-.62-.12-.93l-.78.1Z" transform="translate(-15 -20.26)"/><path class="cls-1" d="M32.46,242.54l-4.55,1a14.1,14.1,0,0,0,2.27,3.43Z" transform="translate(-15 -20.26)"/><path class="cls-1" d="M325.54,54.57l1.71-4.35a9.91,9.91,0,0,0-1.74-.49l-1.42,4.37Z" transform="translate(-15 -20.26)"/><path class="cls-1" d="M335.73,84.81l-.65,2,.55.28-.21.45,10.84-.36a16.18,16.18,0,0,0-2.79-3.32,14,14,0,0,0-4.57-2.94l-1.71,4.35Z" transform="translate(-15 -20.26)"/><polygon class="cls-1" points="302.44 44.5 302.64 44.05 302.09 43.77 301.85 44.52 302.44 44.5"/><path class="cls-1" d="M359.7,291l.15-.18-.17-.08Z" transform="translate(-15 -20.26)"/><path class="cls-1" d="M358.05,291l.17.08a15.77,15.77,0,0,0,1.37-1.76l-1.69-.9Z" transform="translate(-15 -20.26)"/><path class="cls-1" d="M121.69,91l-.09-.12-.28-.42-.39.78.06,0C121.23,91.16,121.45,91.05,121.69,91Z" transform="translate(-15 -20.26)"/><polygon class="cls-1" points="96.17 32.29 90.58 31.25 94.68 33.89 93.66 39.71 94.4 39.68 96.17 32.29"/><polygon class="cls-1" points="92.75 44.59 93.26 42.47 92.52 42.51 92.18 44.41 92.75 44.59"/><polygon class="cls-1" points="92.51 42.53 91.53 42.57 90.88 44.01 92.17 44.42 92.51 42.53"/><polygon class="cls-1" points="97.68 39.7 97 32.64 96.1 32.47 94.33 39.85 97.68 39.7"/><path class="cls-1" d="M112.55,51.55l.67,7.06,5.63-.26c-.12-1.61-.25-3.15-.46-4.56-.06-.38-.14-.7-.21-1.06L116,49.49l-.85-1.74-2.63,0-.88,3.66Z" transform="translate(-15 -20.26)"/><path class="cls-1" d="M118.19,77.25a48.44,48.44,0,0,1-1.13-6.54c-.25-2.32-.39-4.55-.54-6.65l-5.62.27.68,7.2Z" transform="translate(-15 -20.26)"/><path class="cls-1" d="M106.44,68.1l-.57-.18L104.27,77l11.42,8.27,5.87,4.31.39-.79-.68-1.06c-.31-.5-.65-1-.92-1.52l-.7-1.5a32.89,32.89,0,0,1-2.06-6L111,73l-.69-7.2L107,66Z" transform="translate(-15 -20.26)"/><path class="cls-1" d="M96.41,67.93c.25.29.47.58.75.87A52.26,52.26,0,0,0,102,73l3.36-7.41L93.21,61.68a2.3,2.3,0,0,1,0,.26,10.55,10.55,0,0,0,.6,2l3.62.67Z" transform="translate(-15 -20.26)"/><path class="cls-1" d="M107.43,60.58l1,0,1-5.83-4.1-2.63-8.71-1.62a8.64,8.64,0,0,0-1,1.34,8.39,8.39,0,0,0-1,6.28L106.78,62Z" transform="translate(-15 -20.26)"/><path class="cls-1" d="M102.61,45.51h-.31l-3.69.72c-.13.14-.3.27-.42.42l8.71,1.62Z" transform="translate(-15 -20.26)"/><polygon class="cls-1" points="97.72 28.55 98.6 24.89 87.85 24.76 92.14 27.51 97.72 28.55"/><path class="cls-1" d="M118,40.41a8.16,8.16,0,0,0-1.34-1.27l-.32-.27,1.39,2.83H119A8.07,8.07,0,0,0,118,40.41Z" transform="translate(-15 -20.26)"/><path class="cls-1" d="M97.52,64.37l-3.61-.67a14.71,14.71,0,0,0,2.57,4Z" transform="translate(-15 -20.26)"/><path class="cls-1" d="M119.09,50.51a14.36,14.36,0,0,0-1.75-5l-1.28,0,.85,1.74Z" transform="translate(-15 -20.26)"/><path class="cls-1" d="M113.42,87.64A16.14,16.14,0,0,1,115,91a8.49,8.49,0,0,1,.47,1.51c1.92-.85,3.89-1.62,5.87-2.35l0-.08-5.87-4.31-11.42-8.27,1.6-9.12-1.29-.42L101,75.36l3.46,2.77C107.56,80.67,111,83.53,113.42,87.64Z" transform="translate(-15 -20.26)"/><path class="cls-1" d="M115.24,41.26l.76-3.18a2.09,2.09,0,0,1-.37-.17,7.48,7.48,0,0,0-3-.63,16.43,16.43,0,0,0-7.94,1.62,14.69,14.69,0,0,0-2,1.1l1.76,1.13Z" transform="translate(-15 -20.26)"/><path class="cls-1" d="M117.82,41.39l-1.39-2.83-.4-.34-.08,0-.76,3.18Z" transform="translate(-15 -20.26)"/><path class="cls-1" d="M102.65,44.6H103l-1.76-1.13A13.25,13.25,0,0,0,99,45.31Z" transform="translate(-15 -20.26)"/><path class="cls-1" d="M120.91,91.26l0,.08.1,0Z" transform="translate(-15 -20.26)"/><path class="cls-1" d="M299.52,320.08c.05.39.12.8.16,1.18.42,3.87.52,7.51.93,10.62l2.13.38,1.23-10-3.66-.68Z" transform="translate(-15 -20.26)"/><path class="cls-1" d="M272.45,324a19.46,19.46,0,0,1-1.23-2.46c-1.94,1-3.9,1.92-5.91,2.77.13.22.27.43.39.64l.7,1.5a38.49,38.49,0,0,1,3,11.35l.79,1.53,3.65.68,1-8.15,7.2,2.22-.71-.57C278.31,331,274.89,328.11,272.45,324Z" transform="translate(-15 -20.26)"/><path class="cls-1" d="M301.55,330a21.94,21.94,0,0,0,.72,3.15l1-.5.36-2.86-2.13-.38C301.51,329.57,301.52,329.78,301.55,330Z" transform="translate(-15 -20.26)"/><path class="cls-1" d="M270.44,317.3l-7.19-2.22-1,8.15,6,1.12.09-.7,3.15,1.3,6.42,1.2-.4,1.3,4,1.65a15.5,15.5,0,0,0-3.48-5.36A84.49,84.49,0,0,0,270.44,317.3Z" transform="translate(-15 -20.26)"/><path class="cls-1" d="M289.77,316.89a10.2,10.2,0,0,0-.43-1.5l-4-1.65-1.52,4.91,5.7,3.38A9.69,9.69,0,0,0,289.77,316.89Z" transform="translate(-15 -20.26)"/><path class="cls-1" d="M305.54,327.86a10.31,10.31,0,0,0,2,3.82l3.26-6.5-3.9-.69-.35,2.87Z" transform="translate(-15 -20.26)"/><path class="cls-1" d="M313.21,316.21l1.52-4.91-6-2.49-3.23-.61L303,327.12a7.09,7.09,0,0,0,1.6.19,14.87,14.87,0,0,0,1.49,0L309.55,314Z" transform="translate(-15 -20.26)"/><path class="cls-1" d="M310.32,321.46l3.9.69-3.26,6.5c.1.11.17.24.27.35a8.25,8.25,0,0,0,1.35,1.27l.72.62a1.69,1.69,0,0,1,.45.21,8,8,0,0,0,1.37.43l2.45-18.92-6-1.11Z" transform="translate(-15 -20.26)"/><polygon class="cls-1" points="266.25 301.48 269.49 302.08 266.35 300.77 266.25 301.48"/><polygon class="cls-1" points="260.18 298.83 266.2 301.33 266.61 300.03 260.18 298.83"/><path class="cls-1" d="M400.4,163.75l-1.22,1c2-.2,4-.33,5.81-.46l2.13-5.19Z" transform="translate(-15 -20.26)"/><path class="cls-1" d="M311.27,126.19c.13.26.23.55.36.81l1.24-1.11C312.33,126,311.8,126.11,311.27,126.19Z" transform="translate(-15 -20.26)"/><path class="cls-1" d="M393.54,104.13c1.45-.11,2.82-.23,4.11-.4L397.12,98l-1.45,1Z" transform="translate(-15 -20.26)"/><path class="cls-1" d="M321.68,128.42a8.73,8.73,0,0,1-1.37.44L319.08,130c.72,1.49,1.37,3,2,4.55l2.48.54.88-.56c.5-.3,1-.64,1.51-.92l1.51-.7.34-.14,0-5.2-1.45-1.63c-.44.31-.84.64-1.32.92A15.43,15.43,0,0,1,321.68,128.42Z" transform="translate(-15 -20.26)"/><polygon class="cls-1" points="366.33 79.88 366.14 77.82 364.88 80.88 366.33 79.88"/><path class="cls-1" d="M398.31,92.91l-2.52,1.74.53,5.79.56-.07c3.28-.51,5.63-1.33,7.32-3a10.41,10.41,0,0,0,1-1l-.42-.75-2.53-6.25-3.55.44Z" transform="translate(-15 -20.26)"/><path class="cls-1" d="M349.48,163.12a40.5,40.5,0,0,1,12.19-3.05l.73-.07,1.22-1,6.72-4.66,1.26-3.06-.57-6.23-3.95-7.87A17.39,17.39,0,0,0,363.2,140a97.73,97.73,0,0,0-7,8.26,41.11,41.11,0,0,1-8.2,8l1.46,1.62Z" transform="translate(-15 -20.26)"/><polygon class="cls-1" points="418.29 81.07 417.46 87.82 421.02 87.38 418.63 81.48 418.29 81.07"/><path class="cls-1" d="M380.21,109.25l4,7.87.57,6.23,1-2.51,2.05-.25.83-6.75-4.75-5.76c-.24,0-.45,0-.7.08A11,11,0,0,0,380.21,109.25Z" transform="translate(-15 -20.26)"/><polygon class="cls-1" points="360.59 66.28 360.97 63.21 358.92 63.46 357.89 65.97 358.07 68.02 360.59 66.28"/><path class="cls-1" d="M327.23,137.85l.61-.39-2.48-.55c.26.62.57,1.22.82,1.85Z" transform="translate(-15 -20.26)"/><polygon class="cls-1" points="40.1 213.11 40.55 213.2 40.44 211.9 40.1 213.11"/><path class="cls-1" d="M45,226.1l.43.07v-.11Z" transform="translate(-15 -20.26)"/><path class="cls-1" d="M44.91,238.09l.51-11.92L45,226.1l-1.19.09-4.26,4.75,3.81,5Z" transform="translate(-15 -20.26)"/><path class="cls-1" d="M47.42,225.88l-2,.18v.11l8.31,1.42-2.49-2.27C50,225.55,48.67,225.74,47.42,225.88Z" transform="translate(-15 -20.26)"/><path class="cls-1" d="M43.35,236l-3.81-5-2.87,3.19-7.88,1-1,5.1,16.52,7,.19-.16.38-9Z" transform="translate(-15 -20.26)"/><path class="cls-1" d="M36.43,226.85l3.11,4.09,4.26-4.75C41.14,226.39,38.64,226.53,36.43,226.85Z" transform="translate(-15 -20.26)"/><polygon class="cls-1" points="38.73 207.33 40.18 208.67 40.44 211.9 41.6 207.82 38.73 207.33"/><path class="cls-1" d="M55.55,233.46l.08,1c.26-.29.53-.57.8-.86Z" transform="translate(-15 -20.26)"/><path class="cls-1" d="M26.56,239.68a15.64,15.64,0,0,0,.85,2.67l.41-2.14Z" transform="translate(-15 -20.26)"/><path class="cls-1" d="M61.69,229.23l-4.61-1.43.46-4.16a38.59,38.59,0,0,1-6.3,1.68l2.49,2.27,2.87.49-1.16,4.08.11,1.3.88.17A28.94,28.94,0,0,1,61.69,229.23Z" transform="translate(-15 -20.26)"/><path class="cls-1" d="M50.79,232.52l-2,10.23c1.32-1.58,2.67-3.31,4.13-5.1.48-.58,1-1.18,1.5-1.77l.71-2.51Z" transform="translate(-15 -20.26)"/><path class="cls-1" d="M28.79,235.11l-2.62.32a15.38,15.38,0,0,0,.39,4.25l1.26.53Z" transform="translate(-15 -20.26)"/><path class="cls-1" d="M30,229a8,8,0,0,0-1.07.83,7.4,7.4,0,0,0-1.27,1.34l-.62.73a1.85,1.85,0,0,1-.21.45,7.46,7.46,0,0,0-.62,3,.34.34,0,0,0,0,.1l2.62-.32Z" transform="translate(-15 -20.26)"/><path class="cls-1" d="M36.67,234.13l2.87-3.19-3.11-4.09-.22,0A15,15,0,0,0,30,229l-1.17,6.1Z" transform="translate(-15 -20.26)"/><path class="cls-1" d="M44.53,247.08c.45-.36.9-.73,1.35-1.16A38.39,38.39,0,0,0,48.54,243l-3.63-4.92Z" transform="translate(-15 -20.26)"/><path class="cls-1" d="M39,249.83a12.3,12.3,0,0,0,5.32-2.59l-16.52-7-.41,2.14c.12.31.23.62.37.91,0,.09.09.16.13.24l4.55-1-2.28,4.39a10.26,10.26,0,0,0,2.19,1.89l1.07.56A9.22,9.22,0,0,0,39,249.83Z" transform="translate(-15 -20.26)"/><path class="cls-1" d="M63.5,228.13q-1.34-2.92-2.48-5.94l-1.08.5c-.78.36-1.59.66-2.4.95l-.46,4.16,4.61,1.43c.24-.16.45-.34.71-.49S63.13,228.33,63.5,228.13Z" transform="translate(-15 -20.26)"/><path class="cls-1" d="M55.1,233.37l.34-1.21-.26-3.23-1.45-1.34-8.31-1.42-.51,11.92L48.54,243l.22-.26,2-10.23Z" transform="translate(-15 -20.26)"/><path class="cls-1" d="M55.55,233.46l-.45-.09-.71,2.51c.4-.47.82-.93,1.24-1.39Z" transform="translate(-15 -20.26)"/><path class="cls-1" d="M32.48,248.9a7.81,7.81,0,0,0,1,.48l-1.07-.56Z" transform="translate(-15 -20.26)"/><path class="cls-1" d="M246.38,38.48a9.47,9.47,0,0,0,1.06-4c0-.19,0-.39,0-.58l-3.74-.64L242,25.9l-7.14,3.84-.54.77,3.62,6.2Z" transform="translate(-15 -20.26)"/><path class="cls-1" d="M244.43,42.05l.17-.21,0-.18h.1c.44-.53.87-1.06,1.25-1.58a21.14,21.14,0,0,0,2-3.3L239.59,35,236,28.81l-4.55,6.55Z" transform="translate(-15 -20.26)"/><path class="cls-1" d="M224.05,35.46l-3.58-.74c.05.66.11,1.33.18,2L223,37Z" transform="translate(-15 -20.26)"/><path class="cls-1" d="M238.71,48.84c.61-.85,1.23-1.67,1.87-2.46l-5.67-9.91-2.39-.5.29,1.75Z" transform="translate(-15 -20.26)"/><path class="cls-1" d="M230.7,60.44c.13-.57.26-1.17.42-1.72l.57-1.56a36.36,36.36,0,0,1,4.62-8.51l-5.9-11.12-.29-1.75L229,35.54l-1,1.51-2.35-.23c.17,1.53.35,3.12.52,4.77.37,3.95.77,8.39-.42,13a15.81,15.81,0,0,1-1.23,3.48,11.78,11.78,0,0,1-1.61,2.66c1.7.63,3.37,1.32,5,2l2.41.21.06-.84Z" transform="translate(-15 -20.26)"/><path class="cls-1" d="M227.83,67.86l0-.83-2.41-.21C226.26,67.16,227.05,67.5,227.83,67.86Z" transform="translate(-15 -20.26)"/><polygon class="cls-1" points="210.09 15.16 209.19 16.46 210.35 16.7 210.09 15.16"/><path class="cls-1" d="M219.1,27.22a.3.3,0,0,0,0,.08l.91.55L221.3,36l1.47.75,4.55-6.54-2.91-5-1.48-1.46A9.74,9.74,0,0,0,219.1,27.22Z" transform="translate(-15 -20.26)"/><path class="cls-1" d="M224.27,25.85a6.41,6.41,0,0,0-1.44.48l1.47,1.46,2.91,5,.54-.77,7.14-3.84v-.05a15,15,0,0,0-3.3-1.61A12.62,12.62,0,0,0,224.27,25.85Z" transform="translate(-15 -20.26)"/><path class="cls-1" d="M220,25.89l-.91-.55a13.24,13.24,0,0,0-2,6.52L221.37,34Z" transform="translate(-15 -20.26)"/><path class="cls-1" d="M263.12,33.64l0,.17.12-.16Z" transform="translate(-15 -20.26)"/><path class="cls-1" d="M237.84,28.64l-.05,0v.05Z" transform="translate(-15 -20.26)"/><path class="cls-1" d="M219.36,35.51l3.59.74.9-1.29-.38-2.32-4.21-2.16c0,.34-.07.67-.08,1C219.16,32.76,219.25,34.11,219.36,35.51Z" transform="translate(-15 -20.26)"/><path class="cls-1" d="M245.85,33.26l3.74.64a6.85,6.85,0,0,0-.07-1.26l-.08-.95a1.74,1.74,0,0,1-.16-.47,7.65,7.65,0,0,0-1.66-2.54,16.05,16.05,0,0,0-3.41-2.83l0,0Z" transform="translate(-15 -20.26)"/><path class="cls-1" d="M234.18,36l2.39.5,5.67,9.92.11-.15c2-2.43,4-4.62,5.67-6.68l-13-6.69-1.08,1.56Z" transform="translate(-15 -20.26)"/><polygon class="cls-1" points="210.58 14.24 209.12 13.49 209.5 15.8 210.58 14.24"/><path class="cls-1" d="M118.56,286.34c.08-.36.11-.72.2-1.09s.21-.74.32-1.1c-.91-.32-1.8-.7-2.7-1l0,1Z" transform="translate(-15 -20.26)"/><path class="cls-1" d="M119.49,288.23l-6.89-2.61a43.78,43.78,0,0,1-4.89,7.45l5.2-2.34,6.47,2.63A34.08,34.08,0,0,1,119.49,288.23Z" transform="translate(-15 -20.26)"/><path class="cls-1" d="M119.09,286l-2.21-2.23,0-1c-1.1-.41-2.23-.81-3.31-1.27l-.32.87a30.77,30.77,0,0,1-1.49,3.37l6.89,2.61C118.75,287.53,118.93,286.74,119.09,286Z" transform="translate(-15 -20.26)"/><path class="cls-1" d="M111.87,293.63c-.08.09-.15.2-.23.29-.94,1.17-1.88,2.26-2.8,3.33l7.2,5.51.21,11.56,3,1.62.36,3.87a10.31,10.31,0,0,0,3-3,13.86,13.86,0,0,0,2.09-7.63,97,97,0,0,0-.89-10.79c-.13-1.42-.24-2.93-.31-4.46l-6.47-2.63Z" transform="translate(-15 -20.26)"/><path class="cls-1" d="M124.26,314.59l.06,3.36.61,3.15.44-.07a6.9,6.9,0,0,0,2.23-.95l-.36-3.87Z" transform="translate(-15 -20.26)"/><path class="cls-1" d="M106.57,308.38l-1.88-1a4.34,4.34,0,0,0-.07.52,7.73,7.73,0,0,0,0,1.85l.07.94a1.78,1.78,0,0,1,.17.47,7.65,7.65,0,0,0,1.66,2.54,16.43,16.43,0,0,0,6.76,4.47,14,14,0,0,0,2.26.64l.24-.81Z" transform="translate(-15 -20.26)"/><path class="cls-1" d="M118.46,319.37l-.62-3.15-.06-3.36-10.27-5.57.8-9.11c-.85,1-1.66,2-2.36,2.91-1.81,2.48-2.83,4.59-3,6.75l1.88,1.05,9.26,9.57-.23.82A11.81,11.81,0,0,0,118.46,319.37Z" transform="translate(-15 -20.26)"/><path class="cls-1" d="M116.19,313.23,116,301.67l-7.2-5.52-2.06,2.39-.79,9.11Z" transform="translate(-15 -20.26)"/><path class="cls-1" d="M312.85,236.82l-.06,0-.1.27h0Z" transform="translate(-15 -20.26)"/><polygon class="cls-1" points="297.02 217.42 297.16 216.89 296.96 216.84 296.84 217.08 297.02 217.42"/><path class="cls-1" d="M308,245.55,312,246l4.5-6.67a28.45,28.45,0,0,1-8.2-.74,15.43,15.43,0,0,1-3.49-1.24,7.42,7.42,0,0,1-1-.51l-.14.88Z" transform="translate(-15 -20.26)"/><polygon class="cls-1" points="354.06 211.28 352.13 210.26 352.03 211.51 354.06 211.28"/><path class="cls-1" d="M339.6,258.39l.15-1.75a16.52,16.52,0,0,0-5.25-1Z" transform="translate(-15 -20.26)"/><path class="cls-1" d="M300.68,253.19l-7.13-.58-.74,7.61c.44.35.88.71,1.3,1,2.68,2,4.93,3,7.28,3.09a8.93,8.93,0,0,0,1.85-.05l.94-.08a1.78,1.78,0,0,1,.47-.17,5.36,5.36,0,0,0,.48-.24l.2-7.7Z" transform="translate(-15 -20.26)"/><path class="cls-1" d="M408.68,162.17l3.65,2,.25.29a9.11,9.11,0,0,0-2.94-3.47l-.62,1.19Z" transform="translate(-15 -20.26)"/><path class="cls-1" d="M361.56,233.62l-2,.22-.47,5.39-.15,5.76,4.67,2.92a16.38,16.38,0,0,0,1.66-3.39,12.63,12.63,0,0,0,.66-7.31,6.9,6.9,0,0,0-.45-1.35l-.24-.29Z" transform="translate(-15 -20.26)"/><path class="cls-1" d="M300.05,268.44a7.17,7.17,0,0,0,2.07-1.42,15.69,15.69,0,0,0,2.8-3.37l-4.66-2.91Z" transform="translate(-15 -20.26)"/><path class="cls-1" d="M303.7,243.05l.41.09.32.08.91-6-.07-.14Z" transform="translate(-15 -20.26)"/><path class="cls-1" d="M288.05,251.33c1.08.75,2.12,1.52,3.1,2.32,2.7,2.17,5.08,4.38,7.33,6.19l.74-7.61Z" transform="translate(-15 -20.26)"/><path class="cls-1" d="M312.05,237.1l.21,0-.14.54.07.13.14-.88-.16-.08Z" transform="translate(-15 -20.26)"/><path class="cls-1" d="M305.7,236.56l.12-.24h0c-.72,2.14-1.49,4.26-2.33,6.34l.86.19,1.57-6Z" transform="translate(-15 -20.26)"/><path class="cls-1" d="M299.76,246.43l.31.14-.06-.11Z" transform="translate(-15 -20.26)"/><path class="cls-1" d="M327.08,236.7a97.14,97.14,0,0,0-10.8.89c-1.53.14-3.16.26-4.82.32l-4.5,6.67-4-.49.06.11a37.93,37.93,0,0,1,5.66,3.27l11.17.9.62-6.36,11.78-1.31.11-1.25-5.1-2.74Z" transform="translate(-15 -20.26)"/><path class="cls-1" d="M380.25,214l-.15,1.75,1.92,1,.34,0,.62-1.19a6.9,6.9,0,0,0-.58-.46A10.85,10.85,0,0,0,380.25,214Z" transform="translate(-15 -20.26)"/><polygon class="cls-1" points="297.5 232.37 304.63 232.94 309.29 235.84 309.44 230.08 309.9 224.69 298.12 226 297.5 232.37"/><path class="cls-1" d="M303.74,238l-.91,6c.47.11.95.21,1.4.35l1.56.56c.7.26,1.36.58,2,.88l.25,0Z" transform="translate(-15 -20.26)"/><path class="cls-1" d="M24.56,144.86a11.32,11.32,0,0,0,2.67,2.49,11,11,0,0,0,3.36,1.51L29,147.37Z" transform="translate(-15 -20.26)"/><path class="cls-1" d="M38.38,141.92,40,138.44,48.46,135c-2.53-2.14-4.82-4.24-7-5.84a17.82,17.82,0,0,0-4.48-2.5l-.29.89-.25,5-1.64.73-.94,2.83Z" transform="translate(-15 -20.26)"/><polygon class="cls-1" points="21.71 107.26 19.82 112.97 21.46 112.24 21.71 107.26"/><path class="cls-1" d="M36.75,126.54l0,1,.29-.89Z" transform="translate(-15 -20.26)"/><path class="cls-1" d="M58.59,149h.09a19.19,19.19,0,0,1,2.82,1c.81-2.06,1.67-4.09,2.62-6.08-.45-.1-.91-.2-1.34-.33L61.22,143a36.86,36.86,0,0,1-8.71-4.77l.58,1.52Z" transform="translate(-15 -20.26)"/><path class="cls-1" d="M41.82,146.41l-3.44-4.49-3.5,7.51a63.88,63.88,0,0,0,8-.58Z" transform="translate(-15 -20.26)"/><path class="cls-1" d="M42.85,148.85l2.8-.31c3.93-.36,8.33-.75,12.94.41l-5.5-9.25-.58-1.52c-.83-.6-1.63-1.21-2.4-1.84-.57-.45-1.11-.91-1.65-1.37L40,138.44l-1.62,3.48,3.44,4.49Z" transform="translate(-15 -20.26)"/><path class="cls-1" d="M23.64,142.16l-.25-4.77-.15,0a11.31,11.31,0,0,0,0,4.72,7,7,0,0,0,1.29,2.8L29,147.37Z" transform="translate(-15 -20.26)"/><path class="cls-1" d="M23.35,136.67c0,.09,0,.17-.05.26l.06,0Z" transform="translate(-15 -20.26)"/><path class="cls-1" d="M23.39,137.39l0-.5-.06,0-.06.41Z" transform="translate(-15 -20.26)"/><path class="cls-1" d="M23.81,136.58l4.89-8.81c-.1.09-.2.13-.3.23a16.43,16.43,0,0,0-4.47,6.76,14.94,14.94,0,0,0-.58,1.91v.22Z" transform="translate(-15 -20.26)"/><path class="cls-1" d="M23.36,136.89l0,.5,1.15.4,10.28-4.56,1.89-5.71,0-1a8.47,8.47,0,0,0-2.55-.49,7.64,7.64,0,0,0-1.84,0l-.95.07a1.78,1.78,0,0,1-.47.17,8,8,0,0,0-2.24,1.43l-4.89,8.81Z" transform="translate(-15 -20.26)"/><path class="cls-1" d="M29,147.37l3.3,1.83a19.48,19.48,0,0,0,2.52.23h0l3.5-7.51-4.5-5.86.94-2.83-10.28,4.56-1.15-.4.25,4.77Z" transform="translate(-15 -20.26)"/><path class="cls-1" d="M29,147.37l1.55,1.49a15.07,15.07,0,0,0,1.75.34Z" transform="translate(-15 -20.26)"/><path class="cls-1" d="M311.41,146.19c-.41-1.27-.83-2.54-1.29-3.78-.53-1.45-1.14-2.86-1.74-4.27l-1.94-.93.47-1.76-.72-.4-.09.1,0,2.28-1.53,11.24,8.52,3.5c-.2-.78-.37-1.57-.59-2.34C312.14,148.61,311.79,147.39,311.41,146.19Z" transform="translate(-15 -20.26)"/><polygon class="cls-1" points="197.33 170.94 199.03 166.82 195.17 169.64 197.33 170.94"/><polygon class="cls-1" points="68.55 131.25 68.61 131.43 68.77 131.57 68.76 131.34 68.55 131.25"/><polygon class="cls-1" points="145.94 166.21 145.7 166.15 145.69 166.18 145.94 166.21"/><path class="cls-1" d="M298.62,133.07l.3-.35.38.09c-.25-.52-.5-1-.76-1.54V133Z" transform="translate(-15 -20.26)"/><path class="cls-1" d="M365,206.73l-.49,1.36a41.72,41.72,0,0,1,9.29,1.7l2.34-9.71h0Z" transform="translate(-15 -20.26)"/><path class="cls-1" d="M68.63,107.7l2.07.68.88-1.66,3-8.54-2.75.1,2.27-4.51-4.31-9.15c-.07-.07-.14-.12-.21-.18l-.36-.08-.28,1.13-5.76,15.66-8.72-1.27-.41,1.66a16.94,16.94,0,0,0,4.3,2.75A95.89,95.89,0,0,0,68.63,107.7Z" transform="translate(-15 -20.26)"/><path class="cls-1" d="M181.07,94.65l-5.74-1,.85-2.36c-.45-.36-.86-.77-1.29-1.15l-.68,4.17,8.48,3.53,2.46-1.09A43.77,43.77,0,0,1,181.07,94.65Z" transform="translate(-15 -20.26)"/><path class="cls-1" d="M180.68,94.85c-.35-.2-.71-.39-1.05-.6l-.23-.13c-.6-.37-1.17-.77-1.74-1.18s-1.06-.77-1.58-1.18l-.29-.26L175,93.86Z" transform="translate(-15 -20.26)"/><path class="cls-1" d="M282.38,122.83v0c0,.84,0,1.69,0,2.54,0,.62.05,1.25.06,1.88l9.66,5.29,0-1.76c-.42-.84-.81-1.71-1.25-2.54-.64-1.21-1.31-2.4-2-3.58s-1.33-2.21-2-3.29c-.28-.44-.6-.86-.88-1.3l-3.39.16c0,.09,0,.17,0,.26C282.47,121.28,282.41,122.05,282.38,122.83Z" transform="translate(-15 -20.26)"/><path class="cls-1" d="M298.77,133.43l.72.4.1-.38-.14-.28-.38-.08Z" transform="translate(-15 -20.26)"/><path class="cls-1" d="M356.73,207.68l.16,0c.58-.09,1.19-.2,1.76-.26l1.66-.06c.91,0,1.82,0,2.73.07l.48-1.35,11.12-6.66h0l1.07-4.41-.39-.1-2.68,1.44a41.48,41.48,0,0,1-10.44,4.1l-1,1.68Z" transform="translate(-15 -20.26)"/><path class="cls-1" d="M189.93,185.23l0,0a.08.08,0,0,0,0,0Z" transform="translate(-15 -20.26)"/><polygon class="cls-1" points="124.4 183.62 123.58 186.44 126.27 186.76 128.19 184.09 126.23 182.69 124.4 183.62"/><path class="cls-1" d="M344,197.87l.58-.1,4.45-5.56,1-1.68c-.6.13-1.18.29-1.8.38a15.93,15.93,0,0,1-3.7.15,10.29,10.29,0,0,1-2.31-.3l-.69-.18,3.17,3.61Z" transform="translate(-15 -20.26)"/><path class="cls-1" d="M283.91,152.11c1.19,1.25,2.41,2.47,3.65,3.64l.27-2Z" transform="translate(-15 -20.26)"/><path class="cls-1" d="M152.1,51.09h.06L157,47l-2.77-8.43-5-5.56a11.26,11.26,0,0,0-1.35,3.46,12.16,12.16,0,0,0,.21,5.53l.19.09-.06.4a19.14,19.14,0,0,0,.58,1.83A62.22,62.22,0,0,0,152.1,51.09Z" transform="translate(-15 -20.26)"/><path class="cls-1" d="M329.63,183l-1.61-.71-5.19,1-2,1.67,5.22,7.47,1.44,1c.25-.14.49-.29.76-.42.53-.28,1.07-.55,1.63-.79a12.48,12.48,0,0,1,1.52-.56l1.12-.36.54-.18,1-.17.74-3.68-3.17-3.61c-.24-.06-.48-.11-.71-.18A6.71,6.71,0,0,1,329.63,183Z" transform="translate(-15 -20.26)"/><path class="cls-1" d="M124.88,205.06l-1.35,3.32a6.79,6.79,0,0,1,7.69,11.19l3.06,1.27,4-13.5-.44-.72Z" transform="translate(-15 -20.26)"/><polygon class="cls-1" points="60.4 126.99 59.3 127.19 68.55 131.25 65.59 122.87 60.4 126.99"/><path class="cls-1" d="M307.92,153.75c.55.52,1.09,1.05,1.64,1.55s1.16,1.1,1.77,1.61l.08.08c.51.43,1,.84,1.56,1.26a41.94,41.94,0,0,0,5.18,3.6c-.39-2.24-.89-4.45-1.43-6.63l-8.52-3.5Z" transform="translate(-15 -20.26)"/><path class="cls-1" d="M280.93,86.42a10,10,0,0,1-2.18,1c-.37.13-.73.26-1.09.41s-.57.13-.85.19l-.64,2.28,4.94-1h.13l1-2-.77-1.11-.17.1C281.17,86.28,281.05,86.36,280.93,86.42Z" transform="translate(-15 -20.26)"/><polygon class="cls-1" points="208.19 168.69 207.2 164.51 206.11 167.59 208.19 168.69"/><path class="cls-1" d="M166.8,59.56l.15-.74-2.52-2.09-1.28,2.94Z" transform="translate(-15 -20.26)"/><path class="cls-1" d="M220.24,195l-2.77-1.66-1.55,4.36A9.53,9.53,0,0,1,220.24,195Z" transform="translate(-15 -20.26)"/><polygon class="cls-1" points="253.06 73.94 252.87 74.63 255.42 78.4 258.13 72.91 258 72.91 253.06 73.94"/><path class="cls-1" d="M197.41,217.74l.08-1.36a7.2,7.2,0,0,1-.34,1.31Z" transform="translate(-15 -20.26)"/><polygon class="cls-1" points="267.84 77.61 268.95 70.01 274.16 69.27 268.74 69.44 266.03 74.93 267.84 77.61"/><path class="cls-1" d="M87.15,207.54l-3.56-.73,3.93,1.89c-.11-.36-.26-.7-.36-1.07C87.16,207.6,87.15,207.57,87.15,207.54Z" transform="translate(-15 -20.26)"/><path class="cls-1" d="M76.22,98l1.26,0-.14-.27-1,.07Z" transform="translate(-15 -20.26)"/><path class="cls-1" d="M257.09,126.2l6.49,3.56c-.21-.73-.42-1.46-.6-2.2l-.07-.25c-.16-.68-.28-1.37-.4-2.06,0-.22-.06-.45-.1-.67l-4.68.21Z" transform="translate(-15 -20.26)"/><path class="cls-1" d="M151.94,54c.51.94,1,1.9,1.55,2.89.77,1.49,1.56,3.09,2.28,4.76l.48-.5L161.7,61,163,58.08l-4.81-4-1.37-4.18L152,54Z" transform="translate(-15 -20.26)"/><path class="cls-1" d="M216.77,167.56c-.31-.44-.61-.9-.9-1.37l-1.3,2.19Z" transform="translate(-15 -20.26)"/><path class="cls-1" d="M214.78,166.18c-.27-.43-.53-.88-.77-1.34a22.46,22.46,0,0,1-1.63-4.07L210,169.66l3.44-1.29Z" transform="translate(-15 -20.26)"/><path class="cls-1" d="M147.78,42.74c0,.16.09.32.13.49l.07-.41Z" transform="translate(-15 -20.26)"/><polygon class="cls-1" points="272.86 204.12 270.86 200.52 265.36 199.61 260.7 199.65 262.62 201.94 272.86 204.12"/><polygon class="cls-1" points="102.61 141.34 105.02 145.15 105.55 132.88 102.61 141.34"/><polygon class="cls-1" points="100.54 232.79 98.4 232.06 99.81 233.37 100.78 233.43 100.61 232.89 100.54 232.79"/><path class="cls-1" d="M287,96.08l2.33,3.43.7.8,0,.08,1.38.18a31.77,31.77,0,0,1,.3-3.6c0-.22.09-.45.13-.68a14.68,14.68,0,0,1,.65-2.55c.05-.19.12-.37.18-.55a15.31,15.31,0,0,1,1.07-2.6l0,0,.79-1.56.94-1.32-2.13.07-5.2.74Z" transform="translate(-15 -20.26)"/><polygon class="cls-1" points="85.75 161.1 85.41 162.63 87.57 161.76 85.75 161.1"/><polygon class="cls-1" points="105.8 127.25 105.56 132.88 107.31 127.82 105.8 127.25"/><path class="cls-1" d="M253.93,159.34l-.1.08s0,.08,0,.12Z" transform="translate(-15 -20.26)"/><polygon class="cls-1" points="122.96 204.51 129.62 215.61 129.93 216.31 130.33 215.19 128.35 202.73 123.73 202.22 122.96 204.51"/><path class="cls-1" d="M75.33,96.08,74.65,98l1.6-.06.13-.24,1-.07c-1-1.8-1.8-3.56-2.61-5.22l-.59,1.18Z" transform="translate(-15 -20.26)"/><polygon class="cls-1" points="100.44 232.97 100.62 233.51 102.69 233.66 100.37 232.87 100.44 232.97"/><path class="cls-1" d="M74.83,92.24c-.77-1.57-1.52-3.07-2.29-4.38a20.1,20.1,0,0,0-2.61-3.59l4.31,9.15Z" transform="translate(-15 -20.26)"/><path class="cls-1" d="M262.7,121l4.69-.21c-.07-.43-.14-.85-.19-1.28a35,35,0,0,1-.2-4.82l-1.37-.18Z" transform="translate(-15 -20.26)"/><path class="cls-1" d="M57.14,181.18l-1,.17-1.46.21c-.1,0-.2,0-.3,0l-1.66.06c-.27,0-.54,0-.81,0l0,2-11.29-2.92-4.39,1.91-2,5.33.69,3.37,3.94,2.09,0,0,1.5-.8c3.53-1.82,7.5-3.85,12.24-4.48.65-.08,1.3-.15,2-.18a12.33,12.33,0,0,1,1.71,0,8.57,8.57,0,0,1,.9.09,16.11,16.11,0,0,1,2.63.52l.19,0a20,20,0,0,1,3.28,1.35c.18.1.34.22.52.33l-1.29-7Z" transform="translate(-15 -20.26)"/><path class="cls-1" d="M86.58,247.07c0,.08,0,.16-.07.24a16.62,16.62,0,0,1-1.27,3.18l-.33.66-.47.9-.54.77L88.11,254l.5-1.22Z" transform="translate(-15 -20.26)"/><path class="cls-1" d="M190.11,185.23a5.58,5.58,0,0,1,1.82-3l-.26-.16-2.51,2.07.91,1Z" transform="translate(-15 -20.26)"/><polygon class="cls-1" points="74.01 233.75 73.57 232.53 73.08 233.75 73.97 234 74.01 233.75"/><polygon class="cls-1" points="73.07 233.76 72.78 234.48 73.83 234.92 73.96 234 73.07 233.76"/><path class="cls-1" d="M162.93,174.57l-3.17,2.08-.57,1.36,3.69,3.12-1.11,5.27.24.06,15.37,1.9,4-.16,3.62-3-3.56,0-.62-4.29a10.57,10.57,0,0,1-17.86-6.32Z" transform="translate(-15 -20.26)"/><polygon class="cls-1" points="173.76 163.92 172.51 164.95 174.67 164.97 173.76 163.92"/><path class="cls-1" d="M80.07,244.63a7.74,7.74,0,0,0,.78-1.58l-1.9.8c.3.4.57.82.87,1.21C79.91,244.92,80,244.78,80.07,244.63Z" transform="translate(-15 -20.26)"/><path class="cls-1" d="M189.32,188a5.61,5.61,0,0,1-.21-1.43,5.79,5.79,0,0,1,.15-1.26l0,0-2.16,0-3.62,3Z" transform="translate(-15 -20.26)"/><path class="cls-1" d="M91.27,256a7.8,7.8,0,0,1,1.41-.66l-3.75-1.05-.14.92,2.23.94Z" transform="translate(-15 -20.26)"/><polygon class="cls-1" points="166.25 167.95 162.28 168.1 146.91 166.21 159.13 169.2 162.97 171.52 163.53 170.2 166.25 167.95"/><path class="cls-1" d="M114.12,266.15l-.22.56-5.62,5c1,.56,2.11,1.11,3.18,1.63s2.41,1.14,3.64,1.68c.76.33,1.56.59,2.33.91l.24-8.73Z" transform="translate(-15 -20.26)"/><path class="cls-1" d="M189.41,188l-5.87.23-2.73,2.25-.55,1.32,8.74,5.26-2.69,11.42a7,7,0,0,1,3.48-.95,7.07,7.07,0,0,1,2.87.62L196,192.91l-.68-.79c-.16,0-.31,0-.46,0A5.58,5.58,0,0,1,189.41,188Z" transform="translate(-15 -20.26)"/><path class="cls-1" d="M115.05,265.48l-13.16-4.05-2.65-1.11-.59.2-.72.33-.65,1L95.7,262c-.07,0-.13.08-.19.11a95.23,95.23,0,0,0,13.41,8.83l.29.14,5.62-5Z" transform="translate(-15 -20.26)"/><path class="cls-1" d="M205.93,187.71l3.62,2.18,3.86-2.82.69-1.65-8.16-.09a5.67,5.67,0,0,1,.13,1.17A5.34,5.34,0,0,1,205.93,187.71Z" transform="translate(-15 -20.26)"/><path class="cls-1" d="M91,256.14l-2.24-.94L88.37,258a11.61,11.61,0,0,1,1.87-1.39Z" transform="translate(-15 -20.26)"/><path class="cls-1" d="M161.47,186.47l-.25,0-2.52,11.94.27,2.34h0a14.72,14.72,0,0,1,12.12,6.35l.74-1.72,5.67-13.57-3.85-2.32Z" transform="translate(-15 -20.26)"/><path class="cls-1" d="M139.93,131.39l2.31.33L144,126.5l-1.48,0A8.46,8.46,0,0,1,139.93,131.39Z" transform="translate(-15 -20.26)"/><path class="cls-1" d="M132.16,135.69a16.69,16.69,0,0,1-7,.24l.89,5.6,1.5,3.87a5.2,5.2,0,0,1,2.22-.51,5.28,5.28,0,0,1,4.72,7.73l5.82,2.19,2.92-9.7L142.25,132l-.18-.06,0-.12-2.31-.33A15.92,15.92,0,0,1,132.16,135.69Z" transform="translate(-15 -20.26)"/><path class="cls-1" d="M81.13,242.41a20.8,20.8,0,0,0,1-2.89L73.7,233l-.47-.14-1.13.64A95.8,95.8,0,0,0,79,243.85l1.91-.8Z" transform="translate(-15 -20.26)"/><polygon class="cls-1" points="15.93 156.59 12.02 159.17 16.84 158.9 15.93 156.59"/><path class="cls-1" d="M30.88,176.71l.05.14.13-.09Z" transform="translate(-15 -20.26)"/><path class="cls-1" d="M145.68,137.88l11.58,1.81a6.62,6.62,0,0,1,1.66-.41l-.2-2.05-16.13-5.3.95,13.07Z" transform="translate(-15 -20.26)"/><path class="cls-1" d="M34,179l6.53,1.69,1.2-.53c-.62-.17-1.25-.33-1.85-.51-3.2-1-6.15-2.09-8.84-2.93l-.13.09.91,2.31Z" transform="translate(-15 -20.26)"/><polygon class="cls-1" points="127.37 111.68 127.36 111.51 127.23 111.49 127.19 111.62 127.37 111.68"/><path class="cls-1" d="M164,160.1l6.41,2.88a10.1,10.1,0,0,1,8.45,1.25l-.34-7.69-.69-4.64-6.88.69-5.21,0a7.27,7.27,0,0,1-3.51,1.37Z" transform="translate(-15 -20.26)"/><path class="cls-1" d="M62.37,201.34l8.86,2.83-1.77-2.7a32.22,32.22,0,0,0-6.68-4.16l-1.27-.48-.71,4q.15,1,.33,2Z" transform="translate(-15 -20.26)"/><polygon class="cls-1" points="17.91 161.61 16.84 158.9 12.02 159.17 9.42 160.88 10.43 166.06 18.23 170.21 19.17 167.71 17.91 161.61"/><polygon class="cls-1" points="128.25 184.09 130.99 180.3 126.29 182.69 128.25 184.09"/><polygon class="cls-1" points="18.23 170.21 19.86 171.08 19.17 167.71 18.23 170.21"/><path class="cls-1" d="M64.61,184.3l-2.13-.89,1.29,7,.53.33Z" transform="translate(-15 -20.26)"/><path class="cls-1" d="M78.09,159.28a39.47,39.47,0,0,1-1.7,4.24l8,1.36-.11-2.14Z" transform="translate(-15 -20.26)"/><path class="cls-1" d="M71.44,232.28c.2.37.39.74.6,1.11l.06.09,1.14-.64Z" transform="translate(-15 -20.26)"/><path class="cls-1" d="M177.25,258.23a19,19,0,0,1-1.75,1.08,18.8,18.8,0,0,1-3.07,1.24l-1,4.9-6.8,2-2,3.94,6.84,1.49c.44-.18.87-.39,1.32-.56-.25.23-.48.47-.72.7l.7.15,3.76-2.47,2.47,1.21,1-12.87Z" transform="translate(-15 -20.26)"/><path class="cls-1" d="M166.12,165a10.33,10.33,0,0,1,3.91-2l-6.42-2.88,1.24,4.35Z" transform="translate(-15 -20.26)"/><path class="cls-1" d="M155.26,159l-2.15.87-1,4.46a8.12,8.12,0,0,1,1.79,10.29l3.33,2.81,1.23-.8,4.8-11.61Z" transform="translate(-15 -20.26)"/><path class="cls-1" d="M204.78,257l-3.09,1.58-3.56-.33.7,3.2,5.38,8.13a31.14,31.14,0,0,1,6.44.27,18.88,18.88,0,0,1,2.82.66L218,261.3l-12.42-3.87Z" transform="translate(-15 -20.26)"/><path class="cls-1" d="M173.62,316.06l1.37-5.4a33.84,33.84,0,0,0-4.45-.7c-.77-.07-1.53-.13-2.31-.16h0c-.68,0-1.36,0-2,0l2.68,2.28-1.07,7.32.43.21c.42-.25.84-.49,1.25-.75C170.86,318,172.24,317,173.62,316.06Z" transform="translate(-15 -20.26)"/><path class="cls-1" d="M181.3,282.71h-.5a64.65,64.65,0,0,0-8.83.6,39.5,39.5,0,0,1,6.61-2.92l-5-4.29L170,272.58l-1.05,12.87,14,6.86L184,285Z" transform="translate(-15 -20.26)"/><path class="cls-1" d="M151.64,156.6l1.51,1.14,1.17-5.24h1.13a7.33,7.33,0,0,1,1.8-12.73L145.67,138l-2.14,7.12.08,1.22Z" transform="translate(-15 -20.26)"/><path class="cls-1" d="M155.86,152.52h-1.13l-1.17,5.24,1.67,1.26,2.72-1.1,5,2.23L161.15,154a7.89,7.89,0,0,1-.85.09A7.33,7.33,0,0,1,155.86,152.52Z" transform="translate(-15 -20.26)"/><polygon class="cls-1" points="140.05 158.49 134.96 175.28 131.36 180.29 136.41 177.72 144.58 166.1 145.24 166.18 145.24 166.15 139.75 164.81 142.67 157.76 142.01 157.21 140.05 158.49"/><path class="cls-1" d="M224.82,264.61l3.1,1c0-.19-.08-.38-.13-.57l-2.8-.74Z" transform="translate(-15 -20.26)"/><polygon class="cls-1" points="142.94 157.76 143.5 156.4 142.28 157.2 142.94 157.76"/><polygon class="cls-1" points="145.54 166.15 146.65 160.88 142.96 157.76 140.05 164.81 145.54 166.15"/><path class="cls-1" d="M229.9,254.81l-11.72-2.5.06-.6-3.9,2,.79.42L227.56,258l.17-.35,2.8.74c-.21-.82-.42-1.64-.55-2.45C229.93,255.55,229.94,255.19,229.9,254.81Z" transform="translate(-15 -20.26)"/><polygon class="cls-1" points="138.34 137.51 137.87 139.64 140.01 138.77 138.34 137.51"/><path class="cls-1" d="M125,279.68c.65.2,1.3.37,2,.55l-.14-3.37-8.94-9.76-2.23-6.74L113,266.77l3.55,1.08-.23,8.73c1.6.65,3.2,1.32,4.85,1.89C122.45,278.9,123.7,279.31,125,279.68Z" transform="translate(-15 -20.26)"/><path class="cls-1" d="M152.7,159.9l-6,2.46a8.12,8.12,0,0,1,5.05,2Z" transform="translate(-15 -20.26)"/><path class="cls-1" d="M141.35,203l4.7-2.4,3.6-5,5.08-16.79,2-1.29-3.33-2.81a8.24,8.24,0,0,1-14.85-7.08l-3.9,2.71-2.43,6,6.27,3.19L133.08,197l.56.44Z" transform="translate(-15 -20.26)"/><polygon class="cls-1" points="124.36 183.62 126.19 182.69 118.47 177.19 117.91 176.75 117.62 177.7 122.9 186.36 123.53 186.43 124.36 183.62"/><polygon class="cls-1" points="116.98 156.05 113.32 165.13 110.36 171.01 117.87 176.75 123.25 159.25 116.98 156.05"/><polygon class="cls-1" points="128.19 184.1 126.27 186.77 123.57 186.44 123.38 187.08 124.41 188.76 128.35 190.39 130.03 185.42 128.19 184.1"/><polygon class="cls-1" points="145.69 263.38 151.7 264.69 151.91 262.11 149.44 260.9 145.69 263.38"/><polygon class="cls-1" points="122.9 186.36 123.34 187.08 123.53 186.44 122.9 186.36"/><path class="cls-1" d="M132,176.31l-7.38-3.76-3.09-4.88-.86,1.21,2.78,4.36-.47,6.85a5.23,5.23,0,0,1-.44,6.38l-.17,2.5,3,2.3,3-5.88Z" transform="translate(-15 -20.26)"/><path class="cls-1" d="M157.88,200.72l-.27-2.34,2.52-11.94-.66-.08L151.3,198l-5,2.57-2.73,3.8,1.84,1.32-1.68,5,.3.12A14.72,14.72,0,0,1,157.88,200.72Z" transform="translate(-15 -20.26)"/><path class="cls-1" d="M140.2,299.41l-.07.09q-.65.76-1.26,1.56a35.45,35.45,0,0,0-4.48,6.9l4.63.52,1.2,1.07c2.6-.59,5.16-1.26,7.67-2.06,1.22-.38,2.43-.8,3.63-1.23.79-.28,1.57-.6,2.34-.91l3.37-6.72,2.44,1.45.79-4.36-15.6-1.28q-1.58,1.57-3,3.21C141.28,298.24,140.72,298.81,140.2,299.41Z" transform="translate(-15 -20.26)"/><path class="cls-1" d="M146.11,162.32c.11,0,.21,0,.32,0l6-2.46.47-2.13-1.51-1.13-8-10.3-.08-1.23-2.93,9.71-5.82-2.19a5.37,5.37,0,0,1-2.64,2.49l7.05,8.93,1.16.83A8.22,8.22,0,0,1,146.11,162.32Z" transform="translate(-15 -20.26)"/><path class="cls-1" d="M158.31,283.28l2.72-1.79-.7-.16C159.65,282,159,282.62,158.31,283.28Z" transform="translate(-15 -20.26)"/><path class="cls-1" d="M142.05,301.84c-.08.16-.18.33-.25.5-.3.78-.61,1.53-.85,2.28l0,.11c2.35-.35,4.67-.8,7-1.31l-1.2-1.06Z" transform="translate(-15 -20.26)"/><path class="cls-1" d="M132,176.31l2.42-6,3.91-2.71a7.9,7.9,0,0,1,1.28-2.15L127.68,159l-6.18,8.66,3.09,4.88Z" transform="translate(-15 -20.26)"/><path class="cls-1" d="M144.76,283.29l-6.63-1.53-.79,5.91,9.7,1.09.15-.25Z" transform="translate(-15 -20.26)"/><path class="cls-1" d="M139.45,281,133,279.48l-.55,3.83a31.45,31.45,0,0,1,2.78,3.25,18.33,18.33,0,0,1,1.74,2.83,17,17,0,0,1,1.35,3.15v0l1.08-2.33,8.28-1.12c0-.11.11-.22.16-.34.16-.28.35-.54.52-.82l-9.69-1.09Z" transform="translate(-15 -20.26)"/><path class="cls-1" d="M155.44,159l8,6-4.8,11.61,3.17-2.09a11.57,11.57,0,0,1-.13-1.32,10.58,10.58,0,0,1,3.94-8.2l-1.26-.54-1.25-4.36-5-2.22Z" transform="translate(-15 -20.26)"/><polygon class="cls-1" points="48.24 254.77 46.19 255.02 43.91 260.58 47.87 257.83 48.24 254.77"/><path class="cls-1" d="M65.58,283.06,63.66,275l-.39,0-.37,3.06-4,2.75L57.22,285a15.79,15.79,0,0,0,2,2.19,13.49,13.49,0,0,0,5.07,3.11l3.35-4Z" transform="translate(-15 -20.26)"/><path class="cls-1" d="M22.79,198.44a12.4,12.4,0,0,0,5.91-.3l-7.6-.2A14.09,14.09,0,0,0,22.79,198.44Z" transform="translate(-15 -20.26)"/><path class="cls-1" d="M64.36,290.29a9.24,9.24,0,0,0,1.4.35,7.46,7.46,0,0,0,4.29-.5l-2.34-3.81Z" transform="translate(-15 -20.26)"/><polygon class="cls-1" points="53.65 254.11 48.48 252.72 48.36 253.66 48.62 254.73 53.65 254.11"/><path class="cls-1" d="M69.44,83.72a8.43,8.43,0,0,0-2.36-1.64,7.81,7.81,0,0,0-1.72-.68l-.9-.3a2.07,2.07,0,0,1-.5,0,7.51,7.51,0,0,0-3,.53c-.23.08-.47.19-.7.29l9.11,2Z" transform="translate(-15 -20.26)"/><path class="cls-1" d="M168.94,52.78c.44-1.46.92-2.86,1.39-4.22L168.19,48l-2.75,6.33,2.53,2.1C168.26,55.2,168.58,54,168.94,52.78Z" transform="translate(-15 -20.26)"/><polygon class="cls-1" points="48.12 252.63 48.36 253.66 48.48 252.72 48.12 252.63"/><path class="cls-1" d="M78.43,279l-2,1.33-.2,3.95c.25-.45.5-.89.73-1.39A38.76,38.76,0,0,0,78.43,279Z" transform="translate(-15 -20.26)"/><path class="cls-1" d="M67.81,286.19l-.13.16,2.34,3.8a13.09,13.09,0,0,0,2.12-1.06,12.68,12.68,0,0,0,4.18-4.81l.2-4Z" transform="translate(-15 -20.26)"/><path class="cls-1" d="M318.41,84.33a.76.76,0,0,0,.11-.14l-2.32.33,2.13-.06Z" transform="translate(-15 -20.26)"/><path class="cls-1" d="M54,101.65l.41-1.66-2.16-.31A10.84,10.84,0,0,0,54,101.65Z" transform="translate(-15 -20.26)"/><path class="cls-1" d="M288.55,109.69a32.18,32.18,0,0,0-.66,4.12l3.38-.15C290.39,112.32,289.5,111,288.55,109.69Z" transform="translate(-15 -20.26)"/><path class="cls-1" d="M19.44,179.86l4.68-.26-.78-4a8.09,8.09,0,0,0-2,.47,8,8,0,0,0-1.7.73l-.85.43a1.65,1.65,0,0,1-.37.33c-.16.15-.34.38-.52.59l-.52,3.43Z" transform="translate(-15 -20.26)"/><path class="cls-1" d="M56.27,92.53l-5.16-1.44a9.58,9.58,0,0,0-.57,2c-.41,2.12.15,4.13,1.58,6.41,0,.07.1.12.14.19l2.17.31Z" transform="translate(-15 -20.26)"/><path class="cls-1" d="M54.47,99.84l8.72,1.27L69,85.45l.29-1.13-9.11-2a16.56,16.56,0,0,0-6.07,4.18A13.87,13.87,0,0,0,51.15,91l5.17,1.43Z" transform="translate(-15 -20.26)"/><polygon class="cls-1" points="445.32 164.67 445.31 160.02 429.83 156.26 428.77 160.67 445.32 164.67"/><path class="cls-1" d="M432.33,157.37l-.47.25.39.09Z" transform="translate(-15 -20.26)"/><polygon class="cls-1" points="371.35 114.41 370.68 118.7 372.27 115.2 371.35 114.41"/><path class="cls-1" d="M64.19,267.07c-1.07.53-2.09,1.06-3,1.6l1.24,1.19.71,3,.36.1Z" transform="translate(-15 -20.26)"/><path class="cls-1" d="M220.23,335.67l-.25,5,3.46,1.06c-.86-1.66-1.82-3.39-2.78-5.21Z" transform="translate(-15 -20.26)"/><path class="cls-1" d="M68.63,274.37l3.6-.44-5.29-6.77.12-1.5-2.87,1.41L63.47,273Z" transform="translate(-15 -20.26)"/><polygon class="cls-1" points="363.97 109.25 365.38 109.2 366.1 104.53 363.97 109.25"/><path class="cls-1" d="M17.86,178.16a7.42,7.42,0,0,0-1.22,1.9,15.94,15.94,0,0,0-1.07,3l1.77-1.46Z" transform="translate(-15 -20.26)"/><path class="cls-1" d="M17,183.81l.34-2.22-1.77,1.46c-.09.33-.18.66-.25,1Z" transform="translate(-15 -20.26)"/><path class="cls-1" d="M351.6,80.41l-.36,2.3c1.32-.88,2.66-1.7,4-2.42Z" transform="translate(-15 -20.26)"/><polygon class="cls-1" points="48.37 253.66 48.23 254.77 48.62 254.72 48.37 253.66"/><path class="cls-1" d="M61.18,275.28l2-.25.14-1.12-.25-1-4-1.07.88-2.42c-2.37,1.52-4,3-4.86,4.95a8.33,8.33,0,0,0-.68,1.72l-.3.9a1.67,1.67,0,0,1,0,.5,7.51,7.51,0,0,0,.53,3A15.26,15.26,0,0,0,55.83,283l3.07-2.12Z" transform="translate(-15 -20.26)"/><path class="cls-1" d="M349.7,295.17l0-3.32-1.56,3.57A8.29,8.29,0,0,0,349.7,295.17Z" transform="translate(-15 -20.26)"/><path class="cls-1" d="M360.83,292.79l-9.21-8.8L349,285.82l-2.49,1c1.54,3,2.84,5.93,4.24,8.3,1.7,2.85,3.34,4.73,5.48,5.69a8.56,8.56,0,0,0,1.72.68l.91.3a1.6,1.6,0,0,1,.49,0,5,5,0,0,0,.53,0l1.56-3.56,0-5.16Z" transform="translate(-15 -20.26)"/><path class="cls-1" d="M58.92,280.83,55.85,283A19.17,19.17,0,0,0,57.2,285Z" transform="translate(-15 -20.26)"/><polygon class="cls-1" points="342.32 274.61 344.21 270.28 342.36 269.45 342.32 274.61"/><path class="cls-1" d="M356.42,288.89l-1.89,4.33,0,3.32a6.65,6.65,0,0,0,.92-.25,16.44,16.44,0,0,0,6.76-4.47l.07-.07,0-.26Z" transform="translate(-15 -20.26)"/><path class="cls-1" d="M324.84,45.2l-1.73,3.41,3,1,1.42-4.37-.15,0A7,7,0,0,0,324.84,45.2Z" transform="translate(-15 -20.26)"/><path class="cls-1" d="M294.14,289.44l1.4-4.27c-1.13-.37-2.29-.78-3.47-1.22Z" transform="translate(-15 -20.26)"/><path class="cls-1" d="M424.76,262.56a5.32,5.32,0,0,0-.36-.47l-9.06-1.88,0,6.37,3.36,2.38-1.55,3.54,5.82,2.6-.15-2.58,1.69.9a11.53,11.53,0,0,0,1.88-4.45C426.75,266.85,426.19,264.84,424.76,262.56Z" transform="translate(-15 -20.26)"/><polygon class="cls-1" points="344.67 249.18 353.88 257.98 354.54 258.27 354.58 253.18 346.8 247.68 344.67 249.18"/><path class="cls-1" d="M338.1,68.75l5.42,1.17,2.8-.35,4.77-5.3c0-.09-.1-.19-.16-.28l-10.83.36Z" transform="translate(-15 -20.26)"/><path class="cls-1" d="M336.81,281.39c-.91-.41-1.92-.78-3-1.14l-2.19.45-5.89,4.13,7.78,5.49,0-6.37,9.06,1.88A14.33,14.33,0,0,0,336.81,281.39Z" transform="translate(-15 -20.26)"/><polygon class="cls-1" points="370.34 258.03 371.89 254.49 368.53 252.11 368.49 257.2 370.34 258.03"/><path class="cls-1" d="M385.13,60.4l10.6,4.49.47-.26a14.83,14.83,0,0,0,5-4.38l.83-2.82-8.79-1.9-6.31.79Z" transform="translate(-15 -20.26)"/><path class="cls-1" d="M417,68.71a9.47,9.47,0,0,0,.65-1.11,7.8,7.8,0,0,0,.67-1.72l.3-.9a2,2,0,0,1,0-.49,7.53,7.53,0,0,0-.53-3,15.2,15.2,0,0,0-1.52-3.16l-4.77,5.3L409,64l8.8,1.9Z" transform="translate(-15 -20.26)"/><path class="cls-1" d="M470.37,188.5a7.08,7.08,0,0,0,1.25-1.93,16.07,16.07,0,0,0,1.42-4.69l-2,5.2Z" transform="translate(-15 -20.26)"/><path class="cls-1" d="M471.77,174.79l-6.37,12.1v2.72c.14,0,.3-.06.44-.11a8,8,0,0,0,1.7-.74l.85-.42a1.28,1.28,0,0,1,.37-.33c.14-.15.32-.37.49-.56l.63-1.43,2-5.2a16.08,16.08,0,0,0,.2-3.24A14.78,14.78,0,0,0,471.77,174.79Z" transform="translate(-15 -20.26)"/><path class="cls-1" d="M245,303.6l-2.08-5.49a28.91,28.91,0,0,1-7.57-4,15.67,15.67,0,0,1-2.72-2.5,1.67,1.67,0,0,0-.12-.16,10.1,10.1,0,0,1-1.43-1.94l-1.57-.13-4.05,5.05-.17.34.4.2.89.46,1.35.95.09.07c.48.35,1,.7,1.43,1.07l1.21,1.13a40.06,40.06,0,0,1,7.64,10.43l.87,1.71,2.49-1,2.61-1.84-.53-.5Z" transform="translate(-15 -20.26)"/><path class="cls-1" d="M309.15,281.24l-1.4,4.27.95,2.51.45.32,5.89-4.13,2.2-.44c-2.24-.77-4.72-1.47-7.31-2.27Z" transform="translate(-15 -20.26)"/><path class="cls-1" d="M63.11,272.88l-.71-3-1.24-1.19a3.54,3.54,0,0,0-.33.19c-.31.18-.55.36-.83.54l-.88,2.41Z" transform="translate(-15 -20.26)"/><polygon class="cls-1" points="326.74 264.33 325.49 268.15 326.02 268.65 328.15 267.16 327.69 266.84 326.74 264.33"/><path class="cls-1" d="M319.63,46.64l3.28,1.66.73-1.43-3.16-1C320.19,46.09,319.91,46.36,319.63,46.64Z" transform="translate(-15 -20.26)"/><polygon class="cls-1" points="359.98 98.05 354.56 96.88 353.67 98.84 359.98 98.05"/><polygon class="cls-1" points="308.87 34.47 309.53 32.45 306.5 31.47 305.77 32.9 308.87 34.47"/><path class="cls-1" d="M320.51,44.51l3.15,1,1.73-3.4a10.51,10.51,0,0,0-3.83,1.56A10.23,10.23,0,0,0,320.51,44.51Z" transform="translate(-15 -20.26)"/><path class="cls-1" d="M322,52.6l-3.28-1.66a16.54,16.54,0,0,0-3,4.58,51.12,51.12,0,0,0-2,5.76l.13.22,1.95,1.68,1.87-1.3,4.95-.62.88-2-4.37-.94Z" transform="translate(-15 -20.26)"/><polygon class="cls-1" points="300.42 42.22 304.79 43.16 306.78 38.76 306.19 38.78 306.44 38.03 303.34 36.46 300.42 42.22"/><polygon class="cls-1" points="59.15 73.4 56.88 77.91 59.63 77.81 60.31 75.87 59.15 73.4"/><path class="cls-1" d="M76.54,276.53l-.06,1,2.28.11c.49-1.6,1-3.28,1.52-5a41.43,41.43,0,0,1,4.53-10.36l-1.23.08-8.4,11.21-3,.37,1.39,1.77Z" transform="translate(-15 -20.26)"/><path class="cls-1" d="M160.42,320.15l-8.75-8.6-1-1.4a40.12,40.12,0,0,1-2,12.61l11,3.38.56-4.6Z" transform="translate(-15 -20.26)"/><path class="cls-1" d="M123.88,96.09l-.08,0,.1,0Z" transform="translate(-15 -20.26)"/><path class="cls-1" d="M238.29,85.3c.79,0,1.6,0,2.38-.11h.12c.66-.06,1.33-.13,2-.21a41.5,41.5,0,0,0,5.24-.89c-2.17-1.57-4.39-3.08-6.68-4.47-1.09-.66-2.2-1.29-3.32-1.91l-.15-.08-3,7.77C236,85.37,237.15,85.35,238.29,85.3Z" transform="translate(-15 -20.26)"/><path class="cls-1" d="M69.79,83.91l-.31-.28,0,.2Z" transform="translate(-15 -20.26)"/><path class="cls-1" d="M84.55,117.72c.14.21.28.42.4.63s.09.16.14.24l1-.65Z" transform="translate(-15 -20.26)"/><polygon class="cls-1" points="60.04 257.18 58.67 255.44 53.69 254.1 48.66 254.72 50.58 262.81 52.6 266.1 52.73 265.95 61.44 260.08 61.58 257.26 60.04 257.18"/><path class="cls-1" d="M76.56,277.55l-.14,2.82,2-1.33c.15-.45.3-.91.44-1.38Z" transform="translate(-15 -20.26)"/><path class="cls-1" d="M192.15,331.25l-.57,4.59,1.31.41.24-5c-.2-.41-.41-.81-.61-1.23l-.16-.15Z" transform="translate(-15 -20.26)"/><polygon class="cls-1" points="16.84 158.9 17.91 161.61 19.17 167.71 21.16 162.38 25.55 160.47 19.02 158.78 16.84 158.9"/><path class="cls-1" d="M165,323.38c1-.49,2.08-1,3.11-1.53l-2.55-1.51Z" transform="translate(-15 -20.26)"/><path class="cls-1" d="M40.55,180.73l11.29,2.92,0-2a38.69,38.69,0,0,1-10.11-1.44Z" transform="translate(-15 -20.26)"/><path class="cls-1" d="M154.38,311.37,151,318.09l1.32-.52q2-.81,3.93-1.71l.55-3.05Z" transform="translate(-15 -20.26)"/><path class="cls-1" d="M172,326.54l-.13-.27,0,.12Z" transform="translate(-15 -20.26)"/><path class="cls-1" d="M145.3,305a11.77,11.77,0,0,1,0-2c0-.23,0-.44.07-.67a13.49,13.49,0,0,1,.49-2.65c0-.13.06-.27.1-.4a15.59,15.59,0,0,1,1.19-2.94l-8.29,1.11-1.07,2.34,0,.06.51,1.57.18,1.06.11.68c.09.58.2,1.19.25,1.76v.18l0,1.48v.11l1.05,1.39,8.75,8.61,0-.12a31.85,31.85,0,0,1-3.29-9.88C145.41,306.17,145.34,305.6,145.3,305Z" transform="translate(-15 -20.26)"/><polygon class="cls-1" points="9.42 160.88 9.12 159.34 4.44 159.6 2.33 161.33 2 163.55 6.39 162.88 9.42 160.88"/><polygon class="cls-1" points="58.12 163.7 65.53 160.94 67.48 156.91 61.46 154.1 58.12 163.7"/><polygon class="cls-1" points="12.02 159.17 9.12 159.34 9.42 160.88 12.02 159.17"/><path class="cls-1" d="M166.54,306.08c.55-.32,1.09-.66,1.63-1l.08-.52-14-6.86-.21,2.58L148,299l-2.72,1.79-.55.53,15.61,1.28-.8,4.36,2.56,1.52c.28-.15.56-.27.84-.42C164.18,307.41,165.37,306.75,166.54,306.08Z" transform="translate(-15 -20.26)"/><path class="cls-1" d="M30.93,176.85l-.05-.14c-.57-.17-1.14-.35-1.68-.49a16.62,16.62,0,0,0-5.86-.61l.78,4,2.9-.17Z" transform="translate(-15 -20.26)"/><polygon class="cls-1" points="67.48 156.91 72.41 159.22 71.55 148.47 67.48 156.91"/><path class="cls-1" d="M64.17,158.06c-.22.69-.44,1.36-.64,2.05a93.29,93.29,0,0,0-2.73,12.33c.48-.17,1-.37,1.46-.56a27.58,27.58,0,0,0,7.06-4.44c.59-.49,1.17-1,1.75-1.51l0,0c.61-.57,1.18-1.21,1.78-1.81.32-.32.62-.67.93-1l-7.29-1.23Z" transform="translate(-15 -20.26)"/><path class="cls-1" d="M17,183.81l-1.68.25A16.33,16.33,0,0,0,15,188a14.44,14.44,0,0,0,.71,4.17v-.06Z" transform="translate(-15 -20.26)"/><polygon class="cls-1" points="190.38 221.21 189.81 218.58 186.12 218.93 190.38 221.21"/><path class="cls-1" d="M33.23,190.47l-2.65,7.08.06,0a46.34,46.34,0,0,0,5-2.37l-.79-3.82Z" transform="translate(-15 -20.26)"/><path class="cls-1" d="M25.43,186.32l-1-5.18-3,2-4.39.67-1.27,8.29v.06A10.6,10.6,0,0,0,17.14,195a7.6,7.6,0,0,0,4,2.92l7.6.2c.61-.17,1.23-.36,1.88-.59l2.65-7.08Z" transform="translate(-15 -20.26)"/><path class="cls-1" d="M83.58,262.37l1.23-.08c.32-.49.6-1,1-1.47.2-.26.43-.52.64-.78a13.36,13.36,0,0,1,1.78-1.85l.08-.09.19-.15.42-2.8-1-.44.29-.72-4.22-1.17-.45.64,0,0c-.35.48-.7,1-1.06,1.43l-.53.56-.61.65a39.9,39.9,0,0,1-10.43,7.64c-1.28.68-2.54,1.31-3.78,1.91l-.12,1.5L72.19,274l3-.37Z" transform="translate(-15 -20.26)"/><path class="cls-1" d="M38.8,193.43l-3.94-2.09.79,3.82c1-.54,2.09-1.1,3.17-1.69Z" transform="translate(-15 -20.26)"/><path class="cls-1" d="M135,283.85a27.12,27.12,0,0,0-2.34-3.79l-1.12,1.81Z" transform="translate(-15 -20.26)"/><path class="cls-1" d="M129.76,285.25,128.43,287c2.67.51,5.37,1,8.12,1.23a.45.45,0,0,0,0-.11,14.19,14.19,0,0,0-.82-2.31c-.2-.48-.43-.95-.67-1.43l-3.47-2Z" transform="translate(-15 -20.26)"/><polygon class="cls-1" points="57.24 253.67 53.65 254.11 58.63 255.45 57.24 253.67"/><polygon class="cls-1" points="352.72 113.07 353.64 113.86 354.33 112.32 352.93 111.73 352.72 113.07"/><polygon class="cls-1" points="58.63 255.46 60 257.2 61.54 257.28 61.59 256.25 58.63 255.46"/><path class="cls-1" d="M60.5,196.46l-.28-.07c.16,1.49.35,3,.58,4.43l.71-4C61.17,196.7,60.83,196.56,60.5,196.46Z" transform="translate(-15 -20.26)"/><polygon class="cls-1" points="311.63 60.74 313.03 61.33 314.88 57.26 309.93 57.88 308.06 59.18 311.42 62.08 311.63 60.74"/><polygon class="cls-1" points="59.58 77.95 56.58 86.49 61.17 77.89 59.58 77.95"/><path class="cls-1" d="M70.66,108.48l.27.09.62-1.75Z" transform="translate(-15 -20.26)"/><path class="cls-1" d="M64.67,156.46c-.18.53-.33,1.07-.5,1.6l2.34,3.8,7.29,1.23c1.27-1.32,2.48-2.71,3.66-4.17l-11.4-6.33c0,.06,0,.11-.07.17C65.52,154,65.09,155.22,64.67,156.46Z" transform="translate(-15 -20.26)"/><path class="cls-1" d="M150,30.24l5,5.56,2.77,8.44,5.19-4.45.61-8.74-.32-.16-7.63-4.43a10.9,10.9,0,0,0-3.51,1.59A7,7,0,0,0,150,30.24Z" transform="translate(-15 -20.26)"/><path class="cls-1" d="M317.53,69.59c-1.21,3.78-2.58,8-5.49,11.82a16.08,16.08,0,0,1-2.5,2.72A12.19,12.19,0,0,1,307,86l.77,1.11-1,2,5.41-.16,2.33-.33c.31-.43.63-.88,1-1.28l1.13-1.22a35,35,0,0,1,6-5l.36-2.3-1.41.05,2.13-4.71.67-4.29L321,67l-3.37,2.34Z" transform="translate(-15 -20.26)"/><path class="cls-1" d="M369.86,49l-1.94,4c3.3-1.74,6.49-3.15,9.12-4.64l-10.6-4.49-.7,1.54Z" transform="translate(-15 -20.26)"/><path class="cls-1" d="M177.08,325.32l.51-.31-.43-.21Z" transform="translate(-15 -20.26)"/><path class="cls-1" d="M164.24,26.88l.32-4.61a16.21,16.21,0,0,0-4.75-.5,15.24,15.24,0,0,0-3.52.52l7.64,4.43Z" transform="translate(-15 -20.26)"/><path class="cls-1" d="M316.44,64.81l-1.95-1.68-.13-.22c-.42,1.37-.84,2.78-1.28,4.24Z" transform="translate(-15 -20.26)"/><path class="cls-1" d="M164.26,39.44l-5.19,4.45,1.37,4.17,4.81,4L168,45.71l2.14.54c.8-2.32,1.57-4.49,2.09-6.48a18.1,18.1,0,0,0,.64-5.07l-8-4Z" transform="translate(-15 -20.26)"/><path class="cls-1" d="M173.75,28.87a8.76,8.76,0,0,0-.5-2.83,7.76,7.76,0,0,0-.74-1.69l-.42-.86a1.28,1.28,0,0,1-.33-.37,7.7,7.7,0,0,0-2.49-1.73,15.19,15.19,0,0,0-3.19-1.13l-.32,4.61Z" transform="translate(-15 -20.26)"/><path class="cls-1" d="M246.59,263.91c1.38-2,2.68-4,3.92-6l-5.54-.45A30.49,30.49,0,0,0,246.59,263.91Z" transform="translate(-15 -20.26)"/><path class="cls-1" d="M178,313.64l-.36-.15a21.73,21.73,0,0,0-3.69-1.15l-1.37,5.4C174.47,316.43,176.29,315.08,178,313.64Z" transform="translate(-15 -20.26)"/><path class="cls-1" d="M96.18,261.68l1.59-.1.64-1c-.5.22-1,.45-1.5.69A6.81,6.81,0,0,1,96.18,261.68Z" transform="translate(-15 -20.26)"/><polygon class="cls-1" points="282.88 113.4 282.8 113.36 282.8 113.51 282.88 113.4"/><path class="cls-1" d="M213.66,278.48a9.6,9.6,0,0,1-.81-1.76l-.09-.25-4.11,7.92,4-5,1.56.13a1.22,1.22,0,0,0-.12-.19C214,279,213.81,278.75,213.66,278.48Z" transform="translate(-15 -20.26)"/><polygon class="cls-1" points="181.53 272.52 181.71 272.18 181.46 272.48 181.53 272.52"/><path class="cls-1" d="M302.68,136.79c-.41-.95-.82-1.9-1.26-2.84l-.18.17,0,0-.47,1.76Z" transform="translate(-15 -20.26)"/><path class="cls-1" d="M216,270.7c0-.08,0-.16-.05-.24l-3.1-1-4.53,9.2.41.12c.42.12.83.27,1.25.42a13.65,13.65,0,0,1,1.93.85l.2.1.24-.3,4.11-7.93C216.28,271.54,216.14,271.12,216,270.7Z" transform="translate(-15 -20.26)"/><path class="cls-1" d="M466.37,180l0,6.91,6.37-12.1c-.07-.35-.14-.7-.23-1l-5.1,6.47Z" transform="translate(-15 -20.26)"/><path class="cls-1" d="M300.52,133.56a2.26,2.26,0,0,1-.11-.22l-.1.37,0,0Z" transform="translate(-15 -20.26)"/><path class="cls-1" d="M455.52,160.78a13.3,13.3,0,0,0-1.35-.4,13.85,13.85,0,0,0-7.86.91c-1,.38-2,.87-3.1,1.4l8.07,2.44Z" transform="translate(-15 -20.26)"/><path class="cls-1" d="M442.45,166.82l15.48,3.76v4.66l1.06.25,5.09-6.47a10.61,10.61,0,0,0-1.52-3.21,7.88,7.88,0,0,0-4.3-3L454,167.15,446,164.7c-1.11.55-2.25,1.14-3.42,1.78Z" transform="translate(-15 -20.26)"/><path class="cls-1" d="M362.15,101.09l-1.58,3.5-.73,4.66,3.65-.12.41-.23.43-.22,1.93-4Z" transform="translate(-15 -20.26)"/><path class="cls-1" d="M417.29,190l-2.35,9.71c.25.07.52.13.76.21,4,1.2,7.54,2.65,10.7,3.47a16.45,16.45,0,0,0,5.83.6l1.62-3.07v-6.91Z" transform="translate(-15 -20.26)"/><path class="cls-1" d="M459.16,191.07v-2.73l-1.62,3.08A7.92,7.92,0,0,0,459.16,191.07Z" transform="translate(-15 -20.26)"/><polygon class="cls-1" points="232.72 106.21 231.94 107.88 233.81 108 233.97 106.87 232.76 106.21 232.72 106.21"/><path class="cls-1" d="M79.26,205.91l.28-1,2.26,1.08,5.13-8.64a12.87,12.87,0,0,1,.66-1.78l-.85-.46.68-15.49v-.09l-4.93-2.31-2,4L73.12,184l-2.23,6.37-4.4,1.87A35.42,35.42,0,0,1,70,195.4l10,3.7-2.93,6,.22.37Z" transform="translate(-15 -20.26)"/><path class="cls-1" d="M70,195.4c.71.75,1.41,1.49,2,2.27.37.45.74.91,1.09,1.37s.84,1.13,1.24,1.7a.91.91,0,0,0,.11.16c.93,1.37,1.79,2.79,2.59,4.22l2.93-6Z" transform="translate(-15 -20.26)"/><path class="cls-1" d="M79.05,206.67l-1.4-.44c.34.65.67,1.31,1,2Z" transform="translate(-15 -20.26)"/><path class="cls-1" d="M83.15,231.94c0-.48,0-1,0-1.45l-4-1-3.59,2,.14.27,7.4,1.13c0-.32.06-.64.07-1Z" transform="translate(-15 -20.26)"/><path class="cls-1" d="M78.27,209.53c-.75-.77-1.5-1.54-2.27-2.28l-6.34,13.06L70,221l4.79,1.23Z" transform="translate(-15 -20.26)"/><path class="cls-1" d="M79.26,205.91l-2-.42.4.74,1.4.44Z" transform="translate(-15 -20.26)"/><path class="cls-1" d="M73.12,184l-4.93,1.83-3.58-1.49-.31,6.41c.6.37,1.21.73,1.78,1.13.14.11.26.24.41.36l4.4-1.87Z" transform="translate(-15 -20.26)"/><path class="cls-1" d="M83.14,230.48c0-.36,0-.72,0-1.08a64.68,64.68,0,0,0-.61-8.83,42.17,42.17,0,0,1,4.17,10.79l10.12,2.51,1.91-5.36L90.4,223l-.19-8.74a21.56,21.56,0,0,1-2.69-5.6l-3.93-1.89-2-.43-.55.92-1.94-.63-.42,1.53c.49,1,.94,2.06,1.35,3.11-.56-.61-1.14-1.18-1.71-1.78l-3.46,12.7L70,221l5.52,10.53,3.59-2Z" transform="translate(-15 -20.26)"/><path class="cls-1" d="M73.25,204.66c-.47-.43-.93-.88-1.41-1.29l-.09-.07q-.77-.65-1.56-1.26c-.24-.2-.48-.38-.73-.57l1.77,2.7.64.21Z" transform="translate(-15 -20.26)"/><polygon class="cls-1" points="56.87 184.12 56.23 183.92 56.29 184 56.87 184.12"/><path class="cls-1" d="M73.51,204.9l-.26-.24-1.38-.28Z" transform="translate(-15 -20.26)"/><polygon class="cls-1" points="66.8 185.69 64.54 184.6 64.26 185.65 66.54 186.12 66.8 185.69"/><polygon class="cls-1" points="65.99 187.04 66.54 186.12 64.26 185.65 64.05 186.42 65.99 187.04"/><path class="cls-1" d="M87.15,207.54a20,20,0,0,1-.22-10.24l-5.13,8.64,1.79.87Z" transform="translate(-15 -20.26)"/><polygon class="cls-1" points="68.59 186.55 66.8 185.69 66.54 186.12 68.59 186.55"/><polygon class="cls-1" points="175.18 130.84 177 131.29 177.24 130.31 175.38 129.87 175.18 130.84"/><polygon class="cls-1" points="102.49 233.75 104.05 234.28 104.21 233.87 102.49 233.75"/><path class="cls-1" d="M115.09,253.49l-1.41-1.3-8.5-2.89-2.86,4.6c1.11,0,2.22.06,3.3.17.58.05,1.16.12,1.74.2s1.39.2,2.08.32a1.08,1.08,0,0,0,.19,0,54.65,54.65,0,0,1,7.44,2l-1-3Z" transform="translate(-15 -20.26)"/><path class="cls-1" d="M115.42,253.89l1,3c.49.17,1,.33,1.46.51l1.16-2.87-1.56-.53Z" transform="translate(-15 -20.26)"/><polygon class="cls-1" points="103.52 234.54 107.91 236.03 112.19 234.72 103.68 234.13 103.52 234.54"/><path class="cls-1" d="M73.12,184l3.34-9.6,6,2.81,4.07-8.45-.06-.73-2-1.76-.07-1.35-8-1.36A50.76,50.76,0,0,1,74,168c0,.07-.09.15-.14.23-.36.59-.77,1.16-1.17,1.73s-.77,1.06-1.18,1.58a32.06,32.06,0,0,1-6,5.89l-.62.41,0,0-.31,6.41,3.58,1.49Z" transform="translate(-15 -20.26)"/><path class="cls-1" d="M124.08,251.52c-.26-.18-.48-.39-.73-.58l-3.33.27-1.24,3.1,8.5.59,2.55-.78A17.41,17.41,0,0,1,124.08,251.52Z" transform="translate(-15 -20.26)"/><path class="cls-1" d="M131.71,274.55l0,0c-.57-.62-1.21-1.19-1.81-1.78-.33-.33-.69-.63-1-.95l-1.11,4.83,5.79,3.31,1.12-1.8c-.45-.62-.93-1.24-1.43-1.84S132.23,275.12,131.71,274.55Z" transform="translate(-15 -20.26)"/><polygon class="cls-1" points="91.9 218.15 91.92 218.17 91.92 218.15 91.9 218.15"/><path class="cls-1" d="M89,193.44l4.2-11.27-5.75-2.69v.09l-.68,15.49.85.46A8.25,8.25,0,0,1,89,193.44Z" transform="translate(-15 -20.26)"/><path class="cls-1" d="M114,252l-8.5-7.88.64-2.87-4.72,1-6.2,12.22c.81-.2,1.61-.41,2.41-.54a34.05,34.05,0,0,1,5-.23l2.86-4.6Z" transform="translate(-15 -20.26)"/><path class="cls-1" d="M87.1,233.55l0,.14c.11.64.21,1.29.28,1.95a34.37,34.37,0,0,1,.2,5L94,239.46l1.85-4.58Z" transform="translate(-15 -20.26)"/><path class="cls-1" d="M98.69,228.52l-1.91,5.36-10.12-2.5h0c0,.09,0,.17.07.26.15.63.25,1.27.37,1.91l8.73,1.33L94,239.46l5.52-1,7.52-.1-4.6-7.39Z" transform="translate(-15 -20.26)"/><polygon class="cls-1" points="98.87 231.83 101.01 232.55 93.84 221.88 93.07 220.63 91.01 221.08 90.37 223.95 98.87 231.83"/><polygon class="cls-1" points="91.89 218.19 91.27 220.95 93.33 220.51 91.89 218.19"/><path class="cls-1" d="M114.88,239.37l5.41-2.82a6.85,6.85,0,0,1,4.67-2.44l1.42-.74,2.16-3-14.39-3.55.11,11.54-7.42.1v0l1.44,2.32Z" transform="translate(-15 -20.26)"/><path class="cls-1" d="M111.93,141.2l5.75.65,3.91-7.16a6.77,6.77,0,0,1-3.5-4.23,6.1,6.1,0,0,1,.23-3.53l-2.83-.43L112,132.79,103,127.72l0,10.1Z" transform="translate(-15 -20.26)"/><polygon class="cls-1" points="131.66 99 131.09 100.74 138.57 104.49 139.94 104.83 140.67 103.33 140.52 103.33 140.34 88.36 136.78 85.71 136.75 101.28 131.66 99"/><polygon class="cls-1" points="152.96 107.94 154.36 104.54 154.93 103.55 141.25 103.31 140.52 104.81 152.96 107.94"/><polygon class="cls-1" points="163.96 89.57 173.1 91.12 170.76 84.77 164.33 82.09 160.51 83.77 148.96 89.7 143.4 101.15 157.08 101.39 163.96 89.57"/><path class="cls-1" d="M173.66,121l2.82,0a6,6,0,0,1,.33-2.92c1.71-4.24,8.12-5.66,14.4-3.24l-1.53-4.16-9.14-1.55Z" transform="translate(-15 -20.26)"/><path class="cls-1" d="M125.78,112.08l10.77.37-2.82-5.94-.68-.65c-1,.45-2,.88-2.94,1.27.73-.67,1.42-1.37,2.12-2l-1.59-1.53L128.49,109Z" transform="translate(-15 -20.26)"/><path class="cls-1" d="M87.57,240.65a31.12,31.12,0,0,1-.29,3.43,21.22,21.22,0,0,1-.7,3l2,5.7L94,239.47Z" transform="translate(-15 -20.26)"/><path class="cls-1" d="M136.79,112.19l11.85.41-2.24,6.8,5.09,2.28,0-15.57-7.71-5.72,0-1.4c-.41.33-.82.67-1.24,1s-1.13.84-1.7,1.24l-.15.11a54,54,0,0,1-7.48,4.28l.69.65Z" transform="translate(-15 -20.26)"/><path class="cls-1" d="M207.53,125.28a6.44,6.44,0,0,1-.42.72l6.16-2.21,2-2.58.09-.85-10-3.18C207.61,119.73,208.56,122.72,207.53,125.28Z" transform="translate(-15 -20.26)"/><polygon class="cls-1" points="110.78 91.81 113.48 88.74 115.63 83.28 109.94 77.85 108.32 80.86 109.44 91.77 110.78 91.81"/><path class="cls-1" d="M195.38,112.24l.48-3.85-2.22-.38,1.52,4.16Z" transform="translate(-15 -20.26)"/><polygon class="cls-1" points="175.91 127.61 175.45 129.79 177.31 130.23 177.52 129.4 175.91 127.61"/><path class="cls-1" d="M202.68,129.79a7.89,7.89,0,0,1-5.86,3.52l-2.77,13.22,1.6,1.8-.2.82,13,3.07,2.41-11.4-1.76-.49L210.82,125l-2,2.58Z" transform="translate(-15 -20.26)"/><path class="cls-1" d="M116.67,258.47l.29.87.34-.86Z" transform="translate(-15 -20.26)"/><path class="cls-1" d="M95.4,254.43l6.2-12.22,4.71-1,.62-2.77,0,0-7.52.09-5.52,1-5.35,13.3L89,254l0,.25,3.75,1.05c.63-.24,1.25-.46,1.87-.71C94.83,254.54,95.11,254.5,95.4,254.43Z" transform="translate(-15 -20.26)"/><path class="cls-1" d="M111.64,258.31c-.8,0-1.6,0-2.39.11h-.11c-.67.06-1.33.14-2,.21a35.82,35.82,0,0,0-8,1.7l2.65,1.11L115,265.49l2.58-6.41-.29-.87C115.37,258.2,113.49,258.22,111.64,258.31Z" transform="translate(-15 -20.26)"/><path class="cls-1" d="M99.1,136.39l3.81,1.43,0-10.1-13.5-7.54-1.83,9.11a39.37,39.37,0,0,1-.18,4.5c-.06.58-.12,1.16-.2,1.73s-.17,1.16-.27,1.74l2,1.58Z" transform="translate(-15 -20.26)"/><polygon class="cls-1" points="78.56 160.84 79.67 155 71.78 147.99 71.55 148.47 72.41 159.22 78.16 161.91 78.56 160.84"/><path class="cls-1" d="M87,137.26c0,.11,0,.23,0,.34l0,.19c-.11.56-.24,1.1-.36,1.65l2.46-.6Z" transform="translate(-15 -20.26)"/><polygon class="cls-1" points="70.25 132.96 68.77 131.57 69.33 142.49 69.77 142.73 70.25 132.96"/><path class="cls-1" d="M91.91,149.66l3,.37c2.3-2.17,5-3.18,7.53-2.38a6.76,6.76,0,0,1,4,3.79l1.75.21L112,147.8l-16-3.47-7-5.49-2.46.6c-.22,1-.47,2-.74,3l-.53,10.8,4.59,4.29Z" transform="translate(-15 -20.26)"/><polygon class="cls-1" points="71.49 147.73 71.55 148.47 71.78 147.99 71.49 147.73"/><polygon class="cls-1" points="69.44 144.62 69.51 145.97 71.49 147.73 71.26 144.92 69.44 144.62"/><polygon class="cls-1" points="72.28 146.94 74.84 137.25 70.25 132.96 69.77 142.73 69.33 142.49 69.44 144.62 71.26 144.92 71.49 147.73 71.78 147.99 72.28 146.94"/><path class="cls-1" d="M70,221l-4.28-1.1c.83,2.22,1.75,4.4,2.74,6.55.55,1.19,1.13,2.37,1.72,3.53.4.78.82,1.54,1.24,2.3l1.8.56,2.3-1.31Z" transform="translate(-15 -20.26)"/><path class="cls-1" d="M69.66,220.31,76,207.25c-.8-.76-1.59-1.53-2.4-2.27l-.09-.08-1.64-.52-.58-.12-.06-.09-8.86-2.83-1.24,1.46c.52,3,1.16,5.94,1.95,8.83.34,1.27.7,2.54,1.1,3.79s.83,2.55,1.29,3.8l.27.68L70,221Z" transform="translate(-15 -20.26)"/><path class="cls-1" d="M134.4,255c-2,1.66-5,2.07-8.29,1.27l-2.54.79,9.42.65-2.31,10.11a48.12,48.12,0,0,1,4.36,2.33l.23.13c.59.37,1.16.78,1.74,1.18s1,.72,1.46,1.1l2.22-3.56,7.05-7.14-14.2-4.48Z" transform="translate(-15 -20.26)"/><path class="cls-1" d="M83.08,232.93l-7.4-1.13-.14-.27-2.3,1.31.46.14,8.38,6.54a31.5,31.5,0,0,0,.9-5.24C83,233.83,83.05,233.38,83.08,232.93Z" transform="translate(-15 -20.26)"/><path class="cls-1" d="M117.76,111.39l-3.83,7.07,3.48,4.55,1.94-3.53,6.29-7.15-1.33,0-1.13-10.91-4.75,8.77c.76-.08,1.52-.12,2.28-.23C119.75,110.45,118.76,110.94,117.76,111.39Z" transform="translate(-15 -20.26)"/><path class="cls-1" d="M119.06,125.38l-1.72-2.25-1.84,3.35,2.84.43A7.58,7.58,0,0,1,119.06,125.38Z" transform="translate(-15 -20.26)"/><path class="cls-1" d="M104.15,115l0,.4.18-.41Z" transform="translate(-15 -20.26)"/><path class="cls-1" d="M113.87,118.56l3.83-7.06a45.38,45.38,0,0,1-7.85,2.68l-.26.07c-.67.16-1.36.27-2,.39s-1.3.21-2,.28l-1.28.12-.19.4-.47,9.21,11.86,1.82,1.84-3.36Z" transform="translate(-15 -20.26)"/><polygon class="cls-1" points="94.64 206.4 87.52 197.78 87.42 197.77 83.69 208.26 87.42 210.7 92.02 218.09 92.05 218.09 94.64 206.4"/><polygon class="cls-1" points="234.97 106.39 235.08 105.67 233.76 105.73 234.97 106.39"/><polygon class="cls-1" points="235.69 102.65 235.7 102.63 235.73 102.65 237.05 102.59 238.54 92.43 236.36 90 229.98 102.9 235.69 102.65"/><path class="cls-1" d="M210.23,105.26l-5.43-.92-.48,3.85h0a16.34,16.34,0,0,1,6.22,4.31l10,3.18-.1.85L227,108l3.74-.78-16.55-2.83.78-2c-1.09-.34-2.16-.73-3.22-1.15Z" transform="translate(-15 -20.26)"/><path class="cls-1" d="M136.3,252.67a7,7,0,0,1-.41.82,5.81,5.81,0,0,1-1,1.08L134,257l14.2,4.48.48-.49-12-5.57Z" transform="translate(-15 -20.26)"/><path class="cls-1" d="M86.1,118l-1,.65.19.32a9.8,9.8,0,0,1,.89,2c.16.43.3.86.47,1.28a31.06,31.06,0,0,1,.72,3.19l1.57-7Z" transform="translate(-15 -20.26)"/><path class="cls-1" d="M80.59,143.13l2.83-2.25c0-.26,0-.53,0-.79,0-.8-.05-1.6-.11-2.39a.37.37,0,0,0,0-.11c0-.67-.13-1.33-.21-2A34.11,34.11,0,0,0,81.18,127c-.05-.1-.09-.19-.13-.29a93.76,93.76,0,0,0-5.92,8.2l4.08,4.31Z" transform="translate(-15 -20.26)"/><path class="cls-1" d="M83.55,151.5l.21.1v.23l1.48,1.39.53-10.8a49.56,49.56,0,0,1-2.34,6.66c.12-2.77.09-5.5,0-8.2l-2.83,2.25Z" transform="translate(-15 -20.26)"/><polygon class="cls-1" points="244.18 137.17 251.07 132.01 256.15 126.11 239.21 124.49 246.1 132.39 244.18 137.17"/><path class="cls-1" d="M240.86,145.18l2.19.21-1.77-2-1.75-.48-.42.93A17,17,0,0,1,240.86,145.18Z" transform="translate(-15 -20.26)"/><path class="cls-1" d="M249,152.12a22.14,22.14,0,0,1,2.28,6.76l.1-.08,1.93-4.78-6.9-7.89-2.19-.21A22.24,22.24,0,0,1,249,152.12Z" transform="translate(-15 -20.26)"/><path class="cls-1" d="M236.48,144.08l.41-.93-2.84-.78-.13.26A15.31,15.31,0,0,1,236.48,144.08Z" transform="translate(-15 -20.26)"/><path class="cls-1" d="M210.55,152.8l-13-3.08-.24,1,13.77,3.46c0-4.32,1.54-8,4.65-9.62a9.14,9.14,0,0,1,8.06.12l.12-.25-11-3Z" transform="translate(-15 -20.26)"/><polygon class="cls-1" points="233.01 105.81 233.01 105.83 233.05 105.82 233.01 105.81"/><polygon class="cls-1" points="110.09 77.51 110.62 76.53 108.89 75.94 109.15 76.61 110.09 77.51"/><polygon class="cls-1" points="205.48 118.4 216.45 121.42 220.87 112.05 207.02 111.11 205.48 118.4"/><path class="cls-1" d="M87.62,129.28l1.83-9.1L103,127.71v-2.63l-7.22-7.7L87.57,117,86.1,118l2.83.41-1.57,7s0,0,0,.07A35.77,35.77,0,0,1,87.62,129.28Z" transform="translate(-15 -20.26)"/><path class="cls-1" d="M230.63,78c-.75-.4-1.49-.8-2.24-1.17l-.38,1,2.61.16Z" transform="translate(-15 -20.26)"/><path class="cls-1" d="M145.47,96.79l-.14.11,0,1.4L153,104l0-9.68L164.88,89c0-.06-.06-.12-.1-.18l-12.25,4.67-3.21-.42A38,38,0,0,1,145.47,96.79Z" transform="translate(-15 -20.26)"/><path class="cls-1" d="M153.92,103.67l3.56,2.65.18,15h.15l5.56-11.45,11.55-5.93,3.81-1.68-8.47-3.52.68-4.17a30.58,30.58,0,0,1-4.31-4.61l-.8-1.17,0-.07L153.93,94Z" transform="translate(-15 -20.26)"/><path class="cls-1" d="M123.07,97.59l.34,3.29,1.63-3-.94-.9-.26-.68-.1,0-.86.32Z" transform="translate(-15 -20.26)"/><path class="cls-1" d="M104.47,109.94c.67.11,1.35.22,2,.3l3.22-7,2.12-1.55-.4.2c-1.12.58-2.24,1.19-3.34,1.81-2.31,1.32-4.55,2.75-6.74,4.25l3.15,1Z" transform="translate(-15 -20.26)"/><polygon class="cls-1" points="115.75 83.03 117.37 78.93 110.6 76.61 110.07 77.6 115.75 83.03"/><path class="cls-1" d="M132.4,104.76c1.41-1.38,2.79-2.78,4.1-4.22l-4.08-1.4-1.61,4.1Z" transform="translate(-15 -20.26)"/><path class="cls-1" d="M106.56,110.13c.17,0,.33.06.51.07.76.07,1.53.14,2.3.17h0c.83,0,1.69,0,2.54,0,2.16,0,4.35-.15,6.56-.37l4.75-8.77-.35-3.29-.19-1c-2.59.94-5.15,1.95-7.63,3.1-1.07.5-2.13,1-3.18,1.57l-2.13,1.54Z" transform="translate(-15 -20.26)"/><path class="cls-1" d="M193,98.16a38.59,38.59,0,0,1-5.45-2l-2.46,1.08,6.44,2.67,2.33,6.36,2.23.38,1.26-10.2-7.5-1.3-.34.14Q191.18,96.79,193,98.16Z" transform="translate(-15 -20.26)"/><path class="cls-1" d="M104.43,110l.06-1-3.15-1c-.46.31-.92.6-1.37.92A27.66,27.66,0,0,0,104.43,110Z" transform="translate(-15 -20.26)"/><path class="cls-1" d="M222.36,92l3-7.77c-.32-.18-.66-.34-1-.51h0l-2.6-.16L218.68,92C219.92,92,221.14,92,222.36,92Z" transform="translate(-15 -20.26)"/><path class="cls-1" d="M200.86,103.24l5.42.92,1.48-4c-.56-.22-1.11-.43-1.66-.67.64,0,1.26,0,1.89,0l3.09-8.43L198,90.25l-3.39,1.49,7.51,1.3Z" transform="translate(-15 -20.26)"/><path class="cls-1" d="M104.12,115.44l0-.4a30.89,30.89,0,0,1-7-.22,19.92,19.92,0,0,1-2.92-.68l-.34,1.23,1.86,2,7.32.34Z" transform="translate(-15 -20.26)"/><polygon class="cls-1" points="87.96 107.45 97.04 112.53 100.5 106.23 88.63 104.42 89.11 95.21 88.07 97.46 80.75 97.13 87.97 104.81 87.96 107.45"/><path class="cls-1" d="M190.79,93.16l-.6-.1.26.25Z" transform="translate(-15 -20.26)"/><polygon class="cls-1" points="209.37 98.63 207.63 113.95 209.39 114.43 210.93 107.14 224.78 108.08 225.56 106.42 219.85 106.67 226.23 93.76 222.75 89.87 219.61 89.33 215.87 90.11 209.37 98.63"/><path class="cls-1" d="M221.58,223l-3.41-1.91a6.24,6.24,0,0,1-3.6.16A4.38,4.38,0,0,1,214,221l-.5,1.28,6.29,3,.69-1Z" transform="translate(-15 -20.26)"/><polygon class="cls-1" points="207.16 204.56 206.47 205.6 208.29 206.46 209.28 203.92 208.23 203.34 207.16 204.56"/><path class="cls-1" d="M259.68,158.55l-.08.2c.85,5.25-.54,9.94-4,12.09h6.23l.11-.35-2-.68,5.47-10.06,1.73-5.38,1,.4,3.95-7.25-.44,0-5.08,5.9Z" transform="translate(-15 -20.26)"/><path class="cls-1" d="M225.9,217.33a10.67,10.67,0,0,1-4.85,3.64l3.42,1.91,2.27-2.59,1-2.54Z" transform="translate(-15 -20.26)"/><polygon class="cls-1" points="210.87 203.61 212.1 200.44 209.83 203.03 210.87 203.61"/><polygon class="cls-1" points="214.28 200.21 216.31 197.9 215.27 197.66 214.28 200.21"/><polygon class="cls-1" points="188.94 212.53 187.01 217.52 187.45 217.75 191.14 217.41 190.69 215.33 188.94 212.53"/><path class="cls-1" d="M202.67,230.91l-5.11-8.2-4.12-1.88a7,7,0,0,1-10.66,0l-.15.07,3.45,8.66.47,4.1c5.09-1.54,9.95-.55,11.77,2.75l2.85-.26-.44-.24Z" transform="translate(-15 -20.26)"/><polygon class="cls-1" points="238.37 194.01 237.02 192.39 226.1 190.88 223.36 197.97 224.39 198.2 228.01 194.08 238.37 194.01"/><path class="cls-1" d="M135.92,251.77a5.81,5.81,0,0,1-.48,1.44l.36,2.71,12,5.57,1.87-1.91,9.25.92.15-3.38-13.6-6.07-.92-.08Z" transform="translate(-15 -20.26)"/><polygon class="cls-1" points="136.94 215.4 128.31 219.34 132.48 228.86 133.35 229.25 148.37 230.6 148.97 224.16 139.88 224.45 136.94 215.4"/><path class="cls-1" d="M143.77,239.2l-1.36.62-.69,1.19-2.41,6.66a7.46,7.46,0,0,1-.08,2.17l8.67-.81.92.09-.88-.4Z" transform="translate(-15 -20.26)"/><polygon class="cls-1" points="139.4 214.41 137.53 215.26 140.47 224.31 149.56 224.02 150.46 214.36 139.4 214.41"/><path class="cls-1" d="M64.87,177.84a14.49,14.49,0,0,1-2.22,1.33c-.35.18-.74.31-1.1.48l.25.09.68,3.67,2.13.89.31-6.41Z" transform="translate(-15 -20.26)"/><path class="cls-1" d="M179.58,220.59l-1.11.51-5.28,3.84-1.8,9.59-4,0-.9,9.65,5.9-.19c.57-3.39,3.44-7,7.82-9.35a18.69,18.69,0,0,1,3.28-1.31l-.47-4.11Z" transform="translate(-15 -20.26)"/><polygon class="cls-1" points="192.23 211.91 193.97 214.71 194.42 216.79 194.71 216.76 202 205.9 195.71 202.95 192.23 211.91"/><path class="cls-1" d="M77.46,158.92c.41-.5.83-1,1.23-1.51-.18.63-.39,1.25-.6,1.87l6.24,3.46-.56-10.91-.16-.15-.06-.18-9.25-4.05-6.63,1.22c-.56,1.29-1.1,2.6-1.61,3.92Z" transform="translate(-15 -20.26)"/><path class="cls-1" d="M238.52,173.85l-1.31,15.79L252.92,198l8-8.63-8.31-2-7.23-10.77.84-2.09A9.56,9.56,0,0,1,238.52,173.85Z" transform="translate(-15 -20.26)"/><path class="cls-1" d="M69.26,145.24c-.55,1.13-1.09,2.27-1.59,3.43l6.63-1.22Z" transform="translate(-15 -20.26)"/><path class="cls-1" d="M242.89,191.14l-.36,4.31.14.6a4.5,4.5,0,0,1,.63.07,7.3,7.3,0,0,1,4.71,4.7l7.62,4.64,5.14,6.16,5.51.76,3.41-19.61,6.5.48v0l-9.63-2.36-8,8.63Z" transform="translate(-15 -20.26)"/><path class="cls-1" d="M75.4,147.25l5.19-4.12-1.38-3.9-4.08-4.31c-.56.85-1.14,1.67-1.67,2.54-.67,1.11-1.32,2.25-1.95,3.4s-1.29,2.4-1.89,3.63c-.13.24-.24.5-.36.75l5,2.21Z" transform="translate(-15 -20.26)"/><polygon class="cls-1" points="255.21 138.27 257.92 133.29 256.93 132.89 255.21 138.27"/><polygon class="cls-1" points="245.3 151.28 248.74 140.55 243.27 150.61 245.3 151.28"/><path class="cls-1" d="M61.55,179.65a16.27,16.27,0,0,1-1.59.7l-.46.17-1.66.54-.56.09-.14,0,5.34,2.23-.68-3.67Z" transform="translate(-15 -20.26)"/><path class="cls-1" d="M300.21,234.15c.36-1,.69-2,1-3l-3-.64Z" transform="translate(-15 -20.26)"/><path class="cls-1" d="M262.55,221.4l-1.92-2.3-10.36.08-3.62,4.12,9.18,2.1-1.57,12.14,3.73-5.39.9.41a50.1,50.1,0,0,1,2.1-5.76c-.1,2.27-.08,4.5,0,6.72l9.11,4.2c.46-.87.92-1.74,1.34-2.63.57-1.18,1.11-2.37,1.63-3.58.62-1.42,1.19-2.88,1.73-4.34l-2-3.59Z" transform="translate(-15 -20.26)"/><path class="cls-1" d="M302.7,229.13l3,.65c.31-.93.65-1.85.93-2.79,0-.15.08-.3.13-.45l-6.09-1Z" transform="translate(-15 -20.26)"/><path class="cls-1" d="M284.59,214.61l-5.51-.76,1.35,1.61,4.66,0,5.49.91-1.45-2.61,1.37-4.67a64.35,64.35,0,0,0-5,5.76,42.07,42.07,0,0,1,4.69-10.58c0-.08.08-.16.13-.23.36-.59.77-1.16,1.18-1.74s.77-1.06,1.18-1.57c.11-.15.25-.28.37-.42l1.41-4.8L288,195Z" transform="translate(-15 -20.26)"/><path class="cls-1" d="M317,215.73c.6-2.84,1.06-5.73,1.41-8.65a30.69,30.69,0,0,0-5.07,3.48c-.59.49-1.18,1-1.75,1.51l0,0c-.62.57-1.19,1.21-1.78,1.81-.29.29-.57.61-.86.91l-1.37,4.67L309,222.1l6.09,1c.35-1.17.69-2.34,1-3.52S316.72,217,317,215.73Z" transform="translate(-15 -20.26)"/><path class="cls-1" d="M315.82,196.1l-3.19-.24-1.41,4.8A32,32,0,0,1,315.82,196.1Z" transform="translate(-15 -20.26)"/><path class="cls-1" d="M190.52,184.16l2.51-2.08.27.16a5.52,5.52,0,0,1,7.1-.11l4.21-5.92.86-1.46-.87-.86.22-.81-3.55-1.19-9.14,8.67-4.42-1.94,1.74,4.3Z" transform="translate(-15 -20.26)"/><path class="cls-1" d="M155.88,81.59c-.1.4-.19.8-.3,1.19a7.48,7.48,0,0,1-.53,1.44c-.27.62-.57,1.22-.82,1.84-.17.28-.35.54-.52.81-.41.69-.82,1.38-1.27,2-.63.81-1.31,1.52-2,2.24l3.21.42,12.24-4.67a10.85,10.85,0,0,1-.8-1.42c-.19-.35-.36-.71-.53-1.07a13,13,0,0,1-.82-2.08l-.2-.61-.35-1-.05-.33-7,0C156.07,80.72,156,81.16,155.88,81.59Z" transform="translate(-15 -20.26)"/><path class="cls-1" d="M185.3,178.64l-.37-.93c-.1.22-.23.42-.34.62Z" transform="translate(-15 -20.26)"/><path class="cls-1" d="M182.77,180.88l.61,4.29,3.57,0,1.25-1-1.08-1.24-1.73-4.29-.71-.31A10.85,10.85,0,0,1,182.77,180.88Z" transform="translate(-15 -20.26)"/><path class="cls-1" d="M205.31,205.6l3.11,4.66A18,18,0,0,1,209,205a16.45,16.45,0,0,1,4-7.28l1.55-4.37-3.33-2Z" transform="translate(-15 -20.26)"/><path class="cls-1" d="M183.65,79.87l9.07,2.19,4.57.42,0,0c-1.27-.42-2.54-.82-3.83-1.19s-2.42-.68-3.65-1c-2-.5-4.11-.91-6.2-1.28l-.17.46C183.47,79.6,183.57,79.73,183.65,79.87Z" transform="translate(-15 -20.26)"/><polygon class="cls-1" points="171.46 130.65 172.58 130.53 172.85 129.54 171.84 129.3 171.46 130.65"/><path class="cls-1" d="M180.12,156.46l.34,7.69a10.55,10.55,0,0,1,1.25.95l3.94-13.92-6.23.63Z" transform="translate(-15 -20.26)"/><polygon class="cls-1" points="194.49 152.92 194.97 153.39 198.01 148.27 194.57 149.56 193.75 152.67 194.49 152.92"/><path class="cls-1" d="M127.48,145.4l-1.5-3.87-.89-5.59-.31-.08-5,6.22,4.43.5-1.91,5.5,2.24.84A5.33,5.33,0,0,1,127.48,145.4Z" transform="translate(-15 -20.26)"/><polygon class="cls-1" points="204.71 162.95 205.07 164.45 205.84 162.28 196.62 153.45 196.06 154.41 204.71 162.95"/><polygon class="cls-1" points="200.41 166.82 198.71 170.94 202.04 172.94 203.93 167.63 201.25 166.21 200.41 166.82"/><path class="cls-1" d="M209.59,174.71l-.86,1.46-4.21,5.92a5.55,5.55,0,0,1,2,3.2l8.16.09L214,187l.84-.61,2.68,1.42,1.09-3.08-.35-1.5Z" transform="translate(-15 -20.26)"/><polygon class="cls-1" points="193.06 149.61 189.19 151.06 188.7 151.53 192.25 152.72 193.06 149.61"/><polygon class="cls-1" points="173.32 129.4 175.02 129.8 175.47 127.62 174.21 126.19 173.32 129.4"/><polygon class="cls-1" points="193.03 152.73 192.82 153.55 193.69 154.4 194.25 153.45 193.77 152.98 193.03 152.73"/><path class="cls-1" d="M179.49,83.12l.16-.47-.54-.11C179.23,82.73,179.37,82.92,179.49,83.12Z" transform="translate(-15 -20.26)"/><polygon class="cls-1" points="139.21 106.22 139.69 105.23 138.31 104.88 130.83 101.14 129.24 105.99 139.21 106.22"/><path class="cls-1" d="M144.39,126.35l-1.72,5.22.14,0v.17l16.13,5.3.19,2a8.1,8.1,0,0,1,1-.1,7.39,7.39,0,0,1,2.71.53l4.44-10.82-12.44-3.12-.48,1Z" transform="translate(-15 -20.26)"/><path class="cls-1" d="M184.73,133.08c-.43-.18-.82-.4-1.23-.6l-.37,6.84,5.91,6.62,3.25-11.69A16.44,16.44,0,0,1,184.73,133.08Z" transform="translate(-15 -20.26)"/><polygon class="cls-1" points="124.39 98.04 130.66 101.18 131.23 99.44 123.39 95.93 124.39 98.04"/><path class="cls-1" d="M128.23,119.28c.45-.11.88-.15,1.32-.22l1-6,7.59,3.4-1.76-3.71-10.77-.37-6.29,7.15L117.4,123l1.72,2.25C120.76,122.6,124.08,120.29,128.23,119.28Z" transform="translate(-15 -20.26)"/><path class="cls-1" d="M168.75,146.26a7.34,7.34,0,0,1-3,5.93l5.21,0,6.88-.69-1.38-9.2-3.92-12.75-4-1-4.45,10.82A7.37,7.37,0,0,1,168.75,146.26Z" transform="translate(-15 -20.26)"/><polygon class="cls-1" points="131.29 99.35 133.53 92.54 121.68 92.14 123.44 95.84 131.29 99.35"/><path class="cls-1" d="M138.27,116.31l-7.6-3.4-1,6c6.15-1,11.7,1.26,12.72,5.46a6,6,0,0,1,.09,2l1.49,0,1.59-4.86-6.27-3.14Z" transform="translate(-15 -20.26)"/><path class="cls-1" d="M246.77,96.68a36.83,36.83,0,0,1-8.32.07c-.58-.06-1.16-.12-1.74-.2s-1.39-.2-2.08-.33l-.18,0A56.7,56.7,0,0,1,228,94.57l-.79,2,16.55,2.83,4.74-1,.64-2.28-1.13.26C247.62,96.49,247.19,96.61,246.77,96.68Z" transform="translate(-15 -20.26)"/><path class="cls-1" d="M186.87,78.16a31,31,0,0,0,2.21,3c.49.59,1,1.17,1.51,1.74l0,0c.56.61,1.21,1.18,1.81,1.78.94.93,1.92,1.84,2.92,2.73l.6.1,3.39-1.49,13.07.83.37-1-.24-.13a95.41,95.41,0,0,0-12-5l-4.58-.42Z" transform="translate(-15 -20.26)"/><path class="cls-1" d="M189.92,145.87l1.27,1.42L194,134.08c-.26,0-.52.08-.79.1Z" transform="translate(-15 -20.26)"/><polygon class="cls-1" points="255.21 89.07 252.89 85.63 252.78 86.35 255.21 89.07"/><path class="cls-1" d="M177.52,142l1.38,9.2,6.22-.62.38-1.35,1,.24.89-3.2-5.92-6.63.37-6.84c-4.28-2.1-7.12-5.56-7.48-8.89l-2.82,0-.57,1-1.4,3.4,4,1Z" transform="translate(-15 -20.26)"/><polygon class="cls-1" points="241.83 78.83 245.31 82.72 245.79 81.76 243.24 77.98 243.43 77.3 238.69 78.29 241.83 78.83"/><polygon class="cls-1" points="251.42 85.68 251.53 84.95 249.72 82.27 249.24 83.24 251.42 85.68"/><polygon class="cls-1" points="104.83 149.71 104.42 150.27 103.95 151.51 104.78 150.86 104.83 149.71"/><path class="cls-1" d="M99.32,195.29a20.91,20.91,0,0,1,4.05,8,20.43,20.43,0,0,1,.34,9.76l7.8-5.13.16-.14-4.84-9.58Z" transform="translate(-15 -20.26)"/><path class="cls-1" d="M120.67,215.4a2.08,2.08,0,0,1,0-.23l-6.41-2.67,0,1.65,3.46,5.82,1,.13Z" transform="translate(-15 -20.26)"/><path class="cls-1" d="M121.49,189.45l-22.08-1.93,1-4.63-3.06,1.23-4-1.87-1.8,9.51,0,0c2.57-.69,5.4.77,7.74,3.55l7.51,2.89,4.84,9.58,2.36-2.11Z" transform="translate(-15 -20.26)"/><polygon class="cls-1" points="96.67 187.5 97.4 188.94 99.03 185.39 96.67 187.5"/><path class="cls-1" d="M209.85,191.33,207.7,190l-5.81,4.24-1.06,17.24,6.66,1.67a13.79,13.79,0,0,1-.44-2.94l-3.11-4.66Z" transform="translate(-15 -20.26)"/><polygon class="cls-1" points="97.53 190.99 96.69 198.94 99.31 199.28 99.25 193.89 97.53 190.99"/><path class="cls-1" d="M114.26,212.5l6.41,2.66a6.23,6.23,0,0,1-.12-1.15,6.79,6.79,0,0,1,3-5.64l1.35-3.32,12.93,1.57L132.54,198l.29-1-7.51-5.74-3.95,7.84L114,205.65l-1.63,3.55.29.57-.16,1.47,1.73,2.91Z" transform="translate(-15 -20.26)"/><polygon class="cls-1" points="97.4 188.94 96.92 189.97 97.53 190.99 97.69 189.51 97.4 188.94"/><path class="cls-1" d="M121.49,189.45,114,205.65l7.33-6.54,4-7.84-3-2.3.17-2.5a5.27,5.27,0,0,1-8.71-1.07l-.22.58-11-4-2.16.87-1,4.63Z" transform="translate(-15 -20.26)"/><path class="cls-1" d="M127.67,159l11.9,6.41a5.62,5.62,0,0,1,.44-.53l-1.17-.83-7.05-8.94a5.23,5.23,0,0,1-2.06.42,5.32,5.32,0,0,1-5.32-5.32,5.1,5.1,0,0,1,.18-1.3l-2.25-.84-1.76,5-.53,12.27,1.44,2.27Z" transform="translate(-15 -20.26)"/><polygon class="cls-1" points="104.92 147.54 104.83 149.71 105.61 148.62 104.92 147.54"/><path class="cls-1" d="M190.56,150.51l-1.7-.41-.27,1-1.12.11-3.94,13.92a10.57,10.57,0,0,1,3.71,8,10.7,10.7,0,0,1-1,4.48l.37.93,4.42,1.94,9.14-8.68-11.9-4,3.93-15.88-1.82-.46Z" transform="translate(-15 -20.26)"/><path class="cls-1" d="M113.76,185.4a5.23,5.23,0,0,1-.6-2.4,5.32,5.32,0,0,1,3.39-4.95l2.4-6.28-9.44,7.45-6.94,2.8,11,4Z" transform="translate(-15 -20.26)"/><polygon class="cls-1" points="244.72 100.56 246.39 100.49 249.31 94 249.23 93.99 248.64 93.13 246.22 90.41 244.72 100.56"/><path class="cls-1" d="M118.48,177.68a5.31,5.31,0,0,1,4.44,2.41l.47-6.85-2.78-4.36-.78,1.09,0,1.15-.83.65-2.39,6.28A5.33,5.33,0,0,1,118.48,177.68Z" transform="translate(-15 -20.26)"/><polygon class="cls-1" points="99.3 199.28 102.71 199.71 99.25 193.89 99.3 199.28"/><path class="cls-1" d="M158.77,69.1l2.33-5.39-5.44.16-.49.5a28.19,28.19,0,0,1,2.17,7.35Z" transform="translate(-15 -20.26)"/><path class="cls-1" d="M139.27,209l-1-1.68-4,13.49-3.06-1.27a6.77,6.77,0,0,1-10.54-4.17l-1.92,4.71-1-.13.83,1.39,21,.07,3.63-10.78Z" transform="translate(-15 -20.26)"/><path class="cls-1" d="M125.89,96.33l6.77,2.32L134.89,93l6.89.89a32.22,32.22,0,0,0,1.75-2.79,94,94,0,0,0-9.83,1.77c-1.26.3-2.52.62-3.76,1s-2.49.73-3.72,1.13l.3.22Z" transform="translate(-15 -20.26)"/><path class="cls-1" d="M132.69,98.65l4.07,1.4.11-.11c.54-.59,1.1-1.17,1.61-1.77l.08-.08c.43-.52.84-1,1.26-1.56.7-.88,1.37-1.77,2-2.67L134.93,93Z" transform="translate(-15 -20.26)"/><path class="cls-1" d="M157.87,71.38s0,.08,0,.13a15.3,15.3,0,0,1,.16,3.69,7.77,7.77,0,0,1-.1,1.2l7,0L164.73,75c-.09-.58-.2-1.19-.25-1.76l-.06-1.66a35,35,0,0,1,.85-8.35l-3.64.1-2.34,5.39Z" transform="translate(-15 -20.26)"/><path class="cls-1" d="M206.66,190,203,187.81a5.6,5.6,0,0,1-5,4.35l.68.79-3.29,15.23a7.09,7.09,0,0,1,3.28,3l1.09.27,1.06-17.23Z" transform="translate(-15 -20.26)"/><path class="cls-1" d="M198,214.73l.18-2.91-1.09-.27A6.87,6.87,0,0,1,198,214.73Z" transform="translate(-15 -20.26)"/><path class="cls-1" d="M123.9,96.06l0,.07,1.73.59.64-1.17-.31-.23-.21.07C125.13,95.6,124.52,95.84,123.9,96.06Z" transform="translate(-15 -20.26)"/><path class="cls-1" d="M143.51,210.81l-.29-.12-3.64,10.78h4.14l.21,1.31.77.08a14.57,14.57,0,0,1-2-7.34A14.77,14.77,0,0,1,143.51,210.81Z" transform="translate(-15 -20.26)"/><polygon class="cls-1" points="124.4 201.26 124.13 202.07 128.75 202.58 128.54 201.27 124.4 201.26"/><path class="cls-1" d="M83.45,116.19a11.16,11.16,0,0,1,1.11,1.5l1.55.23,1.47-1,8.19.38-1.86-2,.34-1.23-.32-.09a3.59,3.59,0,0,0-.35-.12,16,16,0,0,1-2.76-1.12s0,0-.07,0l-1.56-.8-.73-.52-.71-.51-.91-.68v5.45L83,115.64l.15.16C83.26,115.92,83.34,116.06,83.45,116.19Z" transform="translate(-15 -20.26)"/><path class="cls-1" d="M86.86,110.23c-.17-.13-.36-.25-.52-.38l-1.21-1.14a39.9,39.9,0,0,1-7.64-10.43s0-.09-.07-.15l-1.26.05-4.6,8.6L71,108.53a32.19,32.19,0,0,1,9.48,4.72A16.9,16.9,0,0,1,83,115.6l3.84.08Z" transform="translate(-15 -20.26)"/><path class="cls-1" d="M184.81,208.49l2.69-11.41-8.74-5.26-5.67,13.56-.74,1.72a14.65,14.65,0,0,1,2.57,7.62l3.07.51.23-1.23,3,.55A7.05,7.05,0,0,1,184.81,208.49Z" transform="translate(-15 -20.26)"/><path class="cls-1" d="M177.27,215.43l3.33.55a7.1,7.1,0,0,1-.12-1.14s0-.05,0-.08l-3-.56Z" transform="translate(-15 -20.26)"/><polygon class="cls-1" points="106.47 147.42 105.02 145.15 104.92 147.54 105.61 148.62 106.47 147.42"/><path class="cls-1" d="M183.63,258.79l-.12,1.49,3.58,3.53,5,4.29c1.37-.47,2.76-.9,4.18-1.25l.26-.07c.67-.16,1.37-.27,2.06-.39s1.29-.21,1.94-.28,1.32-.14,2-.18l-5.38-8.12-.7-3.21-8.58-.8A14.67,14.67,0,0,1,183.63,258.79Z" transform="translate(-15 -20.26)"/><path class="cls-1" d="M199.37,240.13l-2.85.27a.47.47,0,0,1,.06.09,7.13,7.13,0,0,1-.34,6.57l8.58.8-1.19-5.44Z" transform="translate(-15 -20.26)"/><path class="cls-1" d="M180.14,216.16l-3.32-.54-1.59,8.44,5.29-3.84,1.11-.51-.19-.49A7,7,0,0,1,180.14,216.16Z" transform="translate(-15 -20.26)"/><path class="cls-1" d="M169.65,259.36l-3.08,6.13,6.81-2,1-4.9A15.92,15.92,0,0,1,169.65,259.36Z" transform="translate(-15 -20.26)"/><path class="cls-1" d="M206.39,213.87l-6.66-1.67-.18,2.91c0,.09,0,.18,0,.27s-.05.38-.06.58l11,5.17.5-1.28C208.74,219,207.12,216.78,206.39,213.87Z" transform="translate(-15 -20.26)"/><path class="cls-1" d="M198,217.14l-.08,1.35-.27-.05a7.1,7.1,0,0,1-1.29,2.17l4.12,1.88,5.11,8.2,3.48-9-11-5.18A5.61,5.61,0,0,1,198,217.14Z" transform="translate(-15 -20.26)"/><path class="cls-1" d="M183.65,255.32l.82.81.12-1.49C184.28,254.88,184,255.1,183.65,255.32Z" transform="translate(-15 -20.26)"/><path class="cls-1" d="M182.12,219.76l.15-.07a4.46,4.46,0,0,1-.34-.42Z" transform="translate(-15 -20.26)"/><path class="cls-1" d="M172.12,215.1c0,.27.08.52.08.8a14.76,14.76,0,0,1-14.76,14.76,14.4,14.4,0,0,1-3.68-.52l0,.83,1.17,3.58,1.87-.85,11.06,0,.54-5.81,5.24-3.8,1.59-8.44Z" transform="translate(-15 -20.26)"/><path class="cls-1" d="M139.66,247.48l2.41-6.66-2.8,4.81A9.13,9.13,0,0,1,139.66,247.48Z" transform="translate(-15 -20.26)"/><polygon class="cls-1" points="190.91 229.59 194.46 229.93 197.56 228.35 189.73 224.15 190.91 229.59"/><path class="cls-1" d="M144.48,235.91l-6.66-11.11.77-2.28-4.49-.5L128,230.53l.11,0L139,239.17l.41,3A12.81,12.81,0,0,1,140.7,245l2.8-4.82,1.28-3.55Z" transform="translate(-15 -20.26)"/><polygon class="cls-1" points="152.6 213.82 156.58 213.8 158.38 204.21 153.14 208.02 152.6 213.82"/><polygon class="cls-1" points="127.64 220.3 128.34 219.11 129.69 218.49 128.93 216.75 127.64 220.3"/><path class="cls-1" d="M153,230.12a14.72,14.72,0,0,1-9.06-6.9l-.78-.09,2,12.47-.4,1.12.76,1.74,8.63-3.93-1.16-3.59Z" transform="translate(-15 -20.26)"/><polygon class="cls-1" points="137.81 260.14 136.75 257.29 137.3 245.16 128.05 244.25 126.17 246.15 128.39 247.18 133.27 259.36 133.28 259.38 137.67 260.39 137.81 260.14"/><polygon class="cls-1" points="129.2 246.56 126.98 245.53 126.5 246.02 128.85 246.77 127.46 257.24 134.09 258.77 134.08 258.74 129.2 246.56"/><polygon class="cls-1" points="205.22 205.88 204.24 208.41 202.41 207.55 195.12 218.41 194.83 218.44 195.4 221.07 203.24 225.27 207.14 223.28 208.71 207.83 205.22 205.88"/><path class="cls-1" d="M217.85,167.74l-2.19.83-3,5.11,9.21,8.83-.77,2.17,1,4.19,1.57.83,1.32-15.79A18.84,18.84,0,0,1,217.85,167.74Z" transform="translate(-15 -20.26)"/><path class="cls-1" d="M145.74,287.27l-4.39-1,2.44,5.22c.36-.59.72-1.2,1.11-1.75s.93-1.06,1.39-1.59l-.41-1.12Z" transform="translate(-15 -20.26)"/><path class="cls-1" d="M144,264.53l-7,7.14-2.22,3.56.1.08a32.39,32.39,0,0,1,3.11,2.78l.55-3.83,6.46,1.49,1.4-10.47Z" transform="translate(-15 -20.26)"/><path class="cls-1" d="M166.39,250.92a6.21,6.21,0,0,1-.51-4l-5.9.19-.6,6.44-15-1.35L158,258.31l-.16,3.38,6.79.67,6-1.77,3.07-6.12C170.41,254.46,167.63,253.28,166.39,250.92Z" transform="translate(-15 -20.26)"/><path class="cls-1" d="M133.16,282.48l1.33-1.71,1.8-2.89-5.78-3.31,1.11-4.84a63.62,63.62,0,0,0-5.66-4.86,38.5,38.5,0,0,1,6.23,2.36l2.31-10.11-9.43-.66-4.27,1.32-4.4-1.5-1.15,2.88c.8.3,1.59.61,2.37,1-.92,0-1.82,0-2.74-.05l-.34.85,2.23,6.75,8.94,9.76.14,3.37,1.81.5C129.47,281.76,131.31,282.13,133.16,282.48Z" transform="translate(-15 -20.26)"/><path class="cls-1" d="M201.86,171.67l.49-.47,3.88-1.45,2.33-8.89a19.7,19.7,0,0,1-.9-5.62l-13.77-3.46L190,167.66Z" transform="translate(-15 -20.26)"/><polygon class="cls-1" points="210.37 173.91 210.73 169.6 209.16 168.77 210.37 173.91"/><path class="cls-1" d="M145.3,287.17l.42,1.12a37.79,37.79,0,0,1,4.44-4.34c.45-.37.9-.74,1.36-1.09s1.13-.84,1.71-1.24l.15-.11c1.38-.94,2.81-1.8,4.25-2.61l-3.78-.31,1.78-3.55-3.18-.7Z" transform="translate(-15 -20.26)"/><polygon class="cls-1" points="131.99 249.97 131.43 262.1 132.5 264.95 139.65 252.12 142.83 252.82 144.81 248.88 138.77 250.65 131.99 249.97"/><path class="cls-1" d="M238.79,210.67a17.18,17.18,0,0,1-3.06,6.24l1.83.42,2.74-7.08,10.92,1.5-5.14-6.16L238.46,201A15.82,15.82,0,0,1,238.79,210.67Z" transform="translate(-15 -20.26)"/><path class="cls-1" d="M158.08,279.53a49.06,49.06,0,0,1,4.83-2.37l-6.83-1.49-1.79,3.55Z" transform="translate(-15 -20.26)"/><path class="cls-1" d="M220.72,187.91l-1.89,5.31,2.77,1.67a6.13,6.13,0,0,1,2.37-.15l0-.58L222.8,189Z" transform="translate(-15 -20.26)"/><path class="cls-1" d="M225.66,194.84l-.14-.6-.05.58Z" transform="translate(-15 -20.26)"/><path class="cls-1" d="M99,219.15c-3,.8-6.25-1.22-8.74-4.85L90.4,223l8.32,5.47L102.45,218h.1l-.7-.85A5.6,5.6,0,0,1,99,219.15Z" transform="translate(-15 -20.26)"/><polygon class="cls-1" points="101.42 142.05 104.92 147.54 105.02 145.15 102.61 141.34 105.55 132.88 105.8 127.25 107.31 127.82 109.22 122.32 104.79 121.83 103.52 123.42 101.67 122.73 96.95 127.54 99.52 128.1 101.42 142.05"/><path class="cls-1" d="M106.68,162a16.16,16.16,0,0,1-4.55,7.17l1.05,1-2.43,11.17,1.82.66,6.94-2.8,9.44-7.45.47-1.24.4-.56.1-2.17-3.51-5.49-1.89-13.95L112,147.8l-3.77,3.85-1.75-.21A14.89,14.89,0,0,1,106.68,162Z" transform="translate(-15 -20.26)"/><path class="cls-1" d="M90.7,156.9A16.09,16.09,0,0,1,94.94,150l-3-.37-2.07,7.85.58.54C90.51,157.67,90.58,157.29,90.7,156.9Z" transform="translate(-15 -20.26)"/><path class="cls-1" d="M256.14,138.77l1.77,2,16.94,1.61,3.45-4v-.15L268.64,133a63.47,63.47,0,0,0,.54,7,40.46,40.46,0,0,1-3.56-8.61l-6.49-3.55-4.75,10.53Z" transform="translate(-15 -20.26)"/><polygon class="cls-1" points="78.56 160.84 78.16 161.91 78.34 161.99 78.56 160.84"/><polygon class="cls-1" points="82.35 163.87 85.41 162.63 85.75 161.1 79.33 158.79 78.56 160.84 78.34 161.99 82.35 163.87"/><path class="cls-1" d="M100.75,181.36l2.43-11.17-1.05-1c-2.24,2-4.85,2.84-7.22,2.08-4.16-1.33-6-7.11-4.49-13.22l-.58-.54-2.56,9.69-.5,1,7.89,7-1.11,5.84.77-2.06Z" transform="translate(-15 -20.26)"/><polygon class="cls-1" points="96.93 120.95 87.91 117.56 87.9 119.94 96.93 120.95"/><polygon class="cls-1" points="229.28 110.77 227.41 110.64 222.99 120.01 225.83 120.79 230.58 110.26 229.44 109.64 229.28 110.77"/><path class="cls-1" d="M124.78,135.86a11.32,11.32,0,0,1-3.18-1.17l-3.91,7.15,2.11.24Z" transform="translate(-15 -20.26)"/><polygon class="cls-1" points="236.82 105.96 237.96 106.58 238.6 105.16 236.93 105.23 236.82 105.96"/><polygon class="cls-1" points="102.56 121.81 102.68 121.59 96.93 120.95 101.67 122.73 102.56 121.81"/><polygon class="cls-1" points="223.63 215.24 225.2 203.1 216.02 201 214 203.31 212.77 206.48 216.26 208.43 214.69 223.88 219.25 221.55 223.63 215.24"/><polygon class="cls-1" points="101.67 122.73 103.52 123.42 104.79 121.83 102.68 121.59 102.56 121.81 101.67 122.73"/><polygon class="cls-1" points="96.93 120.95 87.9 119.94 87.91 117.56 84.09 116.13 73.98 118.59 80.96 124.07 96.95 127.54 101.67 122.73 96.93 120.95"/><path class="cls-1" d="M93.34,182.25l-.18-.08L89,193.44a5.53,5.53,0,0,1,2.58-1.68Z" transform="translate(-15 -20.26)"/><path class="cls-1" d="M134.6,237.23a17,17,0,0,1,4.77,5l-.4-3-10.86-8.62-.11,0-2.15,3-1.42.75A15.06,15.06,0,0,1,134.6,237.23Z" transform="translate(-15 -20.26)"/><polygon class="cls-1" points="124.16 202.03 124.44 201.22 103.4 201.15 102.57 199.76 99.16 199.33 99.23 206.5 113.61 210.05 119.67 201.54 124.16 202.03"/><path class="cls-1" d="M286.71,142.36l-3.95,7.25.74.31c-.11-.28-.24-.56-.35-.84.36.39.73.76,1.09,1.14l3.93,1.61,1.53-11.25,0-2.27-3.45,4Z" transform="translate(-15 -20.26)"/><path class="cls-1" d="M297.52,189.46l9.64,2.36v0l3.18.24c.36-.3.67-.62,1.05-.9.59-.42,1.2-.81,1.83-1.19l.25-.14-1.44-.94-5.22-7.47-8.07,6.7Z" transform="translate(-15 -20.26)"/><path class="cls-1" d="M268.3,247.92l-9.12-4.19c0,.75,0,1.52.07,2.27s0,1.6.1,2.38a.49.49,0,0,1,0,.12c.06.67.13,1.33.21,2s.17,1.42.28,2.11l5.53.46c.87-1.44,1.73-2.88,2.52-4.36C268,248.44,268.16,248.18,268.3,247.92Z" transform="translate(-15 -20.26)"/><path class="cls-1" d="M234.44,239.68,230.06,246l-4.56,2.32-.06.61,11.72,2.49a38.25,38.25,0,0,1,0-7.18.15.15,0,0,1,0-.07l-3.29-.27Z" transform="translate(-15 -20.26)"/><path class="cls-1" d="M246.69,239.46l0-.19a55.56,55.56,0,0,1,1.35-5.52l-.91-.42-3.73,5.39-.54,4.21,3.28.27c.06-.56.12-1.11.19-1.66S246.56,240.14,246.69,239.46Z" transform="translate(-15 -20.26)"/><path class="cls-1" d="M119.71,237a2.39,2.39,0,0,1,.22-.23l-5.41,2.82-6.6,1.41.77,1.25,7.17,10.67,2.31.79,1.72.11,1.25-3.1,3.33-.27C119.34,246.44,117.19,240.58,119.71,237Z" transform="translate(-15 -20.26)"/><polygon class="cls-1" points="256.37 90.63 256.4 90.54 255.7 89.75 256.28 90.62 256.37 90.63"/><path class="cls-1" d="M266.42,172.58l-.11.35h-6.23c-.17.1-.29.25-.46.34a6.66,6.66,0,0,1-.73.31l-.84,2.09,7.23,10.77,8.31,2,1.2-1.3,8.08-6.7-2.23-3.18Z" transform="translate(-15 -20.26)"/><polygon class="cls-1" points="96.66 198.95 95.95 205.62 99.35 206.46 99.28 199.28 96.66 198.95"/><path class="cls-1" d="M285.59,157.63l-3.44,10.74,14.23,4.72,2.22,3.18,2-1.68,5.19-1-.39-.17-.72-.46c-.72-.43-1.44-.86-2.11-1.33a36.88,36.88,0,0,1-5.93-5.84c-.37-.45-.73-.9-1.08-1.37s-.85-1.12-1.24-1.7l-.11-.15A52.65,52.65,0,0,1,289,153l-.74-.31Z" transform="translate(-15 -20.26)"/><polygon class="cls-1" points="96.64 198.96 87.5 197.79 94.62 206.41 92.03 218.1 99.45 218.01 99.33 206.46 95.94 205.62 96.64 198.96"/><path class="cls-1" d="M112.53,211.25l-.61-1,.48-1-.73-1.44-.16.14-7.8,5.13a10.51,10.51,0,0,1-1.86,4.15l.7.85,9.14,1.17Z" transform="translate(-15 -20.26)"/></svg>