<svg id="Layer_1" data-name="Layer 1" xmlns="http://www.w3.org/2000/svg" viewBox="0 0 271.88 228.14"><defs><style>.cls-1{fill:#2173b9;}.cls-2{fill:#1e71b8;}.cls-3{fill:#2072b8;}.cls-4{fill:#2374b9;}</style></defs><path class="cls-1" d="M127.57,74.47c0-4.31-.06-8.63,0-12.93,0-1.58-.25-2.29-2-2.66A14,14,0,0,1,114.3,44.75a14.12,14.12,0,0,1,11.44-13.52,13.86,13.86,0,0,1,15.86,9c.59,1.58,1.33,1.79,2.8,1.54A139.17,139.17,0,0,1,178,39.8a2.22,2.22,0,0,0,2.4-1.36c4.07-7,12.11-9.46,19-5.86s9.47,11.56,6,18.88a2.22,2.22,0,0,0,.38,2.73A134.72,134.72,0,0,1,224,85.27,2.39,2.39,0,0,0,226.41,87a14,14,0,0,1,13,13.28c.18,7.75-4.94,13.92-12.42,14.78a2.48,2.48,0,0,0-2.46,1.67,130.54,130.54,0,0,1-18.94,30.93c-1.07,1.33-1.37,2.23-.42,3.91a14.06,14.06,0,1,1-24.8,13.26c-.83-1.64-1.74-1.9-3.32-1.75a112.9,112.9,0,0,1-33.11-2c-1.56-.31-2,.15-2.54,1.47a14.12,14.12,0,0,1-27.07-4.94,13.76,13.76,0,0,1,10.5-14.18c2.12-.5,2.47-1.37,2.43-3.31-.2-8.46-.19-16.93-.36-25.39,0-1.68.46-2.24,2.14-2.13a48.17,48.17,0,0,0,6.47,0c1.71-.13,1.93.54,1.81,2a182.17,182.17,0,0,1-4.08,26.48c-.39,1.68-.31,2.61,1.47,3.28a11.29,11.29,0,0,1,5.37,4.62c.7,1.1,1.23,1.31,2.42.66,23.31-12.8,46.4-25.93,67.64-42.05,1.37-1,2.1-1.93,1.43-3.7a6.94,6.94,0,0,1-.25-4.49c.69-2.13-.27-3.06-1.9-4.17q-32.57-22.18-66.74-41.79c-1.46-.83-2.38-1.07-3.43.6a9.91,9.91,0,0,1-4.85,3.77c-1.31.52-1.36,1.09-1,2.31a157.82,157.82,0,0,1,4.31,26.91c.19,2.16-.48,2.66-2.42,2.48-2.6-.25-6.1,1.1-7.58-.53-1.29-1.41-.36-4.85-.38-7.4,0-2.39,0-4.79,0-7.18Zm88.94,15.19a152,152,0,0,0-16.29-30.2c-.92-1.32-1.72-1.37-3.15-.93-7.77,2.4-16-1.92-17.72-9.75-.67-3.09-2.19-3.38-4.61-3.64a203.49,203.49,0,0,0-27.71-1c-4,.11-3.91.06-4.83,3.78-.4,1.65-.06,2.36,1.53,3a381.9,381.9,0,0,1,58.52,29.78C206.86,83.51,211.4,86.44,216.51,89.66Zm-.5,24.5c-.59.35-.94.52-1.25.74-21.14,15.41-44.3,27-68.61,36.47-3.8,1.48-3.72,1.48-3.64,5.44,0,1.48.53,1.88,1.92,1.95a154,154,0,0,0,32.68-1.43,2.06,2.06,0,0,0,2-1.9,13.9,13.9,0,0,1,17-10.74,2.56,2.56,0,0,0,3.14-1.23,163.37,163.37,0,0,0,13.94-22.56C214.2,118.81,215.47,116.79,216,114.16Zm-87.49,52a9.35,9.35,0,0,0,9.15-9.15,9.26,9.26,0,0,0-18.51,0A9.37,9.37,0,0,0,128.52,166.19Zm0-130.21a9.15,9.15,0,1,0,9.14,9.16A9.29,9.29,0,0,0,128.53,36Zm55.18,9a9.15,9.15,0,1,0,9.2-9A9,9,0,0,0,183.71,45Zm9,122.52a9,9,0,0,0,9.27-8.94,9.15,9.15,0,1,0-18.29-.24A9,9,0,0,0,192.73,167.5Zm41.81-66.4a9.26,9.26,0,0,0-9.11-9.22,9.13,9.13,0,0,0-9.25,9,9.18,9.18,0,1,0,18.36.2Z" transform="translate(-30.06 -30.93)"/><path class="cls-2" d="M122.64,100.7c1.68,0,3.35,0,5,0,.9,0,1.94.31,2-1.26,0-1,1-.61,1.54-.54,1.63.19,2.17-.51,1.95-2S133.5,95,135,95c14.28.67,28.57.34,42.85.37,3.9,0,7.81-.19,11.71-.38,1.23-.06,1.86.26,1.66,1.55-.23,1.54.47,1.9,1.89,1.83,2.31-.11,4.63,0,6.94,0,.86,0,1.63-.1,1.53-1.27s.84-1.07,1.61-1.1c.94,0,1,.59,1,1.27,0,2.8,0,5.59,0,8.39,0,.79-.07,1.44-1.13,1.37-.71,0-1.55.11-1.46-1,.11-1.34-.73-1.32-1.68-1.32-2.39,0-4.79,0-7.18-.09-1.14,0-1.66.34-1.49,1.49.25,1.63-.5,2-2,1.92-8.93-.21-17.86-.41-26.8-.41s-17.86.21-26.8.4c-1.64,0-2.84-.07-2.48-2.2a4.29,4.29,0,0,0-.26-1.36c-2.39.62-3.35-2.33-5.65-2.18-3.25.22-6.53.19-9.8.22-.7,0-1.77.36-1.7-1,.06-1.19,1-.74,1.64-.77C119.13,100.67,120.88,100.7,122.64,100.7Z" transform="translate(-30.06 -30.93)"/><path class="cls-1" d="M114.5,131.4c.66,0,1.21,0,1.77,0a2.28,2.28,0,0,1,2.2,1.18,2.33,2.33,0,0,1-.6,2.65,9.66,9.66,0,0,1-7.47,3.19,2.49,2.49,0,0,1-2.58-1.4,2.15,2.15,0,0,1,1-2.71c2.72-1.52,1.59-3.08.43-4.93-2.71-4.33-5.31-8.72-7.89-13.13A2.06,2.06,0,0,0,98.76,115c-8.45,1.47-15.53-3.8-16.7-12.39-.22-1.58-.81-2.25-2.37-2.22a12.73,12.73,0,0,1-2.62-.17c-1.59-.3-2.72-.2-3,1.81a2.43,2.43,0,0,1-2.38,2.3c-1.31,0-1.92-1.08-2.33-2.12a9.82,9.82,0,0,1,0-7.69,2.44,2.44,0,0,1,2.1-1.74c1.08,0,1.67.8,2.18,1.65.08.13.14.29.22.42.7,1.06.08,3.14,1.23,3.35,2.06.38,4.27,0,6.42-.14.8-.05.84-.84,1.07-1.42,2.87-7.32,8.55-10.58,16.47-9.4a1.6,1.6,0,0,0,1.94-.85q4.64-7.83,9.37-15.59c.56-.91.29-1.35-.47-1.93-1.25-1-2.85-2-2-3.87s2.75-1.28,4.29-1.1a9,9,0,0,1,5.27,2.6,2.62,2.62,0,0,1,1,3,2.19,2.19,0,0,1-2.61,1.25c-3.29-1.08-4,1.1-5,3.38C109,78.6,107,83,105,87.46c-.57,1.23-.62,2,.52,3,6.54,6.12,6.45,15.15-.15,21.3a1.88,1.88,0,0,0-.5,2.61q3.47,7.62,6.79,15.31C112.25,131.07,112.81,132.21,114.5,131.4ZM102,96.07a5.06,5.06,0,0,0-5,4.86,5,5,0,0,0,4.87,4.91,4.89,4.89,0,0,0,.08-9.77Zm-13.42,7.42c-1.8.1-2.82,1-2.68,2.86.18,2.43,3.13,5.11,5.53,5.05a2.49,2.49,0,0,0,2.59-3C93.75,106.09,90.93,103.53,88.61,103.49ZM89,96.36c2.24-.45,4.28-1.42,5.38-3.67.75-1.52-.06-2.78-1.75-2.67A6.66,6.66,0,0,0,87,93.53C86.18,95.08,87.09,96.38,89,96.36Z" transform="translate(-30.06 -30.93)"/><path class="cls-3" d="M30.1,226.93c0-9.43,0-18.86,0-28.28,0-2.09.66-2.84,2.75-2.8,6.63.11,13.26,0,19.89.13,16.1.36,28.76,12.64,29.84,29.49,1,16.32-10.71,29.2-25,31.92a28.7,28.7,0,0,1-5.47.5H33.6c-3.5,0-3.5,0-3.5-3.39Zm15.72,25.68c3.29-.13,7.12.25,10.93-.54a26,26,0,0,0,20.46-26.94c-.52-11.34-9.57-21.63-21.28-23.45-6.35-1-12.76-.21-19.13-.46-1.33-.05-1.35.68-1.35,1.65,0,16,0,32,0,47.94,0,1.55.57,1.87,2,1.82C40,252.55,42.65,252.61,45.82,252.61Z" transform="translate(-30.06 -30.93)"/><path class="cls-4" d="M121.26,233.48c-7.26,0-14.53.09-21.8-.06-2.31,0-2.69.78-2.32,2.77a22.17,22.17,0,0,0,23.42,17.95A23.6,23.6,0,0,0,133.22,249c1-.74,2-2.2,3.36-.4s1.25,3-.54,4.46c-11.63,9.68-29.58,7.4-38.93-4.94a27.43,27.43,0,0,1,6.52-39.39c13.31-8.78,31.21-4.72,38.9,8.86a30.33,30.33,0,0,1,3.74,13.46c.11,2-.68,2.47-2.49,2.45C136.27,233.44,128.77,233.47,121.26,233.48Zm-2.4-5.2H138.5c2.86,0,2.93-.1,2.23-2.76A22.77,22.77,0,0,0,118.87,209c-10,.1-19.38,7.66-21.61,17.27-.39,1.67.12,2.06,1.72,2.05C105.61,228.24,112.23,228.28,118.86,228.28Z" transform="translate(-30.06 -30.93)"/><path class="cls-1" d="M248.31,247.53A27.18,27.18,0,0,1,208,252.06a27.46,27.46,0,0,1-1.56-39.56c10.46-10.94,30.18-12.49,41.88,3.45,0-3.13.09-5.79,0-8.44-.08-1.87.58-2.53,2.48-2.5s2.6.4,2.59,2.39q-.09,24,0,47.94c0,2-.72,2.63-2.68,2.64s-2.45-.87-2.38-2.62C248.38,252.75,248.31,250.14,248.31,247.53Zm-44.37-16.36c-.17,12.3,9.68,22.8,21.57,23a23,23,0,0,0,23.13-22.36c.25-11.83-10.53-22.8-22.51-22.9C214.47,208.82,204.1,219.23,203.94,231.17Z" transform="translate(-30.06 -30.93)"/><path class="cls-1" d="M173.74,249.94c2.57-6.19,5-12,7.37-17.79q7-17,14-34a3.35,3.35,0,0,1,4.55-2.11c1.44.5,1.08,1.55.67,2.55-1.39,3.39-2.81,6.77-4.21,10.15l-19.37,46.56c-.57,1.36-.89,2.89-3,2.86s-2.42-1.47-3-2.87l-23.07-55.11a3.91,3.91,0,0,1-.24-.68c-.26-1.17-1.78-2.53.23-3.43a3.27,3.27,0,0,1,4.47,1.93q6.33,15.22,12.62,30.47C167.71,235.48,170.65,242.51,173.74,249.94Z" transform="translate(-30.06 -30.93)"/><path class="cls-1" d="M298.85,258c-1.78.51-2.9-.79-4-2.47-4.08-6.29-8.28-12.51-12.34-18.81-1-1.58-1.49-1.56-2.49,0-4.16,6.53-8.43,13-12.67,19.46-1,1.48-4.71,2.51-6.14,1.67-1.08-.64-.43-1.38,0-2,1.73-2.59,3.51-5.15,5.27-7.71,3.52-5.14,7-10.32,10.61-15.37,1.06-1.47.87-2.4-.07-3.76q-7-10-13.8-20.14c-.62-.94-2.47-1.87-1-3.38,1-1,4.64-.42,5.48.73s1.59,2.39,2.38,3.6c3.31,5.07,6.67,10.12,9.93,15.23,1,1.5,1.46,1.69,2.53.06,3.87-6,7.91-11.8,11.81-17.73a4.39,4.39,0,0,1,4.38-2.28c.76.07,1.76-.26,2.16.63s-.34,1.49-.78,2.14q-6.5,9.48-13,19c-2.82,4.1-2.84,4.1,0,8.25,4.56,6.65,9.14,13.28,13.68,19.93.51.74,1.56,1.44.92,2.5C301.19,258.39,300.13,257.86,298.85,258Z" transform="translate(-30.06 -30.93)"/></svg>