<svg id="Layer_1" data-name="Layer 1" xmlns="http://www.w3.org/2000/svg" viewBox="0 0 692.58 674.25"><defs><style>.cls-1{fill:#f1f0f8;}.cls-2{fill:#dddff0;}.cls-3{fill:#464499;}.cls-4{fill:#c0badc;}.cls-5{fill:#615ca8;}.cls-6{fill:#5952a3;}.cls-7{fill:#8992c9;}.cls-8{fill:#6e7bbb;}.cls-9{fill:#5c6cb3;}.cls-10{fill:#6f69af;}.cls-11{fill:#c24746;}.cls-12{fill:#7d4e9f;}.cls-13{fill:#e62227;}.cls-14{fill:#ee656f;}</style></defs><path class="cls-1" d="M339.16,705.27H154.77c-.43-4.9-4.79-6.45-8-8.22-19.56-10.64-32.49-27.81-45-45.29-22.84-31.92-22.23-68.5-18.62-104.9,3.28-33,1.59-65.68-6.4-97.49-8.72-34.76-24-67.49-36.79-100.94-16.35-42.64-24.17-85.81-12.46-131.08,9.32-36,31.38-62.55,64.6-76.61,23-9.76,48.73-14.14,74-17.1,27.71-3.25,54.53-9.58,79.44-22.43,21.91-11.3,39-29.15,58-44.31,28.28-22.55,58.6-32,94.58-21.81,27.57,7.78,52,22.75,78.82,32,29.3,10.11,58.18,11.46,87.3-.07,29.67-11.75,58.57-25.81,92.18-22.79A58,58,0,0,1,689,57.65c23.85,19.54,27.19,47.32,24.7,74.66-2.31,25.36-3.67,51.11-10.06,76.13-4.85,19-5.79,38.76-12.73,57.39-9.43,25.34-14.35,51.83-15.8,78.76-1.93,35.89,8.76,69.73,20,103,8,23.5,12.88,47.24,10.18,71.63-2.8,25.31-15.48,44.31-40.2,55.31-24.56,10.93-50.36,12.43-76,11.74-57-1.51-105.47,19.64-150.76,51.45-22.29,15.66-45.16,30.49-67.34,46.29C360.66,691.49,347.32,694.5,339.16,705.27Zm331.46-575.1a3,3,0,0,0,.35.75c.11.12.37.1.57.15l-.93-.89a3.25,3.25,0,0,0-.31-.81c-.1-.13-.38-.13-.59-.19ZM393.59,564c6.16-2,12-4.58,15.78-10.28,10.9,4.6,21.64,9.73,25.69,21.92,1.27,3.83,1.41,7.49,6.38,6.22,5.4-1.38,8.92-5.47,9-11,.08-4.6-3.42-6.07-7.7-4.49-3.06,1.13-4.76-.68-6.52-2.56-5.68-6.06-12.26-11.36-16.18-18.93,7.08-6.88,10.5-16.13,15.73-24.21l5.94.62,2.92.88c4.28,1.3,9.47.75,11.17,6.77.77,2.75,3.58,3.67,6.2,2.18a8.41,8.41,0,0,0,4.48-9c-.41-2.9-2.77-5.65-4.87-4.54-9.72,5.13-16.05-2.54-23.65-5.41q1-8.85,2.08-17.69c3.85-5.28,8.79-6.09,13.86-2.37,3.63,2.66,6.42,3.46,9-.78,2.46-4.06,1.37-8.1-1.86-10.87-4.27-3.67-7-.81-9.37,3.15-2.92,4.88-6.67,7.59-11.77,2.31l.82-6.41c9.8-5.35,10.33-7.24,3.77-13.33-1.74-2-5.6-2.63-4.23-6.62l10.74-7c3.19-.51,6.58-.53,9.53-1.67,2.5-1,7.26.09,6.4-5.35-.71-4.48-3.46-7.16-7.4-8.57-4.82-1.72-3.58,3-5,5-1.67,2.32-3.72,4.37-5.6,6.54-4.55-.88-7.19,3.11-10.94,4.29-1.23-.66-3.59-1.45-3.54-2,1-8.45-2.18-18.55,9.82-22.59,4.23-1.43,9.14-3.07,11.32-8,8.89,8.65,21.73,14.62,18.45,31-.93,4.66,3.93,7.92,8.82,7.5,8.09-.7,13.53-5.43,14.94-13.49,1-5.48-2.17-10-7.73-9.41-7.73.84-11.08-3.8-14.8-8.72-2.85-3.76-5.71-7.51-8.54-11.26,5.7-10.47,13.75-19.07,21.94-27.55l18.68,7.74c.28,5.13.62,10.66,6.91,11.75,3.63.64,6.93-1.77,8.83-5.14,2.06-3.64,2.88-7.65-.16-11.07-4-4.51-8.34-2.75-12.46.18L493.35,382c-2.06-4.14,0-7.87,1.47-11.46a124.55,124.55,0,0,0,7.08-25c3.62-.54,7.53.33,10.72-2.24l30.57-1c4.07,3.06,4.79,10.66,12.15,9.18,3.63-.72,5.24-3.7,6.31-6.93,2.27-6.82,1.91-13.78-4.34-17.68-8.16-5.1-9.74,4.54-14.1,7.92l-32.87-2.49-6.24-.57c-2.4-14.2-6.05-28.22-6.22-42.76,7.91-3.94,14.34-10.77,23.59-12.09,3,3.56,6.81,4.85,10.49,1.72,3.87-3.29,3.3-7.91,1.26-12.07-1.83-3.76-4.73-7-9.35-6-5.36,1.07-5.84,5.83-6.31,10.28L493,277.68c-8.92-1.87-8.28-14.06-17.18-15.95-1.42-6.94,5.16-10.71,6.56-16.54,2.15-2.29,4.58-2.86,7.81-2.37,3.48.52,6.29-1.2,7.66-4.8s-.15-6.53-2.27-9c-3.45-4.07-7.74-7.17-13.34-4.77-8.05,3.44-2.63,10.07-3.15,15.29-4.51,3-7.15,8.26-12.56,10.11A67.19,67.19,0,0,0,441,231.36c1.55-6.61,2.25-13.46,5.58-19.57,4.23-4.58,2.25-14,11.39-14.75l2-.94c3.93-.93,5.33-3.12,3.45-6.93-1.17-5.89-5.78-8.12-10.74-9.67-4.38-1.37-9-1.35-11.81,2.88-3,4.5-.94,8.26,3,11.2q-2.94,8.92-5.87,17.85l-8.9,15.85c-1.49-2.6-3.95-2-6.26-1.92l-15.65-4.69c-1.13-2.41-2.55-2.79-4.32-.61l-6.39-.27a4.63,4.63,0,0,0-2.79-4c-.29-4.84-3-9.44-1.42-14.46,6.51-2.66,11-9.89,20.49-5.53,6.12,2.8,9.6-3.45,9.17-9.79-.71-10.79-10.41-16.11-21-11.84l-4.12-.17c-1.73-6.45-6.27-8.68-12.44-7.82-3.74.53-7.19,2.29-8.14,6.33-1.17,4.95,1.83,7.36,6.21,8.53.47,5.75,2.25,11.64-1.82,16.9l-21.88,10a73.14,73.14,0,0,0-25.75-25.18c.37-5.23,5.56-8,6.56-12.91,5.4.72,11.45,2.46,14.53-3.82,2.58-5.26,0-10-4.16-13.58-4.7-4-10.1-6.45-16-2.74-5.68,3.59-3.8,8.64-1.75,13.57.54,1.28.37,2.85.52,4.29l-8.89,9.36L304.2,165.22q3.57-14,7.15-28.07c4.94-.26,9.72-1.44,10.12-7.24.34-5-3.71-7.42-8-9.06-4.84-1.87-9.69-1.61-12.74,2.69-3.15,4.46-.39,8.14,3.45,11-1.09,9.38-6.67,17.17-9.29,26-5.4,6.16-11.89-.49-17.64,1.49-5.66-12.55-6.1-26.15-8.07-39.45-.61-4.11.82-6.5,4.53-8.76,4.9-3,5.65-7.45,1-11.72-4.91-4.48-17-3.91-21.24,1-2.73,3.16-3.75,7.73-.05,9.54,9.61,4.7,7.64,13,7.59,20.62-.06,9.11-.71,18.22-1.1,27.33-7.88,2.31-15.74,4.78-24.12,2.88-4.93-10.21-12.74-19.15-13.75-31.09,2.95-1.66,4.3-4.24,2.69-7.25s-4.57-3.3-7.63-2.66c-4.8,1-9.93,2.62-10.44,8-.61,6.43,5.83,4.91,9.46,6.47l7.32,30.46c-3.05,8.55-14.06,7-18.13,14.22-8.52-6.9-21.19-11-15.66-26.67,1.62-4.6-2.7-7.2-7.37-7a17.78,17.78,0,0,0-13.92,7.61c-5,6.7-2.84,12.46,5.36,12.57,5,.07,7.3,1.91,9.14,5.77,3,6.23,6.43,12.28,6.45,19.48-9,4.51-11.47,15.18-19.53,20.56a174.48,174.48,0,0,1-34-12.1c-4.7-2.25-8.35-4.18-8.65-10.79-.35-7.57-6.07-8.4-11.94-5-4.68,2.71-7,7.47-8,12.62-1.59,8.5,3.83,13.32,11.37,9.3,4.92-2.62,8-1.42,11.82,1,9.93,6.17,20,12.12,28.5,20.28,4.07,4.25-.36,8.6.16,12.89l-.93,2.13c-14.29-3.76-26.7-11.59-39.56-18.4-8.6-4.56-28.25,3.73-31.7,13.74q-.07,4.69-.17,9.39c-7.22,2.84-9.09,8.74-8.36,15.62S82.75,275.75,90,276.42c5.45,2.85,7.52,7.64,7.7,13.47.16,5.1-.68,10.4.46,15.25,6.25,26.52,7.87,53.65,11.22,80.55.56,2.51,1.13,5,1.7,7.54.63,26.76,6.2,52.85,11.25,79,1.74,9,4.46,18.1,11.5,24.92-3.05,5.75-.58,10.22,3.33,14.36,3,14.28,13.28,24.89,19.12,37.76,2,4.43,3,7.29-2.95,6.59-6.85-.8-12,3-17.25,5.7-3.77,1.89-9.88,3.23-9.32,9.36.46,5,5.27,6.53,9.1,8.6C154,589.3,172.26,599,190.32,609c30.39,16.84,60.92,33.47,90.85,51.1,11.37,6.69,21,6.12,31.44-.7,3.7-2.41,8.29-4,8.21-9.18-.07-4.58-4.16-6.27-7.56-8.52-8.32-5.51-18.55-8.07-25.9-16.1,4.52-2.18,8.43-3.93,12.21-5.93s9.93-2,8.92-8.95c15.85-3.6,26.58-13.6,34.5-27.27,2.33-4,2.92-9.07,7.12-12,2.35,8.18,5.49,16.38-2.57,23.52-3,2.64-2.84,6.09-.1,8.7,4.23,4,9.19,4.08,14,.9,3.41-2.24,4-6.35,1.21-8.4-6.27-4.6-3.06-10.53-3.55-15.95q.78-3.4,1.57-6.8l.2-.31,23.73-3.74q2.67,6.48,5.32,13c-1.87,3.72-5.37,7.87.53,10.77,3.86,1.91,8.12,1,9.86-3.46,1.89-4.84-.55-7.45-5.63-7.66L390,569.07c-.17-1.25-.33-2.49-.5-3.74ZM519.21,198.27c2.74.32,5.87-1.12,8,1.78,1,1.3,1,12,3.45.38.13-.61,2.2-1.53,2.53-1.27,9.4,7.55,11.33-4.32,16.52-6.92,2.51-1.26,8.85-.7,7.72-4.39-3.19-10.45,5.16-8.52,9.72-10.15-11.58-5.95-11-21.28-21.63-27.71l.89-1.05-1,.91c-4.39,2.24-9.41,4.41-12.06-1.45-1.64-3.64-.91-8.36-1.33-13.64-3,4.34-1,8.21-2.12,11.49-4.38,12.83-7.07-1.19-10.72-.76-.23-2,.6-4.37-2-5.31-.43-.16-1.88,1-2,1.63-.38,2.77,1.62,3.46,3.84,3.78-1.33,3.88,6.08,11.63-5.08,11.22-2.87-.1-1.93,2.21-1.67,3.95.69,4.69-1.09,8.59-4.22,11.88-1.38,1.44-1.19,1.85-.79,4.13,1.52,8.81,11.23,12.58,11.77,21.42l-1.63,2.37.83.56Zm103.08-112-.79-.49.87.41c5.49,13.39-5.51,10.43-13.45,11.18,5.05,3.42,11.6.19,13,6.76,1.89,8.63-8.07,5.53-9.89,8.69,16.18,4.89,25.58,19,39.34,25-.19-1-1.66-5.58,2.79-6.71,6.88-1.73,3.41,7.74,8.4,8.83-1.18-10.6,10.57-26.55,20.56-27.35-2.22-3.08-8.47-1.31-7.86-6.46,1.2-10,11.68-4.18,17-10.58-14.3,7.09-19.89-1.38-24.81-11.3-.77-1.55-2.24-3.82-3.47-3.89-7.41-.37-6.73-5.66-6-11.57-3.91,3-3.13,11.42-7.95,8.08-7.64-5.3-10.23,1.11-14.17,4C631.72,84,628,87.43,622.29,86.32Zm17.47,228.35c.33.95.65,1.91,1,2.86a7.9,7.9,0,0,0,.8-.58c-.48-.84-1-1.65-1.55-2.47,2-10.64,14.21-23.43,23.08-24-1.45-3.76-8.13-1.18-8-7.3.28-10.89,11.78-2.27,14.54-8.69-6.46-1.47-9.52-3.85-18.49-14.25a1.67,1.67,0,0,0-.94-.5c-9.91-1.38-10.62-8.29-8.62-17-11.32,8.17-23.25,8-33.81-.58,2.72,10.61-1.69,11.89-9.42,8.5l-1-2.81a6.32,6.32,0,0,0-.78.59c.47.85,1,1.65,1.52,2.47.42,4.72.68,9.32-6.34,8.52a3.71,3.71,0,0,0-4.4-1.63c-.26.08-.42.52-.62.8l4.64,1.29c3.53,15.17-12.07,1.93-14.24,9.32a16.07,16.07,0,0,0,3.36,1.18c3.67.35,8.32.24,8.38,5,.07,5.77-4.23,2.94-7.19,2.52a2.3,2.3,0,0,0-2.75,2.56c.19,2.26,1.66,2.77,3.87,2.25,10.11-2.35,6.77,5.08,6,9.26-.64,3.54-5.16,3.5-8.09,4.71s-7.84,2.14-5.93,6c2.74,5.6,4.8-.76,7.21-1.67,4.51-1.72,9.31-6.55,13.66-1s15.83,7.9,9.86,18.88c-1.05,1.94-3,4.22,0,5.29,4.17,1.47,3.22-2.46,3.81-4.67,1.09-4.11,2.68-7.59,8-7.22,6.45.45,4.57,5.34,5,9,.18,1.58.64,2.74,2.44,2.85C624.67,310.57,628,308.47,639.76,314.67Zm-56.89,144.7c-.48-2.6.42-6.28-4.14-5.8a3,3,0,0,0-2,2.09c-.29,4.66,3.37,3.47,6,3.82,7.37,7,3,14.5-.27,20.87-2.88,5.6-9.24,6.16-15.27,4.32-2.11-.65-4.32-1.59-5.56,1.12a3.52,3.52,0,0,0,.46,3c1.36,1.82,3.17.72,5,.49,14.39-1.86,18.66,2.1,20.13,18.47-3.31.13-6.8.1-6.45,4.93.11,1.49.93,3.12,2.56,2.77,4.26-.9,3.75-4.54,3.89-7.71,11.65,2.43,13.49,5.41,9.91,15.61a38.92,38.92,0,0,0-1.13,6.34c-2.61.4-6.23-.51-5.94,4,.15,2.22,2.2,2.76,4,2.55,5.3-.64,1.27-4.33,2-6.5,2.58-1,3.68-3.36,5-5.52,2.31-3.64,4.85-5.74,9.91-4,5.42,1.87,4.91,5.46,4.54,9.53-.19,2.17-3.23,5.79,1,6,5.66.32,1.17-4.24,2-6.38,1.38-3.44.74-8.63,6.66-8.31,4.73.25,5.78,3.66,6,7.62a19.3,19.3,0,0,0,.61,5.36c.76,2.08,2.8,2.35,4.51,1.33,1.08-.65,2.56-2.84,2.35-3.1-8.91-10.8-5-16.29,7.4-18.52.13,0,.13-.67.21-1,3.13-13.85,11.33-8.67,19-5,2.56,1.24,5.41,4.13,6.86-.44,1.16-3.64-2.58-3.22-4.86-4.09-4.55-1.72-13.11-3.28-11.16-7.95,4.14-9.9-4.72-23.39,11.4-30.47-17,1.12-17,1.12-18.6-9.48,2.48-1.41,4.93-2.88,7.45-4.21,2.12-1.11,3.72-2.59,2.78-5.08a5,5,0,0,0-2.86-2.93c-3.14-.62-2.83,2.46-3.75,4.2-1.35,2.52-2.72,5-4.08,7.55-13-1.83-15.44-5.59-10.06-15.81,1.19-2.26,5.87-4.74,1.76-6.87-5.26-2.72-3.69,3.23-5,5.6-2.49,4.36-2.35,11.4-10.35,10.43s-9.77-6.59-11.52-13.45c-1.06-4.17,6.41-12.23-2.29-11.82-7.31.35.27,8.17-1.52,12.58-1.63,4,2.59,10.78-3.38,12.45-6.7,1.87-8-6-11.67-9.55-.44-.42-.42-1.36-.57-2.07-.42-2-.09-5-3.42-4.09a7.3,7.3,0,0,0-4,3.44c-1.59,3,1.57,3.1,3,4.49,3.9,3.83,7.78,8.31,5.61,14.18C593,459.68,587.75,459.63,582.87,459.37ZM423.56,106.53c-2.14-1.13-3.37-3.5-2.95-7.89.71-7.4.22-15.75-6-20.53s-9.08-9.54-6.52-17.71c-4,3.33-2.61,11.14-9.8,10.18-7.87-1.06-1.76-8.39-4.88-12.13C390,73.61,387.32,75,376.28,67.63c1.8,8.31-5.36,19.86-14.06,22.57.21,4.2,6.77.89,6.51,6.11l-7.67,4.13c2.27,3.94,12-1,9.11,4.52-3.55,6.71-.13,4.85,3.11,6.29,5.54,2.46,9.32,6.42,5.87,13.73,4.77-.92,4.58-7.54,9.48-5.46,6.75,2.88.51,10.41,5.9,15.15C394.49,113.7,414.49,116.31,423.56,106.53ZM518.74,525c-4.6-.46-7.76,4.46-8,10.65-.26,6.58,4.28,11,10.7,11.21,6.87.2,12.07-4.18,12.49-11C534.4,528.18,528.62,525.6,518.74,525Zm110.12-143.3c.14,7,2.55,11.56,8.66,11.52S648.06,389,648,383.15c0-5.09-3.07-9.76-9.67-9.26C632.76,374.31,628.44,376.18,628.86,381.72Zm-69.14-271.5c3.91-.86,7.09-3.08,7.21-7,.16-5.09-3.4-7.8-8.3-8-4.42-.15-6.69,2.6-6.36,6.89C552.61,106.61,555.43,109.18,559.72,110.22Zm14.35,388.85c-1.87.13-4,.3-4.07,3.2,0,1.71,1.17,2.83,2.55,2.31a8,8,0,0,0,3.84-3.2C577.4,499.63,575.77,499.23,574.07,499.07Zm81.74-239c3.7-.95,6,.23,7.19-2.32.19-.41-.27-1.65-.6-1.72C660.11,255.58,658.4,256.64,655.81,260.11ZM642,65.14c-.39-.59-.72-1.71-1.45-2.08a1.32,1.32,0,0,0-2,1.43A3.64,3.64,0,0,0,640,66.9C641.4,67.75,641.63,66.45,642,65.14ZM498.51,173.55l-1.84-.8-.79,1.83c.61.27,1.35.86,1.8.7S498.25,174.16,498.51,173.55Zm180.65-48.48c.58-.27,1.44-.42,1.6-.83s-.33-1.14-.53-1.72l-2.12,1.07C678.45,124.07,678.79,124.56,679.16,125.07ZM371.67,120.7c.58-.29,1.41-.45,1.6-.88s-.29-1.13-.47-1.71l-2.1,1.13C371,119.71,371.33,120.19,371.67,120.7Zm45.09-2.56-1.52-.15c.23.19.46.51.71.53S416.49,118.29,416.76,118.14Z" transform="translate(-21.85 -31.02)"/><path class="cls-2" d="M308.49,610.7c1,6.94-5.06,6.91-8.92,8.95s-7.69,3.75-12.21,5.93c7.35,8,17.58,10.59,25.9,16.1,3.4,2.25,7.49,3.94,7.56,8.52.08,5.18-4.51,6.77-8.21,9.18-10.45,6.82-20.07,7.39-31.44.7-29.93-17.63-60.46-34.26-90.85-51.1-18.06-10-36.32-19.68-54.49-29.5-3.83-2.07-8.64-3.61-9.1-8.6-.56-6.13,5.55-7.47,9.32-9.36,5.3-2.67,10.4-6.5,17.25-5.7,6,.7,5-2.16,2.95-6.59-5.84-12.87-16.12-23.48-19.12-37.76,2.75-2,6.88-.48,9.11-3.69,3.67.11,4.68,3.09,5.92,5.66,14.85,30.84,35,57.53,61.86,79,3,2.37,6.69,4.77,6.53,9.53a7.12,7.12,0,0,0-4.15,4.69c.1,10.9,1,11.71,9.62,9.09,6.71-5.26,1.92-9.11-1.61-13.11.46-3.25,2.48-4.83,5.59-5.25,6.76,1.38,13.5,2.89,20.29,4.11,32.3,5.79,46.89-3.07,56.87-34.36,6-18.9,7.28-38.64,10.32-58.06,3,1.48,5,6.26,9.24,3.35,4.43-3.06-.63-6.56-.12-9.67,1.09-6.51-7.31-3.9-7.67-8.65a628.71,628.71,0,0,1,14.61-96.19c4.41,2,8.55,8.62,13.74,2.58,4.9-5.69-1.57-8.21-4.91-10.62-8.16-5.9-6,4.31-9.24,6.29-9.79-5.77-17.68-14.61-29-18-1.18-1.72-1-4.7-4.24-4.53l-.13-.12C294.31,365.23,283,363.81,278,355c.17-.88.35-1.76.52-2.65,9.2-1.89,3.39-8,3.53-12.48,2.61,1.95,5.24,3.88,7.83,5.87,21,16.11,41.46,33.12,66.19,43.62-13.42,42.33-18,86.11-22,130.07-2,22.45-4.44,45.06-12.25,66.49-2.46,6.77-3.5,14.73-11.22,18.44a85.26,85.26,0,0,0-.19-8.62c-.4-3.52-2.32-6.08-6.05-6.59a5.7,5.7,0,0,0-6.7,4.2c-1.23,4,.66,6.91,3.66,9.42s6.39.21,9.38,1.49C312.8,607.42,308.51,608.32,308.49,610.7Z" transform="translate(-21.85 -31.02)"/><path class="cls-3" d="M439.89,485.93c5.1,5.28,8.85,2.57,11.77-2.31,2.38-4,5.1-6.82,9.37-3.15,3.23,2.77,4.32,6.81,1.86,10.87-2.57,4.24-5.36,3.44-9,.78-5.07-3.72-10-2.91-13.86,2.37-3.85.43-3.55,3.51-4.56,6.24-3.11,8.38-5.33,17.79-10.79,24.41s-8.28,11.93-4.65,19.8c3.92,7.57,10.5,12.87,16.18,18.93,1.76,1.88,3.46,3.69,6.52,2.56,4.28-1.58,7.78-.11,7.7,4.49-.08,5.48-3.6,9.57-9,11-5,1.27-5.11-2.39-6.38-6.22-4.05-12.19-14.79-17.32-25.69-21.92-5.18-4.23-10,5.28-15.2.39-6.9-2.54-2.63-10.54-7.66-16.54-.73,9.38-7.24,15-5.67,23.07-7.5,2.8-16.06,3.92-20,12.47l-.2.31c-2.36,1.84-2.06,4.3-1.57,6.8.49,5.42-2.72,11.35,3.55,15.95,2.8,2.05,2.2,6.16-1.21,8.4-4.8,3.18-9.76,3.12-14-.9-2.74-2.61-2.88-6.06.1-8.7,8.06-7.14,4.92-15.34,2.57-23.52.69-11.3,4.26-22,6.67-33,2.9-1,5.86,3.81,8.72-.1,11.5,1.5,15.34-5.07,15.93-15.09l14.38-4.68c-7.42-1.85-10.84-6.95-16.79-4.34l-2.34-8.6c4.52.07,8.39-.75,8.71-6.4,5-1.07,7.88,2.27,10.89,5.33,1.75,1.78,2.51,5.68,6.38,3.05a22.85,22.85,0,0,0,11.06-11c.72-6.17-7.24-8.44-6.63-14.39.88-8.69-3.86-6.41-8.49-4.63-1.17-6.34,1.69-13.3-2.35-19.67-5.34,4.28-4.07,9.65-4.37,14.61l-.07.07c-7.52-2-4.63,9.16-11,8.65q3.3-18.59,6.59-37.16c6.58.39,12.63,2.7,19.74-1.08,7.29-3.87,14,.69,17.51,8.16,2,4.24,3.34,8.81,5,13.23l-6.87-.21c-6.13-1.38-11.47.33-12.73,6.62-1.18,5.89.66,11.58,8.19,12.72C425.48,484.24,433.42,478.38,439.89,485.93Z" transform="translate(-21.85 -31.02)"/><path class="cls-4" d="M596,529.66a38.92,38.92,0,0,1,1.13-6.34c3.58-10.2,1.74-13.18-9.91-15.61h0c-1.47-16.37-5.74-20.33-20.13-18.47-1.78.23-3.59,1.33-5-.49a3.52,3.52,0,0,1-.46-3c1.24-2.71,3.45-1.77,5.56-1.12,6,1.84,12.39,1.28,15.27-4.32,3.26-6.37,7.64-13.87.27-20.87l.11-.12c4.88.27,10.17.32,12.15-5,2.17-5.87-1.71-10.35-5.61-14.18-1.42-1.39-4.58-1.53-3-4.49a7.3,7.3,0,0,1,4-3.44c3.33-.89,3,2.07,3.42,4.09.15.71.13,1.65.57,2.07,3.71,3.53,5,11.42,11.67,9.55,6-1.67,1.75-8.42,3.38-12.45,1.79-4.41-5.79-12.23,1.52-12.58,8.7-.41,1.23,7.65,2.29,11.82,1.75,6.86,3.41,12.47,11.52,13.45s7.86-6.07,10.35-10.43c1.36-2.37-.21-8.32,5-5.6,4.11,2.13-.57,4.61-1.76,6.87-5.38,10.22-3,14,10.06,15.81l.47.48c1.58,10.59,1.58,10.59,18.59,9.47-16.12,7.08-7.26,20.57-11.4,30.47-2,4.67,6.61,6.23,11.16,7.95,2.28.87,6,.45,4.86,4.09-1.45,4.57-4.3,1.68-6.86.44-7.66-3.7-15.86-8.88-19,5-.08.35-.08,1-.21,1-12.37,2.23-16.31,7.72-7.4,18.52.21.26-1.27,2.45-2.35,3.1-1.71,1-3.75.75-4.51-1.33a19.3,19.3,0,0,1-.61-5.36c-.25-4-1.3-7.37-6-7.62-5.92-.32-5.28,4.87-6.66,8.31-.85,2.14,3.64,6.7-2,6.38-4.24-.24-1.2-3.86-1-6,.37-4.07.88-7.66-4.54-9.53-5.06-1.74-7.6.36-9.91,4-1.37,2.16-2.47,4.49-5,5.52Z" transform="translate(-21.85 -31.02)"/><path class="cls-5" d="M356.78,538.49c-2.41,11-6,21.67-6.67,33-4.2,2.9-4.79,8-7.12,12-7.92,13.67-18.65,23.67-34.5,27.27,0-2.38,4.31-3.28,2.22-6.4l-.1.09c7.72-3.7,8.76-11.66,11.22-18.43,7.81-21.43,10.21-44,12.25-66.49,4-44,8.54-87.74,22-130.07L380.83,376c2.57,2,1.66,3.84.4,6.51-3.91,8.31-7.2,16.92-7,26.39-4.5,10.3-6.21,20.59,0,30.9,0,.63,0,1.25,0,1.88-3.2.68-8.38-1.44-8.57,4-.67,19.9-6.16,39.63-2.31,59.7-1.85.13-3.51.62-4.54,2.34-7.92-.11-18.3-2.61-11.17,11.73.58,1.16.73,3.34,0,4.21-10.24,12.69,1.9,11.95,8.58,14.48Z" transform="translate(-21.85 -31.02)"/><path class="cls-4" d="M591.72,259.51c7,.8,6.75-3.8,6.33-8.52l.3-.25c7.72,3.39,12.13,2.11,9.41-8.5,10.56,8.6,22.49,8.75,33.81.58-2,8.68-1.29,15.59,8.62,17a1.67,1.67,0,0,1,.94.5c9,10.4,12,12.78,18.49,14.25-2.76,6.42-14.26-2.2-14.54,8.69-.15,6.12,6.53,3.54,8,7.3-8.87.52-21.11,13.31-23.08,24l-.22.19c-11.8-6.2-15.09-4.1-15,9.63-1.8-.11-2.26-1.27-2.44-2.85-.4-3.67,1.48-8.56-5-9-5.3-.37-6.89,3.11-8,7.22-.59,2.21.36,6.14-3.81,4.67-3-1.07-1.08-3.35,0-5.29,6-11-5.51-13.29-9.86-18.88s-9.15-.74-13.66,1c-2.41.91-4.47,7.27-7.21,1.67-1.91-3.89,2.91-4.79,5.93-6s7.45-1.17,8.09-4.71c.76-4.18,4.1-11.61-6-9.26-2.21.52-3.68,0-3.87-2.25a2.3,2.3,0,0,1,2.75-2.56c3,.42,7.26,3.25,7.19-2.52-.06-4.77-4.71-4.66-8.38-5a16.07,16.07,0,0,1-3.36-1.18c2.17-7.39,17.77,5.85,14.24-9.32Z" transform="translate(-21.85 -31.02)"/><path class="cls-6" d="M259.93,160.55c.39-9.11,1-18.22,1.1-27.33.05-7.66,2-15.92-7.59-20.62-3.7-1.81-2.68-6.38.05-9.54,4.23-4.89,16.33-5.46,21.24-1,4.67,4.27,3.92,8.74-1,11.72-3.71,2.26-5.14,4.65-4.53,8.76,2,13.3,2.41,26.9,8.07,39.44,0,4.55,3.24,6.09,6.78,7.31,2.07.71,4.89,1.38,4.14,4C284,188.12,294.4,188.39,304,189.61c-1.25,12.6,10.36,20.81,11.15,32.71-16.42-9.83-35.1-11.78-53.34-15.26-1.22-1.38-4.48-2.8-.41-4.39,2.71-1.06,6.56,1.39,8.87-3.1-4.53-2.63-12.94-.2-12.47-9,0-.33-.79-.69-1.21-1-6.12,10-9.84-1.66-14.87-1.67-2.75,0-7-1.78-3.39,3.77-2,2.34-4.81,3.16-6,0-1.72-4.52-1.34-9.31,2.38-13.17,1.1-1.16,2.62-4.27,3.74-2.24,4.83,8.77,4.8-.06,6.19-1.68,1.6-1.87,3.46-2.32,5.63-2.76C256.24,170.49,259.9,167.06,259.93,160.55Z" transform="translate(-21.85 -31.02)"/><path class="cls-7" d="M86.91,239.56c3.45-10,23.1-18.3,31.7-13.74,12.86,6.81,25.27,14.64,39.56,18.4l2.71.06,2.78,2.31,6,2.43c5.46,3.51,11.72,4.23,17.91,5.19l2.27,1,13.11,2.5c3.43,2.65,7.45,1.17,11.2,1.59l13.08.41q-2.82,4.81-5.63,9.65c-12.22,2.58-24,7.35-37,5.78-6.76-.82-13.34-4.32-20.41-2.06v.11C137.82,263.3,111.59,253.2,86.91,239.56Z" transform="translate(-21.85 -31.02)"/><path class="cls-2" d="M86.91,239.56c24.68,13.64,50.91,23.74,77.23,33.6-11.74,1.86-7.95,8.81-5.07,15.46-13-2.84-25.3-7.79-37.29-13.51-3.42-3.19-8.48-4.56-11.69-2.65-3.45,2.05.6,6.53.89,10,.6,7.17,2.14,14.25,3.27,21.38,4.28,27.08,8.81,54.13,9.65,81.62-4.93-5.35-9.81-7.28-14.55.22-3.35-26.9-5-54-11.22-80.55-1.14-4.85-.3-10.15-.46-15.25-.18-5.83-2.25-10.62-7.7-13.46,6.19-2.8.61-8.72,3.31-12.45,4.2,2.12,8.63,2.88,11.11-1.92,2.29-4.47-.55-8.25-3.91-11.17-5.77-5-7.74,1.81-11.24,3.82Q88,251.83,86.74,249,86.83,244.26,86.91,239.56Z" transform="translate(-21.85 -31.02)"/><path class="cls-4" d="M622.29,86.32c5.72,1.11,9.43-2.32,13.62-5.41,3.94-2.9,6.53-9.31,14.17-4,4.82,3.34,4-5.07,7.95-8.08-.73,5.91-1.41,11.2,6,11.57,1.23.07,2.7,2.34,3.47,3.89,4.92,9.92,10.51,18.39,24.81,11.3-5.34,6.4-15.82.55-17,10.58-.61,5.15,5.64,3.38,7.86,6.46-10,.8-21.74,16.75-20.56,27.35-5-1.09-1.52-10.56-8.4-8.83-4.45,1.13-3,5.71-2.79,6.71-13.76-6-23.16-20.09-39.34-25,1.82-3.16,11.78-.06,9.89-8.69-1.43-6.57-8-3.34-13-6.76,7.94-.75,18.94,2.21,13.45-11.18Z" transform="translate(-21.85 -31.02)"/><path class="cls-6" d="M189.81,255.18l-2.27-1c.94-11.66-9.78-8.71-15.32-12.23,4-8.56,9.68-.78,17-.65-5.54-6.39-12.58-12.78.52-14.75h10.81l-.07-2H189.83c-.05-.73-.09-1.46-.14-2.2l15.61-6.79c-6.81-4.15-12.18,2-17.59.13-2.81-2.33,1.62-6.83-2.61-8.73.26-4.91,5.53-8.27,4.23-13.67,0-7.2-3.48-13.25-6.45-19.48-1.84-3.86-4.14-5.7-9.14-5.77-8.2-.11-10.34-5.87-5.36-12.57a17.78,17.78,0,0,1,13.92-7.61c4.67-.18,9,2.42,7.37,7-5.53,15.64,7.14,19.77,15.66,26.67.82,4.22,4.15,3.28,6.94,3.34,13,.28,14.52,1.85,12.74,13.25-6.2,3.63-9.61,10.44-16.59,12.84,2.85,4.77,6.61-1.18,9.05,2.64-5,4.46-.1,9.92-1.39,14.9-6.1-.29-7.33,4.67-9.56,8.7-1.43,2.58-.89,6.93-5.52,6.91C193.61,244.18,191.72,249.67,189.81,255.18Z" transform="translate(-21.85 -31.02)"/><path class="cls-4" d="M423.56,106.53c-9.07,9.78-29.07,7.17-29,28.14-5.39-4.74.85-12.27-5.9-15.15-4.9-2.08-4.71,4.54-9.48,5.46,3.45-7.31-.33-11.27-5.87-13.73-3.24-1.44-6.66.42-3.11-6.29,2.93-5.53-6.84-.58-9.11-4.52l7.67-4.13c.26-5.22-6.3-1.91-6.51-6.11,8.7-2.71,15.86-14.26,14.06-22.57,11,7.32,13.69,6,17.12-9.18,3.12,3.74-3,11.07,4.88,12.13,7.19,1,5.76-6.85,9.8-10.18-2.56,8.17.3,12.93,6.52,17.71s6.72,13.13,6,20.53C420.19,103,421.42,105.4,423.56,106.53Z" transform="translate(-21.85 -31.02)"/><path class="cls-4" d="M545.57,150c10.59,6.43,10,21.76,21.63,27.71-4.56,1.63-12.91-.3-9.72,10.15,1.13,3.69-5.21,3.13-7.72,4.39-5.19,2.6-7.12,14.47-16.52,6.92-.33-.26-2.4.66-2.53,1.27-2.48,11.62-2.47.92-3.45-.38-2.18-2.9-5.31-1.46-8-1.78l-.1-.08c-.54-8.84-10.25-12.61-11.77-21.42-.4-2.28-.59-2.69.79-4.13,3.13-3.29,4.91-7.19,4.22-11.88-.26-1.74-1.2-4,1.67-3.95,11.16.41,3.75-7.34,5.08-11.22l.1-.1c3.65-.43,6.34,13.59,10.72.76,1.12-3.28-.86-7.15,2.12-11.49.42,5.28-.31,10,1.33,13.64,2.65,5.86,7.67,3.69,12.06,1.45Z" transform="translate(-21.85 -31.02)"/><path class="cls-2" d="M133.8,497.11c-7-6.82-9.76-15.9-11.5-24.92-5-26.11-10.62-52.2-11.25-79,4.25,3.86,8.61,4.82,13.14.47.69,1.59,1.8,3.14,2,4.79,3.32,28.66,7.17,57.25,14.63,85.16,1.79,6.68,3.93,12.05-5.78,12.93A1.18,1.18,0,0,1,133.8,497.11Z" transform="translate(-21.85 -31.02)"/><path class="cls-6" d="M323.77,176.89l8.89-9.36,6.83,2.28c-1,4.91-6.19,7.68-6.56,12.91-5.09,3.85-6.1,9.59-.81,12.3,6.36,3.25,9.43,9.29,14.85,13.23,5,3.59,7.89,4,11.71-.35l21.88-10c4,4.39-1.14,9,.25,13.38l-2.25,2.19v-.17c-11.93,7.93-26.28,9.88-39,15.79-3.7-.18-5.74-2.38-7.45-5.48-7.15-13-14.47-25.85-21.72-38.76C313.7,180.32,323.08,185.88,323.77,176.89ZM343.22,210c-1.94.09-4.22-2.09-6.29.46C339,211.72,341.06,211.44,343.22,210Z" transform="translate(-21.85 -31.02)"/><path class="cls-8" d="M466.69,416q4.28,5.63,8.56,11.26c3.72,4.92,7.07,9.56,14.8,8.72,5.56-.61,8.68,3.93,7.73,9.41-1.41,8.06-6.85,12.79-14.94,13.49-4.89.42-9.75-2.84-8.82-7.5,3.28-16.38-9.56-22.35-18.45-31-.94-3.7-.91-9.91-6.48-2.94-6.85,8.58-16,11.5-26.47,11.35,1.08-3.39-2.89-6.7-.34-10.22,9.71,5.72,17.77,2.53,24.55-7.61,9.6,1.45,10.3-4.9,10.2-11.77,0-2.62-3.85-4.6-1.44-7.73,10.48-.24,5.14-8.4,6.59-13.16,9.92,4.06.37,12.45,3.29,18.17,4-1.43,2.43-5.69,5.16-7.21,6.25,7.83-1.42,12-5.08,16.37C461.71,410.23,459.57,413.19,466.69,416Z" transform="translate(-21.85 -31.02)"/><path class="cls-5" d="M429.07,227.28l8.9-15.85c2.79,1.69,5.71.27,8.57.36-3.33,6.11-4,13-5.58,19.57-4.09,3.59-2.49,8.52-3.06,12.94-1.25,4.71-10.42,10.72,2.16,13.16-.56,4.49,2.43,7.48,4.56,10.84.68,10.22-4.13,12.81-13.41,10.1-3.38-1-7.1-1-10.67-1.13-8.35-.29-11.31-7.42-14.61-12.78-3.58-5.81,3.1-7.41,6.79-9.94,3.48-2.39,4.94-6.07,5.46-10.16C425.22,240.86,426.25,233.5,429.07,227.28Z" transform="translate(-21.85 -31.02)"/><path class="cls-9" d="M482.33,245.19c-1.4,5.83-8,9.6-6.57,16.54-6,4.8,1.39,10.91-1.55,16,10.15,4.35.91,6.65-1.51,9.42,3.22,1.91,6.83-.56,9.59,2.31-3.7,2.13-9.19,0-11.3,5.1q-3.27,6.69-6.53,13.39c-2.83,1.38-5.71,2.6-9,2.21H453.4c-2.71-4.76-5.22-9.58-4.47-15.35h0c3.72.14,7.09-3.87,11.19-.69,1,.78,1.42,5.34,4,1.65,1.54-2.17,4.58-5,.06-7.44.38-10.71-9.91-12.14-15.4-17.74l-2.08-2.19,0,0c-.83-8.32,1.08-14.09,11.27-13.6,3.45.16,7.13-1.08,8.44-5.22,5.41-1.85,8-7.14,12.56-10.1C481.32,240.72,481.93,242.89,482.33,245.19Z" transform="translate(-21.85 -31.02)"/><path class="cls-7" d="M471,294.57c2.11-5.06,7.6-3,11.3-5.1-2.76-2.87-6.37-.4-9.59-2.31,2.42-2.77,11.66-5.07,1.51-9.42,2.94-5.1-4.44-11.21,1.55-16,8.91,1.89,8.27,14.08,17.19,15.95A13.54,13.54,0,0,0,497.88,289c.17,14.53,3.82,28.55,6.22,42.75a26.62,26.62,0,0,1-15.44-6.19c8.79-5.82,1.45-8.7-2.61-10.61-3-1.41-7.12-.28-10.75-.29L472,314.4C476.76,307.52,481.3,300.66,471,294.57Z" transform="translate(-21.85 -31.02)"/><path class="cls-5" d="M488.66,325.59a26.62,26.62,0,0,0,15.44,6.19l6.24.57,2.28,11c-3.19,2.57-7.1,1.7-10.72,2.24-2.72-.78-4.78,1.07-7.12,1.8-8.5.85-13.23,6.63-17.34,13.24-5.28.52-8.61-2.2-10.92-6.59a35.53,35.53,0,0,1,0-26.34c1.8-3.23,2.78-7.07,6.59-8.79Z" transform="translate(-21.85 -31.02)"/><path class="cls-7" d="M422.63,428.76c10.5.15,19.61-2.77,26.46-11.35,5.57-7,5.54-.76,6.48,2.94-2.18,4.88-7.09,6.52-11.32,7.95-12,4-8.85,14.14-9.82,22.59-.05.51,2.31,1.3,3.54,2,.11,2.46-.51,5.17,2.28,6.72-1.37,4,2.49,4.62,4.23,6.62-4,3.25-8.67,1.73-13.11,1.82l-1.71-3.57c-1.64-4.42-3-9-5-13.23-3.53-7.47-10.22-12-17.51-8.16-7.11,3.78-13.16,1.47-19.74,1.08-.38-3.26.23-6.2,2.71-8.56,4.55-.57,9.24-2.11,13.62-1.48,5.18.75,7.52-.41,7.84-5.54A9.12,9.12,0,0,0,422.63,428.76Z" transform="translate(-21.85 -31.02)"/><path class="cls-6" d="M158.94,229.2c-8.5-8.16-18.57-14.11-28.5-20.28-3.84-2.38-6.9-3.58-11.82-1-7.54,4-13-.8-11.37-9.3,1-5.15,3.3-9.91,8-12.62,5.87-3.4,11.59-2.57,11.94,5,.3,6.61,4,8.54,8.65,10.79a174.48,174.48,0,0,0,34,12.1C166.5,219.25,166.18,226.68,158.94,229.2Z" transform="translate(-21.85 -31.02)"/><path class="cls-10" d="M225,198.22c1.78-11.4.26-13-12.74-13.25-2.79-.06-6.12.88-6.94-3.34,4.07-7.26,15.08-5.67,18.13-14.22a24.71,24.71,0,0,0,12.35-4c8.38,1.9,16.24-.57,24.12-2.88,0,6.51-3.69,9.94-9.71,11.18-2.17.44-4,.89-5.63,2.76-1.39,1.62-1.36,10.45-6.19,1.68-1.12-2-2.64,1.08-3.74,2.24-3.72,3.86-4.1,8.65-2.38,13.17,1.21,3.16,4,2.34,6,0,1.71,1,2.09,2.61,2.08,4.41l-6.73,8.69C228.92,205,224.41,205,225,198.22Z" transform="translate(-21.85 -31.02)"/><path class="cls-8" d="M429.07,227.28c-2.82,6.22-3.85,13.58-10.89,17.11-11-9.81-6.14,7.81-12,6.94-1.21-1.93.72-3.2,1-4.81-.95-12.41-2-13.12-13.4-9.32a2.61,2.61,0,0,1-3.55-1.57c-3-10.29-4.34-5.55-7.87.12-3.32,5.33-3.45,9.86-1.51,15.15a6.76,6.76,0,0,1-6.6-4.37,50.57,50.57,0,0,0,.28-6.49c-.24-2.95,7.46-6.13.7-8.3-5.68-1.82-6.73,3.91-7.43,8.25a45.5,45.5,0,0,0-.14,6.51c-1.14,4.81-2.27,9.63-4.06,17.16-1.19-5.87.87-10.47-4.76-10.53,0-8.5,7.78-14.86,6.5-23.7l4.36-2.83c8.71,1.93,17.72-5.07,25.43-1.25,8.85,4.38,18.45-2,26.45,4l1.21-3.94C425.12,225.27,427.58,224.68,429.07,227.28Z" transform="translate(-21.85 -31.02)"/><path class="cls-8" d="M323.77,176.89c-.69,9-10.07,3.43-13.4,8a7,7,0,0,0-6.4,4.72c-9.57-1.23-20-1.5-15.76-16.29.75-2.64-2.07-3.31-4.14-4-3.54-1.22-6.8-2.76-6.78-7.31,5.75-2,12.24,4.68,17.64-1.48,2.3,3.13,5.59,4.3,9.27,4.7Z" transform="translate(-21.85 -31.02)"/><path class="cls-7" d="M494.78,347.38c2.34-.73,4.4-2.58,7.12-1.8a124.55,124.55,0,0,1-7.08,25c-1.46,3.59-3.53,7.32-1.47,11.46-2.45,1.47-4.43,3.29-4.69,6.37-8.2,8.48-16.25,17.08-22,27.55-7.13-2.77-5-5.73-1.15-10.36,3.66-4.4,11.33-8.54,5.08-16.37,0-3.3.49-6.24,4.59-6.71,2.78,4.69,6.06,6,8.32,0,2.74-7.17,4.57-14.69,6.79-22.05C492.58,356.39,495.34,352.44,494.78,347.38Z" transform="translate(-21.85 -31.02)"/><path class="cls-5" d="M400.87,174.18c10.62-4.27,20.32,1,21,11.84.43,6.34-3,12.59-9.17,9.79-9.51-4.36-14,2.87-20.5,5.53-1.6-3.19-3-6.42-2.42-10.13C400.32,190,400.07,181.74,400.87,174.18Z" transform="translate(-21.85 -31.02)"/><path class="cls-10" d="M189.74,226.58c-13.1,2-6.06,8.36-.52,14.75-7.32-.13-13-7.91-17,.65-2.42,1.77-2.16,4.53-2.59,7l-6-2.44-2.78-2.3-2.71-.06c.31-.71.62-1.42.94-2.13,3.1-1.49,4.59-4.51,6.8-6.88,7.84-8.44,7.86-22.17,19.19-28.17,4.23,1.9-.2,6.4,2.61,8.73-2.24.28-4.43.92-3.94,3.73.58,3.38,3.57,2.69,5.92,2.93.05.74.09,1.47.14,2.2S189.8,225.93,189.74,226.58Z" transform="translate(-21.85 -31.02)"/><path class="cls-5" d="M339.49,169.81l-6.83-2.28c-.15-1.44,0-3-.52-4.29-2.05-4.93-3.93-10,1.75-13.57,5.87-3.71,11.27-1.26,16,2.74C354,156,356.6,160.73,354,166,350.94,172.27,344.89,170.53,339.49,169.81Z" transform="translate(-21.85 -31.02)"/><path class="cls-7" d="M466.48,249.62c-1.31,4.14-5,5.38-8.44,5.22-10.19-.49-12.1,5.28-11.27,13.6l-2.15-.14c-2.13-3.36-5.12-6.35-4.56-10.84,5.23.08,8.27-5.61,13.91-5.8L437.9,244.3c.57-4.42-1-9.35,3.06-12.94A67.19,67.19,0,0,1,466.48,249.62Z" transform="translate(-21.85 -31.02)"/><path class="cls-2" d="M518.74,525c9.88.58,15.66,3.16,15.18,10.82-.42,6.86-5.62,11.24-12.49,11-6.42-.18-11-4.63-10.7-11.21C511,529.48,514.14,524.56,518.74,525Z" transform="translate(-21.85 -31.02)"/><path class="cls-8" d="M543.21,334.84c4.36-3.38,5.94-13,14.1-7.92,6.25,3.9,6.61,10.86,4.34,17.68-1.07,3.23-2.68,6.21-6.31,6.93-7.36,1.48-8.08-6.12-12.15-9.18C543.2,339.85,543.2,337.34,543.21,334.84Z" transform="translate(-21.85 -31.02)"/><path class="cls-10" d="M358.68,207.9c-3.82,4.33-6.75,3.94-11.71.35-5.42-3.94-8.49-10-14.85-13.23-5.29-2.71-4.28-8.45.81-12.3A73.14,73.14,0,0,1,358.68,207.9Z" transform="translate(-21.85 -31.02)"/><path class="cls-9" d="M420,544.94c-3.63-7.87-.79-13.19,4.65-19.8s7.68-16,10.79-24.41c1-2.73.71-5.81,4.56-6.24Q439,503.33,438,512.18c.4,3.14-.81,5.87-2.19,8.55C430.54,528.81,427.12,538.06,420,544.94Z" transform="translate(-21.85 -31.02)"/><path class="cls-4" d="M369.72,226.6l-4.36,2.83-6.32,0-17.71,6.14c-2.94-1.5-4.39-3.42-1.79-6.45,12.75-5.91,27.1-7.86,39-15.79,3.81,8.32,9.66,4.09,15.09,2.45a4.63,4.63,0,0,1,2.79,4c-3.25.2-7-.59-9.64.78C381.33,223.42,373.22,218.62,369.72,226.6Z" transform="translate(-21.85 -31.02)"/><path class="cls-8" d="M482.33,245.19c-.4-2.3-1-4.47-3.29-5.67.52-5.23-4.9-11.86,3.15-15.3,5.6-2.4,9.89.7,13.34,4.77,2.12,2.5,3.64,5.44,2.27,9s-4.18,5.32-7.66,4.8C486.91,242.33,484.48,242.9,482.33,245.19Z" transform="translate(-21.85 -31.02)"/><path class="cls-8" d="M393.66,215.8c-5.43,1.64-11.28,5.87-15.09-2.45v.17c1.68.23,2-.91,2.25-2.19-1.39-4.43,3.75-9-.25-13.38,4.07-5.26,2.29-11.15,1.82-16.9l7.75-.12q-.17,5.15-.32,10.28c-.58,3.71.82,6.94,2.42,10.13C390.7,206.36,393.37,211,393.66,215.8Z" transform="translate(-21.85 -31.02)"/><path class="cls-7" d="M185.1,207c-11.33,6-11.35,19.73-19.19,28.17-2.21,2.37-3.7,5.39-6.8,6.88-.53-4.29,3.9-8.64-.17-12.89,7.24-2.52,7.56-9.95,10.86-15.27,8.06-5.38,10.55-16.05,19.53-20.56C190.63,198.77,185.36,202.13,185.1,207Z" transform="translate(-21.85 -31.02)"/><path class="cls-2" d="M628.86,381.72c-.42-5.54,3.9-7.41,9.51-7.83,6.6-.5,9.65,4.17,9.67,9.26,0,5.87-4.51,10-10.52,10.09S629,388.77,628.86,381.72Z" transform="translate(-21.85 -31.02)"/><path class="cls-5" d="M93.29,264c-2.71,3.73,2.87,9.65-3.32,12.45-7.22-.68-10.88-5.11-11.59-11.86s1.14-12.78,8.36-15.62q1.24,2.88,2.5,5.76c-.48,2.9,1.08,5.2,2.21,7.63.36.9-.09,2.65,1.92,1.83Z" transform="translate(-21.85 -31.02)"/><path class="cls-5" d="M235.81,163.43a24.71,24.71,0,0,1-12.35,4L216.14,137l5.92-4.61C223.07,144.28,230.88,153.22,235.81,163.43Z" transform="translate(-21.85 -31.02)"/><path class="cls-9" d="M543.21,334.84c0,2.5,0,5,0,7.51l-30.57,1-2.28-11Z" transform="translate(-21.85 -31.02)"/><path class="cls-6" d="M304.22,134.51c-3.84-2.83-6.6-6.51-3.45-11,3.05-4.3,7.9-4.56,12.74-2.69,4.25,1.64,8.3,4,8,9.06-.4,5.8-5.18,7-10.12,7.24Z" transform="translate(-21.85 -31.02)"/><path class="cls-9" d="M443.84,193.58c-4-2.94-6-6.7-3-11.2,2.83-4.23,7.43-4.25,11.81-2.88,5,1.55,9.57,3.78,10.74,9.67-3.62,1.09-3.51,4-3.45,6.93l-2,.94C454.17,192.05,448,197,443.84,193.58Z" transform="translate(-21.85 -31.02)"/><path class="cls-3" d="M435.77,520.73c1.38-2.68,2.59-5.41,2.19-8.55,7.6,2.87,13.93,10.54,23.65,5.41,2.1-1.11,4.46,1.64,4.87,4.54a8.41,8.41,0,0,1-4.48,9c-2.62,1.49-5.43.57-6.2-2.18-1.7-6-6.89-5.47-11.17-6.77l-2.92-.88Z" transform="translate(-21.85 -31.02)"/><path class="cls-9" d="M517.56,270.82c.47-4.45,1-9.21,6.31-10.28,4.62-.93,7.52,2.28,9.35,6,2,4.16,2.61,8.78-1.26,12.07-3.68,3.13-7.48,1.84-10.49-1.72A6.89,6.89,0,0,0,517.56,270.82Z" transform="translate(-21.85 -31.02)"/><path class="cls-9" d="M390.13,180.93l-7.75.12c-4.38-1.17-7.38-3.58-6.21-8.53.95-4,4.4-5.8,8.14-6.33,6.17-.86,10.71,1.37,12.44,7.82C395.73,177.45,393.87,180.09,390.13,180.93Z" transform="translate(-21.85 -31.02)"/><path class="cls-9" d="M510.45,391.87c4.12-2.93,8.44-4.69,12.46-.18,3,3.42,2.22,7.43.16,11.07-1.9,3.37-5.2,5.78-8.83,5.14-6.29-1.09-6.63-6.62-6.91-11.75A4.49,4.49,0,0,0,510.45,391.87Z" transform="translate(-21.85 -31.02)"/><path class="cls-5" d="M304.22,134.51l7.13,2.64q-3.57,14-7.15,28.07c-3.68-.4-7-1.57-9.27-4.7C297.55,151.68,303.13,143.89,304.22,134.51Z" transform="translate(-21.85 -31.02)"/><path class="cls-7" d="M369.72,226.6c3.5-8,11.61-3.18,17.09-6,2.64-1.37,6.39-.58,9.64-.78l6.39.27c1.18,2,2.58,2.55,4.32.61l15.65,4.69c-.41,1.32-.81,2.64-1.21,3.95-8-6-17.6.42-26.45-4C387.44,221.53,378.43,228.53,369.72,226.6Z" transform="translate(-21.85 -31.02)"/><path class="cls-8" d="M517.56,270.82a6.89,6.89,0,0,1,3.91,6.11c-9.25,1.32-15.68,8.15-23.59,12.1A13.54,13.54,0,0,1,493,277.68Z" transform="translate(-21.85 -31.02)"/><path class="cls-6" d="M222.06,132.34,216.14,137c-3.63-1.56-10.07,0-9.46-6.47.51-5.43,5.64-7,10.44-8,3.06-.64,6.09-.22,7.63,2.66S225,130.68,222.06,132.34Z" transform="translate(-21.85 -31.02)"/><path class="cls-9" d="M448.91,448.56c1.88-2.17,3.93-4.22,5.6-6.54,1.43-2,.19-6.73,5-5,3.94,1.41,6.69,4.09,7.4,8.57.86,5.44-3.9,4.38-6.4,5.35-2.95,1.14-6.34,1.16-9.53,1.67Z" transform="translate(-21.85 -31.02)"/><path class="cls-8" d="M429.66,464.44l1.71,3.57c-.81,7,.35,12.45,9.34,11.51q-.4,3.19-.82,6.41c-6.47-7.55-14.41-1.69-21.64-2.36,7-5.17,3.94-12.68,4.54-19.34Z" transform="translate(-21.85 -31.02)"/><path class="cls-9" d="M360.86,573.12c3.92-8.55,12.48-9.67,20-12.47,1.71,6.18,6.13.14,8.81,2l0,0c0,.92-.07,1.83-.11,2.75.17,1.25.33,2.49.5,3.74l-5.43.31Z" transform="translate(-21.85 -31.02)"/><path class="cls-8" d="M443.84,193.58c4.14,3.41,10.33-1.53,14.09,3.46-9.14.79-7.16,10.17-11.39,14.75-2.86-.09-5.78,1.33-8.57-.36Q440.9,202.51,443.84,193.58Z" transform="translate(-21.85 -31.02)"/><path class="cls-8" d="M124.19,393.7c-4.53,4.35-8.89,3.39-13.14-.47-.57-2.51-1.14-5-1.7-7.54,4.74-7.5,9.62-5.57,14.55-.22Q124.05,389.58,124.19,393.7Z" transform="translate(-21.85 -31.02)"/><path class="cls-9" d="M440.71,479.52c-9,.94-10.15-4.49-9.34-11.51,4.44-.09,9.11,1.43,13.11-1.82C451,472.28,450.51,474.17,440.71,479.52Z" transform="translate(-21.85 -31.02)"/><path class="cls-2" d="M559.72,110.22c-4.29-1-7.11-3.61-7.45-8.07-.33-4.29,1.94-7,6.36-6.89,4.9.17,8.46,2.88,8.3,8C566.81,107.14,563.63,109.36,559.72,110.22Z" transform="translate(-21.85 -31.02)"/><path class="cls-8" d="M510.45,391.87a4.49,4.49,0,0,1-3.12,4.28l-18.67-7.74c.26-3.08,2.24-4.9,4.69-6.37Z" transform="translate(-21.85 -31.02)"/><path class="cls-3" d="M394.67,582c5.08.21,7.52,2.82,5.63,7.66-1.74,4.43-6,5.37-9.86,3.46-5.9-2.9-2.4-7-.53-10.77Z" transform="translate(-21.85 -31.02)"/><path class="cls-2" d="M390.13,180.93c3.74-.84,5.6-3.48,6.62-6.92l4.12.17c-.8,7.56-.55,15.79-11.06,17Q390,186.08,390.13,180.93Z" transform="translate(-21.85 -31.02)"/><path class="cls-9" d="M394.17,554.12c5.2,4.89,10-4.62,15.2-.39-3.78,5.7-9.62,8.24-15.78,10.28l-4-1.43,0,0Q391.92,558.36,394.17,554.12Z" transform="translate(-21.85 -31.02)"/><path class="cls-10" d="M133.8,497.11a1.18,1.18,0,0,0,1.23-.53c5.45,2,6.76,8.18,11.21,11.2-2.23,3.21-6.36,1.74-9.11,3.69C133.22,507.33,130.75,502.86,133.8,497.11Z" transform="translate(-21.85 -31.02)"/><path class="cls-5" d="M448.91,448.56l2.08,4-10.74,7c-2.79-1.55-2.17-4.26-2.28-6.72C441.72,451.67,444.36,447.68,448.91,448.56Z" transform="translate(-21.85 -31.02)"/><path class="cls-6" d="M394.67,582l-4.76.35q-2.66-6.48-5.32-13l5.43-.31Z" transform="translate(-21.85 -31.02)"/><path class="cls-4" d="M648.45,454.82c1.36-2.52,2.73-5,4.08-7.55.92-1.74.61-4.82,3.75-4.2a5,5,0,0,1,2.86,2.93c.94,2.49-.66,4-2.78,5.08-2.52,1.33-5,2.8-7.45,4.21Z" transform="translate(-21.85 -31.02)"/><path class="cls-4" d="M587.2,507.71c-.14,3.17.37,6.81-3.89,7.71-1.63.35-2.45-1.28-2.56-2.77-.35-4.83,3.14-4.8,6.45-4.93Z" transform="translate(-21.85 -31.02)"/><path class="cls-4" d="M596,529.67c-.71,2.17,3.32,5.86-2,6.5-1.76.21-3.81-.33-4-2.55-.29-4.47,3.33-3.56,5.94-4Z" transform="translate(-21.85 -31.02)"/><path class="cls-4" d="M574.07,499.07c1.7.16,3.33.56,2.32,2.31a8,8,0,0,1-3.84,3.2c-1.38.52-2.59-.6-2.55-2.31C570.06,499.37,572.2,499.2,574.07,499.07Z" transform="translate(-21.85 -31.02)"/><path class="cls-4" d="M582.76,459.48c-2.61-.35-6.27.84-6-3.82a3,3,0,0,1,2-2.09c4.56-.48,3.66,3.2,4.14,5.79Z" transform="translate(-21.85 -31.02)"/><path class="cls-8" d="M459.9,196.1c-.06-2.91-.17-5.84,3.45-6.93C465.23,193,463.83,195.17,459.9,196.1Z" transform="translate(-21.85 -31.02)"/><path class="cls-4" d="M655.81,260.11c2.59-3.47,4.3-4.53,6.59-4,.33.07.79,1.31.6,1.72C661.79,260.34,659.51,259.16,655.81,260.11Z" transform="translate(-21.85 -31.02)"/><path class="cls-4" d="M519.1,145.59c-2.22-.32-4.22-1-3.84-3.78.09-.66,1.54-1.79,2-1.63,2.57.94,1.74,3.36,2,5.31Z" transform="translate(-21.85 -31.02)"/><path class="cls-4" d="M642,65.14c-.35,1.31-.58,2.61-2,1.76a3.64,3.64,0,0,1-1.46-2.41,1.32,1.32,0,0,1,2-1.43C641.26,63.43,641.59,64.55,642,65.14Z" transform="translate(-21.85 -31.02)"/><path class="cls-4" d="M498.51,173.55c-.26.61-.4,1.57-.83,1.73s-1.19-.43-1.8-.7l.79-1.83Z" transform="translate(-21.85 -31.02)"/><path class="cls-4" d="M679.16,125.07c-.37-.51-.71-1-1-1.48l2.12-1.07c.2.58.7,1.28.53,1.72S679.74,124.8,679.16,125.07Z" transform="translate(-21.85 -31.02)"/><path class="cls-4" d="M407.16,220.67c-1.74,1.94-3.14,1.41-4.32-.61C404.61,217.88,406,218.26,407.16,220.67Z" transform="translate(-21.85 -31.02)"/><path class="cls-4" d="M371.67,120.7c-.34-.51-.65-1-1-1.46l2.1-1.13c.18.58.65,1.29.47,1.71S372.25,120.41,371.67,120.7Z" transform="translate(-21.85 -31.02)"/><path class="cls-4" d="M591.33,260l-4.64-1.29c.2-.28.36-.72.62-.8a3.73,3.73,0,0,1,4.41,1.63Z" transform="translate(-21.85 -31.02)"/><path class="cls-9" d="M359.09,580.23c-.49-2.5-.79-5,1.57-6.8Q359.87,576.82,359.09,580.23Z" transform="translate(-21.85 -31.02)"/><path class="cls-4" d="M598.05,251c-.52-.82-1-1.62-1.52-2.47a6.32,6.32,0,0,1,.78-.59c.35.94.69,1.88,1,2.81Z" transform="translate(-21.85 -31.02)"/><path class="cls-4" d="M519.21,198.27l-.9,2.85-.83-.56,1.63-2.37Z" transform="translate(-21.85 -31.02)"/><path class="cls-4" d="M640,314.48c.53.82,1.07,1.63,1.55,2.47a7.9,7.9,0,0,1-.8.58c-.32-.95-.64-1.91-1-2.86Z" transform="translate(-21.85 -31.02)"/><path class="cls-4" d="M416.76,118.15c-.27.14-.55.4-.81.37s-.48-.34-.71-.53Z" transform="translate(-21.85 -31.02)"/><path class="cls-6" d="M389.63,562.58l4,1.43-4.07,1.32C389.56,564.41,389.6,563.5,389.63,562.58Z" transform="translate(-21.85 -31.02)"/><path class="cls-4" d="M670.62,130.17l-.91-1c.21.06.49.06.59.19a3.25,3.25,0,0,1,.31.81Z" transform="translate(-21.85 -31.02)"/><path class="cls-4" d="M670.61,130.18l.93.89c-.2,0-.46,0-.57-.15a3,3,0,0,1-.35-.75Z" transform="translate(-21.85 -31.02)"/><path class="cls-9" d="M441.71,521.35l2.92.88Z" transform="translate(-21.85 -31.02)"/><path class="cls-4" d="M622.37,86.24l-.87-.41.79.49Z" transform="translate(-21.85 -31.02)"/><path class="cls-4" d="M545.43,149.85l1-.91-.89,1.05Z" transform="translate(-21.85 -31.02)"/><path class="cls-1" d="M170.32,108.2c-6.12,0-12.56,1.26-17.06-4.79-3.1-4.16-7-8.55-4.06-13.75,2.77-5,6.51-10.14,13.36-9.89,9.61.36,18.72-2,27.94-4.15,7.36-1.7,13.35,1,16.16,7.88s.14,13-6.14,17A50.87,50.87,0,0,1,170.32,108.2Z" transform="translate(-21.85 -31.02)"/><path class="cls-10" d="M221.57,269.33q2.82-4.83,5.63-9.65l2.25-2.17,2.24-2c11.77-3.52,19.84.14,24.29,11.9a19.27,19.27,0,0,0,5.7,7.8c7.8,6.31,9.74,19.46,22.77,19.64q1.07.13,2.13.3c-1.09,2.18-3.21,4.44-.58,6.75,6.67,5.87,11.16,14.26,20.14,17.44.45,4.14,3.5,4.1,6.54,4.07,4.55,9.68,13.5,14.79,21.7,20.57,15.39,10.83,31,21.39,46.45,32.07L356,389.4c-24.73-10.5-45.16-27.51-66.19-43.62-2.59-2-5.22-3.92-7.83-5.86-.08-2.47-1.59-3.34-3.83-3.38-18.15-18-36.65-35.61-50.95-57l-3.86-6.75Z" transform="translate(-21.85 -31.02)"/><path class="cls-4" d="M224.55,591.29l5.45,6.06c-3.11.42-5.13,2-5.58,5.25l-3.87-.67c.16-4.76-3.55-7.16-6.53-9.53-26.9-21.43-47-48.12-61.86-79-1.24-2.57-2.25-5.55-5.92-5.66-4.45-3-5.76-9.18-11.21-11.2,9.71-.88,7.57-6.25,5.78-12.93-7.46-27.91-11.31-56.5-14.63-85.16-.19-1.65-1.3-3.2-2-4.79q-.14-4.12-.29-8.23c-.84-27.49-5.37-54.54-9.65-81.62-1.13-7.13-2.67-14.21-3.27-21.38-.29-3.48-4.34-8-.89-10,3.21-1.91,8.27-.54,11.69,2.65-6.53,1.46-3.54,5.85-2.92,9.49,8,47.19,13.25,94.72,18.58,142.26,2.16,19.32,4.19,38.91,12.71,56.92l4.95,15c-.64,2.08-.25,3.74,1.87,4.72C170.94,539.34,195.36,567.15,224.55,591.29Z" transform="translate(-21.85 -31.02)"/><path class="cls-10" d="M310.71,604.3c-3-1.28-6.5.92-9.38-1.49s-4.89-5.47-3.66-9.42a5.7,5.7,0,0,1,6.7-4.2c3.73.51,5.65,3.07,6.05,6.59a85.26,85.26,0,0,1,.19,8.62Z" transform="translate(-21.85 -31.02)"/><path class="cls-10" d="M333.54,397.88a1.84,1.84,0,0,1-.41-1.75c3.21-2,1.08-12.19,9.24-6.29,3.34,2.41,9.81,4.93,4.91,10.62C342.09,406.5,338,399.89,333.54,397.88Z" transform="translate(-21.85 -31.02)"/><path class="cls-10" d="M317.48,509c-.45-5.1-1-10.2,1.45-15,.36,4.77,8.76,2.16,7.67,8.67-.51,3.11,4.55,6.61.12,9.67C322.5,515.3,320.45,510.52,317.48,509Z" transform="translate(-21.85 -31.02)"/><path class="cls-10" d="M278,355c-5-1.32-9.35-3.29-10-9.26.72-3.31,2.2-6.08,5.41-7.63,2.48,4.47,5.33,8.81,5.14,14.24C278.32,353.28,278.14,354.16,278,355Z" transform="translate(-21.85 -31.02)"/><path class="cls-7" d="M278.49,352.39c.19-5.43-2.66-9.77-5.15-14.24,1.12-2,3-1.72,4.85-1.61,2.24,0,3.75.91,3.83,3.38C281.88,344.37,287.69,350.5,278.49,352.39Z" transform="translate(-21.85 -31.02)"/><path class="cls-7" d="M220.55,601.93l3.87.67c3.52,4,8.31,7.85,1.59,13.11-2.19-4.1-2.68-10-9.61-9.09A7.12,7.12,0,0,1,220.55,601.93Z" transform="translate(-21.85 -31.02)"/><path class="cls-5" d="M216.4,606.62c6.93-.91,7.42,5,9.61,9.09C217.36,618.33,216.5,617.52,216.4,606.62Z" transform="translate(-21.85 -31.02)"/><path class="cls-11" d="M304.16,378.15c-2.89-.13-3.65-2.25-4.24-4.53C303.13,373.45,303,376.43,304.16,378.15Z" transform="translate(-21.85 -31.02)"/><path class="cls-6" d="M380.83,376c-15.49-10.68-31.06-21.24-46.45-32.07-8.2-5.78-17.15-10.89-21.69-20.57l2.3-2.28,6.57-4.4q.6,3.65,1.21,7.29c8-5.14,10.15,5.94,16.31,5.89,5.36,6.87,14.45,10.21,17.1,20.2.6,2.26,4.39,8.38,9.54,10.4,10.11,3.94,19.5,9.77,30.53,11.22,0,1.43,0,2.86-.05,4.28-.68.72-1.37,1.43-2.06,2.15-2,6.15-1.1,10.53,6.21,12.29,2,.5,7.1-.05,5.38,4.72-1.18,3.28-4.79,3.26-7.61,2.34-8.34-2.75-6.44,3.57-6,7.23.37,3,2.65,5.73,4.09,8.58-10.26,4-7.81,12.11-6.34,19.87l.27,2.43c-2.48,2.35-3.09,5.29-2.71,8.55q-3.29,18.58-6.59,37.16c0,1.5,0,3-.08,4.51l-8.72-.07c.91-14.67-1.77-29.52,2.23-44,0-.63,0-1.25,0-1.88,3.71-7.44,2.69-16.05,6.27-23.69,2-4.32-.86-7.61-6.24-7.21-.23-9.47,3.06-18.08,7-26.39C382.49,379.85,383.4,378.05,380.83,376Z" transform="translate(-21.85 -31.02)"/><path class="cls-12" d="M358.85,507.76c1-1.72,2.69-2.21,4.54-2.34l4.43-2.05a14.75,14.75,0,0,0,8.86,2.31l2.34,8.6q1.2,4.5,2.41,9c-.59,10-4.43,16.59-15.93,15.09,2.11-4.92,8.47-7,8.78-13.11,1.71-1.12,3.83-2,3.33-4.63a1.76,1.76,0,0,0-1.5-.8c-2.54,1.09-1.46,3.52-1.84,5.42-8.22-.07-8.91,11.62-17.4,11.14-1-6.26-3.2-12.36,1.75-18.4A8.26,8.26,0,0,0,358.85,507.76Z" transform="translate(-21.85 -31.02)"/><path class="cls-12" d="M380.76,485.8c0-1.5.06-3,.08-4.51,6.34.51,3.45-10.66,11-8.65l.94.46-.87-.53c.3-5-1-10.33,4.37-14.61,4,6.37,1.18,13.33,2.35,19.67-.68,3.37-3.08,6.76.06,10.11-6.19,5.52-3.5,9.62,2.1,13.26q.94,3.33,1.9,6.66c-3.87,2.63-4.63-1.27-6.38-3.05-3-3.06-5.87-6.4-10.89-5.33C386.56,493.85,381.24,490.66,380.76,485.8Z" transform="translate(-21.85 -31.02)"/><path class="cls-5" d="M380.76,485.8c.48,4.86,5.8,8.05,4.63,13.48-.32,5.65-4.19,6.47-8.71,6.4a14.75,14.75,0,0,1-8.86-2.31c5.78-2.84,11.73-5.49,3.19-12.28-1.86-1.48-.93-3.86,1-5.36Z" transform="translate(-21.85 -31.02)"/><path class="cls-10" d="M422.79,464.23c-.6,6.66,2.43,14.17-4.54,19.34-7.53-1.14-9.37-6.83-8.19-12.72C411.32,464.56,416.66,462.85,422.79,464.23Z" transform="translate(-21.85 -31.02)"/><path class="cls-10" d="M398.66,487.74c-3.14-3.35-.74-6.74-.06-10.11,4.63-1.78,9.37-4.06,8.49,4.63-.61,5.95,7.35,8.22,6.63,14.39l-8.3-.18C404.58,492.46,402,489.79,398.66,487.74Z" transform="translate(-21.85 -31.02)"/><path class="cls-6" d="M394.17,554.12q-2.25,4.25-4.52,8.48c-2.68-1.81-7.1,4.23-8.81-2-1.57-8.07,4.94-13.69,5.67-23.07C391.54,543.58,387.27,551.58,394.17,554.12Z" transform="translate(-21.85 -31.02)"/><path class="cls-6" d="M356.87,536.41c8.49.48,9.18-11.21,17.4-11.14h0c-.31,6.13-6.67,8.19-8.78,13.11-2.86,3.91-5.82-.87-8.72.1l-.48-.31Q356.62,537.31,356.87,536.41Z" transform="translate(-21.85 -31.02)"/><path class="cls-6" d="M381.43,523.3q-1.21-4.51-2.41-9c6-2.61,9.37,2.49,16.79,4.34Z" transform="translate(-21.85 -31.02)"/><path class="cls-6" d="M405.42,496.47l8.3.18a22.85,22.85,0,0,1-11.06,11q-1-3.33-1.9-6.65C403.84,501.06,405,499.09,405.42,496.47Z" transform="translate(-21.85 -31.02)"/><path class="cls-3" d="M372,485.73c-2,1.5-2.89,3.88-1,5.36,8.54,6.79,2.59,9.44-3.19,12.28l-4.43,2.05c-3.85-20.07,1.64-39.8,2.31-59.7.19-5.47,5.37-3.35,8.57-4C370.27,456.21,373,471.06,372,485.73Z" transform="translate(-21.85 -31.02)"/><path class="cls-8" d="M356.87,536.41q-.25.9-.57,1.77c-6.69-2.53-18.83-1.79-8.59-14.48.7-.87.55-3.05,0-4.21-7.13-14.34,3.25-11.84,11.17-11.73a8.26,8.26,0,0,1-.23,10.25C353.67,524.05,355.86,530.15,356.87,536.41Z" transform="translate(-21.85 -31.02)"/><path class="cls-3" d="M374.26,408.91c5.38-.4,8.27,2.89,6.24,7.21-3.58,7.64-2.56,16.25-6.27,23.69C368.05,429.5,369.76,419.21,374.26,408.91Z" transform="translate(-21.85 -31.02)"/><path class="cls-12" d="M261.78,207.06c18.24,3.48,36.92,5.43,53.34,15.26,1.44,6.76,7.57,12,6.3,19.63-7.16,2.64-10.48,10.12-17,13.55C293,248.76,280,245.3,269.08,237.64l-2.3-2.25a13.37,13.37,0,0,0-.23-2.09c1.13-8.53,0-15.2-10.88-15.83a10,10,0,0,1-8.61-6l4.67-.36C255.15,210,260.76,214.17,261.78,207.06Z" transform="translate(-21.85 -31.02)"/><path class="cls-9" d="M321.42,242c1.27-7.63-4.86-12.87-6.3-19.63-.79-11.9-12.4-20.11-11.15-32.71a7,7,0,0,1,6.4-4.71c7.25,12.91,14.57,25.78,21.72,38.76,1.71,3.1,3.75,5.3,7.45,5.48-2.6,3-1.15,5,1.79,6.45.24,5.49,4.59,6.83,8.62,8.36,3.21,1.22,4.06-1.78,3.87-3.44-.57-5,5.21-6.61,5.22-11.06l6.32,0c1.28,8.84-6.5,15.2-6.5,23.7-9,9.57-19.57,16.17-32.93,17.58h0l-.08-15.56c-.31-3.08.91-6.63-2.69-8.68A3.85,3.85,0,0,0,321.42,242Z" transform="translate(-21.85 -31.02)"/><path class="cls-8" d="M261.78,207.06c-1,7.11-6.63,2.9-10.06,4.07a8.92,8.92,0,0,1-.23-1.85c.26-.24.79-.56.75-.69a10,10,0,0,0-.83-1.63L246,196.62c.07-1.44-.16-1.73-.88-.24l-4.78-.39c0-1.8-.37-3.43-2.08-4.41-3.6-5.55.64-3.78,3.39-3.77,5,0,8.75,11.71,14.87,1.67.42.35,1.22.71,1.21,1-.47,8.85,7.94,6.42,12.47,9-2.31,4.49-6.16,2-8.87,3.1C257.3,204.26,260.56,205.68,261.78,207.06Z" transform="translate(-21.85 -31.02)"/><path class="cls-10" d="M247.06,211.49a10,10,0,0,0,8.61,6c10.92.63,12,7.3,10.88,15.83-3.46-3.35-1.12-12.39-9.52-10.64-7.61,1.58-9.63,7.93-10,14.88-.08,1.44,0,2.9.07,4.35-6.88.94-16.22-8.87-20.23,4.62-11.06-2.88-18.78,1.38-23.92,11.17l-13.11-2.5c1.91-5.51,3.8-11,11.19-11,4.63,0,4.09-4.33,5.52-6.91,2.23-4,3.46-9,9.56-8.69,2.08-.22,5.56,1.75,5.11-2.69-.63-6.31,3.76-8.29,8.24-10.35l6.49.27,8.91,7.6c2.73-10.18-4.84-6.88-8.76-7.74.05-1.5.1-3,.16-4.52A21.72,21.72,0,0,0,247.06,211.49Z" transform="translate(-21.85 -31.02)"/><path class="cls-2" d="M221.57,269.33l1.81,3.44c-1.27,3.48-5.63,1-7.27,3.79-8.66,6.74-1.68,11.11,2.41,15.92-17.93,4.63-35.54,2.46-53-2.46,11-6.56,3.13-11.63-1.35-17,7.07-2.26,13.65,1.24,20.41,2.06C197.59,276.68,209.35,271.91,221.57,269.33Z" transform="translate(-21.85 -31.02)"/><path class="cls-8" d="M164.15,273.05c4.48,5.34,12.35,10.41,1.35,17-2.32.37-4.59.45-6.43-1.41-2.88-6.65-6.67-13.6,5.07-15.46Z" transform="translate(-21.85 -31.02)"/><path class="cls-5" d="M202.92,257.68c5.14-9.79,12.86-14.05,23.92-11.17q1.24,4.37,2.47,8.72c-2.18,0-4.21-.21-6.14-1.65-7.75-5.8-9.32-1.45-9,5.69C210.37,258.85,206.35,260.33,202.92,257.68Z" transform="translate(-21.85 -31.02)"/><path class="cls-3" d="M169.63,249c.43-2.51.17-5.27,2.59-7,5.54,3.52,16.26.57,15.32,12.23C181.35,253.25,175.09,252.53,169.63,249Z" transform="translate(-21.85 -31.02)"/><path class="cls-6" d="M214.12,259.27c-.27-7.14,1.3-11.49,9-5.69,1.93,1.44,4,1.6,6.14,1.65l.16.12c0,.72,0,1.44,0,2.16l-2.25,2.17Z" transform="translate(-21.85 -31.02)"/><path class="cls-3" d="M160.88,244.28l2.78,2.3Z" transform="translate(-21.85 -31.02)"/><path class="cls-13" d="M333.53,397.88a1.82,1.82,0,0,1-.39-1.76c-9.8-5.75-17.68-14.6-29-18-2.9-.14-3.65-2.27-4.24-4.55l-.13-.11c-5.49-8.28-16.76-9.69-21.84-18.45-5-1.34-9.33-3.29-10-9.27L255.12,334a1.25,1.25,0,0,1-1.36-1.21,1.3,1.3,0,0,0-.86-.9,1.23,1.23,0,0,1-1.27-1.3,1.43,1.43,0,0,0-1-.9q-15.25-18.45-30.5-36.94a5.42,5.42,0,0,1-1.65-.26c-17.92,4.63-35.52,2.46-53-2.46-2.33.39-4.59.46-6.43-1.41-13.05-2.83-25.31-7.77-37.3-13.51-6.52,1.47-3.54,5.87-2.92,9.51,8,47.18,13.24,94.71,18.58,142.24,2.15,19.33,4.2,38.92,12.72,56.93q2.47,7.49,4.94,15a3.9,3.9,0,0,1,1.87,4.72c14,35.85,38.39,63.67,67.58,87.81l5.45,6.06c6.76,1.37,13.5,2.88,20.29,4.11,32.29,5.8,46.89-3.07,56.86-34.37,6-18.89,7.3-38.64,10.33-58.05-.46-5.1-1-10.19,1.45-15A628.56,628.56,0,0,1,333.53,397.88Zm-54.07,105.4c-14.54-6.63-29.28-12.89-45.07-19.81.28,16.85,4.08,32.6,6.15,49.73-8.85-4.5-16.54-8.44-24.25-12.35-15.66-6.58-23.46-18-21.61-35.31-3.76-9,.44-20-6.72-28.18-10.76-8-21.51-16.15-32.36-24.1-3.44-2.52-5.42-5.33-5.33-9.95.24-13.48.09-27,.09-42.43,11,8.21,20.86,15.77,30.94,23,2.51,1.82,5.1,5.45,8.44,3.82s1.86-5.93,2-9.05c.77-15.24,1.8-30.46,5-46.1,6.28,2.9,11.81,5.45,17.37,8,3,2,6,4.07,9.07,5.85,17.07,9.81,18.27,13.37,12.78,33.12-1.64,5.86-1.86,12.14-2.74,18.25,2.5,6.48-5.76,16.91,7.2,19.55,13.36,5.82,26.56,12,40.15,17.26,5.36,2.09,7.34,4.59,7.18,10.28-.3,11-.24,22,.4,32.9C288.68,505.94,285.76,506.16,279.46,503.28Z" transform="translate(-21.85 -31.02)"/><path class="cls-8" d="M91.45,262.34c-1.13-2.43-2.69-4.73-2.21-7.63,3.5-2,5.47-8.83,11.24-3.82,3.36,2.92,6.2,6.7,3.91,11.17-2.48,4.8-6.91,4-11.11,1.92l.09.19Z" transform="translate(-21.85 -31.02)"/><path class="cls-5" d="M229.43,215.57c-4.48,2.06-8.87,4-8.24,10.35.45,4.44-3,2.47-5.11,2.69,1.29-5-3.58-10.45,1.39-14.91-2.44-3.82-6.2,2.13-9.05-2.64,7-2.4,10.39-9.21,16.59-12.84-.6,6.8,3.91,6.78,8.65,6.46q.12,3.09.26,6.16Z" transform="translate(-21.85 -31.02)"/><path class="cls-5" d="M189.69,222.43c-2.35-.24-5.34.45-5.92-2.93-.49-2.81,1.7-3.45,3.94-3.73,5.41,1.85,10.78-4.28,17.59-.13Z" transform="translate(-21.85 -31.02)"/><path class="cls-5" d="M189.74,226.58q.09-1,.09-2h10.65l.07,2Z" transform="translate(-21.85 -31.02)"/><path class="cls-10" d="M343.22,210c-2.16,1.4-4.19,1.68-6.29.46C339,208,341.28,210.13,343.22,210Z" transform="translate(-21.85 -31.02)"/><path class="cls-4" d="M380.81,211.33c-.22,1.28-.57,2.42-2.25,2.19Z" transform="translate(-21.85 -31.02)"/><path class="cls-5" d="M396.21,413.28c-1.44-2.85-3.72-5.6-4.09-8.58-.44-3.66-2.34-10,6-7.23,2.82.92,6.43.94,7.61-2.34,1.72-4.77-3.35-4.22-5.38-4.72-7.31-1.76-8.22-6.14-6.21-12.29,5.64.9,15.09-3.4,12,9.29-.42,1.75,3.45,1.68,5.51,1.93.23,10.06,6.61,5.39,8.53,2.41,5.69-8.82,15-13.18,22.13-20.1,11.17.3,13,3,13.25,19.78-2.41,3.13,1.39,5.11,1.44,7.73.1,6.87-.6,13.22-10.2,11.77-1.77-7.92-6.68-6.91-12.45-4.64-8.11,3.18-16.41,3.92-24.7.35-.54-1.48-.79-4.15-2.84-3.14-3.07,1.52-1.55,3.76.34,5.53,0,1.31-.07,2.62-.11,3.93-3.22.11-4.1,3.41-6.44,4.73l0,0-2.19-2.1Z" transform="translate(-21.85 -31.02)"/><path class="cls-10" d="M455.59,391.43c-.26-16.77-2.08-19.48-13.25-19.78.67-4.32,4.18-9.92-5.85-9.55,6.67-1.89,13.35-3.74,12-10.24-2.73-13.56,3.71-26.2,2.44-39.43a16.2,16.2,0,0,0,0-2.09l2.44-.17h2.07l6.58,4.34,2.3,2.3c.44,3.68-1.47,7.81,2.12,10.88a35.53,35.53,0,0,0,0,26.34c-8.94,5.55,2.87,7,2.14,11-3.88,3.58-13.41,4.4-6.48,13.27C460.73,383,466.07,391.19,455.59,391.43Z" transform="translate(-21.85 -31.02)"/><path class="cls-9" d="M407.07,413c0-1.31.07-2.62.11-3.93l2.5-2.39c8.29,3.57,16.59,2.83,24.7-.35,5.77-2.27,10.68-3.28,12.45,4.64-6.78,10.14-14.84,13.33-24.55,7.61-2.55,3.52,1.42,6.83.34,10.22a9.12,9.12,0,0,1-11-.2C411.82,422.86,410.67,417.55,407.07,413Z" transform="translate(-21.85 -31.02)"/><path class="cls-9" d="M462.18,378.27c-6.93-8.87,2.6-9.69,6.48-13.27q3.29,8.76,6.56,17.52c-4.1.47-4.6,3.41-4.59,6.71-2.73,1.52-1.19,5.78-5.16,7.21C462.55,390.72,472.1,382.33,462.18,378.27Z" transform="translate(-21.85 -31.02)"/><path class="cls-10" d="M325.93,270.71c13.36-1.41,23.94-8,32.93-17.58,5.63.06,3.57,4.66,4.76,10.53,1.79-7.53,2.92-12.35,4.06-17.16l6.59,0a6.76,6.76,0,0,0,6.6,4.37h0c8.79,7.53,12.39,6.8,21.86-4.4l4.48,0c-.32,1.61-2.25,2.88-1,4.81,5.88.87,1-16.75,12-6.94-.52,4.09-2,7.77-5.46,10.16-3.69,2.53-10.37,4.13-6.79,9.94,3.3,5.36,6.26,12.49,14.61,12.78,3.57.12,7.29.15,10.67,1.13,9.28,2.71,14.09.12,13.41-10.1l2.15.14,0,0c.31,3,.31,3,2.08,2.19,5.49,5.6,15.78,7,15.4,17.73-5.95.14-12.72-1.64-15.28,6.49h-2.5c-6-2.36-9.22-12.58-17.07-8.45-9.08,4.8-16.42,6.14-26.89,2.46-9.35-3.29-20.78-.54-31.29-.68-5.58-.08-11.15-4.15-16.72.07l-6.5.09c-2.21-7-6-5.48-9.19-1.18a174.8,174.8,0,0,0-10.37,16.34c-1.94,3.29-.24,4.48,3.14,4.51,3.61,0,7.24.67,10.83.5,5.17-.26,1.19-3.24,1.26-5l4.41.17c.3,4,.6,8,.9,12-3.68.83-5-2.78-7.8-3.18-5.79.71-12-2.21-17.37,2.11l-2.22,2.15v-.05l-6.57,4.4-6.85-18.93c-5.68-4-7.36-13.79-17.17-11.73,6.12-2.94,5.9-16.14,17.33-10.62,1.89.91,2.26-1.11,2.48-2.48.88-5.58,4.59-4.85,8.21-3.5S324.54,273.79,325.93,270.71Zm72.46-.13c-8.37-11.68-14.07-12.32-19.75-2.24-5,2-11.74,3.25-10.42,10.27s8.16,7.26,14.12,7.43c2.92.09,5.85.08,8.77,0,5-.11,10.83.84,13.36-5C406.92,275.45,399.59,274.6,398.39,270.58Z" transform="translate(-21.85 -31.02)"/><path class="cls-9" d="M437.9,244.3,454,251.66c-5.64.19-8.68,5.88-13.91,5.8C427.48,255,436.65,249,437.9,244.3Z" transform="translate(-21.85 -31.02)"/><path class="cls-5" d="M464.35,316.81l-2.3-2.3c.8-2.19,1.61-4.37,2.41-6.55q3.27-6.69,6.53-13.39c10.31,6.09,5.77,12.95,1,19.83Z" transform="translate(-21.85 -31.02)"/><path class="cls-8" d="M448.93,294.82c2.56-8.13,9.33-6.35,15.28-6.49,4.52,2.49,1.48,5.28-.06,7.45-2.61,3.69-3-.87-4-1.65C456,291,452.65,295,448.93,294.82Z" transform="translate(-21.85 -31.02)"/><path class="cls-8" d="M446.43,294.82h2.5c-.75,5.77,1.76,10.59,4.47,15.35l-2.43.17-8.56-11.11C445.24,299.12,446.62,297.68,446.43,294.82Z" transform="translate(-21.85 -31.02)"/><path class="cls-8" d="M464.46,308c-.8,2.18-1.61,4.36-2.41,6.55l-6.58-4.34C458.75,310.56,461.63,309.34,464.46,308Z" transform="translate(-21.85 -31.02)"/><path class="cls-7" d="M448.81,270.6c-1.77.8-1.77.8-2.08-2.19Z" transform="translate(-21.85 -31.02)"/><path class="cls-9" d="M488.66,325.59l-15.6-6.69q1.13-2.1,2.24-4.21c3.63,0,7.78-1.12,10.75.29C490.11,316.89,497.45,319.77,488.66,325.59Z" transform="translate(-21.85 -31.02)"/><path class="cls-8" d="M475.3,314.69q-1.11,2.12-2.24,4.21c-3.81,1.72-4.79,5.56-6.59,8.79-3.59-3.07-1.68-7.2-2.12-10.88L472,314.4Z" transform="translate(-21.85 -31.02)"/><path class="cls-8" d="M475.22,382.52Q472,373.76,468.66,365c.73-3.94-11.08-5.42-2.14-11,2.31,4.39,5.64,7.11,10.92,6.59,4.35,5,8.6.14,12.89-.12-2.22,7.36-4.05,14.88-6.79,22.05C481.28,388.47,478,387.21,475.22,382.52Z" transform="translate(-21.85 -31.02)"/><path class="cls-9" d="M490.33,360.5c-4.29.26-8.54,5.1-12.89.12,4.11-6.61,8.84-12.39,17.34-13.24C495.34,352.44,492.58,356.39,490.33,360.5Z" transform="translate(-21.85 -31.02)"/><path class="cls-8" d="M407.07,413c3.6,4.59,4.75,9.9,4.53,15.6-.32,5.12-2.66,6.28-7.84,5.53-4.38-.63-9.07.91-13.62,1.48l-.27-2.42c2.49-5.92,11.17-7.53,10.76-15.46C403,416.37,403.85,413.07,407.07,413Zm-1.9,7.38c-.85,1.09-1.77,1.76-1.82,2.49s.42,2.35,1,2.54c1.64.52,2.48-.74,2.4-2.21C406.71,422.36,405.91,421.6,405.17,420.34Z" transform="translate(-21.85 -31.02)"/><path class="cls-6" d="M233.92,210.84q-.13-3.08-.26-6.16l6.72-8.69,4.78.39.88.24L251.41,207c0,.77.05,1.55.08,2.32a8.92,8.92,0,0,0,.23,1.85l-4.66.36a21.83,21.83,0,0,1-10.83-.3Z" transform="translate(-21.85 -31.02)"/><path class="cls-9" d="M407.2,246.52l-4.48,0c-2.67-5.19-3.51-5.44-4.12-3.44-3,9.74-10.79,7.63-17.74,7.84h0c-1.94-5.29-1.81-9.82,1.51-15.15,3.53-5.67,4.87-10.41,7.87-.12a2.61,2.61,0,0,0,3.55,1.57C405.2,233.4,406.25,234.11,407.2,246.52Z" transform="translate(-21.85 -31.02)"/><path class="cls-9" d="M374.27,246.53l-6.59,0a45.5,45.5,0,0,1,.14-6.51c.7-4.34,1.75-10.07,7.43-8.25,6.76,2.17-.94,5.35-.7,8.3A50.57,50.57,0,0,1,374.27,246.53Z" transform="translate(-21.85 -31.02)"/><path class="cls-8" d="M359,229.45c0,4.45-5.79,6.09-5.22,11.06.19,1.66-.66,4.66-3.87,3.44-4-1.53-8.38-2.87-8.62-8.36Z" transform="translate(-21.85 -31.02)"/><path class="cls-2" d="M91.45,262.34l1.92,1.83C91.36,265,91.81,263.24,91.45,262.34Z" transform="translate(-21.85 -31.02)"/><path class="cls-12" d="M229.31,255.23q-1.23-4.35-2.47-8.72c4-13.49,13.35-3.68,20.23-4.62,14.2-2.15,24.43,4.54,33.13,14.77,4,4.68,7.87,9.54,13.68,12.2l-1,6.14.18-.11L291.22,277l-.35,2.19c-2.45,1.65-1.93,4.64-3.07,6.87-3.18,2.12-3.28,5.43-3.35,8.74-13-.18-15-13.33-22.77-19.64a19.27,19.27,0,0,1-5.7-7.8c-4.45-11.76-12.52-15.42-24.29-11.9l-2.22-.12Z" transform="translate(-21.85 -31.02)"/><path class="cls-2" d="M250.65,329.69q-15.24-18.48-30.5-36.94l5.12-4.47c3.19-2.34,1.64-5.76,2-8.76,14.3,21.41,32.8,39.05,50.95,57-1.83-.11-3.73-.43-4.85,1.61-3.2,1.55-4.68,4.32-5.4,7.63L255.12,334l-1.37-1.22a1.23,1.23,0,0,0-.83-.88c.22-1.06-.16-1.54-1.28-1.31A1.41,1.41,0,0,0,250.65,329.69Z" transform="translate(-21.85 -31.02)"/><path class="cls-7" d="M290.87,279.2c.12-.73.23-1.46.35-2.19l1.84-2.12-.18.11c4.59-.14,6-4.31,8.85-6.64,8-6.51,12.07-16.82,21.43-21.9,3.6,2,2.38,5.6,2.69,8.68-8.93,5.35-9.68,7.54-4.65,13.4l2.65,2.12,1,0h1c-1.39,3.08-3.37,4.45-6.94,3.12s-7.33-2.08-8.21,3.5c-.22,1.37-.59,3.39-2.48,2.48-11.43-5.52-11.21,7.68-17.33,10.62l-.39,3.61-4,1.07q-1.06-.17-2.13-.3c.07-3.31.17-6.62,3.36-8.74C291,284.75,290.71,281.87,290.87,279.2Z" transform="translate(-21.85 -31.02)"/><path class="cls-5" d="M290.58,294l.39-3.61c9.81-2.06,11.49,7.76,17.17,11.73L315,321.09l-2.3,2.28c-3.05,0-6.1.07-6.55-4.08,1.52-6.74-2.75-11.11-7.18-14.47A25.18,25.18,0,0,1,290.58,294Z" transform="translate(-21.85 -31.02)"/><path class="cls-6" d="M290.58,294A25.18,25.18,0,0,0,299,304.82c4.43,3.36,8.7,7.73,7.18,14.47-9-3.17-13.47-11.56-20.14-17.43-2.63-2.31-.51-4.57.58-6.75Z" transform="translate(-21.85 -31.02)"/><path class="cls-7" d="M227.24,279.52c-.33,3,1.22,6.42-2,8.76-4.73-2.6-6.37-7.6-9.15-11.72,1.64-2.77,6-.31,7.27-3.79Z" transform="translate(-21.85 -31.02)"/><path class="cls-5" d="M229.47,255.35l2.22.12-2.24,2C229.45,256.79,229.45,256.07,229.47,255.35Z" transform="translate(-21.85 -31.02)"/><path class="cls-1" d="M279.46,503.28c-14.54-6.63-29.28-12.89-45.07-19.81.28,16.85,4.08,32.6,6.15,49.73-8.85-4.5-16.54-8.44-24.25-12.35-15.66-6.58-23.46-18-21.61-35.31-3.76-9,.44-20-6.72-28.18-10.76-8-21.51-16.15-32.36-24.1-3.44-2.52-5.42-5.33-5.33-9.95.24-13.48.09-27,.09-42.43,11,8.21,20.86,15.77,30.94,23,2.51,1.82,5.1,5.45,8.44,3.82s1.86-5.93,2-9.05c.77-15.24,1.8-30.46,5-46.1,6.28,2.9,11.81,5.45,17.37,8,3,2,6,4.07,9.07,5.85,17.07,9.81,18.27,13.37,12.78,33.12-1.64,5.86-1.86,12.14-2.74,18.25,2.5,6.48-5.76,16.91,7.2,19.55,13.36,5.82,26.56,12,40.15,17.26,5.36,2.09,7.34,4.59,7.18,10.28-.3,11-.24,22,.4,32.9C288.68,505.94,285.76,506.16,279.46,503.28Z" transform="translate(-21.85 -31.02)"/><path class="cls-14" d="M253.75,332.77l1.37,1.22A1.26,1.26,0,0,1,253.75,332.77Z" transform="translate(-21.85 -31.02)"/><path class="cls-14" d="M251.64,330.58c1.12-.23,1.5.25,1.28,1.31A1.24,1.24,0,0,1,251.64,330.58Z" transform="translate(-21.85 -31.02)"/><path class="cls-14" d="M155.1,498.76a3.88,3.88,0,0,1,1.87,4.72C154.85,502.5,154.46,500.84,155.1,498.76Z" transform="translate(-21.85 -31.02)"/><path class="cls-12" d="M446.43,294.82c.19,2.86-1.19,4.3-4,4.41-7.22,1.31-3.28,5.37-2.3,8.89,1.78,6.32,6,5.91,10.86,4.31,1.27,13.23-5.17,25.87-2.44,39.43,1.31,6.5-5.37,8.35-12,10.24,10-.37,6.52,5.23,5.85,9.55-7.14,6.92-16.44,11.28-22.13,20.1-1.92,3-8.3,7.65-8.54-2.41,6.5-10.29,5.77-12.25-6.6-17.82-.23-1.76.11-3.95-.82-5.2-1.67-2.25-.05-7.76-5-6.6-4.44,1-4.27,5-3.14,8.76a13.14,13.14,0,0,1,.14,3.21c-11-1.45-20.42-7.28-30.53-11.22-5.15-2-8.94-8.14-9.54-10.4-2.65-10-11.74-13.33-17.1-20.2-2-6.12-.54-11.82,2.06-17.39,2.76.4,4.12,4,7.8,3.18-.3-4-.6-8-.9-12,12.89-.13,12.87-.12,7.54-11.34a24.66,24.66,0,0,1-1.12-4.07c5.57-4.22,11.14-.15,16.72-.07,10.51.14,21.94-2.61,31.29.68,10.47,3.68,17.81,2.34,26.89-2.46C437.21,282.24,440.41,292.46,446.43,294.82Z" transform="translate(-21.85 -31.02)"/><path class="cls-5" d="M341.14,312.48c-2.6,5.57-4.08,11.27-2.06,17.39-6.16.05-8.31-11-16.31-5.89q-.61-3.64-1.21-7.29v.05l2.22-2.15C329.13,310.27,335.35,313.19,341.14,312.48Z" transform="translate(-21.85 -31.02)"/><path class="cls-10" d="M405.07,371.52c12.37,5.57,13.1,7.53,6.6,17.82-2.05-.25-5.92-.18-5.5-1.93,3.06-12.69-6.39-8.39-12-9.29.69-.72,1.38-1.43,2.06-2.15C399.29,374.76,401.27,371.32,405.07,371.52Z" transform="translate(-21.85 -31.02)"/><path class="cls-9" d="M400.63,417.69c.41,7.93-8.27,9.54-10.76,15.46-1.47-7.76-3.92-15.84,6.34-19.87l2.25,2.34,2.19,2.1Z" transform="translate(-21.85 -31.02)"/><path class="cls-5" d="M405.07,371.52c-3.8-.2-5.78,3.24-8.87,4.45,0-1.42,0-2.85.05-4.28a13.14,13.14,0,0,0-.14-3.21c-1.13-3.77-1.3-7.72,3.14-8.76,4.95-1.16,3.33,4.35,5,6.6C405.18,367.57,404.84,369.76,405.07,371.52Z" transform="translate(-21.85 -31.02)"/><path class="cls-6" d="M374.27,525.27c.38-1.9-.7-4.33,1.84-5.42a1.76,1.76,0,0,1,1.5.8c.5,2.63-1.62,3.51-3.33,4.63Z" transform="translate(-21.85 -31.02)"/><path class="cls-3" d="M405.42,496.47c-.47,2.62-1.58,4.59-4.66,4.54-5.6-3.65-8.29-7.75-2.1-13.27C402,489.79,404.58,492.46,405.42,496.47Z" transform="translate(-21.85 -31.02)"/><path class="cls-3" d="M391.88,472.57l.87.53-.94-.46Z" transform="translate(-21.85 -31.02)"/><path class="cls-9" d="M293.88,268.86c-5.81-2.66-9.69-7.52-13.68-12.2-8.7-10.23-18.93-16.92-33.13-14.77,0-1.45-.15-2.91-.07-4.35.4-6.95,2.42-13.3,10-14.88,8.4-1.75,6.06,7.29,9.52,10.64a13.37,13.37,0,0,1,.23,2.09l2.3,2.25C280,245.3,293,248.76,304.39,255.5Z" transform="translate(-21.85 -31.02)"/><path class="cls-4" d="M293.88,268.86l10.51-13.36c6.55-3.43,9.87-10.91,17-13.55a3.85,3.85,0,0,1,1.74,4.51c-9.36,5.08-13.38,15.39-21.43,21.9-2.88,2.33-4.26,6.5-8.85,6.64C293.21,273,293.55,270.91,293.88,268.86Z" transform="translate(-21.85 -31.02)"/><path class="cls-10" d="M269.08,237.64l-2.3-2.25Z" transform="translate(-21.85 -31.02)"/><path class="cls-10" d="M325.93,270.7h-1l-1,0-2.65-2.12c-5-5.86-4.28-8.05,4.65-13.4Q325.88,262.91,325.93,270.7Z" transform="translate(-21.85 -31.02)"/><path class="cls-10" d="M251.49,209.28c0-.77-.06-1.55-.08-2.32a10,10,0,0,1,.83,1.63C252.28,208.72,251.75,209,251.49,209.28Z" transform="translate(-21.85 -31.02)"/><path class="cls-10" d="M246,196.62l-.88-.24C245.88,194.89,246.11,195.18,246,196.62Z" transform="translate(-21.85 -31.02)"/><path class="cls-8" d="M236.07,215.7c3.92.86,11.49-2.44,8.76,7.74l-8.91-7.6Z" transform="translate(-21.85 -31.02)"/><path class="cls-8" d="M233.92,210.84l2.31.35c-.06,1.5-.11,3-.16,4.51l-.15.14-6.49-.27Z" transform="translate(-21.85 -31.02)"/><path class="cls-10" d="M216.11,276.56c2.78,4.12,4.42,9.12,9.15,11.72l-5.11,4.47a5.62,5.62,0,0,1-1.63-.27C214.43,287.67,207.45,283.3,216.11,276.56Z" transform="translate(-21.85 -31.02)"/><path class="cls-8" d="M409.68,406.64l-2.5,2.39c-1.89-1.77-3.41-4-.34-5.53C408.89,402.49,409.14,405.16,409.68,406.64Z" transform="translate(-21.85 -31.02)"/><path class="cls-8" d="M400.65,417.72l-2.19-2.1Z" transform="translate(-21.85 -31.02)"/><path class="cls-5" d="M451,312.43c-4.82,1.6-9.08,2-10.86-4.31-1-3.52-4.92-7.58,2.3-8.89L451,310.34A18.22,18.22,0,0,1,451,312.43Z" transform="translate(-21.85 -31.02)"/><path class="cls-12" d="M398.39,270.58c1.2,4,8.53,4.87,6.08,10.5-2.53,5.82-8.32,4.87-13.36,5-2.92.06-5.85.07-8.77,0-6-.17-12.79-.35-14.12-7.43s5.43-8.31,10.42-10.26C384.8,272.86,391.82,269.74,398.39,270.58Z" transform="translate(-21.85 -31.02)"/><path class="cls-5" d="M343.63,303.46c-.07,1.78,3.91,4.76-1.26,5-3.59.17-7.22-.46-10.83-.5-3.38,0-5.08-1.22-3.14-4.51a174.8,174.8,0,0,1,10.37-16.34c3.21-4.3,7-5.8,9.19,1.18C345.53,293.07,339.26,296.74,343.63,303.46Z" transform="translate(-21.85 -31.02)"/><path class="cls-9" d="M343.63,303.46c-4.37-6.72,1.9-10.39,4.33-15.15l6.5-.09a24.66,24.66,0,0,0,1.12,4.07c5.33,11.22,5.35,11.21-7.54,11.34Z" transform="translate(-21.85 -31.02)"/><path class="cls-5" d="M398.39,270.58c-6.57-.84-13.59,2.28-19.75-2.23C384.32,258.26,390,258.9,398.39,270.58Z" transform="translate(-21.85 -31.02)"/><path class="cls-8" d="M380.86,250.89c6.95-.21,14.79,1.9,17.74-7.84.61-2,1.45-1.75,4.12,3.44C393.25,257.69,389.65,258.42,380.86,250.89Z" transform="translate(-21.85 -31.02)"/><path class="cls-6" d="M323.77,314.59l-2.22,2.15Z" transform="translate(-21.85 -31.02)"/><path class="cls-9" d="M405.17,420.34c.74,1.26,1.54,2,1.58,2.82.08,1.47-.76,2.73-2.4,2.21-.58-.19-1.07-1.69-1-2.54S404.32,421.43,405.17,420.34Z" transform="translate(-21.85 -31.02)"/><path class="cls-1" d="M231.71,431.06c-.57.77-1,1.4-1.52,2a15,15,0,0,1-.65-2.81c0-.58.51-1.17.79-1.76Z" transform="translate(-21.85 -31.02)"/><path class="cls-4" d="M290.87,279.2c-.16,2.67.14,5.55-3.06,6.87C288.94,283.84,288.42,280.85,290.87,279.2Z" transform="translate(-21.85 -31.02)"/><path class="cls-4" d="M293.06,274.89,291.22,277Z" transform="translate(-21.85 -31.02)"/><path class="cls-9" d="M321.2,268.54l2.65,2.12Z" transform="translate(-21.85 -31.02)"/></svg>