<svg id="Layer_1" data-name="Layer 1" xmlns="http://www.w3.org/2000/svg" viewBox="0 0 442.4 302.61"><defs><style>.cls-1{fill:#022a44;}</style></defs><path class="cls-1" d="M302.09,305.16a14.91,14.91,0,0,0,2.47-.92,11.84,11.84,0,0,0,5.3-4.42,7,7,0,0,0,.66-1.31l-5.37-3.19Z" transform="translate(-28.69 -22.18)"/><path class="cls-1" d="M312.4,294.9l-3.23,12.49a16,16,0,0,0,3.61-.6l3.06-9.84Z" transform="translate(-28.69 -22.18)"/><path class="cls-1" d="M368.8,108.06,365,102.81l-.72.09,4.47,5.42Z" transform="translate(-28.69 -22.18)"/><path class="cls-1" d="M422.42,129.81l5.64,5.2.72-.09a15.31,15.31,0,0,0-1.36-4.58A11.9,11.9,0,0,0,423,125a3.81,3.81,0,0,0-.45-.23l-.54,4.43Z" transform="translate(-28.69 -22.18)"/><path class="cls-1" d="M414.18,99.08l2.37,5.88.39.71a4.15,4.15,0,0,0,.27-.32l.58-.68a1.63,1.63,0,0,1,.2-.42,7.14,7.14,0,0,0,.59-2.8,13.76,13.76,0,0,0,0-2l-.85-.78Z" transform="translate(-28.69 -22.18)"/><path class="cls-1" d="M360.46,96.92l3.77,5.24.55-4.43A7.49,7.49,0,0,0,360.46,96.92Z" transform="translate(-28.69 -22.18)"/><polygon class="cls-1" points="436.64 100.72 438.88 106.28 442.4 105.85 436.76 100.65 436.35 100.08 436.32 100.34 436.64 100.72"/><path class="cls-1" d="M444.11,114.23c0-.29-.08-.58-.12-.87l-.73.09Z" transform="translate(-28.69 -22.18)"/><path class="cls-1" d="M45.13,231.41l-4.29.9A13.5,13.5,0,0,0,43,235.55Z" transform="translate(-28.69 -22.18)"/><path class="cls-1" d="M321,54.48l1.62-4.09a8.22,8.22,0,0,0-1.65-.47L319.63,54Z" transform="translate(-28.69 -22.18)"/><path class="cls-1" d="M330.59,82.94l-.62,1.9.52.26-.19.43,10.2-.34a15.23,15.23,0,0,0-2.63-3.13,12.72,12.72,0,0,0-4.3-2.76L332,83.39Z" transform="translate(-28.69 -22.18)"/><polygon class="cls-1" points="284.68 41.89 284.87 41.47 284.35 41.2 284.12 41.91 284.68 41.89"/><path class="cls-1" d="M353.15,277l.14-.18-.16-.07Z" transform="translate(-28.69 -22.18)"/><path class="cls-1" d="M351.59,277.06l.16.07a14.12,14.12,0,0,0,1.3-1.66l-1.59-.84Z" transform="translate(-28.69 -22.18)"/><path class="cls-1" d="M129.12,88.74l-.09-.11-.26-.4-.37.74,0,0C128.68,88.92,128.89,88.82,129.12,88.74Z" transform="translate(-28.69 -22.18)"/><polygon class="cls-1" points="90.52 30.4 85.26 29.42 89.12 31.9 88.16 37.38 88.86 37.35 90.52 30.4"/><polygon class="cls-1" points="87.31 41.97 87.78 39.98 87.08 40.01 86.77 41.8 87.31 41.97"/><polygon class="cls-1" points="87.07 40.03 86.16 40.07 85.54 41.42 86.76 41.82 87.07 40.03"/><polygon class="cls-1" points="91.94 37.37 91.31 30.72 90.45 30.56 88.79 37.51 91.94 37.37"/><path class="cls-1" d="M120.51,51.64l.63,6.64,5.3-.24c-.11-1.52-.23-3-.43-4.29-.06-.36-.13-.67-.2-1l-2-3-.8-1.64-2.48,0-.82,3.45Z" transform="translate(-28.69 -22.18)"/><path class="cls-1" d="M125.82,75.83a45.66,45.66,0,0,1-1.06-6.16c-.24-2.18-.36-4.28-.51-6.25l-5.3.24.65,6.79Z" transform="translate(-28.69 -22.18)"/><path class="cls-1" d="M114.76,67.22l-.53-.18-1.51,8.58,10.75,7.79,5.53,4,.36-.74-.64-1c-.29-.47-.61-1-.87-1.43l-.66-1.41a32.43,32.43,0,0,1-1.94-5.64L119,71.86l-.65-6.78-3.15.14Z" transform="translate(-28.69 -22.18)"/><path class="cls-1" d="M105.32,67.05c.23.28.44.55.7.83a50.53,50.53,0,0,0,4.53,4l3.16-7-11.4-3.7a1.81,1.81,0,0,0,0,.23,10.1,10.1,0,0,0,.56,1.85l3.4.63Z" transform="translate(-28.69 -22.18)"/><path class="cls-1" d="M115.7,60.14l.91,0,1-5.49-3.86-2.48-8.2-1.52a8.87,8.87,0,0,0-.93,1.26,8,8,0,0,0-.9,5.92l11.39,3.7Z" transform="translate(-28.69 -22.18)"/><path class="cls-1" d="M111.16,46h-.3l-3.47.68c-.12.13-.28.26-.4.39l8.2,1.53Z" transform="translate(-28.69 -22.18)"/><polygon class="cls-1" points="91.99 26.87 92.81 23.43 82.69 23.31 86.72 25.89 91.99 26.87"/><path class="cls-1" d="M125.6,41.15A8,8,0,0,0,124.34,40L124,39.7l1.31,2.66,1.2,0A7.69,7.69,0,0,0,125.6,41.15Z" transform="translate(-28.69 -22.18)"/><path class="cls-1" d="M106.37,63.7l-3.4-.62a14,14,0,0,0,2.41,3.79Z" transform="translate(-28.69 -22.18)"/><path class="cls-1" d="M126.67,50.65A13.34,13.34,0,0,0,125,46l-1.2,0,.8,1.64Z" transform="translate(-28.69 -22.18)"/><path class="cls-1" d="M121.33,85.61a15,15,0,0,1,1.49,3.14,8.58,8.58,0,0,1,.44,1.42c1.81-.8,3.66-1.53,5.53-2.21l0-.08-5.53-4L112.55,76l1.51-8.58-1.22-.39-3.16,7c1,.84,2.14,1.7,3.25,2.61C115.81,79.05,119,81.74,121.33,85.61Z" transform="translate(-28.69 -22.18)"/><path class="cls-1" d="M123.05,42l.71-3a2.26,2.26,0,0,1-.35-.17,7.11,7.11,0,0,0-2.79-.58,15.41,15.41,0,0,0-7.47,1.52,14.12,14.12,0,0,0-1.88,1l1.66,1.07Z" transform="translate(-28.69 -22.18)"/><path class="cls-1" d="M125.47,42.08l-1.31-2.67-.37-.32-.08,0-.71,3Z" transform="translate(-28.69 -22.18)"/><path class="cls-1" d="M111.19,45.09h.3L109.83,44a12.15,12.15,0,0,0-2.1,1.74Z" transform="translate(-28.69 -22.18)"/><path class="cls-1" d="M128.38,89l0,.08.09,0Z" transform="translate(-28.69 -22.18)"/><path class="cls-1" d="M296.51,304.4c0,.37.11.75.15,1.11.39,3.64.48,7.07.87,10l2,.35,1.16-9.38-3.44-.64Z" transform="translate(-28.69 -22.18)"/><path class="cls-1" d="M271,308.08a17.15,17.15,0,0,1-1.15-2.31c-1.83.93-3.67,1.81-5.56,2.61.12.2.25.4.36.6l.66,1.42a36,36,0,0,1,2.85,10.67l.74,1.44,3.44.64.95-7.67,6.77,2.09-.66-.53C276.54,314.65,273.32,312,271,308.08Z" transform="translate(-28.69 -22.18)"/><path class="cls-1" d="M298.41,313.7a22.76,22.76,0,0,0,.68,3l.93-.48.33-2.69-2-.36C298.37,313.33,298.39,313.53,298.41,313.7Z" transform="translate(-28.69 -22.18)"/><path class="cls-1" d="M269.13,301.78l-6.77-2.09-.95,7.68,5.66,1.05.09-.66,3,1.22,6,1.13-.38,1.23,3.75,1.55a14.54,14.54,0,0,0-3.29-5.05A80.07,80.07,0,0,0,269.13,301.78Z" transform="translate(-28.69 -22.18)"/><path class="cls-1" d="M287.33,301.4a10.41,10.41,0,0,0-.41-1.42l-3.74-1.55-1.44,4.62,5.37,3.19A9.21,9.21,0,0,0,287.33,301.4Z" transform="translate(-28.69 -22.18)"/><path class="cls-1" d="M302.17,311.72a9.41,9.41,0,0,0,1.86,3.59l3.06-6.11-3.66-.65-.34,2.7Z" transform="translate(-28.69 -22.18)"/><path class="cls-1" d="M309.38,300.75l1.44-4.61-5.66-2.35-3.05-.57-2.3,17.8a6.77,6.77,0,0,0,1.5.18,13.11,13.11,0,0,0,1.4,0l3.23-12.48Z" transform="translate(-28.69 -22.18)"/><path class="cls-1" d="M306.67,305.7l3.67.65-3.07,6.11a4.19,4.19,0,0,0,.26.33,7.62,7.62,0,0,0,1.26,1.2l.68.58a1.54,1.54,0,0,1,.43.2,7.24,7.24,0,0,0,1.28.4l2.31-17.8-5.66-1.05Z" transform="translate(-28.69 -22.18)"/><polygon class="cls-1" points="250.62 283.77 253.66 284.34 250.71 283.11 250.62 283.77"/><polygon class="cls-1" points="244.9 281.28 250.57 283.63 250.95 282.41 244.9 281.28"/><path class="cls-1" d="M391.46,157.25l-1.15.93c1.9-.19,3.73-.31,5.47-.44l2-4.87Z" transform="translate(-28.69 -22.18)"/><path class="cls-1" d="M307.56,121.89c.13.25.22.52.35.77l1.16-1C308.57,121.73,308.06,121.82,307.56,121.89Z" transform="translate(-28.69 -22.18)"/><path class="cls-1" d="M385,101.13c1.36-.1,2.66-.22,3.87-.38l-.5-5.44-1.36.94Z" transform="translate(-28.69 -22.18)"/><path class="cls-1" d="M317.37,124a8.94,8.94,0,0,1-1.3.42l-1.16,1c.68,1.41,1.3,2.84,1.91,4.28l2.33.52.82-.53c.48-.29,1-.61,1.43-.87l1.42-.66.32-.13,0-4.9-1.37-1.53c-.42.29-.8.6-1.24.87A15.22,15.22,0,0,1,317.37,124Z" transform="translate(-28.69 -22.18)"/><polygon class="cls-1" points="344.81 75.19 344.64 73.25 343.45 76.13 344.81 75.19"/><path class="cls-1" d="M389.49,90.57l-2.37,1.64.5,5.44c.17,0,.36,0,.52-.06,3.09-.48,5.31-1.26,6.9-2.79a7.56,7.56,0,0,0,.92-1l-.39-.71-2.37-5.87-3.35.41Z" transform="translate(-28.69 -22.18)"/><path class="cls-1" d="M343.53,156.65A38.19,38.19,0,0,1,355,153.78l.69-.06,1.15-.93,6.33-4.38,1.18-2.88-.53-5.87-3.72-7.4a16.08,16.08,0,0,0-3.66,2.66,92.71,92.71,0,0,0-6.59,7.78,38.63,38.63,0,0,1-7.71,7.52l1.37,1.53Z" transform="translate(-28.69 -22.18)"/><polygon class="cls-1" points="393.73 76.31 392.95 82.66 396.29 82.25 394.05 76.69 393.73 76.31"/><path class="cls-1" d="M372.46,106l3.72,7.4.53,5.87,1-2.36,1.93-.24.78-6.35-4.47-5.42c-.22,0-.43,0-.66.07A10.25,10.25,0,0,0,372.46,106Z" transform="translate(-28.69 -22.18)"/><polygon class="cls-1" points="339.42 62.38 339.77 59.5 337.84 59.74 336.87 62.09 337.05 64.03 339.42 62.38"/><path class="cls-1" d="M322.58,132.87l.58-.37-2.33-.52c.24.59.53,1.15.77,1.74Z" transform="translate(-28.69 -22.18)"/><polygon class="cls-1" points="37.74 200.6 38.17 200.68 38.07 199.46 37.74 200.6"/><path class="cls-1" d="M56.92,215.93l.41.07v-.1Z" transform="translate(-28.69 -22.18)"/><path class="cls-1" d="M56.85,227.22,57.33,216l-.41-.07L55.8,216l-4,4.47,3.59,4.74Z" transform="translate(-28.69 -22.18)"/><path class="cls-1" d="M59.2,215.73l-1.87.17v.1l7.81,1.34-2.33-2.14C61.59,215.42,60.38,215.6,59.2,215.73Z" transform="translate(-28.69 -22.18)"/><path class="cls-1" d="M55.38,225.23l-3.59-4.74-2.7,3-7.41.92-.92,4.81,15.55,6.61c.06,0,.11-.1.17-.15l.37-8.46Z" transform="translate(-28.69 -22.18)"/><path class="cls-1" d="M48.86,216.64l2.93,3.85,4-4.47C53.3,216.21,50.94,216.34,48.86,216.64Z" transform="translate(-28.69 -22.18)"/><polygon class="cls-1" points="36.45 195.16 37.82 196.41 38.07 199.46 39.16 195.62 36.45 195.16"/><path class="cls-1" d="M66.86,222.86l.08,1c.24-.27.49-.54.75-.8Z" transform="translate(-28.69 -22.18)"/><path class="cls-1" d="M39.57,228.71a15.4,15.4,0,0,0,.8,2.52l.39-2Z" transform="translate(-28.69 -22.18)"/><path class="cls-1" d="M72.64,218.89l-4.34-1.36.43-3.91a36.24,36.24,0,0,1-5.92,1.58l2.33,2.14,2.71.46-1.09,3.84.1,1.22.83.17A27,27,0,0,1,72.64,218.89Z" transform="translate(-28.69 -22.18)"/><path class="cls-1" d="M62.38,222l-1.91,9.63c1.24-1.49,2.52-3.11,3.88-4.8l1.42-1.67.67-2.36Z" transform="translate(-28.69 -22.18)"/><path class="cls-1" d="M41.68,224.41l-2.48.31a15,15,0,0,0,.37,4l1.19.51Z" transform="translate(-28.69 -22.18)"/><path class="cls-1" d="M42.77,218.68a9.63,9.63,0,0,0-2.2,2l-.58.68a1.63,1.63,0,0,1-.2.42,7.14,7.14,0,0,0-.59,2.8v.1l2.48-.31Z" transform="translate(-28.69 -22.18)"/><path class="cls-1" d="M49.09,223.49l2.7-3-2.93-3.85-.2,0a14.06,14.06,0,0,0-5.89,2l-1.09,5.73Z" transform="translate(-28.69 -22.18)"/><path class="cls-1" d="M56.48,235.68c.43-.34.85-.68,1.28-1.09.83-.8,1.66-1.74,2.5-2.73l-3.41-4.64Z" transform="translate(-28.69 -22.18)"/><path class="cls-1" d="M51.3,238.28a11.64,11.64,0,0,0,5-2.45l-15.55-6.61-.39,2c.12.29.22.59.35.86l.12.22,4.29-.9L43,235.55A9.57,9.57,0,0,0,45,237.32l1,.53A8.77,8.77,0,0,0,51.3,238.28Z" transform="translate(-28.69 -22.18)"/><path class="cls-1" d="M74.35,217.84c-.84-1.83-1.63-3.69-2.35-5.59l-1,.48c-.74.34-1.5.62-2.26.89l-.43,3.91,4.34,1.36c.23-.15.42-.33.67-.47S74,218,74.35,217.84Z" transform="translate(-28.69 -22.18)"/><path class="cls-1" d="M66.44,222.78l.32-1.14-.24-3-1.38-1.26L57.33,216l-.48,11.22,3.41,4.64.21-.25L62.38,222Z" transform="translate(-28.69 -22.18)"/><path class="cls-1" d="M66.86,222.86l-.42-.08-.67,2.36c.37-.44.77-.87,1.17-1.31Z" transform="translate(-28.69 -22.18)"/><path class="cls-1" d="M45.15,237.4a6.87,6.87,0,0,0,.9.45l-1-.53Z" transform="translate(-28.69 -22.18)"/><path class="cls-1" d="M246.48,39.34a8.87,8.87,0,0,0,1-3.74c0-.18,0-.37,0-.55l-3.52-.6-1.58-7-6.72,3.62-.51.72,3.41,5.83Z" transform="translate(-28.69 -22.18)"/><path class="cls-1" d="M244.65,42.69l.15-.19,0-.17h.11c.4-.5.81-1,1.17-1.49a20.5,20.5,0,0,0,1.9-3.11l-7.91-1.67-3.4-5.83-4.29,6.15Z" transform="translate(-28.69 -22.18)"/><path class="cls-1" d="M225.46,36.5l-3.37-.71c0,.63.11,1.26.18,1.91l2.2.21Z" transform="translate(-28.69 -22.18)"/><path class="cls-1" d="M239.26,49.09c.57-.8,1.16-1.57,1.76-2.32l-5.34-9.33L233.44,37l.27,1.65Z" transform="translate(-28.69 -22.18)"/><path class="cls-1" d="M231.72,60c.13-.54.25-1.11.4-1.63l.53-1.46a34.21,34.21,0,0,1,4.36-8l-5.56-10.47-.27-1.65-1.09-.22-1,1.41-2.2-.21c.15,1.44.33,2.94.49,4.49.35,3.72.72,7.9-.4,12.26a14.53,14.53,0,0,1-1.16,3.28,11.24,11.24,0,0,1-1.51,2.51c1.6.59,3.17,1.24,4.72,1.92l2.27.19.06-.78Z" transform="translate(-28.69 -22.18)"/><path class="cls-1" d="M229,67l0-.79L226.81,66C227.55,66.33,228.29,66.65,229,67Z" transform="translate(-28.69 -22.18)"/><polygon class="cls-1" points="197.76 14.27 196.91 15.5 198 15.72 197.76 14.27"/><path class="cls-1" d="M220.8,28.74l0,.07.85.51L222.88,37l1.38.71,4.28-6.16-2.74-4.7-1.39-1.37A9.15,9.15,0,0,0,220.8,28.74Z" transform="translate(-28.69 -22.18)"/><path class="cls-1" d="M225.68,27.44a7.09,7.09,0,0,0-1.37.45l1.39,1.38,2.74,4.7.5-.73,6.73-3.61v-.05a15.44,15.44,0,0,0-3.11-1.52A11.86,11.86,0,0,0,225.68,27.44Z" transform="translate(-28.69 -22.18)"/><path class="cls-1" d="M221.68,27.49l-.85-.52A12.36,12.36,0,0,0,219,33.11l4,2Z" transform="translate(-28.69 -22.18)"/><path class="cls-1" d="M262.24,34.78l0,.16.12-.15Z" transform="translate(-28.69 -22.18)"/><path class="cls-1" d="M238.44,30.07l0,0v.05Z" transform="translate(-28.69 -22.18)"/><path class="cls-1" d="M221.05,36.54l3.38.7.85-1.22-.36-2.18-4-2c0,.33-.07.63-.08,1C220.86,34,220.94,35.22,221.05,36.54Z" transform="translate(-28.69 -22.18)"/><path class="cls-1" d="M246,34.42l3.51.61a6,6,0,0,0-.06-1.19l-.07-.9a1.46,1.46,0,0,1-.16-.44,7.11,7.11,0,0,0-1.56-2.39,14.91,14.91,0,0,0-3.21-2.66h0Z" transform="translate(-28.69 -22.18)"/><path class="cls-1" d="M235,37l2.25.47,5.33,9.33.11-.13c1.84-2.3,3.74-4.35,5.34-6.29l-12.25-6.3-1,1.47Z" transform="translate(-28.69 -22.18)"/><polygon class="cls-1" points="198.22 13.41 196.84 12.7 197.19 14.88 198.22 13.41"/><path class="cls-1" d="M126.17,272.64c.08-.34.1-.68.19-1s.2-.69.3-1c-.86-.31-1.69-.66-2.54-1l0,.95Z" transform="translate(-28.69 -22.18)"/><path class="cls-1" d="M127.05,274.42,120.56,272a41.2,41.2,0,0,1-4.6,7l4.89-2.2,6.09,2.48A32.74,32.74,0,0,1,127.05,274.42Z" transform="translate(-28.69 -22.18)"/><path class="cls-1" d="M126.67,272.28l-2.08-2.1,0-.94c-1-.4-2.1-.77-3.12-1.2l-.3.81a29.18,29.18,0,0,1-1.4,3.18l6.48,2.45C126.35,273.76,126.52,273,126.67,272.28Z" transform="translate(-28.69 -22.18)"/><path class="cls-1" d="M119.87,279.5l-.21.27c-.88,1.1-1.77,2.13-2.64,3.14l6.78,5.18L124,299l2.81,1.52.34,3.64a9.7,9.7,0,0,0,2.86-2.83,13,13,0,0,0,2-7.18,91.92,91.92,0,0,0-.84-10.16c-.12-1.34-.23-2.75-.29-4.2l-6.09-2.47Z" transform="translate(-28.69 -22.18)"/><path class="cls-1" d="M131.53,299.23l.06,3.17.58,3c.13,0,.28,0,.41-.06a6.4,6.4,0,0,0,2.1-.89l-.34-3.64Z" transform="translate(-28.69 -22.18)"/><path class="cls-1" d="M114.88,293.39l-1.77-1c0,.17-.06.33-.06.49a7.31,7.31,0,0,0,0,1.74l.08.9a1.69,1.69,0,0,1,.15.43,7.19,7.19,0,0,0,1.57,2.4,15.45,15.45,0,0,0,6.35,4.2,14.67,14.67,0,0,0,2.14.61l.22-.77Z" transform="translate(-28.69 -22.18)"/><path class="cls-1" d="M126.07,303.73l-.58-3,0-3.17-9.67-5.24.75-8.58c-.8.94-1.56,1.86-2.22,2.74-1.7,2.34-2.66,4.32-2.84,6.36l1.77,1,8.72,9-.22.76A11.21,11.21,0,0,0,126.07,303.73Z" transform="translate(-28.69 -22.18)"/><path class="cls-1" d="M123.93,298l-.19-10.89L117,281.88c-.67.77-1.31,1.52-1.93,2.25l-.75,8.57Z" transform="translate(-28.69 -22.18)"/><path class="cls-1" d="M309.05,226l-.05,0c0,.09-.07.17-.1.26h0Z" transform="translate(-28.69 -22.18)"/><polygon class="cls-1" points="279.58 204.65 279.71 204.15 279.52 204.11 279.4 204.34 279.58 204.65"/><path class="cls-1" d="M304.49,234.24l3.72.46,4.24-6.28a27.23,27.23,0,0,1-7.72-.7,14.53,14.53,0,0,1-3.28-1.16,6.17,6.17,0,0,1-.92-.49l-.13.83Z" transform="translate(-28.69 -22.18)"/><polygon class="cls-1" points="333.26 198.88 331.46 197.91 331.35 199.09 333.26 198.88"/><path class="cls-1" d="M334.23,246.33l.14-1.65a15,15,0,0,0-4.94-.92Z" transform="translate(-28.69 -22.18)"/><path class="cls-1" d="M297.6,241.43l-6.72-.54-.69,7.16c.41.33.82.67,1.22,1,2.53,1.84,4.64,2.86,6.85,2.9a7.9,7.9,0,0,0,1.74,0l.89-.07a1.56,1.56,0,0,1,.44-.16c.13,0,.3-.16.45-.22l.19-7.25Z" transform="translate(-28.69 -22.18)"/><path class="cls-1" d="M399.25,155.76l3.44,1.84.23.27a8.56,8.56,0,0,0-2.76-3.27l-.59,1.13Z" transform="translate(-28.69 -22.18)"/><path class="cls-1" d="M354.9,223l-1.92.22-.43,5.06-.14,5.43,4.39,2.74a14.5,14.5,0,0,0,1.56-3.19,11.88,11.88,0,0,0,.63-6.87,6.54,6.54,0,0,0-.43-1.27l-.23-.28Z" transform="translate(-28.69 -22.18)"/><path class="cls-1" d="M297,255.79a6.63,6.63,0,0,0,1.95-1.33,14.94,14.94,0,0,0,2.64-3.18l-4.39-2.74Z" transform="translate(-28.69 -22.18)"/><path class="cls-1" d="M300.44,231.89l.38.08.31.08.85-5.63-.07-.13Z" transform="translate(-28.69 -22.18)"/><path class="cls-1" d="M285.71,239.69c1,.7,2,1.43,2.92,2.18,2.54,2,4.78,4.12,6.9,5.82l.69-7.16Z" transform="translate(-28.69 -22.18)"/><path class="cls-1" d="M308.29,226.29l.2,0-.13.5.07.13.13-.83-.15-.07Z" transform="translate(-28.69 -22.18)"/><path class="cls-1" d="M302.32,225.78l.11-.23h0c-.67,2-1.39,4-2.19,6l.81.18,1.48-5.6Z" transform="translate(-28.69 -22.18)"/><path class="cls-1" d="M296.72,235.07l.3.13-.06-.1Z" transform="translate(-28.69 -22.18)"/><path class="cls-1" d="M322.44,225.91a91.92,91.92,0,0,0-10.16.84c-1.44.14-3,.25-4.54.3l-4.24,6.28-3.72-.46.06.1a35.85,35.85,0,0,1,5.32,3.09l10.52.84.58-6,11.09-1.23.1-1.18-4.8-2.57Z" transform="translate(-28.69 -22.18)"/><path class="cls-1" d="M372.49,204.55l-.14,1.64,1.81,1,.32,0,.58-1.13c-.18-.14-.34-.29-.54-.43A10.15,10.15,0,0,0,372.49,204.55Z" transform="translate(-28.69 -22.18)"/><polygon class="cls-1" points="280.03 218.72 286.74 219.26 291.12 221.99 291.27 216.57 291.7 211.5 280.61 212.73 280.03 218.72"/><path class="cls-1" d="M300.47,227.14l-.85,5.63c.44.1.89.2,1.31.32l1.47.53c.66.25,1.29.54,1.92.83l.24,0Z" transform="translate(-28.69 -22.18)"/><path class="cls-1" d="M37.69,139.47a10.76,10.76,0,0,0,2.51,2.34,10.49,10.49,0,0,0,3.17,1.42l-1.46-1.4Z" transform="translate(-28.69 -22.18)"/><path class="cls-1" d="M50.7,136.7l1.52-3.28,8-3.26c-2.38-2-4.53-4-6.56-5.5a16.66,16.66,0,0,0-4.22-2.35l-.28.83-.23,4.69-1.54.69-.89,2.66Z" transform="translate(-28.69 -22.18)"/><polygon class="cls-1" points="20.43 100.96 18.66 106.33 20.2 105.65 20.43 100.96"/><path class="cls-1" d="M49.17,122.23l-.05.91.28-.83Z" transform="translate(-28.69 -22.18)"/><path class="cls-1" d="M69.72,143.31l.09,0a16.93,16.93,0,0,1,2.65.9q1.14-2.91,2.46-5.72c-.42-.1-.85-.19-1.25-.31l-1.47-.53a34.58,34.58,0,0,1-8.2-4.49l.54,1.43Z" transform="translate(-28.69 -22.18)"/><path class="cls-1" d="M53.94,140.93,50.7,136.7l-3.29,7.07a59.53,59.53,0,0,0,7.49-.55Z" transform="translate(-28.69 -22.18)"/><path class="cls-1" d="M54.9,143.22l2.64-.29c3.7-.34,7.85-.7,12.18.38l-5.18-8.7L64,133.18c-.78-.57-1.54-1.14-2.26-1.73-.54-.43-1.05-.86-1.56-1.29l-8,3.26L50.7,136.7l3.24,4.23Z" transform="translate(-28.69 -22.18)"/><path class="cls-1" d="M36.83,136.92l-.24-4.48-.14-.05a10.71,10.71,0,0,0,0,4.45,6.67,6.67,0,0,0,1.22,2.63l4.22,2.36Z" transform="translate(-28.69 -22.18)"/><path class="cls-1" d="M36.55,131.75c0,.09,0,.17,0,.25l.05,0Z" transform="translate(-28.69 -22.18)"/><path class="cls-1" d="M36.59,132.44l0-.48-.05,0c0,.13,0,.26-.06.39Z" transform="translate(-28.69 -22.18)"/><path class="cls-1" d="M37,131.67l4.59-8.29c-.09.08-.18.13-.27.22A15.34,15.34,0,0,0,37.1,130a14.08,14.08,0,0,0-.55,1.79V132Z" transform="translate(-28.69 -22.18)"/><path class="cls-1" d="M36.56,132l0,.48,1.08.37,9.68-4.29,1.77-5.38.05-.91a7.86,7.86,0,0,0-2.4-.47,7.33,7.33,0,0,0-1.74,0l-.89.07a2,2,0,0,1-.44.16,7.38,7.38,0,0,0-2.12,1.34L37,131.67Z" transform="translate(-28.69 -22.18)"/><path class="cls-1" d="M41.91,141.83l3.1,1.73a19,19,0,0,0,2.37.21h0l3.29-7.07-4.24-5.52.89-2.66-9.68,4.29-1.08-.37.24,4.48Z" transform="translate(-28.69 -22.18)"/><path class="cls-1" d="M41.91,141.83l1.46,1.4a15.33,15.33,0,0,0,1.64.33Z" transform="translate(-28.69 -22.18)"/><path class="cls-1" d="M307.69,140.72c-.38-1.2-.78-2.39-1.21-3.56-.5-1.36-1.07-2.69-1.64-4l-1.82-.87.44-1.66-.68-.37-.08.09,0,2.14-1.44,10.59,8,3.29c-.19-.74-.36-1.48-.56-2.21C308.39,143,308.05,141.85,307.69,140.72Z" transform="translate(-28.69 -22.18)"/><polygon class="cls-1" points="185.74 160.9 187.35 157.02 183.71 159.68 185.74 160.9"/><polygon class="cls-1" points="64.52 123.54 64.58 123.71 64.73 123.85 64.72 123.63 64.52 123.54"/><polygon class="cls-1" points="137.37 156.45 137.14 156.39 137.13 156.42 137.37 156.45"/><path class="cls-1" d="M295.65,128.37l.28-.33.36.08-.7-1.44,0,1.65Z" transform="translate(-28.69 -22.18)"/><path class="cls-1" d="M358.17,197.7l-.46,1.28a40,40,0,0,1,8.74,1.6l2.2-9.13h0Z" transform="translate(-28.69 -22.18)"/><path class="cls-1" d="M79.17,104.49l2,.64.83-1.56,2.82-8-2.59.1,2.14-4.25-4.06-8.61c-.06-.07-.13-.11-.19-.18l-.34-.07-.27,1.07L74,98.33l-8.21-1.2-.38,1.56a15.78,15.78,0,0,0,4,2.59A93.53,93.53,0,0,0,79.17,104.49Z" transform="translate(-28.69 -22.18)"/><path class="cls-1" d="M185,92.21l-5.4-.94.79-2.22c-.41-.33-.8-.72-1.21-1.08l-.64,3.93,8,3.31,2.32-1A41,41,0,0,1,185,92.21Z" transform="translate(-28.69 -22.18)"/><path class="cls-1" d="M184.65,92.4c-.34-.19-.67-.37-1-.57l-.22-.13c-.55-.34-1.09-.72-1.63-1.1s-1-.73-1.48-1.11l-.28-.25-.79,2.22Z" transform="translate(-28.69 -22.18)"/><path class="cls-1" d="M280.37,118.73v0c0,.79,0,1.59,0,2.39,0,.59,0,1.18.06,1.77l9.09,5v-1.65c-.39-.8-.75-1.62-1.17-2.4-.61-1.14-1.24-2.26-1.89-3.37s-1.25-2.08-1.91-3.1c-.27-.41-.56-.8-.83-1.21l-3.19.14c0,.08,0,.16,0,.25C280.45,117.28,280.4,118,280.37,118.73Z" transform="translate(-28.69 -22.18)"/><path class="cls-1" d="M295.8,128.71l.67.37.1-.35-.13-.27-.36-.08Z" transform="translate(-28.69 -22.18)"/><path class="cls-1" d="M350.36,198.6l.14,0c.55-.08,1.12-.18,1.66-.23l1.56-.06c.86,0,1.72,0,2.57.07l.46-1.28,10.46-6.27h0l1-4.15-.36-.09q-1.23.68-2.52,1.35a39.06,39.06,0,0,1-9.83,3.86l-1,1.58Z" transform="translate(-28.69 -22.18)"/><path class="cls-1" d="M193.35,177.47l0,0v0Z" transform="translate(-28.69 -22.18)"/><polygon class="cls-1" points="117.1 172.84 116.32 175.49 118.86 175.8 120.66 173.28 118.81 171.97 117.1 172.84"/><path class="cls-1" d="M338.4,189.36l.55-.09,4.18-5.24,1-1.57c-.57.12-1.11.27-1.7.35a14.63,14.63,0,0,1-3.48.14,9,9,0,0,1-2.17-.28l-.66-.17,3,3.4Z" transform="translate(-28.69 -22.18)"/><path class="cls-1" d="M281.81,146.29c1.12,1.18,2.27,2.32,3.43,3.43l.26-1.91Z" transform="translate(-28.69 -22.18)"/><path class="cls-1" d="M157.74,51.2h.06l4.51-3.87-2.6-7.94L155,34.17a10.71,10.71,0,0,0-1.27,3.25,11.45,11.45,0,0,0,.19,5.21l.19.08-.06.38c.15.56.32,1.13.54,1.72A56.91,56.91,0,0,0,157.74,51.2Z" transform="translate(-28.69 -22.18)"/><path class="cls-1" d="M324.85,175.32l-1.52-.67-4.88,1-1.91,1.58,4.92,7,1.35.89a6.1,6.1,0,0,1,.71-.39c.51-.27,1-.52,1.55-.75a11.45,11.45,0,0,1,1.42-.52l1.06-.35.51-.16.94-.16.71-3.47-3-3.39-.67-.17A6.58,6.58,0,0,1,324.85,175.32Z" transform="translate(-28.69 -22.18)"/><path class="cls-1" d="M132.12,196.13l-1.27,3.13a6.39,6.39,0,0,1,7.24,10.53L141,211l3.74-12.7-.42-.68Z" transform="translate(-28.69 -22.18)"/><polygon class="cls-1" points="56.85 119.53 55.82 119.72 64.52 123.54 61.74 115.66 56.85 119.53"/><path class="cls-1" d="M304.41,147.83c.52.49,1,1,1.55,1.46s1.09,1,1.66,1.52l.07.07c.49.41,1,.8,1.47,1.19a39.25,39.25,0,0,0,4.88,3.39c-.37-2.11-.83-4.19-1.35-6.25l-8-3.29Z" transform="translate(-28.69 -22.18)"/><path class="cls-1" d="M279,84.46a10.11,10.11,0,0,1-2.06.91c-.34.12-.69.24-1,.38l-.81.18-.6,2.15,4.66-1h.12l.93-1.88-.73-1-.15.09Z" transform="translate(-28.69 -22.18)"/><polygon class="cls-1" points="195.96 158.79 195.03 154.85 194 157.75 195.96 158.79"/><path class="cls-1" d="M171.58,59.18c0-.23.09-.47.14-.7l-2.38-2-1.19,2.77Z" transform="translate(-28.69 -22.18)"/><path class="cls-1" d="M221.87,186.61l-2.6-1.56-1.46,4.11A9.1,9.1,0,0,1,221.87,186.61Z" transform="translate(-28.69 -22.18)"/><polygon class="cls-1" points="238.2 69.6 238.02 70.24 240.42 73.8 242.97 68.63 242.85 68.63 238.2 69.6"/><path class="cls-1" d="M200.39,208.07l.08-1.28a6.37,6.37,0,0,1-.33,1.23Z" transform="translate(-28.69 -22.18)"/><polygon class="cls-1" points="252.11 73.05 253.16 65.9 258.06 65.2 252.96 65.36 250.41 70.53 252.11 73.05"/><path class="cls-1" d="M96.6,198.47l-3.35-.69,3.7,1.78c-.11-.34-.24-.66-.33-1C96.61,198.52,96.61,198.5,96.6,198.47Z" transform="translate(-28.69 -22.18)"/><path class="cls-1" d="M86.32,95.38l1.18,0a2,2,0,0,0-.13-.25l-.93.06Z" transform="translate(-28.69 -22.18)"/><path class="cls-1" d="M256.56,121.91l6.11,3.34c-.2-.68-.39-1.37-.56-2.06,0-.08-.05-.16-.07-.24-.15-.64-.26-1.29-.37-1.94,0-.21-.06-.42-.09-.63l-4.41.19Z" transform="translate(-28.69 -22.18)"/><path class="cls-1" d="M157.59,54c.48.89,1,1.79,1.46,2.72.72,1.41,1.47,2.91,2.15,4.48l.45-.47,5.13-.15,1.2-2.77L163.45,54l-1.29-3.92L157.65,54Z" transform="translate(-28.69 -22.18)"/><path class="cls-1" d="M218.61,160.83c-.29-.41-.57-.84-.84-1.28l-1.23,2Z" transform="translate(-28.69 -22.18)"/><path class="cls-1" d="M216.74,159.54c-.25-.41-.5-.83-.72-1.26a21.69,21.69,0,0,1-1.54-3.84l-2.2,8.37,3.24-1.21Z" transform="translate(-28.69 -22.18)"/><path class="cls-1" d="M153.68,43.34c0,.15.08.31.12.46l.06-.38Z" transform="translate(-28.69 -22.18)"/><polygon class="cls-1" points="256.83 192.13 254.95 188.75 249.78 187.89 245.39 187.92 247.2 190.08 256.83 192.13"/><polygon class="cls-1" points="96.58 133.04 98.86 136.62 99.36 125.07 96.58 133.04"/><polygon class="cls-1" points="94.63 219.12 92.62 218.44 93.95 219.66 94.87 219.72 94.7 219.21 94.63 219.12"/><path class="cls-1" d="M284.72,93.55l2.19,3.23.66.75,0,.08,1.29.17a32.72,32.72,0,0,1,.28-3.39c0-.21.09-.43.13-.64a13.82,13.82,0,0,1,.6-2.4l.18-.52a14.23,14.23,0,0,1,1-2.44s0,0,0,0l.75-1.47.89-1.24-2,.06-4.9.7Z" transform="translate(-28.69 -22.18)"/><polygon class="cls-1" points="80.71 151.64 80.4 153.08 82.43 152.26 80.71 151.64"/><polygon class="cls-1" points="99.59 119.78 99.36 125.07 101.01 120.31 99.59 119.78"/><path class="cls-1" d="M253.59,153.1l-.09.07s0,.08,0,.12Z" transform="translate(-28.69 -22.18)"/><polygon class="cls-1" points="115.74 192.5 122.01 202.95 122.3 203.61 122.68 202.56 120.82 190.82 116.47 190.34 115.74 192.5"/><path class="cls-1" d="M85.48,93.55l-.64,1.83,1.5-.06.13-.23L87.4,95c-.89-1.69-1.69-3.35-2.46-4.92l-.56,1.11Z" transform="translate(-28.69 -22.18)"/><polygon class="cls-1" points="94.54 219.29 94.71 219.8 96.66 219.94 94.48 219.19 94.54 219.29"/><path class="cls-1" d="M85,89.94c-.73-1.49-1.43-2.89-2.16-4.13a18.74,18.74,0,0,0-2.46-3.37l4.06,8.61Z" transform="translate(-28.69 -22.18)"/><path class="cls-1" d="M261.85,117l4.41-.2c-.06-.4-.13-.8-.17-1.2a31.05,31.05,0,0,1-.2-4.54l-1.29-.17Z" transform="translate(-28.69 -22.18)"/><path class="cls-1" d="M68.35,173.65l-1,.17c-.46.06-.92.14-1.37.19a1.45,1.45,0,0,1-.29,0l-1.56.06c-.26,0-.51,0-.77,0V176l-10.63-2.75L48.61,175l-1.88,5,.66,3.17,3.71,2v0l1.41-.75c3.33-1.72,7.06-3.62,11.53-4.22.6-.08,1.22-.14,1.86-.17a11,11,0,0,1,1.61,0,7.63,7.63,0,0,1,.85.09,14.21,14.21,0,0,1,2.47.49l.18,0A20.21,20.21,0,0,1,74.11,182l.49.31-1.22-6.56Z" transform="translate(-28.69 -22.18)"/><path class="cls-1" d="M96.07,235.68c0,.07,0,.15-.07.22a15.61,15.61,0,0,1-1.19,3l-.32.61-.43.86-.52.72,4,1.1L98,241Z" transform="translate(-28.69 -22.18)"/><path class="cls-1" d="M193.52,177.47a5.22,5.22,0,0,1,1.72-2.79l-.26-.15-2.36,1.95.86,1Z" transform="translate(-28.69 -22.18)"/><polygon class="cls-1" points="69.66 220.02 69.25 218.87 68.78 220.03 69.63 220.26 69.66 220.02"/><polygon class="cls-1" points="68.78 220.03 68.5 220.71 69.49 221.13 69.62 220.26 68.78 220.03"/><path class="cls-1" d="M167.93,167.43l-3,2-.53,1.28,3.47,2.94-1,5,.23.06,14.46,1.78,3.75-.14,3.4-2.81-3.35,0-.59-4a10,10,0,0,1-16.81-5.95Z" transform="translate(-28.69 -22.18)"/><polygon class="cls-1" points="163.55 154.3 162.38 155.26 164.41 155.29 163.55 154.3"/><path class="cls-1" d="M89.94,233.38a8.28,8.28,0,0,0,.74-1.49l-1.8.75c.29.38.54.78.83,1.15C89.79,233.65,89.87,233.52,89.94,233.38Z" transform="translate(-28.69 -22.18)"/><path class="cls-1" d="M192.77,180a5.43,5.43,0,0,1-.19-1.35,5.23,5.23,0,0,1,.14-1.19l0,0-2,0-3.41,2.81Z" transform="translate(-28.69 -22.18)"/><path class="cls-1" d="M100.49,244.07a7.5,7.5,0,0,1,1.32-.62l-3.53-1-.13.86,2.1.89Z" transform="translate(-28.69 -22.18)"/><polygon class="cls-1" points="156.49 158.08 152.75 158.23 138.29 156.45 149.78 159.26 153.41 161.44 153.92 160.2 156.49 158.08"/><path class="cls-1" d="M122,253.63l-.21.53-5.28,4.75c1,.53,2,1,3,1.53s2.27,1.07,3.42,1.58c.72.31,1.47.56,2.2.85l.22-8.21Z" transform="translate(-28.69 -22.18)"/><path class="cls-1" d="M192.86,180.07l-5.53.21-2.56,2.12-.52,1.24,8.22,5L190,199.34a6.55,6.55,0,0,1,3.26-.89,6.62,6.62,0,0,1,2.71.58L199,184.7l-.65-.75c-.14,0-.28,0-.43,0A5.26,5.26,0,0,1,192.86,180.07Z" transform="translate(-28.69 -22.18)"/><path class="cls-1" d="M122.87,253l-12.4-3.8-2.49-1-.55.19-.68.31-.61,1-1.49.09-.18.12a90.18,90.18,0,0,0,12.63,8.3l.27.14,5.29-4.75Z" transform="translate(-28.69 -22.18)"/><path class="cls-1" d="M208.41,179.8l3.41,2,3.63-2.65.65-1.55-7.68-.09a5,5,0,0,1,.12,1.1A5.24,5.24,0,0,1,208.41,179.8Z" transform="translate(-28.69 -22.18)"/><path class="cls-1" d="M100.25,244.21l-2.1-.89-.4,2.63a10.45,10.45,0,0,1,1.77-1.3Z" transform="translate(-28.69 -22.18)"/><path class="cls-1" d="M166.56,178.63l-.24,0L164,189.85l.25,2.2h0a13.85,13.85,0,0,1,11.4,6l.7-1.62,5.34-12.77-3.63-2.18Z" transform="translate(-28.69 -22.18)"/><path class="cls-1" d="M146.28,126.79l2.18.31,1.61-4.91-1.39,0A8,8,0,0,1,146.28,126.79Z" transform="translate(-28.69 -22.18)"/><path class="cls-1" d="M139,130.83a15.7,15.7,0,0,1-6.61.23l.84,5.27,1.4,3.64a5.08,5.08,0,0,1,2.1-.47,5,5,0,0,1,4.43,7.27l5.48,2.06,2.75-9.13-.89-12.3-.17-.06,0-.12-2.18-.31A15,15,0,0,1,139,130.83Z" transform="translate(-28.69 -22.18)"/><path class="cls-1" d="M90.94,231.29a19.68,19.68,0,0,0,.89-2.72l-7.89-6.16-.43-.13-1.08.61a90.93,90.93,0,0,0,6.46,9.75l1.8-.75C90.77,231.69,90.85,231.49,90.94,231.29Z" transform="translate(-28.69 -22.18)"/><polygon class="cls-1" points="15 147.4 11.31 149.83 15.85 149.57 15 147.4"/><path class="cls-1" d="M43.64,169.45l0,.13.12-.08Z" transform="translate(-28.69 -22.18)"/><path class="cls-1" d="M151.7,132.9l10.9,1.7a7.27,7.27,0,0,1,1.56-.39l-.19-1.92-15.18-5,.89,12.3Z" transform="translate(-28.69 -22.18)"/><path class="cls-1" d="M46.59,171.64l6.15,1.59,1.13-.5c-.58-.16-1.18-.31-1.74-.48-3-.91-5.79-2-8.32-2.75l-.12.08.85,2.17Z" transform="translate(-28.69 -22.18)"/><polygon class="cls-1" points="119.89 105.12 119.88 104.96 119.76 104.95 119.72 105.06 119.89 105.12"/><path class="cls-1" d="M168.89,153.81l6,2.71a9.57,9.57,0,0,1,8,1.18l-.33-7.23-.65-4.38-6.48.65-4.9,0a6.79,6.79,0,0,1-3.3,1.29Z" transform="translate(-28.69 -22.18)"/><path class="cls-1" d="M73.28,192.63l8.34,2.67L80,192.76a30,30,0,0,0-6.28-3.93l-1.2-.44-.67,3.75c.09.62.2,1.24.31,1.86Z" transform="translate(-28.69 -22.18)"/><polygon class="cls-1" points="16.85 152.12 15.85 149.57 11.31 149.83 8.87 151.44 9.82 156.31 17.16 160.22 18.04 157.86 16.85 152.12"/><polygon class="cls-1" points="120.72 173.28 123.29 169.71 118.88 171.96 120.72 173.28"/><polygon class="cls-1" points="17.16 160.22 18.7 161.03 18.04 157.86 17.16 160.22"/><path class="cls-1" d="M75.39,176.59l-2-.84,1.22,6.56.5.32Z" transform="translate(-28.69 -22.18)"/><path class="cls-1" d="M88.08,153a37,37,0,0,1-1.61,4l7.58,1.28-.1-2Z" transform="translate(-28.69 -22.18)"/><path class="cls-1" d="M81.82,221.75l.56,1.05.06.09,1.07-.61Z" transform="translate(-28.69 -22.18)"/><path class="cls-1" d="M181.41,246.18a15,15,0,0,1-1.64,1,17.57,17.57,0,0,1-2.89,1.18l-.95,4.61-6.4,1.87-1.86,3.71L174.1,260l1.25-.53-.68.66.66.14,3.54-2.33,2.33,1.14,1-12.11Z" transform="translate(-28.69 -22.18)"/><path class="cls-1" d="M170.94,158.45a9.8,9.8,0,0,1,3.67-1.89l-6-2.71,1.17,4.09Z" transform="translate(-28.69 -22.18)"/><path class="cls-1" d="M160.71,152.81l-2,.82-.93,4.19a7.62,7.62,0,0,1,1.68,9.68l3.14,2.65,1.15-.75,4.52-10.92Z" transform="translate(-28.69 -22.18)"/><path class="cls-1" d="M207.33,245l-2.91,1.48-3.35-.31.65,3,5.07,7.65a29.54,29.54,0,0,1,6.06.26,19.28,19.28,0,0,1,2.66.61l4.26-8.66-11.69-3.64Z" transform="translate(-28.69 -22.18)"/><path class="cls-1" d="M178,300.61l1.29-5.08a32.84,32.84,0,0,0-4.18-.66c-.72-.06-1.45-.12-2.18-.15h0c-.63,0-1.28,0-1.92,0l2.52,2.14-1,6.89.41.2,1.17-.7C175.4,302.42,176.7,301.53,178,300.61Z" transform="translate(-28.69 -22.18)"/><path class="cls-1" d="M185.22,269.22h-.46a60.39,60.39,0,0,0-8.32.57,36.16,36.16,0,0,1,6.23-2.75l-4.74-4-3.37-3.32-1,12.11,13.16,6.46,1-6.89Z" transform="translate(-28.69 -22.18)"/><path class="cls-1" d="M157.31,150.52l1.42,1.07,1.1-4.94h1.07a6.91,6.91,0,0,1,1.69-12l-10.9-1.7-2,6.71.08,1.15Z" transform="translate(-28.69 -22.18)"/><path class="cls-1" d="M161.28,146.67h-1.06l-1.11,4.93,1.58,1.19,2.55-1,4.68,2.1L166.26,148a7.22,7.22,0,0,1-.8.08A6.84,6.84,0,0,1,161.28,146.67Z" transform="translate(-28.69 -22.18)"/><polygon class="cls-1" points="131.82 149.19 127.04 164.99 123.65 169.71 128.4 167.28 136.09 156.34 136.71 156.42 136.71 156.4 131.55 155.13 134.29 148.5 133.67 147.97 131.82 149.19"/><path class="cls-1" d="M226.19,252.18l2.92.91c-.05-.18-.08-.36-.12-.54l-2.64-.69Z" transform="translate(-28.69 -22.18)"/><polygon class="cls-1" points="134.54 148.5 135.07 147.22 133.92 147.97 134.54 148.5"/><polygon class="cls-1" points="136.99 156.39 138.04 151.43 134.57 148.5 131.82 155.13 136.99 156.39"/><path class="cls-1" d="M231,243l-11-2.35L220,240l-3.68,1.87.75.41,11.7,3.64.16-.33,2.63.7c-.19-.77-.39-1.54-.52-2.31C231,243.66,231,243.31,231,243Z" transform="translate(-28.69 -22.18)"/><polygon class="cls-1" points="130.22 129.43 129.77 131.44 131.79 130.62 130.22 129.43"/><path class="cls-1" d="M132.2,266.37c.61.19,1.23.35,1.84.52l-.14-3.17-8.4-9.19-2.11-6.35-2.42,6,3.33,1-.21,8.21c1.51.62,3,1.25,4.56,1.78C129.83,265.63,131,266,132.2,266.37Z" transform="translate(-28.69 -22.18)"/><path class="cls-1" d="M158.31,153.63l-5.69,2.31a7.7,7.7,0,0,1,4.75,1.88Z" transform="translate(-28.69 -22.18)"/><path class="cls-1" d="M147.63,194.14l4.41-2.25,3.39-4.72,4.79-15.8,1.84-1.21-3.14-2.65a7.76,7.76,0,0,1-14-6.67l-3.67,2.56L139,169.07l5.9,3-5.06,16.48.54.4Z" transform="translate(-28.69 -22.18)"/><polygon class="cls-1" points="117.06 172.84 118.78 171.96 111.52 166.78 110.98 166.38 110.71 167.26 115.69 175.41 116.28 175.49 117.06 172.84"/><polygon class="cls-1" points="110.11 146.89 106.66 155.44 103.88 160.97 110.95 166.38 116.01 149.9 110.11 146.89"/><polygon class="cls-1" points="120.66 173.29 118.85 175.8 116.31 175.49 116.14 176.1 117.1 177.68 120.82 179.21 122.4 174.53 120.66 173.29"/><polygon class="cls-1" points="137.13 247.91 142.79 249.15 142.99 246.72 140.67 245.58 137.13 247.91"/><polygon class="cls-1" points="115.68 175.42 116.1 176.09 116.27 175.49 115.68 175.42"/><path class="cls-1" d="M138.77,169.07l-6.94-3.54-2.91-4.59-.81,1.14,2.62,4.1-.45,6.44a4.93,4.93,0,0,1-.41,6l-.16,2.36,2.83,2.16,2.79-5.53Z" transform="translate(-28.69 -22.18)"/><path class="cls-1" d="M163.18,192.05l-.25-2.2,2.37-11.24-.62-.08L157,189.46l-4.75,2.43-2.57,3.57,1.74,1.24-1.58,4.69.28.11A13.83,13.83,0,0,1,163.18,192.05Z" transform="translate(-28.69 -22.18)"/><path class="cls-1" d="M146.54,284.94l-.07.08-1.18,1.47a32.76,32.76,0,0,0-4.22,6.5l4.36.49,1.13,1c2.44-.55,4.85-1.18,7.22-1.93,1.15-.36,2.29-.75,3.41-1.16.75-.27,1.48-.57,2.21-.86l3.17-6.32,2.3,1.36.74-4.1-14.69-1.21c-1,1-1.93,2-2.86,3C147.56,283.84,147,284.38,146.54,284.94Z" transform="translate(-28.69 -22.18)"/><path class="cls-1" d="M152.1,155.91c.11,0,.2,0,.31,0l5.69-2.31.44-2-1.42-1.07-7.56-9.69-.08-1.15-2.75,9.13-5.48-2.06a5,5,0,0,1-2.49,2.34l6.64,8.41,1.09.79A7.75,7.75,0,0,1,152.1,155.91Z" transform="translate(-28.69 -22.18)"/><path class="cls-1" d="M163.59,269.76l2.56-1.69-.66-.14C164.84,268.53,164.21,269.14,163.59,269.76Z" transform="translate(-28.69 -22.18)"/><path class="cls-1" d="M148.28,287.22c-.08.16-.17.32-.24.48-.27.73-.57,1.44-.8,2.15,0,0,0,.07,0,.1,2.21-.33,4.39-.75,6.55-1.24l-1.13-1Z" transform="translate(-28.69 -22.18)"/><path class="cls-1" d="M138.79,169.07l2.28-5.67,3.68-2.56a7.77,7.77,0,0,1,1.2-2l-11.19-6-5.82,8.15,2.91,4.59Z" transform="translate(-28.69 -22.18)"/><path class="cls-1" d="M150.83,269.76l-6.24-1.43-.74,5.56,9.12,1,.15-.23Z" transform="translate(-28.69 -22.18)"/><path class="cls-1" d="M145.84,267.59l-6.09-1.41-.52,3.61a28.74,28.74,0,0,1,2.62,3,18,18,0,0,1,1.64,2.67,15.72,15.72,0,0,1,1.27,3v0l1-2.19,7.8-1.05c0-.11.11-.21.15-.32.15-.27.33-.51.49-.78l-9.12-1Z" transform="translate(-28.69 -22.18)"/><path class="cls-1" d="M160.89,152.8l7.53,5.67-4.51,10.93,3-2a10.21,10.21,0,0,1-.12-1.24,9.92,9.92,0,0,1,3.71-7.72l-1.19-.51-1.17-4.1-4.68-2.09Z" transform="translate(-28.69 -22.18)"/><polygon class="cls-1" points="45.41 239.81 43.48 240.04 41.33 245.27 45.05 242.69 45.41 239.81"/><path class="cls-1" d="M76.3,269.55l-1.81-7.61-.36,0-.35,2.89-3.73,2.58-1.62,3.94a13.93,13.93,0,0,0,1.85,2.05,12.8,12.8,0,0,0,4.77,2.94l3.15-3.73Z" transform="translate(-28.69 -22.18)"/><path class="cls-1" d="M36,189.9a11.5,11.5,0,0,0,5.57-.29l-7.16-.18A13.52,13.52,0,0,0,36,189.9Z" transform="translate(-28.69 -22.18)"/><path class="cls-1" d="M75.16,276.35a8.16,8.16,0,0,0,1.31.34,7,7,0,0,0,4-.48l-2.21-3.58Z" transform="translate(-28.69 -22.18)"/><polygon class="cls-1" points="50.49 239.19 45.63 237.88 45.52 238.76 45.76 239.77 50.49 239.19"/><path class="cls-1" d="M79.93,81.92a8,8,0,0,0-2.22-1.55,7.51,7.51,0,0,0-1.61-.64l-.85-.28a1.8,1.8,0,0,1-.47,0,7.11,7.11,0,0,0-2.81.5c-.22.07-.44.19-.66.27l8.58,1.91Z" transform="translate(-28.69 -22.18)"/><path class="cls-1" d="M173.59,52.8c.42-1.38.87-2.69,1.31-4l-2-.51-2.58,6,2.38,2C173,55.07,173.25,53.91,173.59,52.8Z" transform="translate(-28.69 -22.18)"/><polygon class="cls-1" points="45.29 237.79 45.52 238.76 45.63 237.88 45.29 237.79"/><path class="cls-1" d="M88.4,265.76,86.54,267l-.18,3.72c.23-.42.46-.84.68-1.31A38.55,38.55,0,0,0,88.4,265.76Z" transform="translate(-28.69 -22.18)"/><path class="cls-1" d="M78.4,272.5l-.12.15,2.2,3.58a12.52,12.52,0,0,0,2-1,11.88,11.88,0,0,0,3.93-4.52L86.6,267Z" transform="translate(-28.69 -22.18)"/><path class="cls-1" d="M314.29,82.5l.1-.14-2.19.31,2-.06Z" transform="translate(-28.69 -22.18)"/><path class="cls-1" d="M65.41,98.8l.38-1.56-2-.3A10,10,0,0,0,65.41,98.8Z" transform="translate(-28.69 -22.18)"/><path class="cls-1" d="M286.18,106.36a30.47,30.47,0,0,0-.62,3.88l3.18-.14C287.91,108.84,287.07,107.58,286.18,106.36Z" transform="translate(-28.69 -22.18)"/><path class="cls-1" d="M32.87,172.41l4.41-.25-.74-3.75A10.22,10.22,0,0,0,33,169.54l-.8.4a1.41,1.41,0,0,1-.34.31c-.15.15-.33.37-.5.56L30.89,174Z" transform="translate(-28.69 -22.18)"/><path class="cls-1" d="M67.54,90.21l-4.86-1.35a8.84,8.84,0,0,0-.53,1.84,8.09,8.09,0,0,0,1.48,6c0,.07.1.12.14.18l2,.29Z" transform="translate(-28.69 -22.18)"/><path class="cls-1" d="M65.85,97.09l8.2,1.2,5.42-14.74.27-1.07-8.57-1.91a15.58,15.58,0,0,0-5.71,3.93,13,13,0,0,0-2.74,4.25l4.86,1.35Z" transform="translate(-28.69 -22.18)"/><polygon class="cls-1" points="419.17 155 419.16 150.62 404.59 147.09 403.59 151.23 419.17 155"/><path class="cls-1" d="M421.52,151.24l-.45.24.37.09Z" transform="translate(-28.69 -22.18)"/><polygon class="cls-1" points="349.54 107.69 348.92 111.73 350.4 108.43 349.54 107.69"/><path class="cls-1" d="M75,254.5c-1,.5-2,1-2.85,1.51l1.16,1.12L74,260l.33.09Z" transform="translate(-28.69 -22.18)"/><path class="cls-1" d="M221.87,319.07l-.23,4.71,3.25,1c-.81-1.56-1.71-3.19-2.61-4.91C222.14,319.62,222,319.34,221.87,319.07Z" transform="translate(-28.69 -22.18)"/><path class="cls-1" d="M79.18,261.37l3.38-.41-5-6.37.11-1.42L75,254.51l-.68,5.56Z" transform="translate(-28.69 -22.18)"/><polygon class="cls-1" points="342.59 102.83 343.92 102.78 344.6 98.39 342.59 102.83"/><path class="cls-1" d="M31.38,170.81a6.91,6.91,0,0,0-1.14,1.79,14.08,14.08,0,0,0-1,2.81L30.89,174Z" transform="translate(-28.69 -22.18)"/><path class="cls-1" d="M30.57,176.13l.32-2.09-1.66,1.37c-.08.32-.17.63-.24,1Z" transform="translate(-28.69 -22.18)"/><path class="cls-1" d="M345.52,78.8,345.19,81A43.81,43.81,0,0,1,349,78.69Z" transform="translate(-28.69 -22.18)"/><polygon class="cls-1" points="45.52 238.76 45.4 239.81 45.76 239.77 45.52 238.76"/><path class="cls-1" d="M72.16,262.23l1.93-.24.13-1.05L74,260l-3.76-1,.82-2.27a11.31,11.31,0,0,0-4.57,4.65,7.09,7.09,0,0,0-.63,1.62l-.29.85a1.83,1.83,0,0,1,0,.47,7,7,0,0,0,.5,2.81,13.42,13.42,0,0,0,1.08,2.37l2.89-2Z" transform="translate(-28.69 -22.18)"/><path class="cls-1" d="M343.73,281l0-3.12-1.47,3.35A7.1,7.1,0,0,0,343.73,281Z" transform="translate(-28.69 -22.18)"/><path class="cls-1" d="M354.21,278.71l-8.66-8.29-2.47,1.73-2.33,1c1.44,2.86,2.67,5.59,4,7.82,1.6,2.69,3.15,4.46,5.17,5.36a7,7,0,0,0,1.61.63l.85.29a1.81,1.81,0,0,1,.47,0,4.46,4.46,0,0,0,.5,0l1.47-3.35,0-4.86Z" transform="translate(-28.69 -22.18)"/><path class="cls-1" d="M70,267.45l-2.89,2a16.16,16.16,0,0,0,1.27,1.94Z" transform="translate(-28.69 -22.18)"/><polygon class="cls-1" points="322.21 258.48 324 254.41 322.25 253.63 322.21 258.48"/><path class="cls-1" d="M350.06,275l-1.78,4.07,0,3.13a7.57,7.57,0,0,0,.87-.24,15.49,15.49,0,0,0,6.37-4.2s0-.05.06-.07l0-.24Z" transform="translate(-28.69 -22.18)"/><path class="cls-1" d="M320.34,45.66l-1.63,3.21,2.86.93,1.33-4.12-.13,0A6.62,6.62,0,0,0,320.34,45.66Z" transform="translate(-28.69 -22.18)"/><path class="cls-1" d="M291.44,275.55l1.32-4q-1.61-.51-3.27-1.14Z" transform="translate(-28.69 -22.18)"/><path class="cls-1" d="M414.39,250.25c-.1-.15-.23-.29-.34-.44L405.52,248l0,6,3.17,2.24-1.46,3.33,5.47,2.45-.13-2.43,1.59.84a10.94,10.94,0,0,0,1.77-4.18A8.18,8.18,0,0,0,414.39,250.25Z" transform="translate(-28.69 -22.18)"/><polygon class="cls-1" points="324.43 234.54 333.1 242.83 333.72 243.11 333.76 238.31 326.44 233.14 324.43 234.54"/><path class="cls-1" d="M332.82,67.83l5.1,1.1,2.64-.33,4.49-5c-.06-.09-.1-.18-.15-.26l-10.2.33Z" transform="translate(-28.69 -22.18)"/><path class="cls-1" d="M331.61,268c-.87-.39-1.82-.73-2.8-1.07l-2.07.42-5.54,3.88,7.32,5.18.05-6,8.53,1.77A13.44,13.44,0,0,0,331.61,268Z" transform="translate(-28.69 -22.18)"/><polygon class="cls-1" points="348.59 242.88 350.05 239.54 346.89 237.3 346.85 242.1 348.59 242.88"/><path class="cls-1" d="M377.08,60l10,4.24c.14-.09.31-.17.45-.25a14.06,14.06,0,0,0,4.74-4.12l.79-2.66-8.29-1.78-5.93.74Z" transform="translate(-28.69 -22.18)"/><path class="cls-1" d="M407.09,67.79a10,10,0,0,0,1.25-2.66l.28-.85a1.8,1.8,0,0,1,0-.47,7.11,7.11,0,0,0-.5-2.81,14.39,14.39,0,0,0-1.43-3l-4.49,5-2.63.33,8.28,1.78Z" transform="translate(-28.69 -22.18)"/><path class="cls-1" d="M457.32,180.55a6.73,6.73,0,0,0,1.17-1.82,14.73,14.73,0,0,0,1.34-4.42l-1.91,4.9Z" transform="translate(-28.69 -22.18)"/><path class="cls-1" d="M458.64,167.64l-6,11.39v2.56c.14,0,.28-.06.42-.11a7,7,0,0,0,1.59-.69l.8-.4a1.69,1.69,0,0,1,.35-.31c.14-.13.31-.35.47-.53l.59-1.34,1.92-4.89a15,15,0,0,0,.18-3A13.91,13.91,0,0,0,458.64,167.64Z" transform="translate(-28.69 -22.18)"/><path class="cls-1" d="M245.17,288.88l-1.95-5.16a27.57,27.57,0,0,1-7.12-3.78,14.71,14.71,0,0,1-2.56-2.36,1.58,1.58,0,0,1-.12-.15,9.63,9.63,0,0,1-1.35-1.82l-1.47-.13-3.82,4.75-.16.32.38.19.84.43,1.26.9.1.07c.44.33.92.66,1.33,1l1.15,1.07a37.4,37.4,0,0,1,7.18,9.81c.29.55.56,1.08.83,1.62l2.34-1,2.46-1.73-.5-.47Z" transform="translate(-28.69 -22.18)"/><path class="cls-1" d="M305.57,267.84l-1.32,4,.89,2.36.43.31,5.54-3.89,2.07-.42c-2.11-.72-4.44-1.38-6.88-2.14Z" transform="translate(-28.69 -22.18)"/><path class="cls-1" d="M74,260l-.68-2.84L72.14,256l-.31.17c-.29.17-.52.34-.78.51L70.22,259Z" transform="translate(-28.69 -22.18)"/><polygon class="cls-1" points="307.55 248.8 306.37 252.4 306.87 252.88 308.88 251.47 308.45 251.17 307.55 248.8"/><path class="cls-1" d="M315.44,47l3.08,1.57.68-1.35-3-1C316,46.49,315.69,46.75,315.44,47Z" transform="translate(-28.69 -22.18)"/><polygon class="cls-1" points="338.84 92.29 333.74 91.19 332.9 93.04 338.84 92.29"/><polygon class="cls-1" points="290.74 32.44 291.35 30.55 288.5 29.62 287.82 30.96 290.74 32.44"/><path class="cls-1" d="M316.26,45l3,1,1.62-3.2a9.8,9.8,0,0,0-3.6,1.47A8,8,0,0,0,316.26,45Z" transform="translate(-28.69 -22.18)"/><path class="cls-1" d="M317.66,52.62l-3.08-1.56a15.43,15.43,0,0,0-2.84,4.31,48.66,48.66,0,0,0-1.92,5.43l.12.2,1.84,1.58,1.76-1.22,4.66-.58.83-1.85L314.91,58Z" transform="translate(-28.69 -22.18)"/><polygon class="cls-1" points="282.77 39.74 286.89 40.63 288.77 36.48 288.21 36.5 288.44 35.8 285.52 34.32 282.77 39.74"/><polygon class="cls-1" points="55.67 69.09 53.54 73.34 56.13 73.24 56.77 71.41 55.67 69.09"/><path class="cls-1" d="M86.61,263.4l0,1,2.15.11c.46-1.51.92-3.09,1.43-4.72A39.11,39.11,0,0,1,94.4,250l-1.16.08-7.91,10.55-2.81.34,1.31,1.68Z" transform="translate(-28.69 -22.18)"/><path class="cls-1" d="M165.57,304.47l-8.24-8.1-1-1.32a37.59,37.59,0,0,1-1.84,11.87l10.33,3.18.54-4.32Z" transform="translate(-28.69 -22.18)"/><path class="cls-1" d="M131.18,93.57l-.08,0,.1,0Z" transform="translate(-28.69 -22.18)"/><path class="cls-1" d="M238.87,83.4c.74,0,1.5,0,2.24-.1h.11l1.87-.2a40.71,40.71,0,0,0,4.94-.84c-2-1.48-4.13-2.9-6.29-4.21q-1.55-.93-3.12-1.8l-.15-.07-2.83,7.31C236.72,83.47,237.8,83.45,238.87,83.4Z" transform="translate(-28.69 -22.18)"/><path class="cls-1" d="M80.26,82.09,80,81.83l0,.19Z" transform="translate(-28.69 -22.18)"/><path class="cls-1" d="M94.16,113.92c.12.2.26.39.37.59l.14.23,1-.61Z" transform="translate(-28.69 -22.18)"/><polygon class="cls-1" points="56.51 242.08 55.23 240.44 50.54 239.18 45.8 239.76 47.61 247.38 49.51 250.48 49.63 250.33 57.83 244.81 57.97 242.15 56.51 242.08"/><path class="cls-1" d="M86.63,264.36,86.5,267l1.86-1.25.42-1.3Z" transform="translate(-28.69 -22.18)"/><path class="cls-1" d="M195.43,314.91l-.53,4.32,1.23.38.23-4.71-.58-1.15-.14-.15Z" transform="translate(-28.69 -22.18)"/><polygon class="cls-1" points="15.85 149.57 16.85 152.12 18.04 157.86 19.92 152.85 24.05 151.05 17.9 149.45 15.85 149.57"/><path class="cls-1" d="M169.88,307.5c1-.45,2-.94,2.92-1.43l-2.4-1.43Z" transform="translate(-28.69 -22.18)"/><path class="cls-1" d="M52.74,173.23,63.37,176v-1.89a36.35,36.35,0,0,1-9.51-1.36Z" transform="translate(-28.69 -22.18)"/><path class="cls-1" d="M159.89,296.2l-3.17,6.32L158,302q1.88-.77,3.69-1.62l.53-2.86Z" transform="translate(-28.69 -22.18)"/><path class="cls-1" d="M176.51,310.48c0-.09-.08-.17-.13-.26v.12Z" transform="translate(-28.69 -22.18)"/><path class="cls-1" d="M151.34,290.21a11.52,11.52,0,0,1,0-1.85c0-.21,0-.41.07-.62a12.7,12.7,0,0,1,.46-2.5l.09-.37a14.48,14.48,0,0,1,1.13-2.77l-7.8,1-1,2.19,0,.06.47,1.48.17,1,.11.64c.08.55.19,1.12.24,1.66v.17l.05,1.39v.1l1,1.31,8.23,8.1,0-.11a30.13,30.13,0,0,1-3.09-9.3C151.44,291.31,151.38,290.77,151.34,290.21Z" transform="translate(-28.69 -22.18)"/><polygon class="cls-1" points="8.87 151.44 8.58 149.98 4.18 150.23 2.2 151.86 1.88 153.95 6.01 153.32 8.87 151.44"/><polygon class="cls-1" points="54.7 154.09 61.69 151.49 63.51 147.7 57.85 145.05 54.7 154.09"/><polygon class="cls-1" points="11.31 149.83 8.58 149.98 8.87 151.44 11.31 149.83"/><path class="cls-1" d="M171.33,291.22c.52-.3,1-.62,1.54-.93l.07-.49-13.16-6.46-.2,2.43-5.66-1.24-2.57,1.68c-.16.17-.34.33-.51.5l14.69,1.21-.75,4.1,2.41,1.43c.26-.14.53-.26.79-.39C169.11,292.47,170.23,291.85,171.33,291.22Z" transform="translate(-28.69 -22.18)"/><path class="cls-1" d="M43.69,169.58l0-.13c-.54-.17-1.07-.34-1.58-.47a15.56,15.56,0,0,0-5.52-.57l.74,3.75L40,172Z" transform="translate(-28.69 -22.18)"/><polygon class="cls-1" points="63.51 147.7 68.16 149.87 67.34 139.75 63.51 147.7"/><path class="cls-1" d="M75,151.9c-.2.64-.41,1.28-.6,1.93a87.4,87.4,0,0,0-2.57,11.6c.46-.16.91-.35,1.37-.53a26,26,0,0,0,6.65-4.18c.56-.46,1.11-.93,1.64-1.42l0,0c.58-.53,1.11-1.14,1.67-1.7.3-.31.58-.63.88-.94l-6.86-1.16Z" transform="translate(-28.69 -22.18)"/><path class="cls-1" d="M30.57,176.13l-1.58.24a15.36,15.36,0,0,0-.28,3.7,13.57,13.57,0,0,0,.67,3.92v-.06Z" transform="translate(-28.69 -22.18)"/><polygon class="cls-1" points="179.2 208.22 178.66 205.74 175.19 206.07 179.2 208.22"/><path class="cls-1" d="M45.85,182.4l-2.5,6.66.06,0a43.65,43.65,0,0,0,4.72-2.22l-.74-3.6Z" transform="translate(-28.69 -22.18)"/><path class="cls-1" d="M38.51,178.49l-.95-4.87-2.85,1.88-4.14.63-1.19,7.8V184a10.07,10.07,0,0,0,1.32,2.69,7.19,7.19,0,0,0,3.73,2.75l7.16.18c.57-.15,1.15-.33,1.76-.55l2.5-6.66Z" transform="translate(-28.69 -22.18)"/><path class="cls-1" d="M93.24,250.08,94.4,250c.3-.46.56-.93.91-1.38.19-.25.4-.49.6-.74a12.89,12.89,0,0,1,1.67-1.74l.08-.08.18-.15.39-2.63-1-.41.27-.68-4-1.11-.43.61,0,0c-.33.45-.65.92-1,1.34l-.5.53-.57.61a37.44,37.44,0,0,1-9.81,7.19c-1.21.65-2.4,1.23-3.56,1.8l-.12,1.41,5,6.37,2.82-.34Z" transform="translate(-28.69 -22.18)"/><path class="cls-1" d="M51.1,185.19l-3.71-2,.74,3.6c1-.51,2-1,3-1.6Z" transform="translate(-28.69 -22.18)"/><path class="cls-1" d="M141.64,270.3a26.83,26.83,0,0,0-2.2-3.57l-1.07,1.7Z" transform="translate(-28.69 -22.18)"/><path class="cls-1" d="M136.71,271.61l-1.25,1.61c2.52.48,5.06.89,7.65,1.16l0-.1a13.14,13.14,0,0,0-.78-2.17,13.77,13.77,0,0,0-.63-1.35l-3.26-1.87Z" transform="translate(-28.69 -22.18)"/><polygon class="cls-1" points="53.88 238.78 50.5 239.19 55.19 240.45 53.88 238.78"/><polygon class="cls-1" points="332.01 106.43 332.87 107.18 333.53 105.73 332.2 105.17 332.01 106.43"/><polygon class="cls-1" points="55.19 240.46 56.47 242.1 57.93 242.17 57.98 241.21 55.19 240.46"/><path class="cls-1" d="M71.52,188a2.44,2.44,0,0,1-.26-.06c.14,1.4.33,2.79.54,4.17l.67-3.75C72.15,188.27,71.83,188.13,71.52,188Z" transform="translate(-28.69 -22.18)"/><polygon class="cls-1" points="293.33 57.17 294.65 57.73 296.38 53.9 291.73 54.48 289.97 55.7 293.13 58.43 293.33 57.17"/><polygon class="cls-1" points="56.08 73.37 53.26 81.41 57.58 73.31 56.08 73.37"/><path class="cls-1" d="M81.08,105.22l.26.09.58-1.65Z" transform="translate(-28.69 -22.18)"/><path class="cls-1" d="M75.44,150.39c-.16.49-.31,1-.47,1.51l2.21,3.57L84,156.63q1.78-1.87,3.44-3.92l-10.72-6a1.22,1.22,0,0,0-.07.17C76.25,148.05,75.84,149.22,75.44,150.39Z" transform="translate(-28.69 -22.18)"/><path class="cls-1" d="M155.74,31.58l4.67,5.23L163,44.75l4.89-4.18.57-8.23-.3-.15L161,28a10.24,10.24,0,0,0-3.3,1.5A6.54,6.54,0,0,0,155.74,31.58Z" transform="translate(-28.69 -22.18)"/><path class="cls-1" d="M313.46,68.61c-1.14,3.56-2.44,7.55-5.17,11.13a14.71,14.71,0,0,1-2.36,2.56A10.58,10.58,0,0,1,303.51,84l.73,1L303.31,87l5.1-.16,2.18-.31c.3-.41.59-.83.9-1.21l1.07-1.14a32.73,32.73,0,0,1,5.66-4.69l.34-2.16-1.33,0,2-4.44.62-4-3.16-2.73-3.17,2.21Z" transform="translate(-28.69 -22.18)"/><path class="cls-1" d="M362.71,49.2,360.89,53c3.1-1.64,6.11-3,8.58-4.36l-10-4.24-.65,1.45Z" transform="translate(-28.69 -22.18)"/><path class="cls-1" d="M181.26,309.33l.48-.29-.41-.2Z" transform="translate(-28.69 -22.18)"/><path class="cls-1" d="M169.17,28.42l.3-4.35a15.35,15.35,0,0,0-4.47-.46,13.48,13.48,0,0,0-3.31.49l7.18,4.17Z" transform="translate(-28.69 -22.18)"/><path class="cls-1" d="M312.43,64.12l-1.84-1.59-.12-.2c-.39,1.29-.78,2.62-1.21,4Z" transform="translate(-28.69 -22.18)"/><path class="cls-1" d="M169.19,40.24l-4.89,4.19,1.29,3.92,4.53,3.75,2.58-6,2,.5c.75-2.17,1.48-4.22,2-6.1a16.58,16.58,0,0,0,.61-4.77L169.76,32Z" transform="translate(-28.69 -22.18)"/><path class="cls-1" d="M178.12,30.29a8.1,8.1,0,0,0-.48-2.67A7.23,7.23,0,0,0,177,26l-.4-.8a2,2,0,0,1-.31-.35,7.15,7.15,0,0,0-2.34-1.64,15.12,15.12,0,0,0-3-1.06l-.3,4.35Z" transform="translate(-28.69 -22.18)"/><path class="cls-1" d="M246.68,251.52c1.3-1.83,2.52-3.73,3.69-5.66l-5.21-.42A27.62,27.62,0,0,0,246.68,251.52Z" transform="translate(-28.69 -22.18)"/><path class="cls-1" d="M182.15,298.34l-.34-.14a21.15,21.15,0,0,0-3.46-1.09l-1.29,5.08C178.8,301,180.51,299.69,182.15,298.34Z" transform="translate(-28.69 -22.18)"/><path class="cls-1" d="M105.11,249.43l1.49-.1.61-1c-.48.22-1,.42-1.42.65A7.82,7.82,0,0,1,105.11,249.43Z" transform="translate(-28.69 -22.18)"/><polygon class="cls-1" points="266.27 106.74 266.19 106.7 266.19 106.84 266.27 106.74"/><path class="cls-1" d="M215.69,265.24a8.86,8.86,0,0,1-.77-1.66c0-.08,0-.15-.08-.24L211,270.8l3.81-4.74,1.47.12c0-.06-.08-.12-.11-.18C216,265.75,215.83,265.5,215.69,265.24Z" transform="translate(-28.69 -22.18)"/><polygon class="cls-1" points="170.87 256.51 171.03 256.2 170.81 256.48 170.87 256.51"/><path class="cls-1" d="M299.47,131.87c-.38-.9-.77-1.79-1.18-2.67l-.17.15h0l-.44,1.66Z" transform="translate(-28.69 -22.18)"/><path class="cls-1" d="M217.86,257.92c0-.08,0-.15-.05-.23l-2.92-.91-4.26,8.67c.13,0,.26.06.38.11.4.12.79.26,1.18.4a11.7,11.7,0,0,1,1.82.8l.19.09.23-.29,3.86-7.46C218.15,258.71,218,258.31,217.86,257.92Z" transform="translate(-28.69 -22.18)"/><path class="cls-1" d="M453.56,172.58v6.5l6-11.38c-.07-.33-.13-.66-.22-1l-4.8,6.09Z" transform="translate(-28.69 -22.18)"/><path class="cls-1" d="M297.44,128.83l-.1-.21-.1.35,0,0Z" transform="translate(-28.69 -22.18)"/><path class="cls-1" d="M443.34,154.45c-.41-.14-.81-.27-1.27-.38a13.15,13.15,0,0,0-7.39.86c-.95.36-1.93.82-2.93,1.32l7.6,2.3Z" transform="translate(-28.69 -22.18)"/><path class="cls-1" d="M431,160.14l14.57,3.54v4.38l1,.24,4.8-6.09a10,10,0,0,0-1.43-3,7.44,7.44,0,0,0-4.05-2.84l-4,4.1-7.6-2.3c-1,.51-2.11,1.07-3.22,1.67Z" transform="translate(-28.69 -22.18)"/><path class="cls-1" d="M355.45,98.27,354,101.56l-.68,4.39,3.44-.12.38-.22.4-.2,1.83-3.8Z" transform="translate(-28.69 -22.18)"/><path class="cls-1" d="M407.35,182l-2.2,9.13.71.2c3.72,1.13,7.1,2.49,10.08,3.27a15.79,15.79,0,0,0,5.48.57l1.53-2.9,0-6.51Z" transform="translate(-28.69 -22.18)"/><path class="cls-1" d="M446.77,183V180.4l-1.53,2.89A7.71,7.71,0,0,0,446.77,183Z" transform="translate(-28.69 -22.18)"/><polygon class="cls-1" points="219.06 99.98 218.32 101.54 220.08 101.66 220.23 100.6 219.09 99.97 219.06 99.98"/><path class="cls-1" d="M89.18,196.93l.26-1,2.12,1,4.84-8.13a10.3,10.3,0,0,1,.62-1.67l-.8-.45.64-14.57v-.09l-4.65-2.17-1.82,3.79-7,2.6-2.1,6L77.16,184a33.46,33.46,0,0,1,3.25,3l9.43,3.48-2.76,5.67c.07.12.14.23.2.35Z" transform="translate(-28.69 -22.18)"/><path class="cls-1" d="M80.41,187c.67.7,1.33,1.4,1.94,2.14q.53.63,1,1.29c.4.53.79,1.06,1.17,1.6l.1.14q1.32,1.95,2.44,4l2.76-5.67Z" transform="translate(-28.69 -22.18)"/><path class="cls-1" d="M89,197.65l-1.32-.42c.32.61.63,1.24.93,1.86Z" transform="translate(-28.69 -22.18)"/><path class="cls-1" d="M92.84,221.43c0-.45,0-.91,0-1.37l-3.77-.93-3.38,1.92.13.25,7,1.06c0-.3,0-.59.06-.89Z" transform="translate(-28.69 -22.18)"/><path class="cls-1" d="M88.25,200.34c-.71-.73-1.42-1.45-2.14-2.14l-6,12.29.34.65L85,212.3Z" transform="translate(-28.69 -22.18)"/><path class="cls-1" d="M89.18,196.93l-1.9-.39c.13.23.26.46.38.69l1.32.42Z" transform="translate(-28.69 -22.18)"/><path class="cls-1" d="M83.4,176.27,78.76,178l-3.37-1.41-.29,6c.56.34,1.14.68,1.67,1.06.14.1.25.23.39.34l4.14-1.76Z" transform="translate(-28.69 -22.18)"/><path class="cls-1" d="M92.83,220.06c0-.34,0-.68,0-1a61.85,61.85,0,0,0-.57-8.31,39.51,39.51,0,0,1,3.92,10.16l9.53,2.36,1.8-5.05-7.84-5.14-.18-8.23A20.46,20.46,0,0,1,97,199.56l-3.7-1.78-1.93-.4-.51.86L89,197.65l-.39,1.44c.45,1,.88,1.94,1.27,2.93-.53-.58-1.08-1.12-1.61-1.68L85,212.3l-4.51-1.16,5.2,9.91,3.38-1.92Z" transform="translate(-28.69 -22.18)"/><path class="cls-1" d="M83.52,195.76c-.44-.41-.88-.83-1.33-1.22l-.08-.07c-.48-.4-1-.79-1.47-1.18-.22-.19-.46-.36-.69-.53l1.67,2.54.6.19Z" transform="translate(-28.69 -22.18)"/><polygon class="cls-1" points="53.53 173.31 52.93 173.12 52.98 173.19 53.53 173.31"/><path class="cls-1" d="M83.77,196l-.25-.22-1.3-.27Z" transform="translate(-28.69 -22.18)"/><polygon class="cls-1" points="62.87 174.78 60.75 173.76 60.48 174.75 62.63 175.19 62.87 174.78"/><polygon class="cls-1" points="62.12 176.05 62.63 175.19 60.48 174.75 60.29 175.47 62.12 176.05"/><path class="cls-1" d="M96.6,198.47a18.76,18.76,0,0,1-.2-9.64L91.56,197l1.69.82Z" transform="translate(-28.69 -22.18)"/><polygon class="cls-1" points="64.56 175.59 62.87 174.78 62.63 175.19 64.56 175.59"/><polygon class="cls-1" points="164.89 123.15 166.6 123.58 166.83 122.66 165.08 122.25 164.89 123.15"/><polygon class="cls-1" points="96.47 220.03 97.94 220.53 98.09 220.14 96.47 220.03"/><path class="cls-1" d="M122.9,241.72l-1.32-1.23-8-2.72-2.69,4.33c1.05,0,2.09.06,3.11.16.55.05,1.1.11,1.64.19s1.31.19,2,.31l.18,0a53.13,53.13,0,0,1,7,1.86l-1-2.86Z" transform="translate(-28.69 -22.18)"/><path class="cls-1" d="M123.21,242.09l1,2.86c.46.15.92.31,1.37.48l1.09-2.71-1.46-.5Z" transform="translate(-28.69 -22.18)"/><polygon class="cls-1" points="97.44 220.77 101.58 222.17 105.6 220.94 97.59 220.38 97.44 220.77"/><path class="cls-1" d="M83.4,176.27l3.15-9,5.65,2.65L96,161.93l-.06-.7-1.86-1.65-.07-1.27L86.47,157a42.8,42.8,0,0,1-2.25,4.22l-.12.21c-.34.56-.73,1.1-1.11,1.64s-.72,1-1.11,1.48a30.13,30.13,0,0,1-5.67,5.54l-.57.39,0,.05-.29,6L78.76,178Z" transform="translate(-28.69 -22.18)"/><path class="cls-1" d="M131.36,239.86c-.24-.17-.45-.37-.68-.55l-3.13.26-1.18,2.92,8,.56,2.4-.74A16.33,16.33,0,0,1,131.36,239.86Z" transform="translate(-28.69 -22.18)"/><path class="cls-1" d="M138.54,261.54l0,0c-.53-.58-1.14-1.11-1.7-1.67-.31-.31-.65-.6-1-.9l-1,4.55,5.44,3.12,1.06-1.7c-.43-.59-.88-1.17-1.35-1.73S139,262.08,138.54,261.54Z" transform="translate(-28.69 -22.18)"/><polygon class="cls-1" points="86.5 205.34 86.52 205.36 86.53 205.34 86.5 205.34"/><path class="cls-1" d="M98.31,185.19l4-10.61-5.41-2.53v.09l-.64,14.57.8.45A7.55,7.55,0,0,1,98.31,185.19Z" transform="translate(-28.69 -22.18)"/><path class="cls-1" d="M121.9,240.33l-8-7.41.6-2.71-4.44.95-5.84,11.51c.76-.19,1.52-.38,2.27-.51a31.45,31.45,0,0,1,4.72-.22l2.69-4.33Z" transform="translate(-28.69 -22.18)"/><path class="cls-1" d="M96.56,223l0,.13c.1.61.19,1.22.26,1.84a31.66,31.66,0,0,1,.19,4.69l6-1.1,1.74-4.31Z" transform="translate(-28.69 -22.18)"/><path class="cls-1" d="M107.47,218.21l-1.8,5-9.53-2.36h0c0,.08,0,.16.07.24.14.59.24,1.2.34,1.8l8.22,1.25L103,228.51l5.19-.95,7.08-.09-4.34-7Z" transform="translate(-28.69 -22.18)"/><polygon class="cls-1" points="93.06 218.21 95.08 218.9 88.33 208.85 87.6 207.68 85.66 208.09 85.06 210.8 93.06 218.21"/><polygon class="cls-1" points="86.49 205.38 85.91 207.98 87.85 207.56 86.49 205.38"/><path class="cls-1" d="M122.71,228.43l5.09-2.66a6.4,6.4,0,0,1,4.39-2.29l1.34-.7,2-2.85L122,216.59l.11,10.86-7,.09v0l1.37,2.19Z" transform="translate(-28.69 -22.18)"/><path class="cls-1" d="M119.93,136l5.41.6,3.68-6.74a6.34,6.34,0,0,1-3.3-4,5.85,5.85,0,0,1,.23-3.33l-2.67-.4L120,128.11l-8.55-4.78,0,9.51Z" transform="translate(-28.69 -22.18)"/><polygon class="cls-1" points="123.93 93.19 123.39 94.83 130.44 98.35 131.73 98.68 132.41 97.27 132.27 97.26 132.1 83.17 128.75 80.68 128.72 95.33 123.93 93.19"/><polygon class="cls-1" points="143.98 101.6 145.29 98.4 145.83 97.47 132.96 97.25 132.27 98.66 143.98 101.6"/><polygon class="cls-1" points="154.34 84.31 162.94 85.77 160.74 79.79 154.68 77.27 151.09 78.85 140.22 84.44 134.98 95.21 147.86 95.44 154.34 84.31"/><path class="cls-1" d="M178,117l2.65,0a5.54,5.54,0,0,1,.31-2.74c1.6-4,7.64-5.33,13.55-3l-1.44-3.92-8.6-1.46Z" transform="translate(-28.69 -22.18)"/><path class="cls-1" d="M133,108.62l10.14.34-2.66-5.59-.64-.61c-.91.42-1.84.83-2.77,1.19.69-.63,1.34-1.28,2-1.93l-1.5-1.43-2,5.14Z" transform="translate(-28.69 -22.18)"/><path class="cls-1" d="M97,229.63a27.58,27.58,0,0,1-.27,3.23,19.22,19.22,0,0,1-.67,2.82L98,241l5-12.51Z" transform="translate(-28.69 -22.18)"/><path class="cls-1" d="M143.33,108.72l11.15.38-2.11,6.41,4.79,2.14,0-14.65-7.25-5.39,0-1.32c-.38.32-.77.63-1.16.92s-1.06.8-1.6,1.17l-.15.11a51.76,51.76,0,0,1-7,4l.64.61Z" transform="translate(-28.69 -22.18)"/><path class="cls-1" d="M209.92,121a5.77,5.77,0,0,1-.4.68l5.8-2.07,1.86-2.43.09-.8-9.39-3C210,115.81,210.88,118.62,209.92,121Z" transform="translate(-28.69 -22.18)"/><polygon class="cls-1" points="104.27 86.42 106.81 83.53 108.84 78.39 103.49 73.28 101.95 76.11 103.02 86.38 104.27 86.42"/><path class="cls-1" d="M198.48,108.76l.45-3.62-2.09-.36,1.44,3.91Z" transform="translate(-28.69 -22.18)"/><polygon class="cls-1" points="165.58 120.11 165.15 122.17 166.9 122.58 167.09 121.81 165.58 120.11"/><path class="cls-1" d="M205.35,125.29a7.46,7.46,0,0,1-5.52,3.31L197.23,141l1.51,1.69-.2.78,12.23,2.89L213,135.66l-1.66-.45L213,120.78l-1.85,2.43Z" transform="translate(-28.69 -22.18)"/><path class="cls-1" d="M124.39,246.41l.27.81.33-.8Z" transform="translate(-28.69 -22.18)"/><path class="cls-1" d="M104.37,242.6l5.83-11.5,4.44-.95.58-2.6,0,0-7.07.09-5.2.95-5,12.51.41,1.16,0,.23,3.53,1c.59-.23,1.18-.43,1.76-.67Z" transform="translate(-28.69 -22.18)"/><path class="cls-1" d="M119.65,246.26c-.75,0-1.5,0-2.24.1h-.11l-1.88.2a33.66,33.66,0,0,0-7.52,1.6l2.49,1,12.4,3.81,2.42-6-.27-.82C123.16,246.15,121.4,246.17,119.65,246.26Z" transform="translate(-28.69 -22.18)"/><path class="cls-1" d="M107.85,131.49l3.59,1.35,0-9.5-12.71-7.1L97,124.81a39.56,39.56,0,0,1-.16,4.24c-.06.54-.12,1.09-.19,1.63s-.16,1.09-.26,1.63l1.9,1.49Z" transform="translate(-28.69 -22.18)"/><polygon class="cls-1" points="73.95 151.4 74.99 145.9 67.56 139.29 67.34 139.75 68.16 149.87 73.57 152.4 73.95 151.4"/><path class="cls-1" d="M96.43,132.31c0,.11,0,.22-.05.33l0,.17c-.1.53-.22,1-.34,1.56l2.32-.56Z" transform="translate(-28.69 -22.18)"/><polygon class="cls-1" points="66.13 125.15 64.73 123.85 65.26 134.12 65.67 134.35 66.13 125.15"/><path class="cls-1" d="M101.09,144l2.84.35c2.17-2,4.75-3,7.09-2.24a6.35,6.35,0,0,1,3.73,3.57l1.65.2,3.55-3.62-15-3.27-6.57-5.16-2.32.56c-.21.94-.44,1.88-.7,2.8l-.49,10.16,4.31,4Z" transform="translate(-28.69 -22.18)"/><polygon class="cls-1" points="67.29 139.05 67.34 139.75 67.56 139.29 67.29 139.05"/><polygon class="cls-1" points="65.36 136.13 65.42 137.4 67.29 139.05 67.08 136.41 65.36 136.13"/><polygon class="cls-1" points="68.03 138.32 70.44 129.19 66.13 125.15 65.67 134.35 65.26 134.12 65.36 136.13 67.08 136.41 67.29 139.05 67.56 139.29 68.03 138.32"/><path class="cls-1" d="M80.48,211.14l-4-1c.78,2.09,1.65,4.15,2.58,6.16.52,1.13,1.06,2.23,1.62,3.33.38.73.77,1.44,1.17,2.16l1.69.53,2.17-1.23Z" transform="translate(-28.69 -22.18)"/><path class="cls-1" d="M80.14,210.49l6-12.29c-.75-.73-1.5-1.45-2.26-2.14l-.08-.08-1.55-.49-.55-.11,0-.08-8.34-2.67L72.11,194c.49,2.82,1.09,5.6,1.84,8.32.32,1.2.66,2.39,1,3.56s.79,2.4,1.22,3.58c.08.22.17.43.25.64l4,1Z" transform="translate(-28.69 -22.18)"/><path class="cls-1" d="M141.08,243.14c-1.84,1.56-4.72,2-7.8,1.2l-2.4.73,8.87.62-2.17,9.52a46.24,46.24,0,0,1,4.1,2.19l.22.13c.55.34,1.09.72,1.63,1.1s.93.68,1.39,1l2.08-3.35,6.64-6.72-13.37-4.22Z" transform="translate(-28.69 -22.18)"/><path class="cls-1" d="M92.77,222.36l-7-1.06-.13-.25-2.17,1.23.43.13,7.89,6.16a30.21,30.21,0,0,0,.85-4.93C92.72,223.22,92.75,222.79,92.77,222.36Z" transform="translate(-28.69 -22.18)"/><path class="cls-1" d="M125.41,108l-3.6,6.66,3.27,4.28,1.83-3.33,5.92-6.73-1.25,0-1.06-10.26-4.47,8.25c.71-.08,1.42-.12,2.14-.22C127.29,107.08,126.36,107.54,125.41,108Z" transform="translate(-28.69 -22.18)"/><path class="cls-1" d="M126.64,121.13,125,119l-1.73,3.16,2.67.4A7.24,7.24,0,0,1,126.64,121.13Z" transform="translate(-28.69 -22.18)"/><path class="cls-1" d="M112.6,111.39l0,.37.18-.38Z" transform="translate(-28.69 -22.18)"/><path class="cls-1" d="M121.76,114.71l3.6-6.65a41.8,41.8,0,0,1-7.39,2.53l-.24.06c-.63.15-1.29.26-1.94.38s-1.21.19-1.83.26c-.4,0-.8.07-1.21.1l-.17.39-.45,8.66,11.17,1.71L125,119Z" transform="translate(-28.69 -22.18)"/><polygon class="cls-1" points="89.08 194.28 82.38 186.17 82.29 186.16 78.78 196.03 82.28 198.33 86.62 205.29 86.64 205.29 89.08 194.28"/><polygon class="cls-1" points="221.18 100.14 221.28 99.46 220.04 99.52 221.18 100.14"/><polygon class="cls-1" points="221.85 96.62 221.86 96.6 221.89 96.62 223.13 96.56 224.53 87.01 222.48 84.71 216.47 96.86 221.85 96.62"/><path class="cls-1" d="M212.45,102.19l-5.1-.87L206.9,105h0a15.51,15.51,0,0,1,5.85,4l9.39,3-.09.8,6.12-8,3.52-.74-15.57-2.66.74-1.9c-1-.32-2-.69-3-1.08Z" transform="translate(-28.69 -22.18)"/><path class="cls-1" d="M142.86,240.94a4.68,4.68,0,0,1-.38.78,5.11,5.11,0,0,1-1,1l-.81,2.24,13.37,4.22.45-.46-11.32-5.24Z" transform="translate(-28.69 -22.18)"/><path class="cls-1" d="M95.61,114.14l-1,.61c.06.1.13.2.18.3a9.82,9.82,0,0,1,.85,1.88c.14.41.28.81.44,1.21.27,1,.5,2,.67,3l1.48-6.62Z" transform="translate(-28.69 -22.18)"/><path class="cls-1" d="M90.43,137.84l2.66-2.12c0-.24,0-.5,0-.75,0-.74,0-1.5-.1-2.24v-.11c-.06-.63-.13-1.25-.2-1.87A32,32,0,0,0,91,122.67l-.12-.28a90,90,0,0,0-5.57,7.72l3.84,4Z" transform="translate(-28.69 -22.18)"/><path class="cls-1" d="M93.21,145.72l.2.09V146l1.4,1.3.49-10.16a45.65,45.65,0,0,1-2.2,6.27c.11-2.61.09-5.18,0-7.72l-2.66,2.12Z" transform="translate(-28.69 -22.18)"/><polygon class="cls-1" points="229.84 129.12 236.32 124.25 241.1 118.7 225.16 117.18 231.65 124.61 229.84 129.12"/><path class="cls-1" d="M241.29,139.77l2.06.2-1.66-1.91-1.65-.45-.4.87A16.37,16.37,0,0,1,241.29,139.77Z" transform="translate(-28.69 -22.18)"/><path class="cls-1" d="M249,146.3a20.9,20.9,0,0,1,2.15,6.36l.09-.07,1.82-4.5-6.5-7.43-2.06-.2A21,21,0,0,1,249,146.3Z" transform="translate(-28.69 -22.18)"/><path class="cls-1" d="M237.16,138.73l.39-.87-2.68-.74-.11.24A14.58,14.58,0,0,1,237.16,138.73Z" transform="translate(-28.69 -22.18)"/><path class="cls-1" d="M212.76,146.94l-12.23-2.89-.22.92,13,3.25c0-4.06,1.45-7.51,4.38-9.05a8.57,8.57,0,0,1,7.58.11l.11-.24L215,136.2Z" transform="translate(-28.69 -22.18)"/><polygon class="cls-1" points="219.33 99.59 219.32 99.61 219.36 99.61 219.33 99.59"/><polygon class="cls-1" points="103.63 72.96 104.13 72.03 102.5 71.48 102.74 72.11 103.63 72.96"/><polygon class="cls-1" points="193.41 111.45 203.74 114.29 207.9 105.47 194.86 104.58 193.41 111.45"/><path class="cls-1" d="M97.05,124.81l1.72-8.58,12.71,7.1v-2.49l-6.79-7.23-7.7-.36-1.39.89,2.67.38-1.48,6.62a.19.19,0,0,1,0,.07A34,34,0,0,1,97.05,124.81Z" transform="translate(-28.69 -22.18)"/><path class="cls-1" d="M231.66,76.51c-.7-.37-1.4-.74-2.11-1.1l-.35,1,2.44.16Z" transform="translate(-28.69 -22.18)"/><path class="cls-1" d="M151.5,94.22l-.13.1,0,1.32,7.25,5.39,0-9.12,11.16-5c0-.06-.06-.12-.1-.17l-11.52,4.39-3-.39A36.82,36.82,0,0,1,151.5,94.22Z" transform="translate(-28.69 -22.18)"/><path class="cls-1" d="M159.45,100.7l3.35,2.49.17,14.09h.15l5.23-10.77,10.87-5.59,3.59-1.58-8-3.31.64-3.93a29,29,0,0,1-4.06-4.34c-.25-.36-.5-.73-.74-1.1l0-.06-11.16,5Z" transform="translate(-28.69 -22.18)"/><path class="cls-1" d="M130.42,95l.32,3.1,1.53-2.83-.89-.84-.24-.64-.1,0-.81.29Z" transform="translate(-28.69 -22.18)"/><path class="cls-1" d="M112.91,106.6c.63.1,1.26.21,1.92.28l3-6.61,2-1.45-.38.18c-1.06.55-2.11,1.12-3.14,1.71-2.18,1.24-4.29,2.59-6.35,4l3,.94Z" transform="translate(-28.69 -22.18)"/><polygon class="cls-1" points="108.96 78.15 110.47 74.3 104.11 72.12 103.61 73.04 108.96 78.15"/><path class="cls-1" d="M139.2,101.72c1.33-1.3,2.62-2.62,3.85-4l-3.83-1.31-1.52,3.85Z" transform="translate(-28.69 -22.18)"/><path class="cls-1" d="M114.88,106.78c.16,0,.31,0,.47.07.72.06,1.44.12,2.17.15h0c.78,0,1.59,0,2.38,0,2,0,4.11-.14,6.18-.35l4.47-8.25-.32-3.11-.18-1c-2.44.88-4.85,1.84-7.18,2.92-1,.47-2,1-3,1.48l-2,1.45Z" transform="translate(-28.69 -22.18)"/><path class="cls-1" d="M196.23,95.51a35.36,35.36,0,0,1-5.13-1.86l-2.31,1,6.06,2.52,2.19,6,2.1.36,1.19-9.6-7.07-1.23-.31.14C194,93.76,195.09,94.66,196.23,95.51Z" transform="translate(-28.69 -22.18)"/><path class="cls-1" d="M112.87,106.67l0-1-3-.94c-.43.29-.87.56-1.29.86A25.77,25.77,0,0,0,112.87,106.67Z" transform="translate(-28.69 -22.18)"/><path class="cls-1" d="M223.87,89.68l2.84-7.31c-.31-.17-.62-.32-.93-.48h0l-2.45-.16-2.91,7.94C221.57,89.69,222.73,89.7,223.87,89.68Z" transform="translate(-28.69 -22.18)"/><path class="cls-1" d="M203.63,100.29l5.11.87,1.39-3.79c-.52-.2-1-.4-1.56-.63.6,0,1.18,0,1.78,0l2.9-7.93-12.31-.79-3.18,1.4,7.06,1.23Z" transform="translate(-28.69 -22.18)"/><path class="cls-1" d="M112.58,111.77l0-.37a29,29,0,0,1-6.56-.21,19.33,19.33,0,0,1-2.76-.64l-.31,1.16,1.75,1.86,6.89.32Z" transform="translate(-28.69 -22.18)"/><polygon class="cls-1" points="82.79 101.14 91.34 105.92 94.59 100 83.43 98.29 83.87 89.62 82.9 91.74 76.01 91.42 82.8 98.66 82.79 101.14"/><path class="cls-1" d="M194.16,90.8l-.57-.09c.09.07.16.16.25.23Z" transform="translate(-28.69 -22.18)"/><polygon class="cls-1" points="197.07 92.83 195.43 107.26 197.09 107.71 198.54 100.85 211.58 101.73 212.32 100.17 206.94 100.41 212.94 88.26 209.67 84.59 206.71 84.08 203.2 84.82 197.07 92.83"/><path class="cls-1" d="M223.14,213l-3.21-1.8a6,6,0,0,1-3.39.16,4.67,4.67,0,0,1-.51-.23l-.47,1.21,5.92,2.78.66-1Z" transform="translate(-28.69 -22.18)"/><polygon class="cls-1" points="195 192.55 194.34 193.53 196.06 194.33 196.99 191.95 196.01 191.4 195 192.55"/><path class="cls-1" d="M259,152.35l-.07.19c.79,4.94-.51,9.36-3.72,11.38h5.86l.11-.33-1.92-.64,5.16-9.47,1.62-5.06.93.38,3.71-6.83-.41,0-4.78,5.56Z" transform="translate(-28.69 -22.18)"/><path class="cls-1" d="M227.21,207.68a10,10,0,0,1-4.57,3.43l3.22,1.8,2.14-2.44.93-2.4Z" transform="translate(-28.69 -22.18)"/><polygon class="cls-1" points="198.49 191.66 199.65 188.67 197.51 191.11 198.49 191.66"/><polygon class="cls-1" points="201.7 188.45 203.6 186.28 202.63 186.05 201.7 188.45"/><polygon class="cls-1" points="177.85 200.05 176.03 204.74 176.44 204.97 179.91 204.64 179.49 202.68 177.85 200.05"/><path class="cls-1" d="M205.34,220.47l-4.8-7.73L196.65,211a6.59,6.59,0,0,1-10,0l-.15.06,3.25,8.15.44,3.86c4.8-1.45,9.37-.52,11.09,2.59l2.68-.25-.41-.22Z" transform="translate(-28.69 -22.18)"/><polygon class="cls-1" points="224.37 182.62 223.1 181.09 212.83 179.68 210.24 186.34 211.22 186.56 214.62 182.68 224.37 182.62"/><path class="cls-1" d="M142.51,240.1a5.74,5.74,0,0,1-.46,1.36l.35,2.54,11.33,5.25,1.77-1.8,8.7.87.14-3.18-12.8-5.72-.87-.07Z" transform="translate(-28.69 -22.18)"/><polygon class="cls-1" points="128.9 202.75 120.77 206.46 124.7 215.42 125.52 215.79 139.66 217.06 140.22 210.99 131.67 211.27 128.9 202.75"/><path class="cls-1" d="M149.9,228.27l-1.28.58L148,230l-2.27,6.27a6.59,6.59,0,0,1-.08,2l8.16-.76.87.08-.82-.37Z" transform="translate(-28.69 -22.18)"/><polygon class="cls-1" points="131.21 201.81 129.45 202.62 132.22 211.14 140.78 210.86 141.63 201.78 131.21 201.81"/><path class="cls-1" d="M75.64,170.51a14.62,14.62,0,0,1-2.09,1.25c-.33.17-.7.3-1,.45l.23.09.64,3.45,2,.84.29-6Z" transform="translate(-28.69 -22.18)"/><path class="cls-1" d="M183.61,210.75l-1.05.48-5,3.61-1.69,9-3.76,0L171.3,233l5.55-.18c.54-3.2,3.24-6.64,7.36-8.81a17,17,0,0,1,3.09-1.23l-.45-3.87Z" transform="translate(-28.69 -22.18)"/><polygon class="cls-1" points="180.94 199.46 182.58 202.1 183 204.06 183.28 204.03 190.14 193.81 184.22 191.03 180.94 199.46"/><path class="cls-1" d="M87.48,152.71c.38-.48.79-.93,1.16-1.43-.17.59-.37,1.17-.56,1.76L94,156.3,93.42,146l-.15-.14-.06-.17-8.7-3.81-6.24,1.14c-.53,1.22-1,2.45-1.51,3.69Z" transform="translate(-28.69 -22.18)"/><path class="cls-1" d="M239.09,166.76l-1.24,14.86,14.79,7.85,7.5-8.13-7.82-1.91-6.81-10.15.79-2A9,9,0,0,1,239.09,166.76Z" transform="translate(-28.69 -22.18)"/><path class="cls-1" d="M79.77,139.83c-.52,1.06-1,2.13-1.5,3.22l6.24-1.14Z" transform="translate(-28.69 -22.18)"/><path class="cls-1" d="M243.2,183l-.34,4.05.13.57a5.61,5.61,0,0,1,.59.06,6.86,6.86,0,0,1,4.43,4.43l7.18,4.37L260,202.3l5.19.72,3.21-18.46,6.11.45,0,0-9.07-2.22-7.5,8.13Z" transform="translate(-28.69 -22.18)"/><path class="cls-1" d="M85.54,141.72l4.89-3.88-1.3-3.68-3.84-4c-.52.8-1.07,1.57-1.57,2.39-.64,1.05-1.25,2.12-1.84,3.2s-1.21,2.26-1.78,3.41c-.12.24-.22.48-.33.72l4.74,2.08Z" transform="translate(-28.69 -22.18)"/><polygon class="cls-1" points="240.22 130.15 242.77 125.47 241.84 125.08 240.22 130.15"/><polygon class="cls-1" points="230.9 142.4 234.13 132.29 228.98 141.76 230.9 142.4"/><path class="cls-1" d="M72.51,172.21a14.48,14.48,0,0,1-1.5.66c-.14,0-.28.12-.43.16l-1.57.51-.52.09-.14,0,5,2.1-.64-3.45Z" transform="translate(-28.69 -22.18)"/><path class="cls-1" d="M297.15,223.52c.34-.92.65-1.85,1-2.78l-2.85-.61Z" transform="translate(-28.69 -22.18)"/><path class="cls-1" d="M261.7,211.52l-1.8-2.17-9.76.07-3.4,3.88,8.64,2L253.9,226.7l3.51-5.07.85.39a44.38,44.38,0,0,1,2-5.42c-.1,2.13-.08,4.23,0,6.32l8.58,4c.43-.82.86-1.64,1.27-2.47.53-1.11,1-2.24,1.53-3.37.58-1.34,1.11-2.71,1.63-4.08l-1.88-3.39Z" transform="translate(-28.69 -22.18)"/><path class="cls-1" d="M299.49,218.79l2.86.61c.29-.88.61-1.74.88-2.63,0-.14.07-.28.12-.42l-5.74-.95Z" transform="translate(-28.69 -22.18)"/><path class="cls-1" d="M282.45,205.12l-5.19-.72,1.27,1.53,4.39,0,5.17.85-1.37-2.46,1.3-4.39a58.37,58.37,0,0,0-4.68,5.42,39.13,39.13,0,0,1,4.42-10l.12-.22c.34-.55.73-1.09,1.11-1.63s.72-1,1.11-1.49c.11-.13.24-.25.35-.39l1.33-4.52-6.12-.45Z" transform="translate(-28.69 -22.18)"/><path class="cls-1" d="M313,206.18c.57-2.68,1-5.39,1.33-8.15a29.38,29.38,0,0,0-4.77,3.28c-.56.46-1.11.93-1.65,1.42l0,0c-.58.53-1.11,1.14-1.67,1.7-.28.28-.53.58-.81.86l-1.29,4.39,1.37,2.47,5.73.94c.33-1.09.66-2.2.94-3.31S312.69,207.4,313,206.18Z" transform="translate(-28.69 -22.18)"/><path class="cls-1" d="M311.84,187.69l-3-.22L307.52,192A31.36,31.36,0,0,1,311.84,187.69Z" transform="translate(-28.69 -22.18)"/><path class="cls-1" d="M193.9,176.45l2.37-1.94.25.15a5.21,5.21,0,0,1,3.41-1.28,5.27,5.27,0,0,1,3.27,1.16l4-5.57.81-1.37-.82-.81.2-.76L204,164.91l-8.6,8.16-4.16-1.82,1.63,4Z" transform="translate(-28.69 -22.18)"/><path class="cls-1" d="M161.3,79.91c-.09.38-.18.75-.29,1.12a7.3,7.3,0,0,1-.49,1.36c-.26.58-.54,1.15-.78,1.73-.15.27-.33.5-.48.76-.39.65-.78,1.3-1.2,1.9-.59.76-1.23,1.43-1.87,2.12l3,.39,11.52-4.4a12.38,12.38,0,0,1-.76-1.33c-.17-.33-.33-.67-.49-1a12.91,12.91,0,0,1-.78-2l-.19-.58-.32-1,0-.31-6.61,0C161.48,79.09,161.4,79.5,161.3,79.91Z" transform="translate(-28.69 -22.18)"/><path class="cls-1" d="M189,171.27l-.35-.88c-.1.2-.21.39-.32.58Z" transform="translate(-28.69 -22.18)"/><path class="cls-1" d="M186.6,173.37l.59,4,3.35,0,1.18-1-1-1.16-1.64-4-.67-.29A9.56,9.56,0,0,1,186.6,173.37Z" transform="translate(-28.69 -22.18)"/><path class="cls-1" d="M207.83,196.64l2.92,4.38a16.55,16.55,0,0,1,.54-5,15.48,15.48,0,0,1,3.78-6.85l1.46-4.11-3.14-1.89Z" transform="translate(-28.69 -22.18)"/><path class="cls-1" d="M187.44,78.29,196,80.36l4.3.39-.05,0c-1.19-.4-2.39-.77-3.6-1.12s-2.28-.64-3.44-.93c-1.92-.47-3.87-.86-5.84-1.21l-.16.44Z" transform="translate(-28.69 -22.18)"/><polygon class="cls-1" points="161.39 122.97 162.44 122.87 162.7 121.93 161.75 121.7 161.39 122.97"/><path class="cls-1" d="M184.11,150.38l.32,7.24a10.49,10.49,0,0,1,1.18.9l3.71-13.1-5.86.59Z" transform="translate(-28.69 -22.18)"/><polygon class="cls-1" points="183.06 143.94 183.52 144.38 186.38 139.56 183.14 140.78 182.37 143.71 183.06 143.94"/><path class="cls-1" d="M134.56,140l-1.41-3.64-.84-5.27L132,131l-4.69,5.85,4.17.47-1.8,5.17,2.11.8A5,5,0,0,1,134.56,140Z" transform="translate(-28.69 -22.18)"/><polygon class="cls-1" points="192.69 153.38 193.03 154.79 193.75 152.75 185.08 144.44 184.54 145.34 192.69 153.38"/><polygon class="cls-1" points="188.65 157.02 187.04 160.9 190.18 162.79 191.95 157.79 189.43 156.45 188.65 157.02"/><path class="cls-1" d="M211.86,167.56l-.82,1.37-4,5.58a5.25,5.25,0,0,1,1.89,3l7.67.09-.64,1.54.79-.57,2.52,1.34,1-2.9L220,175.6Z" transform="translate(-28.69 -22.18)"/><polygon class="cls-1" points="181.73 140.83 178.08 142.19 177.62 142.63 180.96 143.75 181.73 140.83"/><polygon class="cls-1" points="163.14 121.8 164.74 122.18 165.17 120.12 163.98 118.78 163.14 121.8"/><polygon class="cls-1" points="181.7 143.76 181.5 144.53 182.31 145.34 182.85 144.44 182.39 144 181.7 143.76"/><path class="cls-1" d="M183.52,81.35l.16-.44-.52-.11C183.27,81,183.4,81.17,183.52,81.35Z" transform="translate(-28.69 -22.18)"/><polygon class="cls-1" points="131.03 99.98 131.49 99.05 130.19 98.72 123.15 95.2 121.65 99.76 131.03 99.98"/><path class="cls-1" d="M150.48,122.05,148.87,127l.12,0v.15l15.19,5,.18,1.93a7.14,7.14,0,0,1,.93-.09,7,7,0,0,1,2.55.49L172,124.27l-11.71-2.94-.46.94Z" transform="translate(-28.69 -22.18)"/><path class="cls-1" d="M188.46,128.38c-.41-.17-.78-.38-1.17-.57l-.35,6.44,5.57,6.24,3.06-11A15.37,15.37,0,0,1,188.46,128.38Z" transform="translate(-28.69 -22.18)"/><polygon class="cls-1" points="117.08 92.28 122.99 95.24 123.53 93.6 116.14 90.3 117.08 92.28"/><path class="cls-1" d="M135.28,115.39c.41-.1.82-.14,1.23-.21l1-5.68,7.15,3.2L143,109.22l-10.14-.35-5.93,6.73-1.82,3.33,1.61,2.11A13.85,13.85,0,0,1,135.28,115.39Z" transform="translate(-28.69 -22.18)"/><path class="cls-1" d="M173.42,140.78a6.93,6.93,0,0,1-2.85,5.59l4.9,0,6.48-.65-1.3-8.66-3.69-12-3.77-.94L169,134.33A6.94,6.94,0,0,1,173.42,140.78Z" transform="translate(-28.69 -22.18)"/><polygon class="cls-1" points="123.58 93.52 125.69 87.11 114.53 86.73 116.19 90.21 123.58 93.52"/><path class="cls-1" d="M144.72,112.59l-7.15-3.19-1,5.67c5.79-1,11,1.18,12,5.14a5.55,5.55,0,0,1,.09,1.86l1.4,0,1.5-4.57-5.91-3Z" transform="translate(-28.69 -22.18)"/><path class="cls-1" d="M246.85,94.12a34.82,34.82,0,0,1-7.83.06c-.55-.05-1.1-.11-1.64-.19s-1.31-.19-1.95-.31l-.18,0a54.28,54.28,0,0,1-6-1.53L228.48,94l15.57,2.67,4.47-.93.6-2.15-1.07.24C247.65,93.93,247.25,94.05,246.85,94.12Z" transform="translate(-28.69 -22.18)"/><path class="cls-1" d="M190.47,76.68a30.63,30.63,0,0,0,2.07,2.84c.47.56.94,1.11,1.43,1.65l0,0c.54.58,1.14,1.11,1.71,1.67.89.88,1.81,1.74,2.75,2.57l.57.1,3.18-1.4,12.31.78.35-1-.23-.12a88.78,88.78,0,0,0-11.33-4.69l-4.3-.4Z" transform="translate(-28.69 -22.18)"/><path class="cls-1" d="M193.34,140.42l1.2,1.34,2.6-12.44c-.24,0-.49.07-.74.09Z" transform="translate(-28.69 -22.18)"/><polygon class="cls-1" points="240.22 83.84 238.04 80.6 237.94 81.28 240.22 83.84"/><path class="cls-1" d="M181.67,136.73l1.29,8.66,5.86-.59.36-1.27,1,.23.83-3-5.57-6.23.36-6.44c-4-2-6.71-5.24-7-8.37l-2.65,0-.54.92-1.31,3.21,3.77.94Z" transform="translate(-28.69 -22.18)"/><polygon class="cls-1" points="227.63 74.2 230.91 77.86 231.35 76.96 228.96 73.4 229.14 72.76 224.67 73.69 227.63 74.2"/><polygon class="cls-1" points="236.66 80.65 236.75 79.97 235.05 77.44 234.6 78.35 236.66 80.65"/><polygon class="cls-1" points="98.67 140.92 98.29 141.45 97.85 142.61 98.62 142 98.67 140.92"/><path class="cls-1" d="M108.06,186.94a19.71,19.71,0,0,1,3.81,7.5,19.08,19.08,0,0,1,.32,9.19l7.34-4.82.15-.14-4.55-9Z" transform="translate(-28.69 -22.18)"/><path class="cls-1" d="M128.15,205.86c0-.07,0-.14,0-.21l-6-2.51,0,1.55,3.26,5.48,1,.12Z" transform="translate(-28.69 -22.18)"/><path class="cls-1" d="M128.93,181.44l-20.79-1.82,1-4.36-2.88,1.17-3.78-1.77-1.7,9h0c2.43-.66,5.09.72,7.29,3.34l7.07,2.72,4.55,9,2.23-2Z" transform="translate(-28.69 -22.18)"/><polygon class="cls-1" points="90.99 176.49 91.68 177.84 93.22 174.5 90.99 176.49"/><path class="cls-1" d="M212.1,183.21l-2-1.22-5.47,4-1,16.23,6.27,1.58a14.43,14.43,0,0,1-.41-2.78l-2.92-4.38Z" transform="translate(-28.69 -22.18)"/><polygon class="cls-1" points="91.8 179.77 91.01 187.26 93.47 187.57 93.43 182.5 91.8 179.77"/><path class="cls-1" d="M122.12,203.13l6,2.51a6.24,6.24,0,0,1,2.71-6.39l1.28-3.13,12.17,1.48-5-8.16.27-.88-7.07-5.41-3.72,7.39-6.89,6.15L120.38,200l.27.54-.14,1.38,1.62,2.74Z" transform="translate(-28.69 -22.18)"/><polygon class="cls-1" points="91.68 177.84 91.23 178.81 91.8 179.77 91.95 178.38 91.68 177.84"/><path class="cls-1" d="M128.93,181.44l-7,15.25,6.89-6.15,3.72-7.39L129.69,181l.16-2.36a5,5,0,0,1-8.2-1l-.21.54-10.32-3.72-2,.81-1,4.36Z" transform="translate(-28.69 -22.18)"/><path class="cls-1" d="M134.75,152.79l11.2,6a5,5,0,0,1,.41-.5l-1.1-.78-6.64-8.42a4.81,4.81,0,0,1-1.94.4,5,5,0,0,1-5-5,5.51,5.51,0,0,1,.16-1.22l-2.11-.79-1.66,4.75-.5,11.55,1.36,2.14Z" transform="translate(-28.69 -22.18)"/><polygon class="cls-1" points="98.76 138.88 98.67 140.92 99.4 139.89 98.76 138.88"/><path class="cls-1" d="M194,144.78l-1.61-.38-.26.94-1.05.1-3.7,13.11a9.84,9.84,0,0,1,2.52,11.75l.36.88,4.15,1.82,8.61-8.16-11.2-3.77,3.7-14.95-1.71-.43Z" transform="translate(-28.69 -22.18)"/><path class="cls-1" d="M121.65,177.63a5,5,0,0,1-.57-2.26,5,5,0,0,1,3.2-4.66l2.26-5.91-8.89,7-6.53,2.64,10.32,3.72Z" transform="translate(-28.69 -22.18)"/><polygon class="cls-1" points="230.35 94.66 231.92 94.59 234.67 88.48 234.59 88.47 234.04 87.66 231.76 85.1 230.35 94.66"/><path class="cls-1" d="M126.09,170.36a5,5,0,0,1,4.18,2.26l.44-6.44-2.61-4.1-.74,1,0,1.08-.77.62-2.25,5.91A4.89,4.89,0,0,1,126.09,170.36Z" transform="translate(-28.69 -22.18)"/><polygon class="cls-1" points="93.47 187.58 96.68 187.99 93.42 182.51 93.47 187.58"/><path class="cls-1" d="M164,68.15l2.2-5.07-5.13.15-.46.47a26.8,26.8,0,0,1,2.05,6.92Z" transform="translate(-28.69 -22.18)"/><path class="cls-1" d="M145.66,199.87l-1-1.59L141,211l-2.87-1.2a6.38,6.38,0,0,1-9.93-3.92l-1.8,4.43-1-.13.78,1.31,19.8.07,3.42-10.15Z" transform="translate(-28.69 -22.18)"/><path class="cls-1" d="M133.07,93.79,139.44,96l2.1-5.34,6.49.83a30.68,30.68,0,0,0,1.64-2.62,88.57,88.57,0,0,0-9.25,1.66c-1.19.29-2.37.59-3.54.92s-2.34.68-3.5,1l.29.22Z" transform="translate(-28.69 -22.18)"/><path class="cls-1" d="M139.47,96l3.83,1.32.11-.11c.5-.55,1-1.09,1.51-1.66l.07-.08c.41-.48.8-1,1.19-1.46.66-.83,1.29-1.67,1.88-2.52l-6.49-.83Z" transform="translate(-28.69 -22.18)"/><path class="cls-1" d="M163.17,70.3s0,.08,0,.12a14.61,14.61,0,0,1,.15,3.48,8.34,8.34,0,0,1-.09,1.13l6.6,0-.22-1.34c-.08-.54-.19-1.11-.24-1.65l0-1.56a33.17,33.17,0,0,1,.8-7.87l-3.43.1-2.2,5.07Z" transform="translate(-28.69 -22.18)"/><path class="cls-1" d="M209.09,181.94l-3.4-2.05A5.27,5.27,0,0,1,201,184l.65.75-3.1,14.33a6.71,6.71,0,0,1,3.08,2.83l1,.26,1-16.23Z" transform="translate(-28.69 -22.18)"/><path class="cls-1" d="M200.94,205.23l.17-2.73-1-.26A6.46,6.46,0,0,1,200.94,205.23Z" transform="translate(-28.69 -22.18)"/><path class="cls-1" d="M131.19,93.54l0,.06,1.62.55.6-1.1-.29-.21-.2.06C132.36,93.1,131.78,93.33,131.19,93.54Z" transform="translate(-28.69 -22.18)"/><path class="cls-1" d="M149.66,201.54l-.28-.11L146,211.58h3.9l.2,1.23.73.08a13.25,13.25,0,0,1-1.12-11.36Z" transform="translate(-28.69 -22.18)"/><polygon class="cls-1" points="117.1 189.44 116.84 190.21 121.19 190.68 121 189.45 117.1 189.44"/><path class="cls-1" d="M93.13,112.48a10.75,10.75,0,0,1,1,1.42l1.46.2,1.38-.88,7.71.35L103,111.71l.31-1.16-.29-.09-.33-.11a14.89,14.89,0,0,1-2.6-1s0,0-.07,0l-1.47-.75-.69-.49-.66-.48-.86-.64V112L92.69,112s.09.08.14.14S93,112.36,93.13,112.48Z" transform="translate(-28.69 -22.18)"/><path class="cls-1" d="M96.33,106.87l-.49-.36-1.14-1.07a37.67,37.67,0,0,1-7.19-9.81.61.61,0,0,0-.07-.14l-1.18,0-4.33,8.09-.57,1.65a30.15,30.15,0,0,1,8.92,4.45,14.51,14.51,0,0,1,2.42,2.21l3.63.07Z" transform="translate(-28.69 -22.18)"/><path class="cls-1" d="M188.53,199.36l2.53-10.74-8.23-5-5.33,12.77-.7,1.62a13.73,13.73,0,0,1,2.42,7.17l2.89.47.22-1.16,2.81.53A6.64,6.64,0,0,1,188.53,199.36Z" transform="translate(-28.69 -22.18)"/><path class="cls-1" d="M181.43,205.9l3.13.51a7.61,7.61,0,0,1-.11-1.07s0-.05,0-.08l-2.81-.52Z" transform="translate(-28.69 -22.18)"/><polygon class="cls-1" points="100.21 138.76 98.86 136.62 98.76 138.88 99.4 139.89 100.21 138.76"/><path class="cls-1" d="M187.42,246.71l-.11,1.4,3.37,3.32,4.74,4c1.29-.44,2.59-.85,3.94-1.17l.24-.07c.63-.15,1.28-.26,1.93-.37s1.22-.19,1.84-.27,1.24-.12,1.87-.16l-5.07-7.65-.66-3-8.07-.76A13.91,13.91,0,0,1,187.42,246.71Z" transform="translate(-28.69 -22.18)"/><path class="cls-1" d="M202.24,229.15l-2.69.25s0,0,.06.08a6.71,6.71,0,0,1-.33,6.19l8.08.75-1.11-5.12Z" transform="translate(-28.69 -22.18)"/><path class="cls-1" d="M184.14,206.58l-3.13-.51-1.49,8,5-3.62,1-.48-.19-.46A6.5,6.5,0,0,1,184.14,206.58Z" transform="translate(-28.69 -22.18)"/><path class="cls-1" d="M174.26,247.25l-2.9,5.76,6.41-1.87.94-4.61A15,15,0,0,1,174.26,247.25Z" transform="translate(-28.69 -22.18)"/><path class="cls-1" d="M208.84,204.42l-6.27-1.57-.17,2.74c0,.09,0,.17,0,.26a5,5,0,0,1-.06.54l10.37,4.87.47-1.2C211.05,209.25,209.53,207.16,208.84,204.42Z" transform="translate(-28.69 -22.18)"/><path class="cls-1" d="M201,207.5l-.08,1.28-.25-.05a6.59,6.59,0,0,1-1.22,2l3.88,1.77,4.81,7.72,3.28-8.44L201,207A4.89,4.89,0,0,1,201,207.5Z" transform="translate(-28.69 -22.18)"/><path class="cls-1" d="M187.44,243.44l.77.76.11-1.4C188,243,187.75,243.24,187.44,243.44Z" transform="translate(-28.69 -22.18)"/><path class="cls-1" d="M186,210l.14-.07-.33-.39Z" transform="translate(-28.69 -22.18)"/><path class="cls-1" d="M176.59,205.58c0,.26.07.5.07.75a13.89,13.89,0,0,1-13.89,13.9,13.71,13.71,0,0,1-3.47-.49l0,.78,1.09,3.37,1.77-.8,10.41,0,.5-5.46L178,214l1.49-7.95Z" transform="translate(-28.69 -22.18)"/><path class="cls-1" d="M146,236.07l2.27-6.28-2.64,4.53A8.55,8.55,0,0,1,146,236.07Z" transform="translate(-28.69 -22.18)"/><polygon class="cls-1" points="179.7 216.11 183.04 216.42 185.96 214.94 178.59 210.99 179.7 216.11"/><path class="cls-1" d="M150.57,225.17l-6.28-10.45.73-2.16-4.22-.46-5.71,8,.1,0,10.22,8.1.38,2.82A11.77,11.77,0,0,1,147,233.7l2.63-4.53,1.21-3.34Z" transform="translate(-28.69 -22.18)"/><polygon class="cls-1" points="143.63 201.26 147.39 201.25 149.08 192.22 144.14 195.8 143.63 201.26"/><polygon class="cls-1" points="120.15 207.37 120.8 206.25 122.08 205.66 121.36 204.02 120.15 207.37"/><path class="cls-1" d="M158.54,219.72a13.82,13.82,0,0,1-8.53-6.5l-.73-.08,1.86,11.74-.38,1.05.72,1.65,8.13-3.71-1.1-3.38Z" transform="translate(-28.69 -22.18)"/><polygon class="cls-1" points="129.72 244.86 128.72 242.18 129.24 230.77 120.53 229.91 118.76 231.7 120.85 232.66 125.44 244.13 125.46 244.15 129.58 245.1 129.72 244.86"/><polygon class="cls-1" points="121.61 232.08 119.52 231.12 119.07 231.58 121.29 232.28 119.97 242.13 126.22 243.57 126.2 243.54 121.61 232.08"/><polygon class="cls-1" points="193.17 193.79 192.24 196.17 190.53 195.37 183.66 205.59 183.39 205.61 183.93 208.09 191.3 212.04 194.98 210.16 196.46 195.62 193.17 193.79"/><path class="cls-1" d="M219.63,161l-2.07.77-2.86,4.82,8.68,8.3-.73,2,.93,3.94,1.48.79,1.24-14.87A17.88,17.88,0,0,1,219.63,161Z" transform="translate(-28.69 -22.18)"/><path class="cls-1" d="M151.75,273.51l-4.13-.95,2.3,4.91c.34-.56.67-1.13,1-1.65s.88-1,1.32-1.49l-.4-1.06Z" transform="translate(-28.69 -22.18)"/><path class="cls-1" d="M150.07,252.11l-6.63,6.72-2.09,3.35.1.07a34.19,34.19,0,0,1,2.92,2.62l.52-3.6,6.08,1.4,1.32-9.86Z" transform="translate(-28.69 -22.18)"/><path class="cls-1" d="M171.19,239.3a5.85,5.85,0,0,1-.48-3.73l-5.55.18-.57,6.06-14.13-1.27,12.8,5.72-.14,3.18,6.38.63,5.69-1.67,2.89-5.76C175,242.63,172.36,241.52,171.19,239.3Z" transform="translate(-28.69 -22.18)"/><path class="cls-1" d="M139.91,269l1.25-1.61,1.7-2.72-5.44-3.12,1-4.55a59,59,0,0,0-5.32-4.58,36.51,36.51,0,0,1,5.86,2.22l2.17-9.52-8.87-.61-4,1.23-4.14-1.4-1.09,2.7c.76.29,1.5.58,2.24.91-.87,0-1.72,0-2.58-.05l-.32.8,2.1,6.35,8.41,9.19.14,3.17c.56.16,1.12.33,1.69.47C136.43,268.32,138.17,268.67,139.91,269Z" transform="translate(-28.69 -22.18)"/><path class="cls-1" d="M204.58,164.7l.46-.44,3.65-1.36,2.2-8.37a18.46,18.46,0,0,1-.85-5.3l-13-3.25-3.7,15Z" transform="translate(-28.69 -22.18)"/><polygon class="cls-1" points="198.01 163.7 198.35 159.64 196.87 158.86 198.01 163.7"/><path class="cls-1" d="M151.34,273.42l.39,1.06a36.57,36.57,0,0,1,4.18-4.09c.43-.35.85-.69,1.29-1s1.06-.8,1.6-1.17l.14-.1c1.31-.89,2.65-1.7,4-2.46l-3.56-.29,1.68-3.35-3-.66Z" transform="translate(-28.69 -22.18)"/><polygon class="cls-1" points="124.23 235.29 123.72 246.71 124.72 249.39 131.45 237.31 134.44 237.97 136.31 234.26 130.62 235.93 124.23 235.29"/><path class="cls-1" d="M239.34,201.41a16.2,16.2,0,0,1-2.88,5.87l1.72.4,2.58-6.67L251,202.43l-4.84-5.79L239,192.27A14.84,14.84,0,0,1,239.34,201.41Z" transform="translate(-28.69 -22.18)"/><path class="cls-1" d="M163.37,266.23a46.68,46.68,0,0,1,4.55-2.23l-6.43-1.41-1.69,3.35Z" transform="translate(-28.69 -22.18)"/><path class="cls-1" d="M222.33,180l-1.78,5,2.61,1.57a5.8,5.8,0,0,1,2.23-.14l0-.55L224.29,181Z" transform="translate(-28.69 -22.18)"/><path class="cls-1" d="M227,186.51l-.14-.56,0,.54Z" transform="translate(-28.69 -22.18)"/><path class="cls-1" d="M107.71,209.4c-2.78.75-5.88-1.16-8.23-4.57l.18,8.23,7.84,5.14,3.51-9.87h.09l-.66-.8A5.32,5.32,0,0,1,107.71,209.4Z" transform="translate(-28.69 -22.18)"/><polygon class="cls-1" points="95.46 133.71 98.76 138.88 98.85 136.62 96.58 133.04 99.35 125.07 99.58 119.78 101.01 120.31 102.81 115.14 98.64 114.67 97.44 116.17 95.7 115.52 91.26 120.05 93.68 120.58 95.46 133.71"/><path class="cls-1" d="M115,155.62a15.05,15.05,0,0,1-4.29,6.75l1,.94-2.29,10.51,1.72.63,6.53-2.64,8.89-7,.44-1.17.38-.53.09-2-3.3-5.17-1.78-13.13-2.42-.52-3.55,3.62-1.65-.2A14,14,0,0,1,115,155.62Z" transform="translate(-28.69 -22.18)"/><path class="cls-1" d="M100,150.8a15.19,15.19,0,0,1,4-6.47l-2.84-.35-2,7.4.55.5C99.77,151.52,99.83,151.17,100,150.8Z" transform="translate(-28.69 -22.18)"/><path class="cls-1" d="M255.67,133.74l1.66,1.9,15.95,1.52,3.25-3.77v-.14l-9.09-5a56.39,56.39,0,0,0,.51,6.55,38.08,38.08,0,0,1-3.36-8.11l-6.11-3.34L254,133.28Z" transform="translate(-28.69 -22.18)"/><polygon class="cls-1" points="73.95 151.4 73.57 152.4 73.74 152.48 73.95 151.4"/><polygon class="cls-1" points="77.52 154.24 80.4 153.08 80.71 151.64 74.67 149.46 73.95 151.4 73.74 152.48 77.52 154.24"/><path class="cls-1" d="M109.4,173.82l2.29-10.51-1-.94c-2.11,1.84-4.56,2.67-6.8,2-3.9-1.25-5.66-6.69-4.22-12.45l-.55-.5-2.4,9.12-.48,1,7.43,6.6-1,5.5.72-1.94Z" transform="translate(-28.69 -22.18)"/><polygon class="cls-1" points="91.24 113.85 82.75 110.66 82.74 112.9 91.24 113.85"/><polygon class="cls-1" points="215.81 104.26 214.06 104.14 209.89 112.96 212.57 113.7 217.04 103.78 215.97 103.2 215.81 104.26"/><path class="cls-1" d="M132,131a10.83,10.83,0,0,1-3-1.11l-3.68,6.74,2,.22Z" transform="translate(-28.69 -22.18)"/><polygon class="cls-1" points="222.92 99.73 223.99 100.32 224.59 98.98 223.02 99.06 222.92 99.73"/><polygon class="cls-1" points="96.54 114.66 96.65 114.45 91.24 113.84 95.7 115.52 96.54 114.66"/><polygon class="cls-1" points="210.49 202.6 211.97 191.18 203.34 189.19 201.43 191.37 200.27 194.35 203.56 196.19 202.08 210.73 206.38 208.54 210.49 202.6"/><polygon class="cls-1" points="95.7 115.52 97.44 116.17 98.64 114.67 96.65 114.45 96.54 114.66 95.7 115.52"/><polygon class="cls-1" points="91.24 113.85 82.74 112.9 82.75 110.66 79.16 109.31 69.64 111.62 76.21 116.79 91.26 120.05 95.7 115.52 91.24 113.85"/><path class="cls-1" d="M102.43,174.66l-.17-.08-4,10.61a5.24,5.24,0,0,1,2.42-1.58Z" transform="translate(-28.69 -22.18)"/><path class="cls-1" d="M141.27,226.42a16.17,16.17,0,0,1,4.49,4.65l-.38-2.81-10.22-8.11-.1,0L133,223l-1.34.7A14.15,14.15,0,0,1,141.27,226.42Z" transform="translate(-28.69 -22.18)"/><polygon class="cls-1" points="116.87 190.17 117.13 189.4 97.33 189.34 96.55 188.03 93.33 187.62 93.4 194.37 106.94 197.72 112.64 189.7 116.87 190.17"/><path class="cls-1" d="M284.45,137.12l-3.72,6.82.69.29c-.1-.27-.23-.52-.33-.79.34.37.69.71,1,1.07l3.7,1.52,1.44-10.59,0-2.14L284,137.08Z" transform="translate(-28.69 -22.18)"/><path class="cls-1" d="M294.62,181.45l9.07,2.22v0l3,.22c.34-.27.63-.58,1-.85q.82-.59,1.71-1.11l.24-.13-1.35-.89-4.91-7-7.6,6.31Z" transform="translate(-28.69 -22.18)"/><path class="cls-1" d="M267.11,236.48l-8.57-3.95c0,.71,0,1.43,0,2.14s0,1.5.11,2.24V237c.06.63.13,1.25.2,1.87s.16,1.34.26,2l5.21.43c.82-1.35,1.62-2.71,2.37-4.1C266.87,237,267,236.72,267.11,236.48Z" transform="translate(-28.69 -22.18)"/><path class="cls-1" d="M235.24,228.72l-4.12,5.95-4.29,2.19-.06.56,11,2.35a35.5,35.5,0,0,1,0-6.76.2.2,0,0,0,0-.07l-3.09-.25Z" transform="translate(-28.69 -22.18)"/><path class="cls-1" d="M246.78,228.51a1.13,1.13,0,0,1,0-.18,50.51,50.51,0,0,1,1.26-5.2l-.85-.39-3.51,5.08-.52,4,3.1.25c.05-.52.11-1.05.18-1.56C246.56,229.81,246.66,229.15,246.78,228.51Z" transform="translate(-28.69 -22.18)"/><path class="cls-1" d="M127.25,226.15c.06-.08.14-.14.21-.22l-5.1,2.66-6.21,1.33.73,1.17,6.74,10,2.18.74,1.62.12,1.18-2.93,3.13-.26C126.9,235.08,124.88,229.56,127.25,226.15Z" transform="translate(-28.69 -22.18)"/><polygon class="cls-1" points="241.31 85.31 241.35 85.23 240.68 84.48 241.23 85.3 241.31 85.31"/><path class="cls-1" d="M265.35,165.55l-.11.34h-5.87c-.15.09-.27.23-.43.32s-.45.2-.68.29l-.79,2,6.8,10.14,7.83,1.92,1.13-1.23,7.6-6.31-2.1-3Z" transform="translate(-28.69 -22.18)"/><polygon class="cls-1" points="90.98 187.27 90.32 193.54 93.52 194.33 93.45 187.58 90.98 187.27"/><path class="cls-1" d="M283.39,151.49l-3.23,10.11L293.54,166l2.1,3,1.9-1.58,4.89-1-.37-.16c-.24-.14-.45-.29-.68-.43-.68-.41-1.36-.81-2-1.26a34.57,34.57,0,0,1-5.58-5.49c-.34-.42-.69-.85-1-1.29s-.79-1.06-1.16-1.6l-.11-.14a50.2,50.2,0,0,1-4.88-9l-.7-.29Z" transform="translate(-28.69 -22.18)"/><polygon class="cls-1" points="90.97 187.27 82.36 186.18 89.06 194.29 86.62 205.29 93.61 205.2 93.5 194.34 90.3 193.55 90.97 187.27"/><path class="cls-1" d="M120.49,202l-.57-1,.45-1-.69-1.36-.15.14-7.34,4.82a9.78,9.78,0,0,1-1.75,3.91l.66.8,8.6,1.1Z" transform="translate(-28.69 -22.18)"/></svg>