<svg id="Layer_1" data-name="Layer 1" xmlns="http://www.w3.org/2000/svg" viewBox="0 0 468.52 141.6"><defs><style>.cls-1{fill:#2173b9;}.cls-2{fill:#2072b8;}.cls-3{fill:#2374b9;}.cls-4{fill:#1e71b8;}</style></defs><path class="cls-1" d="M74.71,55.74c0-4.32-.06-8.63,0-12.94,0-1.58-.25-2.29-2-2.65A14,14,0,0,1,61.44,26,14.14,14.14,0,0,1,72.89,12.5a13.85,13.85,0,0,1,15.85,9c.6,1.57,1.34,1.78,2.8,1.54a139.25,139.25,0,0,1,33.62-2,2.22,2.22,0,0,0,2.4-1.35c4.06-7,12.1-9.46,18.95-5.87s9.47,11.57,6,18.89a2.22,2.22,0,0,0,.38,2.73,134.87,134.87,0,0,1,18.24,31.07,2.38,2.38,0,0,0,2.39,1.74,14,14,0,0,1,13,13.29c.18,7.75-4.94,13.92-12.42,14.78A2.48,2.48,0,0,0,171.66,98a130.15,130.15,0,0,1-18.94,30.92c-1.07,1.34-1.36,2.24-.42,3.91a14.07,14.07,0,1,1-24.8,13.27c-.83-1.64-1.74-1.9-3.32-1.75a113.17,113.17,0,0,1-33.1-2c-1.57-.32-2,.14-2.55,1.46a14.11,14.11,0,0,1-27.07-4.93A13.76,13.76,0,0,1,72,124.72c2.11-.51,2.46-1.37,2.42-3.31C74.19,113,74.2,104.48,74,96c0-1.69.46-2.24,2.14-2.13a48.17,48.17,0,0,0,6.47,0c1.71-.12,1.94.55,1.81,2.06a181.82,181.82,0,0,1-4.08,26.47c-.39,1.69-.31,2.61,1.47,3.29a11.19,11.19,0,0,1,5.37,4.62c.7,1.1,1.23,1.31,2.43.66,23.3-12.8,46.39-25.93,67.64-42.06,1.36-1,2.09-1.93,1.43-3.69a6.94,6.94,0,0,1-.26-4.49c.69-2.13-.27-3.06-1.9-4.18Q124,54.38,89.81,34.78c-1.46-.84-2.38-1.07-3.43.6a9.9,9.9,0,0,1-4.85,3.76c-1.31.52-1.36,1.1-1,2.32A156.69,156.69,0,0,1,84.8,68.37c.19,2.16-.48,2.66-2.42,2.47-2.6-.24-6.1,1.1-7.58-.52-1.29-1.41-.36-4.86-.38-7.4s0-4.79,0-7.19Zm88.94,15.19a152.32,152.32,0,0,0-16.29-30.21c-.92-1.31-1.72-1.36-3.15-.92-7.77,2.4-16-1.93-17.71-9.75-.67-3.09-2.2-3.38-4.61-3.65a202.09,202.09,0,0,0-27.72-1c-4,.11-3.91.06-4.82,3.77-.41,1.65-.07,2.37,1.52,3A382.4,382.4,0,0,1,149.39,62C154,64.77,158.54,67.71,163.65,70.93Zm-.5,24.5c-.59.35-.94.52-1.25.74-21.14,15.41-44.3,27-68.61,36.47-3.8,1.48-3.71,1.48-3.64,5.43,0,1.49.53,1.89,1.92,2a152.73,152.73,0,0,0,32.68-1.43,2.06,2.06,0,0,0,2-1.89,13.88,13.88,0,0,1,17-10.74,2.56,2.56,0,0,0,3.14-1.24,162.3,162.3,0,0,0,13.94-22.55A26.87,26.87,0,0,0,163.15,95.43Zm-87.49,52a9.33,9.33,0,0,0,9.15-9.15,9.26,9.26,0,0,0-18.51,0A9.35,9.35,0,0,0,75.66,147.45Zm0-130.2a9.28,9.28,0,0,0-9.37,9.2,9.26,9.26,0,0,0,18.51,0A9.22,9.22,0,0,0,75.67,17.25Zm55.18,9a9.15,9.15,0,1,0,18.29.12,9.15,9.15,0,0,0-18.29-.12Zm9,122.51a9,9,0,0,0,9.27-8.93,9.15,9.15,0,1,0-18.29-.24A9,9,0,0,0,139.87,148.76Zm41.81-66.39a9.26,9.26,0,0,0-9.11-9.22,9.15,9.15,0,0,0-9.25,9,9.18,9.18,0,1,0,18.36.2Z" transform="translate(-15.74 -12.2)"/><path class="cls-2" d="M212.42,76.1c0-9.43.05-18.86,0-28.28,0-2.09.66-2.84,2.75-2.8,6.63.11,13.27,0,19.89.13,16.1.36,28.76,12.64,29.84,29.49,1.05,16.32-10.71,29.2-25,31.92a28.87,28.87,0,0,1-5.48.5H215.93c-3.51,0-3.51,0-3.51-3.39Zm15.72,25.68c3.29-.13,7.12.25,10.93-.54A26,26,0,0,0,259.53,74.3C259,63,250,52.68,238.25,50.85c-6.35-1-12.76-.21-19.13-.46-1.33,0-1.35.68-1.35,1.66,0,16,0,32,0,47.93,0,1.55.57,1.87,2,1.82C222.33,101.72,225,101.78,228.14,101.78Z" transform="translate(-15.74 -12.2)"/><path class="cls-3" d="M303.58,82.65c-7.26,0-14.53.09-21.79-.06-2.32,0-2.7.78-2.33,2.77a22.17,22.17,0,0,0,23.42,18,23.52,23.52,0,0,0,12.67-5.14c1-.74,2-2.2,3.35-.39s1.25,3-.54,4.45c-11.63,9.68-29.58,7.4-38.93-4.94A27.44,27.44,0,0,1,286,57.9c13.31-8.78,31.21-4.72,38.9,8.86a30.33,30.33,0,0,1,3.74,13.47c.11,2-.68,2.46-2.49,2.44C318.6,82.61,311.09,82.65,303.58,82.65Zm-2.4-5.2h19.64c2.86,0,2.93-.1,2.23-2.76a22.78,22.78,0,0,0-21.86-16.53c-10,.1-19.38,7.66-21.61,17.27-.39,1.67.13,2.06,1.72,2C287.93,77.41,294.55,77.45,301.18,77.45Z" transform="translate(-15.74 -12.2)"/><path class="cls-1" d="M430.64,96.71a27.38,27.38,0,1,1-41.89-35c10.46-10.94,30.19-12.49,41.89,3.45,0-3.13.08-5.79,0-8.43-.08-1.88.58-2.54,2.48-2.51s2.6.4,2.6,2.4q-.09,24,0,47.93c0,2-.71,2.63-2.68,2.64s-2.44-.86-2.38-2.62C430.71,101.92,430.64,99.31,430.64,96.71ZM386.26,80.35c-.17,12.3,9.68,22.79,21.57,23A23,23,0,0,0,431,81c.25-11.83-10.53-22.8-22.51-22.9C396.8,58,386.42,68.4,386.26,80.35Z" transform="translate(-15.74 -12.2)"/><path class="cls-4" d="M69.78,82c1.68,0,3.35,0,5,0,.91,0,1.94.31,2-1.26,0-.95,1-.61,1.55-.55,1.62.19,2.16-.5,1.94-2s.33-1.9,1.86-1.83c14.27.66,28.56.33,42.84.37,3.9,0,7.81-.19,11.71-.38,1.23-.06,1.86.26,1.66,1.55-.23,1.53.47,1.9,1.89,1.83,2.31-.11,4.63-.05,6.94-.06.87,0,1.63-.09,1.53-1.27s.84-1.06,1.61-1.09c.94,0,1,.59,1,1.27,0,2.8,0,5.59,0,8.38,0,.79-.06,1.45-1.12,1.38-.72-.05-1.55.11-1.46-1,.1-1.34-.74-1.33-1.69-1.33-2.39,0-4.79,0-7.18-.08-1.13-.05-1.66.34-1.49,1.48.25,1.64-.5,2-2,1.93-8.93-.21-17.86-.41-26.8-.41s-17.86.21-26.79.4c-1.65,0-2.85-.07-2.49-2.2A4.19,4.19,0,0,0,80,85.71c-2.39.61-3.35-2.34-5.65-2.18-3.25.21-6.53.18-9.8.21-.7,0-1.77.37-1.7-1s1-.75,1.64-.77C66.27,81.93,68,82,69.78,82Z" transform="translate(-15.74 -12.2)"/><path class="cls-1" d="M61.64,112.66c.66,0,1.22,0,1.77,0a2.28,2.28,0,0,1,2.2,1.18,2.33,2.33,0,0,1-.6,2.65,9.66,9.66,0,0,1-7.47,3.19,2.49,2.49,0,0,1-2.58-1.4,2.16,2.16,0,0,1,1-2.71c2.72-1.52,1.59-3.08.43-4.93-2.71-4.33-5.31-8.73-7.89-13.13a2.06,2.06,0,0,0-2.57-1.28c-8.46,1.48-15.54-3.8-16.71-12.38-.21-1.58-.81-2.26-2.37-2.23a12.07,12.07,0,0,1-2.62-.17c-1.59-.3-2.71-.19-3,1.81a2.43,2.43,0,0,1-2.37,2.31c-1.32,0-1.93-1.09-2.34-2.12a9.87,9.87,0,0,1,0-7.69A2.43,2.43,0,0,1,18.64,74c1.08,0,1.67.8,2.18,1.64.08.14.14.29.22.43.7,1.06.09,3.13,1.23,3.35a26.62,26.62,0,0,0,6.42-.14c.8,0,.84-.84,1.07-1.42,2.87-7.32,8.55-10.58,16.47-9.4a1.62,1.62,0,0,0,2-.85q4.62-7.83,9.36-15.59c.56-.91.29-1.35-.47-1.93-1.25-1-2.84-2-2-3.87s2.75-1.28,4.29-1.11a9,9,0,0,1,5.27,2.61c.83.79,1.48,1.76,1,3A2.19,2.19,0,0,1,63,52c-3.29-1.08-4,1.1-5,3.38-1.87,4.49-3.87,8.93-5.9,13.34-.56,1.24-.62,2,.53,3,6.53,6.12,6.44,15.14-.16,21.29a1.9,1.9,0,0,0-.5,2.62q3.48,7.62,6.79,15.3C59.39,112.34,60,113.47,61.64,112.66ZM49.18,77.34a5.07,5.07,0,0,0-5,4.85,5,5,0,0,0,4.88,4.92,4.89,4.89,0,0,0,.08-9.77ZM35.75,84.76c-1.8.1-2.82.94-2.68,2.86.18,2.43,3.13,5.1,5.54,5a2.49,2.49,0,0,0,2.59-3C40.89,87.35,38.07,84.79,35.75,84.76Zm.38-7.13c2.24-.45,4.28-1.42,5.39-3.68a1.71,1.71,0,0,0-1.76-2.66,6.61,6.61,0,0,0-5.57,3.51C33.32,76.35,34.24,77.65,36.13,77.63Z" transform="translate(-15.74 -12.2)"/><path class="cls-1" d="M356.07,99.11c2.56-6.19,5-12,7.36-17.79q7-17,14-34A3.35,3.35,0,0,1,382,45.18c1.44.5,1.09,1.55.67,2.55-1.39,3.39-2.81,6.77-4.21,10.15L359.1,104.44c-.57,1.36-.89,2.89-3,2.86s-2.43-1.47-3-2.87L330,49.32a5.35,5.35,0,0,1-.24-.67c-.26-1.18-1.78-2.54.23-3.44a3.28,3.28,0,0,1,4.47,1.93q6.33,15.22,12.62,30.47C350,84.65,353,91.68,356.07,99.11Z" transform="translate(-15.74 -12.2)"/><path class="cls-1" d="M481.17,107.13c-1.78.51-2.9-.79-4-2.46-4.08-6.3-8.28-12.51-12.34-18.82-1-1.58-1.48-1.56-2.49,0-4.16,6.53-8.43,13-12.66,19.46-1,1.48-4.72,2.51-6.15,1.67-1.08-.64-.43-1.38,0-2,1.73-2.59,3.51-5.15,5.27-7.71,3.52-5.14,7-10.32,10.61-15.37,1.06-1.47.87-2.4-.07-3.76q-7-10-13.8-20.14c-.62-.94-2.47-1.87-1-3.38,1-1,4.64-.42,5.48.74s1.59,2.39,2.38,3.59c3.32,5.07,6.67,10.12,9.93,15.24.95,1.49,1.46,1.68,2.53.05,3.87-6,7.91-11.8,11.81-17.73a4.41,4.41,0,0,1,4.38-2.28c.76.07,1.77-.26,2.16.63s-.34,1.49-.78,2.14Q476,66.5,469.45,76c-2.82,4.1-2.84,4.1,0,8.25q6.84,10,13.69,19.94c.5.73,1.55,1.43.91,2.49S482.45,107,481.17,107.13Z" transform="translate(-15.74 -12.2)"/></svg>