<svg id="Layer_1" data-name="Layer 1" xmlns="http://www.w3.org/2000/svg" viewBox="0 0 374.11 396.85"><defs><style>.cls-1{fill:#d8453f;}.cls-1,.cls-10,.cls-2,.cls-3,.cls-4,.cls-5,.cls-6,.cls-7,.cls-8,.cls-9{fill-rule:evenodd;}.cls-12,.cls-2{fill:#272626;}.cls-3{fill:#efc41c;}.cls-4{fill:#ef4237;}.cls-5{fill:#fff;}.cls-6{fill:#3a3a39;}.cls-7{fill:#1a1a1a;}.cls-11,.cls-8{fill:#010101;}.cls-9{fill:#79a740;}.cls-10{fill:#f0d04e;}.cls-13{fill:#ef4538;}</style></defs><path class="cls-1" d="M252.57,188.51C282.23,207.3,309,216.21,332,214.1c4,81.22-26,129.18-79.13,149.19-51.33-18.73-81.68-64.63-79.43-150.43,27,1.43,53.46-4.42,79.12-24.35Zm67.32,44.22-99,98a96.39,96.39,0,0,0,32,18.92c42.83-16.14,67.83-53.79,67-116.87Zm-107,89.74L312.44,224c-17.71-.4-37.84-7.87-59.83-21.82h0c-21.63,16.83-44,21.75-66.73,20.54-1.2,45.85,8.64,78.19,27,99.75Z" transform="translate(-62.94 -51.57)"/><path class="cls-2" d="M234.41,235.38a5.52,5.52,0,1,0-4.27,8.6l4.33,5.78a30.71,30.71,0,0,0-7.09,7.21l-.43.62-8.45-2.76a7.38,7.38,0,0,0-.92-3.05,7.48,7.48,0,1,0-.93,8.61l7.5,2.45a30.31,30.31,0,0,0-2.3,12.49l-5.61,1.06a5.51,5.51,0,1,0,1.22,5.73l5.11-1a30.64,30.64,0,0,0,2.36,6.77l-12.61,10A5.51,5.51,0,1,0,216.6,302L228,293c.28.37.58.74.88,1.1,15.8-14.75,29.09-28.12,43.53-42.6-.44-.38-.89-.74-1.34-1.1l8.11-12.14a7.72,7.72,0,0,0,2.54,0,7.5,7.5,0,1,0-7.44-3.27l-8.16,12.25a30.27,30.27,0,0,0-10.7-3.12l-.42-7.54a5.52,5.52,0,1,0-5.89,0l.42,7.55c-.81.07-1.63.18-2.44.32a31.11,31.11,0,0,0-7.56,2.36l-4.64-6.19a5.48,5.48,0,0,0-.52-5.2Zm9.61,25a7.08,7.08,0,1,1-5.75,8.19,7.07,7.07,0,0,1,5.75-8.19Zm9.6,49.61.18,3.67a6,6,0,1,0,8.38,1.37,5.9,5.9,0,0,0-2.52-2l-.43-8.52L253.62,310Zm5.8-5.71a30.31,30.31,0,0,0,12.68-6.37l2.94,2.94,4.09,4.06a7.9,7.9,0,0,0-.49,2.08,7.5,7.5,0,1,0,4.58-6.26l-4.06-4-3-3c.43-.53.84-1.08,1.23-1.64a30.37,30.37,0,0,0,3.91-7.65l14.17,2.38a5.5,5.5,0,1,0,.88-5.81l-11.42-1.92c-8.49,8.35-16.69,16.49-25.52,25.18Z" transform="translate(-62.94 -51.57)"/><path class="cls-3" d="M251.75,125.73a4.43,4.43,0,1,1,0,8.86H240.68a4.43,4.43,0,1,1,0-8.85h11.07ZM262.4,94.79a4.42,4.42,0,0,1-4.4,7.66l-9.58-5.53a4.42,4.42,0,0,1,4.41-7.66l9.57,5.53Zm24.72-21.48a4.42,4.42,0,0,1-7.66,4.43l-5.52-9.57a4.43,4.43,0,0,1,7.66-4.44l5.52,9.58Zm91.44,29.14a4.42,4.42,0,1,1-4.41-7.66l9.57-5.53a4.42,4.42,0,1,1,4.41,7.66l-9.57,5.53ZM357.09,77.74a4.42,4.42,0,0,1-7.66-4.43L355,63.73a4.43,4.43,0,0,1,7.67,4.44l-5.53,9.57ZM326.15,67.07a4.44,4.44,0,0,1-8.87,0V56a4.44,4.44,0,1,1,8.87,0V67.07Zm58.65,67.54a4.44,4.44,0,0,1,0-8.87h11.06a4.44,4.44,0,0,1,0,8.87Z" transform="translate(-62.94 -51.57)"/><path class="cls-4" d="M316,84.64h4.5a40.33,40.33,0,0,1,40.21,40.21v40.77h-84.9V124.84A40.3,40.3,0,0,1,316,84.64Z" transform="translate(-62.94 -51.57)"/><path class="cls-5" d="M295.15,152H287V141.39c0-3,0-3.3,0-3.64-.12-11.38-.23-21.07,9.31-31a32.91,32.91,0,0,1,9.38-6.77c-8.14,16.2-10.85,33.48-10.49,52.05Z" transform="translate(-62.94 -51.57)"/><path class="cls-6" d="M269.08,165.37h98.84a8.48,8.48,0,0,1,8.46,8.46v6.22a8.48,8.48,0,0,1-8.46,8.46H269.08a8.48,8.48,0,0,1-8.47-8.46v-6.22a8.48,8.48,0,0,1,8.47-8.46Z" transform="translate(-62.94 -51.57)"/><path class="cls-7" d="M189.65,127.7c-.25-.3-.52-.59-.8-.87a13.17,13.17,0,0,0-4.26-2.85,12.84,12.84,0,0,0-5-1h-13.8a13.24,13.24,0,0,0-13.18,13.12v8.13h-8.13a13.13,13.13,0,0,0-9.29,3.88,13.38,13.38,0,0,0-3.19,5.13l0-.06c-2.43,8.73-.9,18-.78,18.69v0l.16.41a13,13,0,0,0,2.69,6.9v.08a12.68,12.68,0,0,0,1.1,1.24,13.07,13.07,0,0,0,4.26,2.85,12.81,12.81,0,0,0,5,1l4.62,0c-1.95,1.87-3.78,3.65-5.43,5.28l-18,17.82-14.83-14.29c-6.68-6.42-14.91-13.45-22.67-21.15h0c-2.54-2.51-5-5.07-7.38-7.72,0,0-.08-.09-.11-.14-2.72-3.13-4.81-5.85-6-7.54l-.49-.67-.55-.77c-.19-.26-.28-.4-.28-.4-5.9-8.41-10-17.45-10.29-27.18C62.21,108.75,77,96.72,94.07,96.93c15.22.21,21.65,7.82,31.56,17.43,8.27-8.62,14.06-16.06,26.79-17.52C171.32,94.66,189,109.5,189.65,127.7Z" transform="translate(-62.94 -51.57)"/><path class="cls-1" d="M165.76,131.45h13.77a4.64,4.64,0,0,1,4.64,4.64v16.64h16.61a4.64,4.64,0,0,1,4.64,4.64v13.8a4.65,4.65,0,0,1-4.64,4.65H184.2v16.25a4.64,4.64,0,0,1-4.64,4.64h-13.8a4.65,4.65,0,0,1-4.65-4.64V175.82H144.48a4.65,4.65,0,0,1-4.64-4.65V157.39a4.64,4.64,0,0,1,4.64-4.64h16.6V136.09a4.64,4.64,0,0,1,4.64-4.64Z" transform="translate(-62.94 -51.57)"/><path class="cls-8" d="M319.28,433.08h83.26v3.24h0v.08c.15,3-.34,5.4-1.72,6.81s-3.75,2-7.41,1.6a1.42,1.42,0,0,0-.29,0H326.75c-2.68.09-4.52-.48-5.67-1.6a7.27,7.27,0,0,1-1.79-5v-5.08Zm83.26-53.32H319.28v-3.9h0v-.11c-.73-11.21,4.42-18.11,10.43-26.18,1.09-1.46,2.21-3,3.37-4.6h55.54c1,1.42,2.13,2.89,3.22,4.35,5.56,7.4,10.83,14.42,10.7,24.19a1,1,0,0,0,0,.17v6.08Zm-3.87-50.89v12.52a3.83,3.83,0,0,0,1.1-.77,3.76,3.76,0,0,0,1.11-2.67v-5.64a3.8,3.8,0,0,0-1.11-2.67,3.58,3.58,0,0,0-1.1-.77Zm-2.33,12.86v-13.2h-5.72v13.2Zm-70.16-13.2v13.2h5.11a1.59,1.59,0,0,1,.61-.22v-13Zm-2.33,12.86V328.87a3.7,3.7,0,0,0-1.1.77,3.76,3.76,0,0,0-1.11,2.67V338a3.8,3.8,0,0,0,1.11,2.67,3.86,3.86,0,0,0,1.1.76Zm10.39-12.86v13H340v-13Zm8.05,0v13H348v-13Zm8.06,0v13h5.72v-13Zm8,0v13h5.72v-13Zm8.06,0v13h5.72v-13Zm8.05,0v13h5.72v-13Zm8.05,0v13h5.72v-13Zm-57.15-3h71.7a6.79,6.79,0,0,1,6.77,6.77V338a6.79,6.79,0,0,1-6.77,6.77h-4.37c.63.86,1.26,1.69,1.88,2.52,5.92,7.88,11.54,15.37,11.4,26.31,0,0,0,.09,0,.13v62.64h0c.19,4-.6,7.17-2.72,9.33s-5.43,3.14-10.25,2.63H326.8c-3.66.11-6.33-.8-8.15-2.58s-2.7-4.27-2.84-7.39a1.55,1.55,0,0,1,0-.22V375.86h0c-.78-12.42,4.71-19.78,11.11-28.37.68-.91,1.37-1.83,2-2.76h-3.55a6.79,6.79,0,0,1-6.77-6.77v-5.65a6.79,6.79,0,0,1,6.77-6.77ZM357.61,389h6.53a2.23,2.23,0,0,1,2.22,2.22v9.73h9.73a2.23,2.23,0,0,1,2.22,2.22v6.53a2.23,2.23,0,0,1-2.22,2.22h-9.73v9.73a2.23,2.23,0,0,1-2.22,2.22h-6.53a2.23,2.23,0,0,1-2.22-2.22v-9.73h-9.73a2.23,2.23,0,0,1-2.22-2.22v-6.53a2.23,2.23,0,0,1,2.22-2.22h9.73v-9.73a2.23,2.23,0,0,1,2.22-2.22Z" transform="translate(-62.94 -51.57)"/><path class="cls-9" d="M195.84,421.16v1.52a23.65,23.65,0,0,1-23.58,23.58h0a23.65,23.65,0,0,1-23.57-23.58v-1.52ZM181.1,340.39a23.64,23.64,0,0,1,14.75,21.85v3.23H148.69v-3.23a23.64,23.64,0,0,1,14.75-21.85Z" transform="translate(-62.94 -51.57)"/><polygon class="cls-10" points="132.9 316.58 132.9 366.92 85.74 366.92 85.74 316.58 132.9 316.58"/><path class="cls-6" d="M161.71,312.35h20.71a3.83,3.83,0,0,1,3.83,3.82h0a3.84,3.84,0,0,1-3.83,3.83H177.9v5.42h11.28v-1.25a2.85,2.85,0,0,1,2.85-2.84h0a2.84,2.84,0,0,1,2.84,2.84V334.8a2.86,2.86,0,0,1-2.84,2.84h0a2.86,2.86,0,0,1-2.85-2.84v-1H177.9v4.62H165.84V320H161.7a3.84,3.84,0,0,1-3.83-3.83h0a3.85,3.85,0,0,1,3.84-3.82Z" transform="translate(-62.94 -51.57)"/><path class="cls-6" d="M186,403.51h-7.62a4.77,4.77,0,0,1,.79-2.12,10.83,10.83,0,0,1,2.49-2.34,8.28,8.28,0,0,0,1.43-1.25,1.47,1.47,0,0,0,.31-.82,1,1,0,0,0-.3-.72,1.08,1.08,0,0,0-.78-.29,1.05,1.05,0,0,0-.79.3,1.88,1.88,0,0,0-.42,1.08l-2.53-.21a4,4,0,0,1,.54-1.68,2.56,2.56,0,0,1,1.12-.92,5,5,0,0,1,2-.32,5.49,5.49,0,0,1,2.08.31,2.47,2.47,0,0,1,1.59,2.35,2.83,2.83,0,0,1-.49,1.59,6.78,6.78,0,0,1-1.78,1.67c-.51.35-.85.6-1,.74s-.37.33-.61.56h4v2.07Zm-27.4-11.2a8.4,8.4,0,0,1,9.16-9.17q4.44,0,6.83,2.37a9,9,0,0,1,2.39,6.66,10.91,10.91,0,0,1-1,5.1,7.48,7.48,0,0,1-3,3.1,10,10,0,0,1-4.94,1.11,11.38,11.38,0,0,1-5-1,7.54,7.54,0,0,1-3.19-3,10.08,10.08,0,0,1-1.21-5.18Zm5.47,0a6,6,0,0,0,1,3.85,3.79,3.79,0,0,0,5.46,0c.66-.77,1-2.14,1-4.13a5.5,5.5,0,0,0-1-3.66,3.47,3.47,0,0,0-2.75-1.15,3.34,3.34,0,0,0-2.67,1.18,6,6,0,0,0-1,3.87Z" transform="translate(-62.94 -51.57)"/><path class="cls-11" d="M393.92,235.47h1.85V224.21a.61.61,0,0,1,.6-.61h5.81a1.85,1.85,0,0,1-.13-.66V211.88H381.4a2.09,2.09,0,0,1-2.15-1.5l-4-7.89-.09-.21a2,2,0,0,1-.13-.72,2.13,2.13,0,0,1,.5-1.36,2.33,2.33,0,0,1,.79-.61,2.26,2.26,0,0,1,1.11-.28h44.63a2.4,2.4,0,0,1,1.68.69,1.24,1.24,0,0,1,.18.22,2.35,2.35,0,0,1,.5,1.46v7.78a2.38,2.38,0,0,1-2.35,2.42h-5.73v11a2,2,0,0,1-.15.72H422a.61.61,0,0,1,.61.61h0v11.26h2.32a12.07,12.07,0,0,1,8.56,3.59h0a12.12,12.12,0,0,1,3.6,8.57v49.89a12.17,12.17,0,0,1-12.14,12.14h-31a12.08,12.08,0,0,1-8.58-3.59l-.1-.11a12.17,12.17,0,0,1-3.47-8.46V247.62a12.15,12.15,0,0,1,3.6-8.58h0a12.07,12.07,0,0,1,8.56-3.59Zm12.57,22.35h5.93a2,2,0,0,1,2,2v7.83h7.83a2,2,0,0,1,2,2v6a2,2,0,0,1-2,2H414.4v7.65a2,2,0,0,1-2,2h-5.89a2,2,0,0,1-2-2v-7.65h-7.86a2,2,0,0,1-2-2v-6a2,2,0,0,1,2-2h7.84v-7.83a2,2,0,0,1,2-2Zm-21.09,37h48V250.34h-48Zm48,3.65H385.46a8.39,8.39,0,0,0,2.35,5l.09.09a8.49,8.49,0,0,0,6,2.5h31A8.54,8.54,0,0,0,433.37,298.44Zm-47.91-51.75h47.91a8.49,8.49,0,0,0-2.44-5.07h0a8.49,8.49,0,0,0-6-2.49h-31a8.52,8.52,0,0,0-8.45,7.57ZM381,212.52c1.33,5.7,5.33,8.55,5.33,11.39s-1.33,5.7-5.33,5.7-5.31-2.84-5.31-5.7,4-5.69,5.39-11.39Zm31.8-.64H405.7v11.06a1.84,1.84,0,0,1-.12.66h7.32a1.79,1.79,0,0,1-.15-.72v-11Z" transform="translate(-62.94 -51.57)"/><path class="cls-12" d="M127.09,259.75v81.78a22.23,22.23,0,0,1-44.45,0V259.75H78a3.29,3.29,0,0,1-2.32-1,3.33,3.33,0,0,1-.25-.28,3.29,3.29,0,0,1-.71-2V244.16a3.28,3.28,0,0,1,1-2.28h0a3.33,3.33,0,0,1,2.3-1h53.81a3.23,3.23,0,0,1,2.31,1h0a3.29,3.29,0,0,1,1,2.32v12.27a3.27,3.27,0,0,1-1,2.32,1.69,1.69,0,0,1-.32.27,3.21,3.21,0,0,1-2,.69ZM122,305h-7.15a2.57,2.57,0,0,1,0-5.13H122v-7.28h-12.8a2.56,2.56,0,0,1,0-5.12H122v-7.28H114.8a2.57,2.57,0,0,1,0-5.13H122V257.19a2.58,2.58,0,0,1,2.57-2.56h5.41V246H79.8v8.62h5.41a2.56,2.56,0,0,1,2.56,2.56v84.34a17.09,17.09,0,1,0,34.18,0V305Z" transform="translate(-62.94 -51.57)"/><path class="cls-13" d="M116.6,311.29v28.06a11.76,11.76,0,0,1-11.74,11.74h0a11.77,11.77,0,0,1-11.74-11.74V311.29Z" transform="translate(-62.94 -51.57)"/></svg>