<?xml version="1.0" encoding="utf-8"?><svg version="1.1" id="Layer_1" xmlns="http://www.w3.org/2000/svg" xmlns:xlink="http://www.w3.org/1999/xlink" x="0px" y="0px" viewBox="0 0 55.67 122.88" style="enable-background:new 0 0 55.67 122.88" xml:space="preserve"><style type="text/css">.st0{fill-rule:evenodd;clip-rule:evenodd;}</style><g><path class="st0" d="M3.92,94.03h39.47c-0.88,0.75-1.45,1.37-1.45,3.12s1.83,4.08,4.08,4.08c2.25,0,4.08-2.33,4.08-4.08 s-0.56-2.37-1.45-3.12h3.2v15.77l0,0c0,0.03,0,0.05,0,0.09c0.16,3.29-0.37,5.84-1.86,7.36c-1.48,1.5-4.05,2.16-8.01,1.73 c-0.11-0.02-0.2-0.02-0.31-0.02H12.05v0.01H12c-2.9,0.1-4.89-0.52-6.13-1.73c-1.22-1.19-1.83-3.05-1.94-5.45c0-0.02,0-0.04,0-0.08 L3.92,94.03L3.92,94.03z M40.01,3.49v13.69h4.07c2.43,0,4.41-1.99,4.41-4.41V7.9c0-2.43-1.99-4.41-4.41-4.41H40.01L40.01,3.49z M36.55,17.18V3.49H29v13.69H36.55L36.55,17.18z M25.54,17.18V3.49H18v13.69H25.54L25.54,17.18z M14.53,17.18V3.49h-2.86 c-2.43,0-4.41,1.99-4.41,4.41v4.87c0,2.43,1.99,4.41,4.41,4.41H14.53L14.53,17.18z M44.64,93.3c-0.38-0.54-0.8-1.08-1.26-1.63 c-0.14,0.01-0.29,0.01-0.45,0.02C24.99,92.29,13.62,82.38,20,57.48c12.62,6.84,31.89,8.08,26.02,31.5 c-0.22,0.87-0.38,1.46-0.64,1.87l0,0c0.41,0.79,0.8,1.52,1.15,2.24c-0.16-0.02-0.17-0.03-0.5-0.03 C45.7,93.06,45.08,93.15,44.64,93.3L44.64,93.3z M44.17,105.52c2.25,0,4.08,1.83,4.08,4.08c0,2.25-1.83,4.08-4.08,4.08 c-2.25,0-4.08-1.83-4.08-4.08C40.08,107.35,41.91,105.52,44.17,105.52L44.17,105.52z M34.86,96.3c2.25,0,4.08,1.83,4.08,4.08 s-1.83,4.08-4.08,4.08c-2.25,0-4.08-1.83-4.08-4.08S32.61,96.3,34.86,96.3L34.86,96.3z M30.92,108.05c2.25,0,4.08,1.83,4.08,4.08 s-1.83,4.08-4.08,4.08c-2.25,0-4.08-1.83-4.08-4.08S28.67,108.05,30.92,108.05L30.92,108.05z M22.06,97.48 c2.25,0,4.08,1.83,4.08,4.08c0,2.25-1.83,4.08-4.08,4.08c-2.25,0-4.08-1.83-4.08-4.08C17.98,99.31,19.81,97.48,22.06,97.48 L22.06,97.48z M14.17,108.99c2.25,0,4.08,1.83,4.08,4.08c0,2.25-1.83,4.08-4.08,4.08c-2.25,0-4.08-1.83-4.08-4.08 C10.09,110.82,11.92,108.99,14.17,108.99L14.17,108.99z M9.55,95.81c2.25,0,4.08,1.83,4.08,4.08c0,2.25-1.83,4.08-4.08,4.08 c-2.25,0-4.08-1.83-4.08-4.08C5.47,97.64,7.29,95.81,9.55,95.81L9.55,95.81z M41.34,86.28c-2.82-10.13-13.51-15.2-18.02-22.55 C27.43,76.51,30.81,76.54,41.34,86.28L41.34,86.28L41.34,86.28L41.34,86.28z M3.92,53.91C3.92,35.05,4.81,35.8,15.34,21h24.99 C50.41,35.06,51.86,35.8,51.86,53.91H3.92L3.92,53.91z M10.55,0H46c2.01,0,3.84,0.82,5.17,2.15c1.33,1.33,2.15,3.16,2.15,5.17v6.11 c0,2.01-0.82,3.84-2.15,5.17c-1.33,1.33-3.16,2.15-5.17,2.15h-1.22c0.68,0.93,1.36,1.83,2.03,2.72c6.4,8.52,8.97,17.17,8.82,29 c0,0.04,0.01,0.1,0.01,0.14v57.2l0,0c0.2,4.28-0.65,7.75-2.94,10.09c-2.29,2.33-5.87,3.39-11.08,2.84H12.05v-0.01 c-3.96,0.12-6.84-0.87-8.81-2.79c-1.96-1.9-2.92-4.62-3.07-7.99c-0.01-0.08-0.01-0.15-0.01-0.24V54.95l0,0 c-0.84-13.43,1.59-21.94,8.51-31.23c0.74-0.98,1.48-1.98,2.22-2.98h-0.33c-2.01,0-3.84-0.82-5.17-2.15 c-1.33-1.33-2.15-3.16-2.15-5.17V7.32c0-2.01,0.82-3.84,2.15-5.17C6.71,0.82,8.54,0,10.55,0L10.55,0L10.55,0z"/></g></svg>