<?xml version="1.0" encoding="utf-8"?>
<!-- Generator: Adobe Illustrator 25.2.3, SVG Export Plug-In . SVG Version: 6.00 Build 0)  -->
<svg version="1.1" id="Layer_1" xmlns="http://www.w3.org/2000/svg" xmlns:xlink="http://www.w3.org/1999/xlink" x="0px" y="0px"
	 viewBox="0 0 167.7 205.2" style="enable-background:new 0 0 167.7 205.2;" xml:space="preserve">
<style type="text/css">
	.st0{fill-rule:evenodd;clip-rule:evenodd;fill:#1A1A1A;}
	.st1{fill-rule:evenodd;clip-rule:evenodd;fill:#56B320;}
	.st2{fill:#FFFFFF;}
</style>
<g>
	<path class="st0" d="M165.5,136.6c-0.4-1-1.5-1.6-2.6-1.4c-0.5,0.1-1,0.4-1.4,0.8l-1.8-0.6c0.2-1.4,0.2-2.7-0.1-4.1
		c-0.2-1.2-0.6-2.4-1.2-3.5l1.6-0.8c0.4,0.2,0.9,0.3,1.4,0.3c1.4-0.1,2.5-1.3,2.4-2.7c-0.1-1.4-1.3-2.5-2.7-2.4
		c-1.4,0.1-2.5,1.3-2.4,2.7c0,0,0,0,0,0l-1.6,0.8c-0.7-0.9-1.5-1.8-2.4-2.5l1.5-2.8c0.4,0.1,0.7,0.1,1.1,0c1.8-0.3,2.9-1.9,2.7-3.7
		c-0.3-1.7-1.9-2.9-3.7-2.7c-1.8,0.3-2.9,1.9-2.7,3.7c0.1,0.4,0.2,0.9,0.5,1.2l-1.5,2.8c-1.4-0.7-3-1.2-4.6-1.4l-0.2-1.7
		c1.1-0.7,1.5-2.1,0.8-3.3s-2.1-1.5-3.3-0.8c-0.8,0.5-1.3,1.4-1.2,2.4c0.1,0.7,0.5,1.4,1.1,1.8l0.2,1.6c-0.4,0-0.7,0.1-1.1,0.1
		c-1.1,0.2-2.2,0.5-3.3,1l-0.8-1.4c0.3-0.7,0.2-1.6-0.2-2.2l0,0c-0.7-1.1-2.2-1.4-3.3-0.6c-1.1,0.8-1.3,2.3-0.5,3.3
		c0.5,0.6,1.2,1,2,1l0.6,1.3c-1.2,0.9-2.2,1.9-3,3.1c-0.1,0.1-0.1,0.2-0.2,0.3l-2-0.8c0-0.5-0.2-0.9-0.4-1.3
		c-0.9-1.6-2.8-2.1-4.4-1.2c-1.6,0.9-2.1,2.9-1.2,4.4c0.9,1.6,2.8,2.1,4.4,1.2c0,0,0,0,0,0c0.3-0.2,0.6-0.4,0.8-0.7l1.6,0.7
		c-0.7,1.7-1.1,3.5-1.1,5.4h-1.6c-0.9-0.9-2.5-0.9-3.4,0c-0.5,0.5-0.8,1.2-0.7,2c0.2,1.3,1.5,2.2,2.8,1.9c0.8-0.1,1.5-0.7,1.8-1.5
		h1.4c0.2,1,0.6,2,1,2.9l-3,1.9c-0.4-0.1-0.8,0-1.2,0.1c-1.3,0.4-1.9,1.8-1.5,3c0.4,1.3,1.8,1.9,3,1.5c1.2-0.4,1.9-1.6,1.6-2.8
		l2.4-1.4c0.8,1.1,1.8,2,2.9,2.8c0.1,0.1,0.2,0.1,0.3,0.2l-0.8,1.8c-0.5,0-1,0.1-1.5,0.3c-1.6,0.8-2.3,2.7-1.6,4.3
		c0.8,1.6,2.7,2.3,4.3,1.6c1.6-0.8,2.3-2.7,1.6-4.3c-0.1-0.3-0.3-0.5-0.5-0.8l0.8-1.7c1.7,0.7,3.6,1.1,5.5,1l0.2,2.1
		c-1.1,0.8-1.4,2.4-0.6,3.6c0.8,1.1,2.4,1.4,3.6,0.6c1.1-0.8,1.4-2.4,0.6-3.6c-0.3-0.4-0.6-0.7-1.1-0.9l-0.2-2.1
		c2-0.5,3.9-1.4,5.5-2.8l1.4,1.4c-0.1,0.3-0.2,0.6-0.2,0.9c-0.2,1.8,1.1,3.3,2.9,3.5c1.8,0.2,3.3-1.1,3.5-2.9
		c0.2-1.8-1.1-3.3-2.9-3.5c-0.5,0-1.1,0-1.5,0.2l-1.4-1.4c0.2-0.2,0.4-0.5,0.5-0.7c0.7-1,1.3-2.1,1.7-3.3l2,0.6
		c0.5,1.2,1.9,1.8,3.1,1.3C165.5,139.2,166.1,137.8,165.5,136.6z M138.9,130.1L138.9,130.1c-0.4-2.1,1-4.1,3.1-4.5c0,0,0,0,0,0
		c2.1-0.4,4.1,1,4.5,3.1c0.4,2.1-1,4.1-3.1,4.5C141.3,133.6,139.3,132.2,138.9,130.1z M148.2,143.1c-2.1,0.4-4.1-1-4.4-3.1
		c-0.4-2.1,1-4.1,3.1-4.5c2.1-0.4,4.1,1,4.4,3.1C151.7,140.7,150.3,142.7,148.2,143.1z M153.3,132.6c-1.2,0.2-2.3-0.6-2.6-1.8
		c0-0.1,0-0.3,0-0.4c0-1.1,0.8-2,1.8-2.2c1.2-0.2,2.4,0.6,2.6,1.8C155.3,131.2,154.5,132.4,153.3,132.6z"/>
	<path class="st0" d="M49.4,106.1c-0.6-1.2-1.9-1.9-3.2-1.7c-0.7,0.1-1.3,0.5-1.7,1l-2.3-0.7c0.2-1.7,0.2-3.4-0.1-5
		c-0.3-1.5-0.8-3-1.4-4.4l2-1c0.5,0.3,1.1,0.4,1.7,0.4c1.8-0.1,3.1-1.6,3-3.4c-0.1-1.8-1.6-3.1-3.4-3c-1.7,0.1-3.1,1.6-3,3.3l-2,1
		c-0.9-1.1-1.9-2.2-3-3.1l1.8-3.5c2.2,0.4,4.3-1,4.7-3.2c0.4-2.2-1-4.3-3.2-4.7c-2.2-0.4-4.3,1-4.7,3.2c-0.1,0.4-0.1,0.9,0,1.4
		c0.1,0.6,0.3,1.1,0.6,1.6l-1.8,3.5c-1.8-0.9-3.7-1.5-5.7-1.7l-0.2-2c1.4-0.9,1.8-2.7,0.9-4.1c-0.9-1.4-2.7-1.8-4.1-0.9
		c-1.4,0.9-1.8,2.7-0.9,4.1c0.2,0.4,0.6,0.7,0.9,0.9l0.2,2c-0.4,0-0.9,0.1-1.3,0.2c-1.4,0.2-2.7,0.6-4,1.2l-1-1.8
		c0.4-0.9,0.3-2-0.3-2.8v0c-0.9-1.4-2.8-1.7-4.1-0.8c-1.4,0.9-1.7,2.8-0.8,4.1c0.6,0.9,1.6,1.4,2.6,1.3l0.8,1.6
		c-1.5,1.1-2.7,2.4-3.8,3.8l-0.2,0.3l-2.5-1c0-0.6-0.2-1.1-0.5-1.6C8.4,88.9,6,88.2,4,89.3c-1.9,1.1-2.6,3.5-1.5,5.5
		c1.1,1.9,3.5,2.6,5.5,1.5c0.4-0.2,0.8-0.5,1.1-0.8l2,0.8c-0.9,2.1-1.3,4.4-1.2,6.7h-2c-1.1-1.2-3-1.2-4.2,0c-1.2,1.1-1.2,3,0,4.2
		c1.1,1.2,3,1.2,4.2,0.1c0.3-0.3,0.6-0.7,0.7-1.1h1.7c0.3,1.2,0.7,2.4,1.2,3.6L7.7,112c-0.5-0.1-1.1-0.1-1.5,0.1
		c-1.5,0.5-2.3,2.2-1.8,3.7c0.5,1.5,2.2,2.3,3.8,1.8c1.4-0.5,2.2-2,1.9-3.5l3.1-1.8c1,1.4,2.2,2.5,3.6,3.5l0.3,0.2l-1,2.3
		c-2.2-0.1-4.1,1.6-4.2,3.8c-0.1,2.2,1.6,4.1,3.8,4.2c2.2,0.1,4.1-1.6,4.2-3.8c0-0.6-0.1-1.3-0.4-1.9c-0.2-0.3-0.4-0.7-0.6-1
		l0.9-2.2c2.2,0.9,4.5,1.3,6.8,1.2l0.2,2.6c-1.4,1-1.7,3-0.6,4.4c1,1.4,3,1.7,4.4,0.7c1.4-1,1.7-3,0.6-4.4c-0.3-0.4-0.8-0.8-1.3-1
		l-0.2-2.5c2.6-0.6,4.9-1.7,6.9-3.4l1.7,1.7c-0.1,0.4-0.2,0.7-0.3,1.1c-0.2,2.2,1.4,4.1,3.6,4.3c2.2,0.2,4.1-1.4,4.3-3.6
		c0.2-2.2-1.4-4.1-3.6-4.3c-0.6-0.1-1.3,0-1.9,0.3l-1.8-1.7c0.2-0.3,0.5-0.6,0.7-0.9c0.9-1.3,1.6-2.6,2.1-4.1l2.5,0.8
		c0.7,1.5,2.5,2.1,3.9,1.4C49.4,109.3,50.1,107.6,49.4,106.1z M16.4,98.2L16.4,98.2c-0.4-2.6,1.3-5.1,3.9-5.5
		c2.6-0.5,5.1,1.3,5.5,3.9c0.5,2.6-1.3,5.1-3.9,5.5C19.4,102.5,16.9,100.8,16.4,98.2z M28,114.3c-2.6,0.5-5.1-1.3-5.5-3.9
		c0,0,0,0,0,0c-0.5-2.6,1.3-5.1,3.9-5.5v0c2.6-0.5,5.1,1.3,5.5,3.9C32.4,111.4,30.6,113.9,28,114.3z M34.3,101.2
		c-1.5,0.3-2.9-0.7-3.2-2.2c0-0.2,0-0.3,0-0.5c0-1.3,0.9-2.5,2.2-2.7c0,0,0,0,0,0c1.5-0.3,2.9,0.7,3.2,2.2
		C36.8,99.6,35.8,101,34.3,101.2z"/>
	<g>
		<path class="st0" d="M121.8,153c-8.5,7.4-18.3,13.2-28.9,17.1c-18.5-6.8-33.4-18-43.9-34.8c1-1.7,1.5-3.6,1.7-5.5
			c0-0.4,0-0.8,0-1.2c0-1.3-0.2-2.6-0.6-3.9c9.3,18.7,24,30.8,42.7,37.6c10.6-3.9,20.4-9.9,28.5-17.8c0.1,0.2,0.2,0.3,0.4,0.4
			c-1,2.2-1.1,4.7-0.3,7v0.2C121.5,152.5,121.6,152.8,121.8,153L121.8,153z"/>
		<path class="st0" d="M149.9,104.5h-0.5c-2.6,0.3-5,1.6-6.7,3.6l-0.3-0.1c3.9-13.5,5.5-29.4,4.6-47.7c-15.7,1.4-34-4.6-54.3-17.5
			C76.8,55.1,60.4,59.6,43.8,59.6c-1.7,0-3.4,0-5.2-0.1c-0.1,3.5-0.1,6.9,0,10.2c-2.2-1-4.6-1.5-7-1.3c-0.2-4.7-0.2-9.5,0-14.5
			c20.8,1.1,41.2-3.4,61.1-18.8c22.9,14.5,43.6,21.4,61.4,19.8C154.9,73.7,153.5,90.2,149.9,104.5z"/>
		<path class="st1" d="M93.2,56.6c15.6,9.9,29.7,14.6,41.9,13.5c2.1,42.8-13.7,68-41.7,78.6l-0.5-0.2l-0.5,0.2
			c-28-10.5-43.8-35.8-41.7-78.6c12.1,1.1,26.3-3.6,41.8-13.5l0.4,0.3C92.8,56.8,93.2,56.6,93.2,56.6z"/>
		<path class="st2" d="M82.7,103.3c1.1,1,2.1,2,3.1,3.1c2.9-4.8,6.2-9.3,9.8-13.6c9.8-11.8,8.7-12.8,22.2-12.8l-1.9,2.1
			c-5.7,6.3-10.9,12.9-15.8,19.9c-4.7,6.8-8.9,13.9-12.7,21.2l-1.2,2.3l-1.1-2.3c-1.9-4.2-4.3-8.1-7.2-11.7c-2.9-3.6-6.2-6.7-10-9.3
			C69.8,95.9,79.3,100.3,82.7,103.3L82.7,103.3z"/>
	</g>
</g>
</svg>
