<?xml version="1.0" encoding="utf-8"?>
<!-- Generator: Adobe Illustrator 25.2.3, SVG Export Plug-In . SVG Version: 6.00 Build 0)  -->
<svg version="1.1" id="Layer_1" xmlns="http://www.w3.org/2000/svg" xmlns:xlink="http://www.w3.org/1999/xlink" x="0px" y="0px"
	 viewBox="0 0 167.7 136.9" style="enable-background:new 0 0 167.7 136.9;" xml:space="preserve">
<style type="text/css">
	.st0{fill-rule:evenodd;clip-rule:evenodd;fill:#8AE2F9;}
	.st1{fill-rule:evenodd;clip-rule:evenodd;fill:#56B320;}
	.st2{fill:#FFFFFF;}
</style>
<g>
	<path class="st0" d="M165.5,101.5c-0.4-1-1.5-1.6-2.6-1.4c-0.5,0.1-1,0.4-1.4,0.8l-1.8-0.6c0.2-1.4,0.2-2.7-0.1-4.1
		c-0.2-1.2-0.6-2.4-1.2-3.5l1.6-0.8c0.4,0.2,0.9,0.3,1.4,0.3c1.4-0.1,2.5-1.3,2.4-2.7c-0.1-1.4-1.3-2.5-2.7-2.4
		c-1.4,0.1-2.5,1.3-2.4,2.7l0,0l-1.6,0.8c-0.7-0.9-1.5-1.8-2.4-2.5l1.5-2.8c0.4,0.1,0.7,0.1,1.1,0c1.8-0.3,2.9-1.9,2.7-3.7
		c-0.3-1.7-1.9-2.9-3.7-2.7c-1.8,0.3-2.9,1.9-2.7,3.7c0.1,0.4,0.2,0.9,0.5,1.2l-1.5,2.8c-1.4-0.7-3-1.2-4.6-1.4l-0.2-1.7
		c1.1-0.7,1.5-2.1,0.8-3.3c-0.7-1.2-2.1-1.5-3.3-0.8c-0.8,0.5-1.3,1.4-1.2,2.4c0.1,0.7,0.5,1.4,1.1,1.8l0.2,1.6
		c-0.4,0-0.7,0.1-1.1,0.1c-1.1,0.2-2.2,0.5-3.3,1l-0.8-1.4c0.3-0.7,0.2-1.6-0.2-2.2l0,0c-0.7-1.1-2.2-1.4-3.3-0.6s-1.3,2.3-0.5,3.3
		c0.5,0.6,1.2,1,2,1l0.6,1.3c-1.2,0.9-2.2,1.9-3,3.1c-0.1,0.1-0.1,0.2-0.2,0.3l-2-0.8c0-0.5-0.2-0.9-0.4-1.3
		c-0.9-1.6-2.8-2.1-4.4-1.2c-1.6,0.9-2.1,2.9-1.2,4.4c0.9,1.6,2.8,2.1,4.4,1.2l0,0c0.3-0.2,0.6-0.4,0.8-0.7l1.6,0.7
		c-0.7,1.7-1.1,3.5-1.1,5.4h-1.6c-0.9-0.9-2.5-0.9-3.4,0c-0.5,0.5-0.8,1.2-0.7,2c0.2,1.3,1.5,2.2,2.8,1.9c0.8-0.1,1.5-0.7,1.8-1.5
		h1.4c0.2,1,0.6,2,1,2.9l-3,1.9c-0.4-0.1-0.8,0-1.2,0.1c-1.3,0.4-1.9,1.8-1.5,3c0.4,1.3,1.8,1.9,3,1.5s1.9-1.6,1.6-2.8l2.4-1.4
		c0.8,1.1,1.8,2,2.9,2.8c0.1,0.1,0.2,0.1,0.3,0.2l-0.8,1.8c-0.5,0-1,0.1-1.5,0.3c-1.6,0.8-2.3,2.7-1.6,4.3c0.8,1.6,2.7,2.3,4.3,1.6
		c1.6-0.8,2.3-2.7,1.6-4.3c-0.1-0.3-0.3-0.5-0.5-0.8l0.8-1.7c1.7,0.7,3.6,1.1,5.5,1l0.2,2.1c-1.1,0.8-1.4,2.4-0.6,3.6
		c0.8,1.1,2.4,1.4,3.6,0.6c1.1-0.8,1.4-2.4,0.6-3.6c-0.3-0.4-0.6-0.7-1.1-0.9l-0.2-2.1c2-0.5,3.9-1.4,5.5-2.8l1.4,1.4
		c-0.1,0.3-0.2,0.6-0.2,0.9c-0.2,1.8,1.1,3.3,2.9,3.5c1.8,0.2,3.3-1.1,3.5-2.9c0.2-1.8-1.1-3.3-2.9-3.5c-0.5,0-1.1,0-1.5,0.2
		l-1.4-1.4c0.2-0.2,0.4-0.5,0.5-0.7c0.7-1,1.3-2.1,1.7-3.3l2,0.6c0.5,1.2,1.9,1.8,3.1,1.3C165.5,104.1,166.1,102.7,165.5,101.5z
		 M138.9,95L138.9,95c-0.4-2.1,1-4.1,3.1-4.5l0,0c2.1-0.4,4.1,1,4.5,3.1s-1,4.1-3.1,4.5C141.3,98.5,139.3,97.1,138.9,95z M148.2,108
		c-2.1,0.4-4.1-1-4.4-3.1c-0.4-2.1,1-4.1,3.1-4.5s4.1,1,4.4,3.1C151.7,105.6,150.3,107.6,148.2,108z M153.3,97.5
		c-1.2,0.2-2.3-0.6-2.6-1.8c0-0.1,0-0.3,0-0.4c0-1.1,0.8-2,1.8-2.2c1.2-0.2,2.4,0.6,2.6,1.8C155.3,96.1,154.5,97.3,153.3,97.5z"/>
	<path class="st0" d="M49.4,71c-0.6-1.2-1.9-1.9-3.2-1.7c-0.7,0.1-1.3,0.5-1.7,1l-2.3-0.7c0.2-1.7,0.2-3.4-0.1-5
		c-0.3-1.5-0.8-3-1.4-4.4l2-1c0.5,0.3,1.1,0.4,1.7,0.4c1.8-0.1,3.1-1.6,3-3.4s-1.6-3.1-3.4-3c-1.7,0.1-3.1,1.6-3,3.3l-2,1
		c-0.9-1.1-1.9-2.2-3-3.1l1.8-3.5c2.2,0.4,4.3-1,4.7-3.2s-1-4.3-3.2-4.7c-2.2-0.4-4.3,1-4.7,3.2c-0.1,0.4-0.1,0.9,0,1.4
		c0.1,0.6,0.3,1.1,0.6,1.6l-1.8,3.5c-1.8-0.9-3.7-1.5-5.7-1.7l-0.2-2c1.4-0.9,1.8-2.7,0.9-4.1s-2.7-1.8-4.1-0.9s-1.8,2.7-0.9,4.1
		c0.2,0.4,0.6,0.7,0.9,0.9l0.2,2c-0.4,0-0.9,0.1-1.3,0.2c-1.4,0.2-2.7,0.6-4,1.2l-1-1.8c0.4-0.9,0.3-2-0.3-2.8l0,0
		c-0.9-1.4-2.8-1.7-4.1-0.8c-1.4,0.9-1.7,2.8-0.8,4.1c0.6,0.9,1.6,1.4,2.6,1.3l0.8,1.6c-1.5,1.1-2.7,2.4-3.8,3.8l-0.2,0.3l-2.5-1
		c0-0.6-0.2-1.1-0.5-1.6c-1-1.7-3.4-2.4-5.4-1.3c-1.9,1.1-2.6,3.5-1.5,5.5C3.6,61.6,6,62.3,8,61.2c0.4-0.2,0.8-0.5,1.1-0.8l2,0.8
		c-0.9,2.1-1.3,4.4-1.2,6.7h-2c-1.1-1.2-3-1.2-4.2,0c-1.2,1.1-1.2,3,0,4.2c1.1,1.2,3,1.2,4.2,0.1c0.3-0.3,0.6-0.7,0.7-1.1h1.7
		c0.3,1.2,0.7,2.4,1.2,3.6l-3.8,2.2c-0.5-0.1-1.1-0.1-1.5,0.1c-1.5,0.5-2.3,2.2-1.8,3.7s2.2,2.3,3.8,1.8c1.4-0.5,2.2-2,1.9-3.5
		l3.1-1.8c1,1.4,2.2,2.5,3.6,3.5l0.3,0.2l-1,2.3c-2.2-0.1-4.1,1.6-4.2,3.8c-0.1,2.2,1.6,4.1,3.8,4.2c2.2,0.1,4.1-1.6,4.2-3.8
		c0-0.6-0.1-1.3-0.4-1.9c-0.2-0.3-0.4-0.7-0.6-1l0.9-2.2c2.2,0.9,4.5,1.3,6.8,1.2l0.2,2.6c-1.4,1-1.7,3-0.6,4.4c1,1.4,3,1.7,4.4,0.7
		s1.7-3,0.6-4.4c-0.3-0.4-0.8-0.8-1.3-1l-0.2-2.5c2.6-0.6,4.9-1.7,6.9-3.4l1.7,1.7c-0.1,0.4-0.2,0.7-0.3,1.1
		c-0.2,2.2,1.4,4.1,3.6,4.3c2.2,0.2,4.1-1.4,4.3-3.6s-1.4-4.1-3.6-4.3c-0.6-0.1-1.3,0-1.9,0.3l-1.8-1.7c0.2-0.3,0.5-0.6,0.7-0.9
		c0.9-1.3,1.6-2.6,2.1-4.1l2.5,0.8c0.7,1.5,2.5,2.1,3.9,1.4C49.4,74.2,50.1,72.5,49.4,71z M16.4,63.1L16.4,63.1
		c-0.4-2.6,1.3-5.1,3.9-5.5c2.6-0.5,5.1,1.3,5.5,3.9c0.5,2.6-1.3,5.1-3.9,5.5C19.4,67.4,16.9,65.7,16.4,63.1z M28,79.2
		c-2.6,0.5-5.1-1.3-5.5-3.9l0,0c-0.5-2.6,1.3-5.1,3.9-5.5l0,0c2.6-0.5,5.1,1.3,5.5,3.9C32.4,76.3,30.6,78.8,28,79.2z M34.3,66.1
		c-1.5,0.3-2.9-0.7-3.2-2.2c0-0.2,0-0.3,0-0.5c0-1.3,0.9-2.5,2.2-2.7l0,0c1.5-0.3,2.9,0.7,3.2,2.2C36.8,64.5,35.8,65.9,34.3,66.1z"
		/>
	<path class="st0" d="M121.8,117.9c-8.5,7.4-18.3,13.2-28.9,17.1c-18.5-6.8-33.4-18-43.9-34.8c1-1.7,1.5-3.6,1.7-5.5v-1.2
		c0-1.3-0.2-2.6-0.6-3.9c9.3,18.7,24,30.8,42.7,37.6c10.6-3.9,20.4-9.9,28.5-17.8c0.1,0.2,0.2,0.3,0.4,0.4c-1,2.2-1.1,4.7-0.3,7v0.2
		C121.5,117.4,121.6,117.7,121.8,117.9z"/>
	<path class="st0" d="M149.9,69.4h-0.5c-2.6,0.3-5,1.6-6.7,3.6l-0.3-0.1c3.9-13.5,5.5-29.4,4.6-47.7c-15.7,1.4-34-4.6-54.3-17.5
		C76.8,20,60.4,24.5,43.8,24.5c-1.7,0-3.4,0-5.2-0.1c-0.1,3.5-0.1,6.9,0,10.2c-2.2-1-4.6-1.5-7-1.3c-0.2-4.7-0.2-9.5,0-14.5
		C52.4,19.9,72.8,15.4,92.7,0c22.9,14.5,43.6,21.4,61.4,19.8C154.9,38.6,153.5,55.1,149.9,69.4z"/>
</g>
<path class="st1" d="M93.2,21.5c15.6,9.9,29.7,14.6,41.9,13.5c2.1,42.8-13.7,68-41.7,78.6l-0.5-0.2l-0.5,0.2
	c-28-10.5-43.8-35.8-41.7-78.6c12.1,1.1,26.3-3.6,41.8-13.5l0.4,0.3C92.8,21.7,93.2,21.5,93.2,21.5z"/>
<path class="st2" d="M82.7,68.2c1.1,1,2.1,2,3.1,3.1c2.9-4.8,6.2-9.3,9.8-13.6c9.8-11.8,8.7-12.8,22.2-12.8l-1.9,2.1
	c-5.7,6.3-10.9,12.9-15.8,19.9c-4.7,6.8-8.9,13.9-12.7,21.2l-1.2,2.3l-1.1-2.3c-1.9-4.2-4.3-8.1-7.2-11.7c-2.9-3.6-6.2-6.7-10-9.3
	C69.8,60.8,79.3,65.2,82.7,68.2L82.7,68.2z"/>
</svg>
