<svg xmlns="http://www.w3.org/2000/svg" viewBox="0 0 600 600"><defs><style>.cls-1,.cls-3,.cls-4,.cls-5{fill:#ecd024;}.cls-1{opacity:0.2;}.cls-2,.cls-4{opacity:0.5;}.cls-5{opacity:0.3;}</style></defs><title>landing_lightning_bg</title><g id="Layer_1" data-name="Layer 1"><circle class="cls-1" cx="25.14" cy="399.93" r="4.02"/><g class="cls-2"><rect class="cls-3" x="74.78" y="123.27" width="154.58" height="0.45" transform="translate(-43.8 126.55) rotate(-39.97)"/><rect class="cls-3" x="160.19" y="139.89" width="0.45" height="168.91" transform="translate(-115.34 219.45) rotate(-53.42)"/><rect class="cls-3" x="256.78" y="45.76" width="0.45" height="102.43" transform="translate(54.41 282.48) rotate(-63.15)"/><polygon class="cls-3" points="228.44 274.78 228.03 274.59 302.5 120.01 302.91 120.2 228.44 274.78"/><rect class="cls-3" x="-27.92" y="275.46" width="206.29" height="0.45" transform="translate(-209.21 303.2) rotate(-80.26)"/><polygon class="cls-4" points="25.26 400.12 25.01 399.74 57.73 377.18 57.98 377.55 25.26 400.12"/><rect class="cls-4" x="146.77" y="330.22" width="0.45" height="282.72" transform="translate(-334.03 359.28) rotate(-59.55)"/><polygon class="cls-3" points="269.07 543.27 268.63 543.18 318.28 292.69 318.72 292.78 269.07 543.27"/><rect class="cls-4" x="257.02" y="302.67" width="63.16" height="0.45" transform="translate(-82.18 109.09) rotate(-18.79)"/><polygon class="cls-3" points="57.97 377.56 57.74 377.17 228.12 274.49 228.35 274.88 57.97 377.56"/><rect class="cls-3" x="243.24" y="269.37" width="0.45" height="48.99" transform="translate(-129.94 215.14) rotate(-38.45)"/><rect class="cls-4" x="52.83" y="344.98" width="210.89" height="0.45" transform="matrix(0.95, -0.31, 0.31, 0.95, -97.89, 64.85)"/><rect class="cls-3" x="162.8" y="365.85" width="125.22" height="0.45" transform="matrix(0.53, -0.85, 0.85, 0.53, -204.49, 362.61)"/><rect class="cls-4" x="108.41" y="325.48" width="0.45" height="168.09" transform="translate(-310.61 470.71) rotate(-83.45)"/><polygon class="cls-3" points="268.66 543.35 191.94 419.23 192.32 418.99 269.05 543.11 268.66 543.35"/><rect class="cls-3" x="230.9" y="263.8" width="114.27" height="0.45" transform="translate(-86.43 375.59) rotate(-59.1)"/><rect class="cls-3" x="342.15" y="210.34" width="0.45" height="138.96" transform="translate(-77.77 142) rotate(-21.1)"/><rect class="cls-3" x="342.72" y="283.04" width="0.45" height="71.3" transform="translate(-125.21 321.86) rotate(-43.29)"/><polygon class="cls-3" points="318.27 292.74 317.14 215 317.6 214.99 318.72 292.74 318.27 292.74"/><rect class="cls-3" x="276.93" y="383.34" width="107.21" height="0.45" transform="translate(-175.26 360.04) rotate(-46.58)"/><polygon class="cls-3" points="293.46 422.56 258.48 313.12 258.91 312.98 293.89 422.43 293.46 422.56"/><rect class="cls-5" x="201.98" y="425.09" width="274.78" height="0.45" transform="translate(-199.86 498.1) rotate(-59.1)"/><rect class="cls-4" x="400.4" y="283.49" width="68.63" height="0.45" transform="translate(-75.61 378.76) rotate(-43.68)"/><polygon class="cls-5" points="207.99 128.22 207.86 127.79 385 72.5 385.14 72.93 207.99 128.22"/><polygon class="cls-5" points="540.72 118.07 385.01 72.93 385.13 72.5 540.84 117.63 540.72 118.07"/><rect class="cls-5" x="549.01" y="116.77" width="0.45" height="67.6" transform="translate(-20.21 142.32) rotate(-14.5)"/><polygon class="cls-3" points="528.59 383.04 528.14 382.97 557.48 183.26 557.93 183.32 528.59 383.04"/><polygon class="cls-5" points="395.45 445.09 395 445.04 409.67 307.38 410.12 307.43 395.45 445.09"/><polygon class="cls-3" points="395.18 445.28 293.63 422.72 293.73 422.27 395.27 444.84 395.18 445.28"/><rect class="cls-3" x="447.65" y="281.08" width="0.45" height="165.48" transform="translate(-9.86 715.16) rotate(-76.6)"/><rect class="cls-3" x="400.86" y="383.34" width="127.5" height="0.45" transform="translate(-3.73 4.56) rotate(-0.56)"/><polygon class="cls-5" points="461.68 339.19 409.77 307.6 410.01 307.21 461.91 338.81 461.68 339.19"/><rect class="cls-5" x="385.81" y="407.04" width="137.31" height="0.45" transform="translate(0.68 815.28) rotate(-83.82)"/><polygon class="cls-5" points="376.07 485.9 376.01 485.46 447.1 475.3 447.16 475.75 376.07 485.9"/><rect class="cls-5" x="355.51" y="425.77" width="0.45" height="66.8" transform="translate(-205.89 310.96) rotate(-37.45)"/><rect class="cls-5" x="319.96" y="385.6" width="157.29" height="0.45" transform="translate(-151.36 313.11) rotate(-36.53)"/><polygon class="cls-5" points="229.16 168.73 207.72 128.11 208.12 127.9 229.56 168.52 229.16 168.73"/><polygon class="cls-5" points="285.75 175.62 229.33 168.85 229.39 168.4 285.81 175.17 285.75 175.62"/><polygon class="cls-5" points="285.66 175.59 207.81 128.2 208.04 127.81 285.89 175.2 285.66 175.59"/><polygon class="cls-5" points="338.78 142.9 212.41 128.23 212.46 127.78 338.83 142.45 338.78 142.9"/><rect class="cls-5" x="281.14" y="158.81" width="62.31" height="0.45" transform="translate(-36.99 187.64) rotate(-31.67)"/><rect class="cls-5" x="320.01" y="107.47" width="83.87" height="0.45" transform="translate(72.66 350.42) rotate(-56.57)"/><rect class="cls-3" x="397.26" y="71.8" width="0.45" height="168.83" transform="translate(-18.65 60.14) rotate(-8.45)"/><rect class="cls-3" x="434.49" y="223.04" width="0.45" height="53.64" transform="translate(38.86 557.61) rotate(-67.75)"/><polygon class="cls-3" points="367.6 344.73 367.18 344.56 409.68 239.62 410.1 239.79 367.6 344.73"/><rect class="cls-3" x="445.77" y="43.77" width="0.45" height="157.19" transform="translate(69.41 390.82) rotate(-50.83)"/><polygon class="cls-5" points="557.65 183.51 506.88 172.23 506.98 171.79 557.75 183.07 557.65 183.51"/><rect class="cls-3" x="329.43" y="352.31" width="195.9" height="0.45" transform="translate(-46.11 640.19) rotate(-70.8)"/><polygon class="cls-5" points="447.01 475.72 395.11 445.26 395.34 444.87 447.24 475.33 447.01 475.72"/><rect class="cls-3" x="363.17" y="465.15" width="44.92" height="0.45" transform="translate(-199.72 615.84) rotate(-64.77)"/><rect class="cls-5" x="515.68" y="186.45" width="42.29" height="0.45" transform="translate(-22.92 88.09) rotate(-9.19)"/><rect class="cls-5" x="442.81" y="224.81" width="89.87" height="0.45" transform="translate(6.23 463.12) rotate(-51.08)"/><polygon class="cls-3" points="459.74 260.13 459.34 259.91 506.73 171.9 507.13 172.12 459.74 260.13"/><polygon class="cls-5" points="515.75 190.16 506.73 172.11 507.13 171.91 516.16 189.96 515.75 190.16"/><rect class="cls-3" x="493.73" y="251.04" width="0.45" height="140.94" transform="translate(-94.1 282.17) rotate(-29.23)"/><circle class="cls-4" cx="228.48" cy="169.25" r="5.64"/><circle class="cls-3" cx="409.89" cy="239.71" r="3.38"/><circle class="cls-3" cx="268.46" cy="541.09" r="5.64"/><circle class="cls-3" cx="293.68" cy="421.37" r="5.92"/><rect class="cls-3" x="296.37" y="96.19" width="95.03" height="0.45" transform="translate(-2.28 184.3) rotate(-29.91)"/><rect class="cls-3" x="124.77" y="327.93" width="0.45" height="140.61" transform="translate(-292.4 399.35) rotate(-72.73)"/><rect class="cls-5" x="46.64" y="205.21" width="190.14" height="0.45" transform="translate(-68.55 70.99) rotate(-22.81)"/><rect class="cls-5" x="140.92" y="169.88" width="0.45" height="177.17" transform="translate(-138.79 349.91) rotate(-79.45)"/><rect class="cls-5" x="83.36" y="230.13" width="0.45" height="84.08" transform="translate(-167.09 137.16) rotate(-44.62)"/><rect class="cls-5" x="175.64" y="221.74" width="105.44" height="0.45" transform="translate(5.65 449.6) rotate(-89.81)"/><rect class="cls-4" x="301.45" y="170.04" width="0.45" height="52.57" transform="translate(-57.3 222.51) rotate(-37.23)"/><rect class="cls-3" x="272.44" y="143.63" width="157.56" height="0.45" transform="translate(70.27 399.03) rotate(-64.52)"/><circle class="cls-3" cx="92.6" cy="174.02" r="4.02"/><circle class="cls-3" cx="367.8" cy="345.66" r="4.02"/><circle class="cls-3" cx="459.16" cy="260.13" r="4.02"/><circle class="cls-4" cx="400.87" cy="384.13" r="4.02"/><circle class="cls-3" cx="192.13" cy="419.11" r="4.02"/><circle class="cls-3" cx="227.44" cy="274.46" r="4.02"/><circle class="cls-3" cx="318.5" cy="292.74" r="3.22"/><circle class="cls-4" cx="54.47" cy="242.13" r="3.22"/><circle class="cls-4" cx="58.82" cy="376.99" r="3.22"/><circle class="cls-4" cx="207.92" cy="128" r="3.22"/><circle class="cls-4" cx="285.78" cy="175.39" r="3.22"/><circle class="cls-4" cx="540.78" cy="117.85" r="3.22"/><circle class="cls-3" cx="258.7" cy="313.05" r="3.22"/><circle class="cls-4" cx="338.64" cy="142.67" r="3.22"/><circle class="cls-3" cx="395.43" cy="445.06" r="3.22"/><circle class="cls-4" cx="506.18" cy="172.55" r="3.22"/><circle class="cls-4" cx="461.8" cy="338.79" r="3.22"/><circle class="cls-4" cx="447.13" cy="473.81" r="3.22"/><circle class="cls-4" cx="376.04" cy="485.68" r="3.22"/><circle class="cls-4" cx="516.17" cy="190.65" r="3.22"/><circle class="cls-4" cx="335.42" cy="432.65" r="3.22"/><circle class="cls-4" cx="409.89" cy="307.41" r="3.22"/><circle class="cls-3" cx="317.58" cy="217.25" r="3.22"/><circle class="cls-3" cx="301.2" cy="120.11" r="4.02"/><polygon class="cls-5" points="506.37 172.67 505.99 172.43 540.59 117.73 540.97 117.97 506.37 172.67"/><rect class="cls-5" x="346.4" y="144.56" width="0.45" height="49.09" transform="translate(-36.15 121.88) rotate(-18.97)"/><rect class="cls-3" x="384.11" y="339.53" width="0.45" height="50.73" transform="translate(-144.98 338.64) rotate(-40.67)"/><rect class="cls-3" x="399.25" y="205.63" width="118.32" height="0.45" transform="translate(-35.29 299.57) rotate(-34.93)"/></g></g></svg>