<?xml version="1.0" encoding="utf-8"?>
<!-- Generator: Adobe Illustrator 25.2.3, SVG Export Plug-In . SVG Version: 6.00 Build 0)  -->
<svg version="1.1" id="Layer_1" xmlns="http://www.w3.org/2000/svg" xmlns:xlink="http://www.w3.org/1999/xlink" x="0px" y="0px"
	 viewBox="0 0 122.9 102.3" style="enable-background:new 0 0 122.9 102.3;" xml:space="preserve">
<style type="text/css">
	.st0{fill-rule:evenodd;clip-rule:evenodd;}
	.st1{fill-rule:evenodd;clip-rule:evenodd;fill:#4850E5;}
	.st2{fill-rule:evenodd;clip-rule:evenodd;fill:#F47942;}
</style>
<path class="st0" d="M81.2,45.5c-0.8-3-4-4.8-7-4c-3,0.8-4.8,4-4,7c0,0,0,0,0,0c0.8,3,4,4.8,7,4C80.3,51.7,82.1,48.6,81.2,45.5z
	 M82.2,20.6l-3.3,3l22.4,27.3c1.2,1.3,1.2,3.4-0.2,4.6l-0.2,0.2L87.2,68.3l2.4,2.5l19.3-17.6L82.2,20.6z M68.5,14.8
	c-3.5-3.6-7-7.1-11-10.5c-0.3-0.4-0.8-0.7-1.2-1c-0.4-0.2-0.9-0.4-1.4-0.5c-3.5-0.9-7-1.7-10.6-2.2C36-0.5,38.3-0.5,31.8,4
	c-2.9,2-5.7,3.7-8.7,5.8c-1.1,0.9-2.4,1.7-3.6,2.4c-0.9,0.4-1.8,0.8-2.7,1c-0.9,0.2-2.4,0.4-2.8,1.3c-0.1,0.4-0.1,0.8,0,1.1
	l4.2,15.6c0.1,0.4,0.3,0.8,0.7,1.1c1.1,1,3,0,4.4,0c1,0,2,0.1,2.9,0.4c1.2,0.3,2.3,0.7,3.4,1.2c2.2,0.9,3.5,1.4,5.6,1.2
	c3.5-0.3,6.7-1.8,9.8-3.3c5.7-2.7,5.6-2.5,11.7-2.9l3.8-0.3c4.4-1,4.8-4.4,1.8-6.9C59.1,19.2,50,17.8,46,18.7
	c-5.9,1.3-7.2-5.1-2.7-5.9c3-0.1,4.6,0.6,7.6,1c2.4,0.9,5.3,1.5,7.4,2.5c5.2,2.3,10.5,6.4,11.7,2.2C70.4,17.4,69.7,16.1,68.5,14.8z
	 M72.6,22.2L72.6,22.2c-1.2,1.2-2.9,1.4-4.9,1c0.1,0.3,0.2,0.7,0.3,1c0.2,0.9,0.2,1.9,0,2.8c-0.2,0.9-0.6,1.8-1.2,2.5
	c-0.1,0.1-0.2,0.2-0.3,0.3l1-0.9l0,0c0.8,0.9,1.9,1.3,3,1.3c1,0,2-0.4,2.8-1.1l16.9,20.4c-1.7,1.5-1.8,4.1-0.3,5.8l-8.1,7.4
	c-1.5-1.7-4.1-1.8-5.8-0.3L59,42.2c1.7-1.5,1.8-4.1,0.3-5.8l6.4-5.9c-1.1,0.9-2.4,1.4-3.8,1.7l-0.5,0.1l-5.4,0.4l-6.3,5.8l29,33.7
	l20.6-18.8L72.6,22.2z M97.7,72.6c-4.2,0.8-8.4,3-12.6,5.7h-7.7c-3.5,0.2-5.3,3.7-1.9,6.1c2.7,2,6.3,1.9,9.9,1.6
	c2.5-0.1,2.6,3.3,0,3.3c-0.9,0.1-1.9-0.1-2.8-0.1c-4.6,0-8.3-0.9-10.6-4.5l-1.2-2.7l-11.5-5.7c-5.7-1.9-9.8,4.1-5.6,8.3
	c8,5.8,16.5,10.8,25.5,15c6.3,3.8,12.7,3.7,19,0l9.3-4.8l0,0v-22H97.7z"/>
<path class="st1" d="M16.1,36.4L7,38.8c-0.5,0.1-1-0.2-1.1-0.7L0,16.2c-0.1-0.5,0.1-1,0.6-1.1c0,0,0,0,0.1,0l9.1-2.4
	c0.5-0.1,1,0.2,1.1,0.7l5.9,22C16.9,35.8,16.6,36.3,16.1,36.4z"/>
<path class="st2" d="M122.9,71.4v24.4c0,0.5-0.5,1-1,1h-10.1c-0.5,0-1-0.5-1-1V71.4c0-0.6,0.5-1,1-1v0h10.1
	C122.4,70.4,122.9,70.8,122.9,71.4z"/>
</svg>
