<?xml version="1.0" encoding="utf-8"?>
<!-- Generator: Adobe Illustrator 25.2.3, SVG Export Plug-In . SVG Version: 6.00 Build 0)  -->
<svg version="1.1" id="Layer_1" xmlns="http://www.w3.org/2000/svg" xmlns:xlink="http://www.w3.org/1999/xlink" x="0px" y="0px"
	 viewBox="0 0 188.1 197.6" style="enable-background:new 0 0 188.1 197.6;" xml:space="preserve">
<style type="text/css">
	.st0{fill:#56B320;}
</style>
<path class="st0" d="M123.7,86.4c0,7.4,0,14.8,0,22.2c0.2,4.5-1.3,8.8-4.3,12.2c-2.2,2.4-5.2,4.1-8.4,4.8c-1.1,0.3-1.6,0.7-1.6,2.1
	c0.1,17.7,0.1,35.4,0,53.1c0,8.3-4.9,14.7-12.6,16.4c-9.1,2.1-18.6-5.4-18.7-15.1c-0.1-18.1-0.1-36.3,0-54.4c0-1.3-0.3-1.9-1.6-2.2
	c-5.2-1.2-9.5-4.8-11.4-9.8c-0.9-2.3-1.3-4.7-1.2-7.1c0-14.1,0.1-28.2,0-42.3c-0.1-8.5,4.9-15.2,11.5-17.6c1.8-0.7,3.7-1,5.7-1.1
	h4.4c1-1.3,2-1.9,2.8-3.2c0.5-0.9,0.8-2,0.8-3C79.9,39,73.5,30.6,73.5,21.1c-0.1-11.5,9-21,20.2-21.1s20.2,9.3,20.3,20.9
	c0.1,9.6-6.3,18.1-15.6,20.5c0,1.3,0.3,2.5,0.8,3.7c0.5,0.9,1.2,1.8,2,2.5h5c8.4,0.1,15.1,5.8,16.9,14.3c0.3,1.6,0.4,3.2,0.3,4.7
	C123.7,73.3,123.7,79.8,123.7,86.4z"/>
<path d="M188.1,94.1c0,6.9,0,13.8,0,20.7c0.2,4.2-1.4,8.3-4.3,11.3c-2.3,2.3-5.2,3.9-8.4,4.5c-1.1,0.3-1.6,0.7-1.6,1.9
	c0.1,16.5,0.1,33,0,49.5c0,7.7-4.9,13.7-12.6,15.3c-9.1,1.9-18.6-5.1-18.7-14c-0.1-16.9-0.1-33.8,0-50.6c0-1.2-0.3-1.7-1.6-2.1
	c-5.1-1-9.3-4.4-11.4-9.1c-0.9-2.1-1.3-4.4-1.2-6.6c0-13.1,0.1-26.3,0-39.4c-0.2-7.4,4.5-14.1,11.5-16.4c1.8-0.6,3.8-1,5.7-1h4.4
	c1-1.2,2-1.8,2.8-3c0.5-0.8,0.8-1.8,0.8-2.8c-8.9-2-15.4-9.8-15.6-19c-0.1-10.8,9-19.6,20.2-19.7s20.3,8.7,20.4,19.5
	c0.1,9.2-6.6,17-15.6,19.1c0,1.2,0.3,2.4,0.8,3.4c0.5,0.9,1.2,1.7,2,2.3h5c8.4,0.1,15.1,5.4,16.9,13.3c0.3,1.5,0.4,3,0.3,4.5
	C188.1,81.9,188.1,87.9,188.1,94.1z"/>
<path d="M59.8,96.3c0,6.7,0,13.5,0,20.2c0.2,4.1-1.4,8.1-4.3,11.1c-2.3,2.3-5.2,3.8-8.4,4.4c-1.2,0.3-1.6,0.6-1.6,1.9
	c0.1,16.1,0.1,32.3,0,48.4c0,7.5-4.9,13.4-12.6,15c-9.1,1.9-18.6-4.9-18.7-13.7c-0.1-16.5-0.1-33,0-49.5c0-1.2-0.3-1.7-1.6-2
	c-5-0.9-9.3-4.3-11.4-8.9c-0.9-2-1.3-4.3-1.2-6.5C0,103.8,0,90.9,0,78c-0.1-7.3,4.6-13.8,11.5-16c1.8-0.6,3.8-1,5.7-1h4.4
	c1.2-0.7,2.1-1.7,2.7-3v-2.7C14,55.4,8,50.5,8,50.5c5.5-4.3-2.1-34.1,16.5-34.1c0,0,2.5-2.7,5.8-2.7C53,13.6,45.5,46,51.4,50.6
	c0,0-5.4,4.8-15.9,4.8V58c0.6,1.3,1.5,2.3,2.7,3c1.5,0,2.9,0,4.4,0c8.4,0.1,15.1,5.3,16.9,13c0.3,1.4,0.4,2.9,0.3,4.3
	C59.8,84.4,59.8,90.3,59.8,96.3z"/>
</svg>
