<?xml version="1.0" encoding="utf-8"?>
<!-- Generator: Adobe Illustrator 25.2.3, SVG Export Plug-In . SVG Version: 6.00 Build 0)  -->
<svg version="1.1" id="Layer_1" xmlns="http://www.w3.org/2000/svg" xmlns:xlink="http://www.w3.org/1999/xlink" x="0px" y="0px"
	 viewBox="0 0 122.9 117.6" style="enable-background:new 0 0 122.9 117.6;" xml:space="preserve">
<style type="text/css">
	.st0{fill-rule:evenodd;clip-rule:evenodd;}
	.st1{fill-rule:evenodd;clip-rule:evenodd;fill:#CB2026;}
</style>
<g>
	<path class="st0" d="M122.9,103.6c0-19.4,0-38.8,0-58.2c0.1-10.2-5.1-17.1-10.6-24.4c-0.6-0.8-1.2-1.5-1.7-2.3h4
		c1.7,0,3.3-0.7,4.4-1.9c1.1-1.1,1.8-2.7,1.8-4.4V7c0-1.7-0.7-3.3-1.8-4.4c-1.2-1.1-2.7-1.8-4.4-1.8H73.1c-1.7,0-3.3,0.7-4.4,1.8
		c-1.1,1.1-1.8,2.7-1.8,4.4v5.2c0,1.7,0.7,3.3,1.8,4.4c1.2,1.1,2.7,1.8,4.4,1.8h3.3c-0.6,0.9-1.3,1.7-1.9,2.6
		c-6.3,8.5-11,15.2-10.3,26.3v57.8c0,0.1,0,0.1,0,0.2c0.1,2.9,1,5.2,2.6,6.9c1.7,1.6,4.2,2.5,7.6,2.4v0h36.4
		c4.5,0.5,7.5-0.4,9.5-2.4c1.8-1.8,2.5-4.4,2.5-7.6C122.9,104.3,122.9,103.9,122.9,103.6z M116.5,102.7c0,2.2-0.5,3.9-1.6,5
		c-1.2,1-2.9,1.5-4.9,1.6l-34.2-0.1c-2.1,0-3.5-0.6-4.5-1.5c-0.8-0.8-1.3-2-1.5-3.5c-0.3-1.7-0.1-1.9-0.1-3.7h46.8
		C116.5,101.8,116.5,101.4,116.5,102.7z M106,71.3c1,0,1.8,0.8,1.8,1.8v5.4c0,1-0.8,1.8-1.8,1.8h-8v8c0,1-0.8,1.8-1.8,1.8h-5.4
		c-1,0-1.8-0.8-1.8-1.8v-8h-8c-1,0-1.8-0.8-1.8-1.8v-5.4c0-1,0.8-1.8,1.8-1.8h8v-8c0-1,0.8-1.8,1.8-1.8h5.4c1,0,1.8,0.8,1.8,1.8v8
		H106z M70.1,51.1c0-2.6-0.2-6.3,0.1-8.8c0.9-7.6,4.9-13.1,9.6-19.3c1-1.3,2-2.8,3.1-4.3H104c0.9,1.3,2,2.7,3,4
		c4.6,6.1,9,12,9.8,19.6c0.1,0.8,0.1,8.7,0.1,8.7H70.1z M49.2,35.8c-3.2,0-6.3-0.1-9.5-0.1v-17c2.3-0.2,4.4-1.2,6-2.7
		c1.7-1.7,2.8-4,2.8-6.6c0-1.3-0.3-2.5-0.7-3.7c-0.5-1.1-1.2-2.1-2-3C43.9,1,41.6,0,39,0H13.1c-2.6,0-4.9,1.1-6.6,2.8l0,0
		c-1.7,1.7-2.7,4-2.7,6.6c0,1.3,0.3,2.5,0.7,3.6c0.5,1.1,1.2,2.1,2,3c1.5,1.5,3.4,2.4,5.5,2.7l0,17c-3.3,0-6.5,0.1-9.8,0.1
		C1,35.8,0,36.8,0,38c0,1.2,1,2.2,2.2,2.2h5v47.2c0,1.8,0.4,3.4,1,5c0.7,1.5,1.6,2.9,2.7,4c2.3,2.3,5.5,3.7,9,3.7h3l0,15.2
		c0,1.2,1.5,2.2,2.7,2.2s2.7-1,2.7-2.2v-15.2h2.3c3.8,0,7.4-1.6,9.9-4.1c2.5-2.5,4.1-6,4.1-9.9V40.3h4.5c1.2,0,2.2-1,2.2-2.2
		C51.4,36.8,50.4,35.8,49.2,35.8z M10,12.5c-0.8-0.8-1.3-1.9-1.3-3.1c0-1.2,0.5-2.3,1.3-3.1v0C10.8,5.5,11.9,5,13.1,5H39
		c1.2,0,2.3,0.5,3.1,1.3s1.3,1.9,1.3,3.1s-0.5,2.3-1.3,3.1c-0.8,0.8-1.9,1.3-3.1,1.3H13.1C11.9,13.7,10.8,13.2,10,12.5z M34.6,18.9
		V35H17V18.9H34.6z M26,53.4h14.8v6.1H26c-1.2,0-2.2,1-2.2,2.2c0,1.2,1,2.2,2.2,2.2h14.8v6.1H25.9c-1.2,0-2.2,1-2.2,2.2
		c0,1.2,1,2.2,2.2,2.2h14.8v6.1H25.9c-1.2,0-2.2,1-2.2,2.2c0,1.2,1,2.2,2.2,2.2h14.8v1c0,1.4-0.3,2.7-0.8,3.9
		c-0.5,1.2-1.3,2.3-2.2,3.2c-1.8,1.8-4.4,3-7.1,3H20c-2.4,0-4.6-0.9-6.2-2.6c-1.6-1.6-2.6-3.8-2.6-6.2V40.2h29.6l0,8.7H26
		c-1.2,0-2.2,1-2.2,2.2C23.7,52.4,24.7,53.4,26,53.4z"/>
</g>
<path class="st1" d="M70.1,51.1v49.5h46.4V51.1H70.1z M107.8,78.5c0,1-0.8,1.8-1.8,1.8h-8v8c0,1-0.8,1.8-1.8,1.8h-5.4
	c-1,0-1.8-0.8-1.8-1.8v-8h-8c-1,0-1.8-0.8-1.8-1.8v-5.4c0-1,0.8-1.8,1.8-1.8h8v-8c0-1,0.8-1.8,1.8-1.8h5.4c1,0,1.8,0.8,1.8,1.8v8h8
	c1,0,1.8,0.8,1.8,1.8V78.5z"/>
</svg>
