<?xml version="1.0" encoding="utf-8"?>
<!-- Generator: Adobe Illustrator 25.2.3, SVG Export Plug-In . SVG Version: 6.00 Build 0)  -->
<svg version="1.1" id="Layer_1" xmlns="http://www.w3.org/2000/svg" xmlns:xlink="http://www.w3.org/1999/xlink" x="0px" y="0px"
	 viewBox="0 0 122.9 121.5" style="enable-background:new 0 0 122.9 121.5;" xml:space="preserve">
<style type="text/css">
	.st0{fill-rule:evenodd;clip-rule:evenodd;}
	.st1{fill-rule:evenodd;clip-rule:evenodd;fill:#CB2026;}
</style>
<path class="st0" d="M100.3,0.9c-0.9-1-2.6-1.1-3.6-0.2L78.8,18.6c-1.2-1-2.4-1.8-3.7-2.5c-5.3-2.8-11.4-2.9-16,1.7L23.8,53.1
	l-2.9-2.9c-0.8-0.8-2.2-0.8-3.1,0c-0.9,0.9-0.8,2.2,0,3.1l7.8,7.8L15.3,71.5l-0.9-0.9c-3.2-3.2-8.5-3.3-11.8-0.1l-0.1,0.2
	c-3.3,3.3-3.3,8.6,0,11.9L19,99c3.1,2.7,7.7,2.7,10.8,0.1c3.6-3,4.1-8.3,1.2-11.9l-1.3-1.3L40,75.6l7.7,7.6c0.9,0.8,2.2,0.9,3.1,0
	c0.9-0.9,0.9-2.2,0-3.1l-2.6-2.6L82.7,43c5-4.9,4.9-11.4,2.1-17l-0.1-0.2c-0.7-1.3-1.4-2.5-2.3-3.6l17.9-17.9
	C101.1,3.4,101.1,1.9,100.3,0.9z M79.6,40l-5.5,5.5L65,36.3c-0.8-0.8-2.1-0.8-2.8,0c-0.8,0.8-0.8,2.1,0,2.8l9.1,9.1l-3.9,3.9
	l-9.1-9.1c-0.8-0.8-2.1-0.8-2.9,0c-0.8,0.8-0.8,2.1,0,2.9l9.1,9.1l-3.9,3.9l-9.1-9.1c-0.8-0.8-2.1-0.8-2.8,0c-0.8,0.8-0.8,2.1,0,2.8
	l9.2,9.1L54,65.7l-9.2-9.1c-0.8-0.8-2.1-0.8-2.8,0c-0.8,0.8-0.8,2.1,0,2.8l9.1,9.1l-5.9,5.9L26.9,56.2l35.3-35.2
	c3-3,7.2-2.9,10.9-0.9c1.6,0.9,3.1,2,4.4,3.3c1.3,1.3,2.4,2.9,3.3,4.5l0.1,0.1C82.9,32,83,36.6,79.6,40z M111,104.7H96.2
	c-0.8,0-2.1,0.7-2.1,1.5s1.3,1.5,2.1,1.5l14.8,0c0.8,0,1.5-0.7,1.5-1.5S111.8,104.7,111,104.7z M111,98H96.2c-0.8,0-2.1,0.7-2.1,1.5
	s1.3,1.5,2.1,1.5l14.8,0c0.8,0,1.5-0.7,1.5-1.5C112.5,98.7,111.8,98,111,98z M111,104.7H96.2c-0.8,0-2.1,0.7-2.1,1.5
	s1.3,1.5,2.1,1.5l14.8,0c0.8,0,1.5-0.7,1.5-1.5S111.8,104.7,111,104.7z M111,98H96.2c-0.8,0-2.1,0.7-2.1,1.5s1.3,1.5,2.1,1.5l14.8,0
	c0.8,0,1.5-0.7,1.5-1.5C112.5,98.7,111.8,98,111,98z M111,104.7H96.2c-0.8,0-2.1,0.7-2.1,1.5s1.3,1.5,2.1,1.5l14.8,0
	c0.8,0,1.5-0.7,1.5-1.5S111.8,104.7,111,104.7z M111,98H96.2c-0.8,0-2.1,0.7-2.1,1.5s1.3,1.5,2.1,1.5l14.8,0c0.8,0,1.5-0.7,1.5-1.5
	C112.5,98.7,111.8,98,111,98z M111,98H96.2c-0.8,0-2.1,0.7-2.1,1.5s1.3,1.5,2.1,1.5l14.8,0c0.8,0,1.5-0.7,1.5-1.5
	C112.5,98.7,111.8,98,111,98z M111,104.7H96.2c-0.8,0-2.1,0.7-2.1,1.5s1.3,1.5,2.1,1.5l14.8,0c0.8,0,1.5-0.7,1.5-1.5
	S111.8,104.7,111,104.7z M111,104.7H96.2c-0.8,0-2.1,0.7-2.1,1.5s1.3,1.5,2.1,1.5l14.8,0c0.8,0,1.5-0.7,1.5-1.5
	S111.8,104.7,111,104.7z M111,98H96.2c-0.8,0-2.1,0.7-2.1,1.5s1.3,1.5,2.1,1.5l14.8,0c0.8,0,1.5-0.7,1.5-1.5
	C112.5,98.7,111.8,98,111,98z M111,98H96.2c-0.8,0-2.1,0.7-2.1,1.5s1.3,1.5,2.1,1.5l14.8,0c0.8,0,1.5-0.7,1.5-1.5
	C112.5,98.7,111.8,98,111,98z M111,104.7H96.2c-0.8,0-2.1,0.7-2.1,1.5s1.3,1.5,2.1,1.5l14.8,0c0.8,0,1.5-0.7,1.5-1.5
	S111.8,104.7,111,104.7z M111,104.7H96.2c-0.8,0-2.1,0.7-2.1,1.5s1.3,1.5,2.1,1.5l14.8,0c0.8,0,1.5-0.7,1.5-1.5
	S111.8,104.7,111,104.7z M111,98H96.2c-0.8,0-2.1,0.7-2.1,1.5s1.3,1.5,2.1,1.5l14.8,0c0.8,0,1.5-0.7,1.5-1.5
	C112.5,98.7,111.8,98,111,98z M96.2,101l14.8,0c0.8,0,1.5-0.7,1.5-1.5c0-0.8-0.7-1.5-1.5-1.5H96.2c-0.8,0-2.1,0.7-2.1,1.5
	S95.4,101,96.2,101z M111,104.7H96.2c-0.8,0-2.1,0.7-2.1,1.5s1.3,1.5,2.1,1.5l14.8,0c0.8,0,1.5-0.7,1.5-1.5S111.8,104.7,111,104.7z
	 M122.8,113.2V75.4c0.1-7.6-4.9-11-9-16.6h2.1c2.5,0,4.6-2.1,4.6-4.6v-3.2c0-2.5-2.1-4.6-4.6-4.6H91.8c-2.5,0-4.6,2.1-4.6,4.6v3.2
	c0,2.5,2.1,4.6,4.6,4.6h1.6c-4.6,6.3-9.5,9.6-9,18.2v37.7c0,0.5,0,1,0.1,1.5c0.6,3.5,3.9,5.9,7.4,5.3H114c3.3,0.4,5.6-0.3,7-1.8
	c1.3-1.3,1.9-3.2,1.9-5.6C122.8,113.8,122.8,113.5,122.8,113.2z M118.8,111c0,0.9,0,0.7,0,1.6c0.1,1.3-0.3,2.6-1.2,3.7
	c-1,0.8-2.3,1.2-3.6,1.2l-21.8-0.1c-1.2,0.1-2.3-0.3-3.2-1.1c-0.7-0.7-1.1-1.6-1.1-2.5l-0.1-2.7l0.3-31.5h0
	c-0.1-1.6-0.1-3.3,0.1-4.9c0.7-6.1,6.4-10.8,9.9-15.8h11c3.4,4.8,9.8,9.9,10,15.8l0.1,4.9L118.8,111z M111,98H96.2
	c-0.8,0-2.1,0.7-2.1,1.5s1.3,1.5,2.1,1.5l14.8,0c0.8,0,1.5-0.7,1.5-1.5C112.5,98.7,111.8,98,111,98z M111,104.7H96.2
	c-0.8,0-2.1,0.7-2.1,1.5s1.3,1.5,2.1,1.5l14.8,0c0.8,0,1.5-0.7,1.5-1.5S111.8,104.7,111,104.7z M111,104.7H96.2
	c-0.8,0-2.1,0.7-2.1,1.5s1.3,1.5,2.1,1.5l14.8,0c0.8,0,1.5-0.7,1.5-1.5S111.8,104.7,111,104.7z M111,98H96.2c-0.8,0-2.1,0.7-2.1,1.5
	s1.3,1.5,2.1,1.5l14.8,0c0.8,0,1.5-0.7,1.5-1.5C112.5,98.7,111.8,98,111,98z M111,98H96.2c-0.8,0-2.1,0.7-2.1,1.5s1.3,1.5,2.1,1.5
	l14.8,0c0.8,0,1.5-0.7,1.5-1.5C112.5,98.7,111.8,98,111,98z M111,104.7H96.2c-0.8,0-2.1,0.7-2.1,1.5s1.3,1.5,2.1,1.5l14.8,0
	c0.8,0,1.5-0.7,1.5-1.5S111.8,104.7,111,104.7z M111,104.7H96.2c-0.8,0-2.1,0.7-2.1,1.5s1.3,1.5,2.1,1.5l14.8,0
	c0.8,0,1.5-0.7,1.5-1.5S111.8,104.7,111,104.7z M111,98H96.2c-0.8,0-2.1,0.7-2.1,1.5s1.3,1.5,2.1,1.5l14.8,0c0.8,0,1.5-0.7,1.5-1.5
	C112.5,98.7,111.8,98,111,98z M111,98H96.2c-0.8,0-2.1,0.7-2.1,1.5s1.3,1.5,2.1,1.5l14.8,0c0.8,0,1.5-0.7,1.5-1.5
	C112.5,98.7,111.8,98,111,98z M111,104.7H96.2c-0.8,0-2.1,0.7-2.1,1.5s1.3,1.5,2.1,1.5l14.8,0c0.8,0,1.5-0.7,1.5-1.5
	S111.8,104.7,111,104.7z M102.9,5.6L102.9,5.6c-1.4,1.4-8.4,15.8-8.4,17.3c0,3.9,1.7,7.9,6.8,7.9c5.1,0,6.8-4,6.8-7.9
	S103,15,102.9,5.6z"/>
<path class="st1" d="M112.7,82.5v3.4c0,0.6-0.5,1.2-1.2,1.2h-5.1v5.1c0,0.6-0.5,1.2-1.2,1.2h-3.4c-0.6,0-1.2-0.5-1.2-1.2v-5.1H95
	c-0.6,0-1.2-0.5-1.2-1.2v-3.4c0-0.6,0.5-1.2,1.2-1.2h5.7v-5.1c0-0.6,0.5-1.2,1.2-1.2h3.5c0.6,0,1.2,0.5,1.2,1.2v5.1h5.1
	C112.2,81.4,112.7,81.9,112.7,82.5z"/>
</svg>
