<svg id="Layer_1" data-name="Layer 1" xmlns="http://www.w3.org/2000/svg" viewBox="0 0 406.5 360.81"><defs><style>.cls-1{fill:#e1e6ed;}.cls-2,.cls-4,.cls-5{fill:none;}.cls-2,.cls-4,.cls-7{stroke:#010101;}.cls-2,.cls-4,.cls-5,.cls-7{stroke-linecap:round;stroke-width:2px;}.cls-2{stroke-miterlimit:10;}.cls-3{fill:#f05555;}.cls-4,.cls-5,.cls-7{stroke-linejoin:round;}.cls-5{stroke:#fff;}.cls-6{fill:#44aee3;}.cls-7{fill:#f1657c;}</style></defs><circle class="cls-1" cx="121.15" cy="267.69" r="82.76"/><circle class="cls-1" cx="250.82" cy="73.65" r="32.19"/><path class="cls-2" d="M195.27,132.11a8.34,8.34,0,0,0-11.8,0l-10,15.55a60.24,60.24,0,0,0-11.65-7.85l4.1-4.32a8.18,8.18,0,0,0-.41-11.38,8.45,8.45,0,0,0-2.42-1.51h0a8.44,8.44,0,0,0-2.79-.61,8.19,8.19,0,0,0-8.23,7.88l-.07,5.9a59.41,59.41,0,0,0-13.22-2.46l3.93-18.09a8.32,8.32,0,0,0-16.64,0L130,133.31a59.46,59.46,0,0,0-12.87,2.36v-5.8S113.4,121.81,109,122a8.33,8.33,0,0,0-2.78.61h0a8.37,8.37,0,0,0-2.43,1.51,8.19,8.19,0,0,0-.41,11.38l4,4.2a60.27,60.27,0,0,0-11.89,8l-10-15.55A8.34,8.34,0,1,0,73.7,143.9l15.53,10a60.29,60.29,0,0,0-7.46,10.75l-4-3.9a8,8,0,0,0-12.93,2.66,8.1,8.1,0,0,0-.65,2.78A8.2,8.2,0,0,0,72,174.53l5.52.14a59.84,59.84,0,0,0-2.75,13.92L56.8,184.7a8.34,8.34,0,1,0,0,16.68l17.9-3.89a60.11,60.11,0,0,0,2.59,13.77L72,211.4a8,8,0,0,0-7.11,11.12,8.29,8.29,0,0,0,1.54,2.4,8.2,8.2,0,0,0,11.39.25l3.79-3.71A60.54,60.54,0,0,0,89,232.33l-15.3,9.85A8.34,8.34,0,0,0,85.49,254l9.84-15.29a60.41,60.41,0,0,0,11.7,7.94l-3.63,3.81a8.2,8.2,0,0,0,.41,11.39,8.34,8.34,0,0,0,2.43,1.5,8.09,8.09,0,0,0,2.78.61c4.38.18,9.93-7.87,9.93-7.87l.06-5.27a59.52,59.52,0,0,0,12.81,2.36L128,270.87a8.35,8.35,0,0,0,8.34,8.34M96.9,201.91a5.23,5.23,0,1,1,4.1-4.1A5.23,5.23,0,0,1,96.9,201.91Zm12.79-28.68a5.49,5.49,0,1,1,4.31-4.31A5.5,5.5,0,0,1,109.69,173.23Zm35.49-3.68a8.1,8.1,0,1,1,6.71-6.71A8.09,8.09,0,0,1,145.18,169.55Z" transform="translate(-47.46 -69.49)"/><path class="cls-2" d="M358.72,389.22a5.42,5.42,0,0,0,5.53-5.33l-2.35-11.83a38.54,38.54,0,0,0,9-1.59l0,3.88a5.19,5.19,0,0,0,7.17,4.76h0a5.45,5.45,0,0,0,1.58-1,5.32,5.32,0,0,0,.29-7.41l-2.65-2.81a39.31,39.31,0,0,0,7.32-4.84L391,373.34a5.43,5.43,0,0,0,7.82-7.54l-10.05-6.72a39,39,0,0,0,5-6.95l2.68,2.7a5.17,5.17,0,0,0,8.45-1.58h0a5.24,5.24,0,0,0,.45-1.8,5.33,5.33,0,0,0-5-5.52l-3.77-.16a38.87,38.87,0,0,0,2-9.13l11.73,2.77a5.44,5.44,0,0,0,.2-10.87l-11.81,2.34a39.67,39.67,0,0,0-1.37-8.42l3.63,0a5.18,5.18,0,0,0,4.86-7.1,5.47,5.47,0,0,0-.95-1.6,5.34,5.34,0,0,0-7.41-.39l-2.65,2.43a39.45,39.45,0,0,0-5-7.77l10.17-6.3a5.43,5.43,0,1,0-7.55-7.82l-6.63,9.93a39.49,39.49,0,0,0-7.45-5.29l2.44-2.47a5.19,5.19,0,0,0-1.7-8.43,5.56,5.56,0,0,0-1.81-.43,5.33,5.33,0,0,0-5.45,5l-.1,3.45a39.19,39.19,0,0,0-8.4-1.73L366,282.47a5.43,5.43,0,0,0-10.86-.2l2.3,11.62a40,40,0,0,0-4.08.44m15.87,19.79a4.6,4.6,0,1,1-.09,5.11A4.61,4.61,0,0,1,369.26,314.12Zm12.43,18.43a3.58,3.58,0,1,1-.07,4A3.58,3.58,0,0,1,381.69,332.55ZM364.9,348.36a5.27,5.27,0,1,1-.11,6.18A5.27,5.27,0,0,1,364.9,348.36Z" transform="translate(-47.46 -69.49)"/><path class="cls-3" d="M341.55,410.75H289.36a12.24,12.24,0,0,1-12.24-12.24V355.57a5.54,5.54,0,0,1,5.52-5.52h60.69a3.68,3.68,0,0,1,3.68,3.68v51.55A5.47,5.47,0,0,1,341.55,410.75Z" transform="translate(-47.46 -69.49)"/><path class="cls-4" d="M306.55,294.88h-4.27c-4.91,0-8.89-3.71-8.89-8.28h0c0-4.57,4-8.28,8.89-8.28h31.13c4.92,0,8.9,3.71,8.9,8.28h0c0,4.57-4,8.28-8.9,8.28H317.59" transform="translate(-47.46 -69.49)"/><path class="cls-4" d="M282.64,379.48v17a12.45,12.45,0,0,0,12.41,12.41h46.64a10.84,10.84,0,0,0,10.84-10.85V339.58a19.06,19.06,0,0,0-6.9-14.68l-11.8-9.76a4.21,4.21,0,0,1-1.53-3.25v-17" transform="translate(-47.46 -69.49)"/><line class="cls-4" x1="235.18" y1="284.24" x2="235.18" y2="298.95"/><path class="cls-4" d="M302.87,294.88v14.93a8.84,8.84,0,0,1-2.83,6l-10.41,8.62A21,21,0,0,0,282,340.62" transform="translate(-47.46 -69.49)"/><line class="cls-4" x1="279.32" y1="251.13" x2="260.93" y2="251.13"/><path class="cls-4" d="M305,286.65" transform="translate(-47.46 -69.49)"/><path class="cls-4" d="M309.17,286.65" transform="translate(-47.46 -69.49)"/><path class="cls-4" d="M315.43,286.76" transform="translate(-47.46 -69.49)"/><path class="cls-4" d="M323.94,286.76" transform="translate(-47.46 -69.49)"/><line class="cls-4" x1="275.64" y1="269.52" x2="264.61" y2="269.52"/><line class="cls-5" x1="279.32" y1="287.92" x2="260.93" y2="287.92"/><line class="cls-5" x1="275.64" y1="306.31" x2="264.61" y2="306.31"/><line class="cls-5" x1="279.32" y1="324.7" x2="260.93" y2="324.7"/><path class="cls-4" d="M174.92,353.16c16.42,20.8,39.09,40.06,70.2,55.28" transform="translate(-47.46 -69.49)"/><path class="cls-4" d="M245.86,145.9H185.38s-.74,40.9-47.82,38.62c0,0-13.58,54.24,7.36,114" transform="translate(-47.46 -69.49)"/><path class="cls-4" d="M312.79,165.69a42.82,42.82,0,0,1-6-19.79H245.86" transform="translate(-47.46 -69.49)"/><path class="cls-4" d="M341.45,309c10.76-26.31,14.61-52.4,15.43-73.89" transform="translate(-47.46 -69.49)"/><path class="cls-4" d="M245.59,408.44a224.1,224.1,0,0,0,28.23-16.37" transform="translate(-47.46 -69.49)"/><path class="cls-4" d="M146.76,223.15c.63-18,3.68-29.43,3.68-29.43,41.57,2,40.46-34.95,40.46-34.95H244" transform="translate(-47.46 -69.49)"/><path class="cls-4" d="M156.2,293.17a199.74,199.74,0,0,1-9-48.72" transform="translate(-47.46 -69.49)"/><path class="cls-4" d="M245.15,393.77c-27.51-13.61-47.53-30.82-62-49.42" transform="translate(-47.46 -69.49)"/><path class="cls-4" d="M243.57,159.9" transform="translate(-47.46 -69.49)"/><path class="cls-4" d="M247.91,158.06" transform="translate(-47.46 -69.49)"/><path class="cls-6" d="M176.29,253h16.19a6.81,6.81,0,0,1,6.81,6.81V369.32a0,0,0,0,1,0,0h-29.8a0,0,0,0,1,0,0V259.8a6.81,6.81,0,0,1,6.81-6.81Z" transform="translate(47.28 592.07) rotate(-135)"/><path class="cls-4" d="M139.13,345.41h0a18,18,0,0,0,25.42,0l69.55-69.55-24.81-25.13L139.4,320.62C132.38,327.65,132.11,338.39,139.13,345.41Z" transform="translate(-47.46 -69.49)"/><polygon class="cls-4" points="172.87 177.56 189.42 195.96 211.49 173.89 194.94 157.33 172.87 177.56"/><rect class="cls-4" x="185.09" y="253.75" width="79.32" height="10.58" rx="2.42" transform="translate(153.05 531.63) rotate(-135)"/><path class="cls-4" d="M272.4,242.38,282,252c1.63,1.63,2.5,4.49.87,6.12l-3.68,1.84a3.73,3.73,0,0,1-5.52,0L224,208.43c-1.63-1.63-1.29-3.44.34-5.07l1.57-1.57a4.18,4.18,0,0,1,5.91,0l19.85,19.86" transform="translate(-47.46 -69.49)"/><line class="cls-4" x1="208.66" y1="156.6" x2="219.02" y2="166.96"/><path class="cls-4" d="M139.13,345.41h0a17.88,17.88,0,0,1-4.79-8.67l-2.88,2.88a9.52,9.52,0,1,0,13.46,13.46l2.88-2.88A17.87,17.87,0,0,1,139.13,345.41Z" transform="translate(-47.46 -69.49)"/><line class="cls-4" x1="84" y1="283.58" x2="58.77" y2="308.82"/><line class="cls-7" x1="122.33" y1="270.68" x2="113.36" y2="261.71"/><line class="cls-7" x1="134.29" y1="258.72" x2="125.32" y2="249.74"/><line class="cls-7" x1="146.26" y1="246.75" x2="137.29" y2="237.78"/><line class="cls-7" x1="158.22" y1="234.79" x2="149.25" y2="225.81"/><line class="cls-7" x1="170.19" y1="222.82" x2="161.21" y2="213.85"/><path class="cls-6" d="M116.29,415.76a14.55,14.55,0,1,1-29.09,0c0-8,14.71-24.46,14.55-24.46S116.29,407.73,116.29,415.76Z" transform="translate(-47.46 -69.49)"/><path class="cls-4" d="M121.81,413.92a14.55,14.55,0,1,1-29.09,0c0-8,14.71-24.45,14.55-24.45S121.81,405.89,121.81,413.92Z" transform="translate(-47.46 -69.49)"/><path class="cls-3" d="M358.05,226.83H328.62A12.91,12.91,0,0,1,315.75,214V182.68a11,11,0,0,1,11-11h33.11a11,11,0,0,1,11,11V214A12.91,12.91,0,0,1,358.05,226.83Z" transform="translate(-47.46 -69.49)"/><rect class="cls-4" x="273.81" y="96.64" width="55.18" height="55.18" rx="6"/><line class="cls-5" x1="301.39" y1="111.35" x2="301.39" y2="137.1"/><line class="cls-5" x1="314.27" y1="124.23" x2="288.52" y2="124.23"/><line class="cls-2" x1="325.46" y1="33.09" x2="329.57" y2="28.98"/><line class="cls-2" x1="345.58" y1="33.09" x2="349.69" y2="28.98"/><line class="cls-2" x1="365.69" y1="33.09" x2="369.8" y2="28.98"/><line class="cls-2" x1="325.46" y1="53.21" x2="329.57" y2="49.1"/><line class="cls-2" x1="345.58" y1="53.21" x2="349.69" y2="49.1"/><line class="cls-2" x1="365.69" y1="53.21" x2="369.8" y2="49.1"/><line class="cls-2" x1="325.46" y1="74.47" x2="329.57" y2="70.36"/><line class="cls-2" x1="345.58" y1="74.47" x2="349.69" y2="70.36"/><line class="cls-2" x1="365.69" y1="74.47" x2="369.8" y2="70.36"/><rect class="cls-6" x="402.81" y="217.96" width="36.28" height="36.28" rx="5.3" transform="translate(242.78 -298) rotate(45)"/><rect class="cls-2" x="411.36" y="216.61" width="36.28" height="36.28" rx="5.3" transform="translate(244.33 -304.44) rotate(45)"/><line class="cls-2" x1="214.95" y1="10.2" x2="214.95" y2="1"/><path class="cls-2" d="M262.47,85.74" transform="translate(-47.46 -69.49)"/><path class="cls-2" d="M262.47,90.59" transform="translate(-47.46 -69.49)"/><line class="cls-2" x1="198.4" y1="19.39" x2="209.43" y2="19.39"/><line class="cls-2" x1="220.47" y1="19.39" x2="231.5" y2="19.39"/><line class="cls-2" x1="214.95" y1="35.94" x2="214.95" y2="24.91"/></svg>